<svg width="70" height="70" viewBox="0 0 70 70" fill="none" xmlns="http://www.w3.org/2000/svg">
<path d="M41.0156 19.9609V14.1902C41.0141 13.9788 40.9312 13.7761 40.7842 13.6241C40.6371 13.4722 40.4372 13.3827 40.2259 13.3743C37.061 13.1906 34.037 12.0029 31.593 9.98368C31.4961 9.89621 31.3796 9.83339 31.2533 9.80055C31.127 9.7677 30.9947 9.76579 30.8675 9.79498C30.7403 9.82418 30.622 9.88362 30.5227 9.96825C30.4233 10.0529 30.3459 10.1602 30.2969 10.2812C29.9695 11.0873 29.4371 11.794 28.7527 12.3311C28.0682 12.8683 27.2552 13.2173 26.3944 13.3437C26.2019 13.3723 26.0262 13.4694 25.8995 13.617C25.7727 13.7646 25.7034 13.953 25.7042 14.1476V19.9554C25.7042 21.986 26.5109 23.9334 27.9467 25.3692C29.3825 26.805 31.3299 27.6116 33.3605 27.6116C35.391 27.6116 37.3384 26.805 38.7743 25.3692C40.2101 23.9334 41.0167 21.986 41.0167 19.9554L41.0156 19.9609ZM30.0781 17.4999H28.9844C28.7668 17.4999 28.5582 17.4135 28.4043 17.2597C28.2505 17.1058 28.1641 16.8972 28.1641 16.6796C28.1641 16.4621 28.2505 16.2534 28.4043 16.0996C28.5582 15.9457 28.7668 15.8593 28.9844 15.8593H30.0781C30.2957 15.8593 30.5043 15.9457 30.6582 16.0996C30.812 16.2534 30.8984 16.4621 30.8984 16.6796C30.8984 16.8972 30.812 17.1058 30.6582 17.2597C30.5043 17.4135 30.2957 17.4999 30.0781 17.4999ZM35.5228 23.7124C34.9487 24.2855 34.1706 24.6073 33.3594 24.6073C32.5482 24.6073 31.7701 24.2855 31.1959 23.7124C31.1176 23.6367 31.0552 23.5462 31.0122 23.4461C30.9693 23.346 30.9467 23.2383 30.9458 23.1294C30.9449 23.0205 30.9657 22.9125 31.007 22.8117C31.0483 22.7109 31.1093 22.6193 31.1863 22.5423C31.2634 22.4654 31.355 22.4045 31.4558 22.3633C31.5567 22.3221 31.6647 22.3014 31.7736 22.3024C31.8825 22.3034 31.9902 22.3261 32.0902 22.3691C32.1903 22.4121 32.2808 22.4747 32.3564 22.5531C32.6264 22.8115 32.9857 22.9558 33.3594 22.9558C33.7331 22.9558 34.0924 22.8115 34.3623 22.5531C34.438 22.4747 34.5285 22.4121 34.6285 22.3691C34.7286 22.3261 34.8362 22.3034 34.9451 22.3024C35.0541 22.3014 35.1621 22.3221 35.2629 22.3633C35.3638 22.4045 35.4554 22.4654 35.5324 22.5423C35.6095 22.6193 35.6704 22.7109 35.7117 22.8117C35.753 22.9125 35.7738 23.0205 35.7729 23.1294C35.772 23.2383 35.7495 23.346 35.7065 23.4461C35.6636 23.5462 35.6011 23.6367 35.5228 23.7124ZM37.7344 17.4999H36.6406C36.4231 17.4999 36.2144 17.4135 36.0606 17.2597C35.9067 17.1058 35.8203 16.8972 35.8203 16.6796C35.8203 16.4621 35.9067 16.2534 36.0606 16.0996C36.2144 15.9457 36.4231 15.8593 36.6406 15.8593H37.7344C37.9519 15.8593 38.1606 15.9457 38.3144 16.0996C38.4683 16.2534 38.5547 16.4621 38.5547 16.6796C38.5547 16.8972 38.4683 17.1058 38.3144 17.2597C38.1606 17.4135 37.9519 17.4999 37.7344 17.4999ZM40.7422 49.5588C40.5247 49.5591 40.3162 49.6456 40.1625 49.7994C40.0087 49.9532 39.9222 50.1617 39.9219 50.3792V53.6604C39.9219 53.878 40.0083 54.0866 40.1621 54.2404C40.316 54.3943 40.5246 54.4807 40.7422 54.4807C40.9597 54.4807 41.1684 54.3943 41.3222 54.2404C41.4761 54.0866 41.5625 53.878 41.5625 53.6604V50.3792C41.5622 50.1617 41.4757 49.9532 41.3219 49.7994C41.1681 49.6456 40.9597 49.5591 40.7422 49.5588ZM35.8203 63.164V60.9765C35.8203 60.3963 35.5898 59.8399 35.1796 59.4297C34.7694 59.0195 34.213 58.789 33.6328 58.789C33.0527 58.789 32.4963 59.0195 32.086 59.4297C31.6758 59.8399 31.4453 60.3963 31.4453 60.9765V65.3515H33.6328C34.213 65.3515 34.7694 65.121 35.1796 64.7108C35.5898 64.3006 35.8203 63.7442 35.8203 63.164ZM33.3594 29.2577C32.2384 29.2582 31.1266 29.0552 30.0781 28.6584V30.5998L28.7405 30.9345C28.6668 31.5849 28.7313 32.2435 28.9298 32.8673C29.1284 33.4911 29.4564 34.0659 29.8924 34.5541C30.3284 35.0423 30.8627 35.4329 31.4601 35.7003C32.0576 35.9678 32.7048 36.106 33.3594 36.106C34.014 36.106 34.6612 35.9678 35.2586 35.7003C35.8561 35.4329 36.3903 35.0423 36.8263 34.5541C37.2624 34.0659 37.5904 33.4911 37.7889 32.8673C37.9874 32.2435 38.0519 31.5849 37.9783 30.9345L36.6406 30.5998V28.6562C35.5923 29.0537 34.4805 29.2575 33.3594 29.2577ZM29.8047 60.772L19.0389 59.4256C18.9301 59.4146 18.8246 59.3819 18.7286 59.3296C18.6326 59.2772 18.548 59.2062 18.4799 59.1206C18.4117 59.0351 18.3613 58.9368 18.3317 58.8316C18.3021 58.7263 18.2938 58.6162 18.3074 58.5076C18.3209 58.3991 18.3561 58.2944 18.4107 58.1997C18.4653 58.1049 18.5383 58.0221 18.6254 57.956C18.7125 57.8899 18.812 57.8418 18.9179 57.8147C19.0239 57.7876 19.1342 57.7819 19.2423 57.7981L19.9609 57.8877V54.6065C19.3931 53.4224 19.0084 52.1589 18.8202 50.8593H13.9453V62.0702C13.9453 62.9405 14.291 63.7751 14.9064 64.3904C15.5217 65.0058 16.3563 65.3515 17.2266 65.3515H29.8047V60.772Z" fill="url(#paint0_linear_157_951)"/>
<path d="M20.0473 43.11C20.1455 42.9171 20.316 42.7708 20.5216 42.703C20.7271 42.6353 20.9512 42.6515 21.1448 42.7482C21.3385 42.8449 21.4861 43.0142 21.5555 43.2192C21.6248 43.4242 21.6103 43.6484 21.5152 43.8428C20.7269 45.4282 20.3167 47.1746 20.3167 48.9451C20.3167 50.7157 20.7269 52.4621 21.5152 54.0475C21.572 54.1613 21.6016 54.2867 21.6016 54.4139V58.0922L27.1414 58.7845L26.8461 58.4903C24.9759 56.6009 23.8972 54.0692 23.8299 51.4116C23.7627 48.754 24.712 46.1709 26.4842 44.1894C28.2564 42.2078 30.718 40.9772 33.3666 40.7486C36.0151 40.5199 38.6511 41.3105 40.7367 42.9591C42.4235 41.6128 44.4858 40.8221 46.6402 40.6956C48.7946 40.569 50.9353 41.1129 52.768 42.2525V41.255C52.7705 39.3648 52.1402 37.5281 50.9777 36.0376C49.8151 34.5472 48.1871 33.4888 46.3531 33.0311L39.6441 31.3533V31.4484C39.6441 33.1164 38.9815 34.716 37.802 35.8955C36.6226 37.0749 35.023 37.7375 33.355 37.7375C31.687 37.7375 30.0874 37.0749 28.908 35.8955C27.7285 34.716 27.0659 33.1164 27.0659 31.4484V31.3533L20.3656 33.0311C18.5308 33.4877 16.9017 34.5455 15.7381 36.0358C14.5745 37.5261 13.9433 39.3631 13.9453 41.2539V49.2186H18.6856C18.6374 47.1021 19.1047 45.0056 20.0473 43.11ZM45.1172 69.7264V68.0114L43.4022 69.7264H45.1172ZM46.7578 69.7264H51.9531C52.1707 69.7264 52.3793 69.64 52.5332 69.4861C52.687 69.3323 52.7734 69.1236 52.7734 68.9061V60.3551L46.7578 66.3708V69.7264ZM33.6328 66.992H21.6016V68.9061C21.6016 69.1236 21.688 69.3323 21.8418 69.4861C21.9957 69.64 22.2043 69.7264 22.4219 69.7264H38.0822L35.0667 66.7109C34.6114 66.8962 34.1244 66.9917 33.6328 66.992Z" fill="url(#paint1_linear_157_951)"/>
<path d="M53.4775 44.8907C52.6608 44.0738 51.6912 43.4258 50.624 42.9837C49.5568 42.5416 48.413 42.3141 47.2579 42.3141C46.1028 42.3141 44.959 42.5416 43.8918 42.9837C42.8246 43.4258 41.855 44.0738 41.0383 44.8907L40.7419 45.186L40.4455 44.8907C39.6288 44.0738 38.6592 43.4258 37.592 42.9837C36.5248 42.5416 35.381 42.3141 34.2259 42.3141C33.0707 42.3141 31.9269 42.5416 30.8598 42.9837C29.7926 43.4258 28.823 44.0738 28.0063 44.8907C27.1894 45.7074 26.5414 46.6771 26.0993 47.7442C25.6571 48.8114 25.4296 49.9552 25.4296 51.1103C25.4296 52.2655 25.6571 53.4093 26.0993 54.4764C26.5414 55.5436 27.1894 56.5132 28.0063 57.33L30.1249 59.4485C30.477 58.643 31.0956 57.9832 31.8768 57.58C32.658 57.1768 33.5542 57.0548 34.4147 57.2344C35.2753 57.4141 36.0478 57.8844 36.6025 58.5665C37.1572 59.2485 37.4602 60.1007 37.4606 60.9798V63.1673C37.4605 64.1312 37.0946 65.0592 36.4369 65.7639L40.1622 69.4859C40.2383 69.5621 40.3286 69.6225 40.4281 69.6638C40.5276 69.705 40.6342 69.7262 40.7419 69.7262C40.8496 69.7262 40.9562 69.705 41.0557 69.6638C41.1551 69.6225 41.2455 69.5621 41.3216 69.4859L53.4775 57.33C54.2944 56.5132 54.9424 55.5436 55.3845 54.4764C55.8266 53.4093 56.0542 52.2655 56.0542 51.1103C56.0542 49.9552 55.8266 48.8114 55.3845 47.7442C54.9424 46.6771 54.2944 45.7074 53.4775 44.8907ZM36.6403 55.301C36.6403 55.5186 36.5539 55.7273 36.4001 55.8811C36.2462 56.0349 36.0376 56.1214 35.82 56.1214C35.6025 56.1214 35.3938 56.0349 35.24 55.8811C35.0861 55.7273 34.9997 55.5186 34.9997 55.301V51.4478L34.315 52.4748C34.2401 52.5871 34.1386 52.6793 34.0195 52.743C33.9005 52.8067 33.7675 52.84 33.6325 52.84C33.4975 52.84 33.3645 52.8067 33.2455 52.743C33.1264 52.6793 33.0249 52.5871 32.95 52.4748L32.2653 51.4478V55.301C32.2653 55.5186 32.1789 55.7273 32.0251 55.8811C31.8712 56.0349 31.6626 56.1214 31.445 56.1214C31.2275 56.1214 31.0188 56.0349 30.865 55.8811C30.7111 55.7273 30.6247 55.5186 30.6247 55.301V48.7385C30.6247 48.5625 30.6814 48.3911 30.7863 48.2498C30.8912 48.1084 31.0388 48.0045 31.2073 47.9535C31.3758 47.9025 31.5562 47.907 31.7219 47.9665C31.8877 48.0259 32.0298 48.1371 32.1275 48.2835L33.6325 50.54L35.1375 48.2835C35.2352 48.1371 35.3774 48.0259 35.5431 47.9665C35.7088 47.907 35.8892 47.9025 36.0577 47.9535C36.2262 48.0045 36.3738 48.1084 36.4787 48.2498C36.5836 48.3911 36.6403 48.5625 36.6403 48.7385V55.301ZM43.2028 53.6604C43.2028 53.9836 43.1392 54.3036 43.0155 54.6022C42.8918 54.9008 42.7106 55.172 42.482 55.4006C42.2535 55.6291 41.9822 55.8104 41.6836 55.934C41.3851 56.0577 41.0651 56.1214 40.7419 56.1214C40.4187 56.1214 40.0987 56.0577 39.8001 55.934C39.5016 55.8104 39.2303 55.6291 39.0017 55.4006C38.7732 55.172 38.592 54.9008 38.4683 54.6022C38.3446 54.3036 38.2809 53.9836 38.2809 53.6604V50.3792C38.2809 49.7265 38.5402 49.1005 39.0017 48.639C39.4633 48.1775 40.0892 47.9182 40.7419 47.9182C41.3946 47.9182 42.0205 48.1775 42.482 48.639C42.9435 49.1005 43.2028 49.7265 43.2028 50.3792V53.6604ZM50.8591 55.301C50.8591 55.5186 50.7726 55.7273 50.6188 55.8811C50.465 56.0349 50.2563 56.1214 50.0388 56.1214C49.8212 56.1214 49.6126 56.0349 49.4587 55.8811C49.3049 55.7273 49.2184 55.5186 49.2184 55.301V51.4478L48.5338 52.4748C48.4588 52.5871 48.3574 52.6793 48.2383 52.743C48.1192 52.8067 47.9863 52.84 47.8513 52.84C47.7162 52.84 47.5833 52.8067 47.4642 52.743C47.3452 52.6793 47.2437 52.5871 47.1688 52.4748L46.4841 51.4478V55.301C46.4841 55.5186 46.3976 55.7273 46.2438 55.8811C46.09 56.0349 45.8813 56.1214 45.6638 56.1214C45.4462 56.1214 45.2376 56.0349 45.0837 55.8811C44.9299 55.7273 44.8434 55.5186 44.8434 55.301V48.7385C44.8435 48.5625 44.9001 48.3911 45.005 48.2498C45.11 48.1084 45.2576 48.0045 45.4261 47.9535C45.5945 47.9025 45.775 47.907 45.9407 47.9665C46.1064 48.0259 46.2486 48.1371 46.3463 48.2835L47.8513 50.54L49.3563 48.2835C49.4539 48.1371 49.5961 48.0259 49.7618 47.9665C49.9275 47.907 50.108 47.9025 50.2765 47.9535C50.445 48.0045 50.5926 48.1084 50.6975 48.2498C50.8024 48.3911 50.8591 48.5625 50.8591 48.7385V55.301ZM22.9488 30.6906L28.4372 29.319V27.8425C27.0994 27.0076 25.9959 25.8462 25.2305 24.4674C24.4652 23.0886 24.0631 21.5378 24.0622 19.9609V14.1531C24.0637 13.5641 24.2765 12.9953 24.6619 12.5499C25.0472 12.1045 25.5796 11.8122 26.1622 11.726C26.7392 11.64 27.2837 11.4048 27.742 11.0438C28.2003 10.6828 28.5564 10.2084 28.7752 9.66761C28.9575 9.21485 29.2712 8.82705 29.6759 8.55415C30.0806 8.28125 30.5577 8.13574 31.0458 8.13636C31.6447 8.13717 32.2229 8.35518 32.6733 8.74995C34.8452 10.5249 37.5218 11.5695 40.3219 11.7348C40.9504 11.7701 41.5417 12.0438 41.9754 12.5001C42.4091 12.9563 42.6525 13.5608 42.6559 14.1903V19.9609C42.655 21.5378 42.2529 23.0886 41.4876 24.4674C40.7223 25.8462 39.6188 27.0076 38.2809 27.8425V29.319L43.7694 30.6906C44.7516 29.8838 45.4784 28.8092 45.8615 27.5972C46.2446 26.3853 46.2675 25.0881 45.9274 23.8634C45.2079 21.2738 44.8433 18.5984 44.8434 15.9107V9.02339C44.8434 7.2829 44.152 5.61371 42.9213 4.383C41.6906 3.15229 40.0214 2.46089 38.2809 2.46089H33.3591L32.2905 1.63073C31.3366 0.888607 30.1936 0.429248 28.9914 0.304967C27.7893 0.180687 26.5764 0.396479 25.4909 0.92777C24.4054 1.45906 23.491 2.2845 22.8516 3.31008C22.2123 4.33566 21.8738 5.52016 21.8747 6.7287V15.9162C21.8748 18.6039 21.5102 21.2792 20.7908 23.8689C20.4518 25.0928 20.4753 26.3888 20.8583 27.5997C21.2414 28.8105 21.9675 29.8843 22.9488 30.6906Z" fill="url(#paint2_linear_157_951)"/>
<defs>
<linearGradient id="paint0_linear_157_951" x1="27.7539" y1="9.77441" x2="27.7539" y2="65.3515" gradientUnits="userSpaceOnUse">
<stop stop-color="#4FA4D1"/>
<stop offset="1" stop-color="#52C5DC"/>
</linearGradient>
<linearGradient id="paint1_linear_157_951" x1="33.3594" y1="31.3533" x2="33.3594" y2="69.7264" gradientUnits="userSpaceOnUse">
<stop stop-color="#4FA4D1"/>
<stop offset="1" stop-color="#52C5DC"/>
</linearGradient>
<linearGradient id="paint2_linear_157_951" x1="38.3035" y1="0.270752" x2="38.3035" y2="69.7262" gradientUnits="userSpaceOnUse">
<stop stop-color="#4FA4D1"/>
<stop offset="1" stop-color="#52C5DC"/>
</linearGradient>
</defs>
</svg>
