<svg width="50" height="50" viewBox="0 0 50 50" fill="none" xmlns="http://www.w3.org/2000/svg">
<g clip-path="url(#clip0_98_726)">
<path fill-rule="evenodd" clip-rule="evenodd" d="M13.6834 44.6875C14.0819 42.3539 15.1982 40.2025 16.8767 38.533C19.0326 36.3816 21.9539 35.1734 24.9997 35.1734C28.0454 35.1734 30.9667 36.3816 33.1226 38.533C34.8014 40.2024 35.9176 42.3538 36.316 44.6875C33.221 47.5061 29.1856 49.0683 24.9995 49.0683C20.8134 49.0683 16.778 47.5061 13.6831 44.6875H13.6834ZM7.31528 21.1662L8.25962 17.6339L11.791 16.6895C11.9005 16.6604 11.9992 16.6 12.0752 16.5159C12.1511 16.4317 12.201 16.3273 12.2188 16.2153C12.2366 16.1034 12.2216 15.9887 12.1755 15.8851C12.1294 15.7815 12.0542 15.6935 11.9591 15.6318L8.89165 13.6426L9.08511 9.99121C9.09092 9.87806 9.06385 9.76564 9.00715 9.66755C8.95046 9.56946 8.86657 9.48988 8.76562 9.43844C8.66467 9.38699 8.55099 9.36588 8.4383 9.37766C8.32561 9.38943 8.21875 9.43358 8.13062 9.50478L5.29116 11.8075L1.87769 10.4963C1.77196 10.4558 1.65676 10.4467 1.54601 10.4703C1.43526 10.4939 1.33372 10.549 1.25365 10.6291C1.17359 10.7092 1.11844 10.8107 1.09487 10.9214C1.0713 11.0322 1.08033 11.1474 1.12085 11.2531L2.43374 14.6652L0.130909 17.506C0.0595223 17.594 0.0152095 17.7009 0.00334226 17.8136C-0.00852503 17.9263 0.0125627 18.0401 0.0640493 18.1411C0.115536 18.2421 0.195211 18.326 0.293416 18.3826C0.391621 18.4392 0.504141 18.4661 0.617335 18.4601L4.26763 18.2668L6.25767 21.3341C6.31089 21.416 6.38374 21.4833 6.46959 21.5299C6.55545 21.5764 6.65159 21.6008 6.74927 21.6008C6.77993 21.6008 6.81055 21.5985 6.84087 21.5939C6.95279 21.576 7.05714 21.5261 7.14133 21.4502C7.22553 21.3743 7.28587 21.2757 7.31528 21.1662ZM47.5664 14.6652L48.8788 11.2531C48.9196 11.1474 48.9288 11.0321 48.9053 10.9212C48.8819 10.8103 48.8267 10.7086 48.7466 10.6285C48.6664 10.5483 48.5647 10.4932 48.4539 10.4697C48.343 10.4463 48.2277 10.4555 48.1219 10.4963L44.7089 11.8077L41.869 9.50498C41.7809 9.43362 41.6741 9.38934 41.5614 9.37749C41.4486 9.36563 41.3349 9.38673 41.2339 9.43821C41.133 9.48969 41.0491 9.56936 40.9925 9.66754C40.9359 9.76573 40.909 9.87823 40.915 9.9914L41.1085 13.6428L38.041 15.6318C37.9459 15.6935 37.8707 15.7815 37.8246 15.8851C37.7785 15.9887 37.7635 16.1034 37.7813 16.2153C37.7991 16.3273 37.849 16.4317 37.9249 16.5159C38.0009 16.6 38.0996 16.6604 38.2091 16.6895L41.74 17.6339L42.6844 21.1662C42.714 21.2757 42.7745 21.3743 42.8588 21.4501C42.943 21.526 43.0474 21.576 43.1593 21.5939C43.1897 21.5986 43.2203 21.6009 43.251 21.6008C43.3486 21.6008 43.4447 21.5765 43.5305 21.5299C43.6162 21.4833 43.689 21.416 43.742 21.3341L45.7325 18.2668L49.3827 18.4601C49.4959 18.4661 49.6084 18.4392 49.7066 18.3826C49.8048 18.326 49.8845 18.2421 49.936 18.1411C49.9874 18.0401 50.0085 17.9263 49.9967 17.8136C49.9848 17.7009 49.9405 17.594 49.8691 17.506L47.5663 14.6652H47.5664ZM31.084 5.35254C31.0492 5.24472 30.9837 5.14937 30.8956 5.07813C30.8075 5.00689 30.7006 4.96285 30.5878 4.95136L27.0012 4.57627L25.5351 1.28027C25.4893 1.17654 25.4144 1.08835 25.3194 1.02645C25.2244 0.964539 25.1134 0.93158 25 0.93158C24.8867 0.93158 24.7757 0.964539 24.6807 1.02645C24.5857 1.08835 24.5108 1.17654 24.465 1.28027L22.9992 4.57627L19.4121 4.95117C19.2993 4.9629 19.1924 5.00709 19.1043 5.07837C19.0161 5.14966 18.9506 5.24498 18.9155 5.35278C18.8804 5.46058 18.8774 5.57623 18.9068 5.68572C18.9361 5.79521 18.9966 5.89383 19.0809 5.96963L21.7627 8.38174L21.0108 11.909C20.9873 12.0198 20.9964 12.1351 21.037 12.2408C21.0777 12.3465 21.1481 12.4382 21.2398 12.5048C21.3314 12.5713 21.4404 12.6099 21.5536 12.6158C21.6667 12.6216 21.7791 12.5946 21.8772 12.5379L25 10.7334L28.1233 12.5381C28.2122 12.59 28.3133 12.6174 28.4163 12.6173C28.5036 12.6173 28.5898 12.5978 28.6686 12.5602C28.7474 12.5226 28.8168 12.4678 28.8717 12.3999C28.9266 12.3321 28.9657 12.2528 28.9861 12.1679C29.0064 12.083 29.0075 11.9946 28.9893 11.9092L28.2374 8.38193L30.9188 5.96982C31.0031 5.89397 31.0636 5.79526 31.093 5.68569C31.1223 5.57611 31.1192 5.46038 31.084 5.35254ZM37.3107 43.7032C39.539 41.3066 41.0193 38.3116 41.5699 35.0857C42.1205 31.8599 41.7175 28.5434 40.4104 25.5433C39.1033 22.5432 36.9488 19.9899 34.2114 18.1966C31.474 16.4033 28.2727 15.4481 25.0001 15.4481C21.7276 15.4481 18.5263 16.4033 15.7889 18.1966C13.0515 19.9899 10.897 22.5432 9.5899 25.5433C8.28277 28.5434 7.8798 31.8599 8.43042 35.0857C8.98104 38.3116 10.4613 41.3066 12.6896 43.7032C13.2303 41.4476 14.3808 39.384 16.0153 37.7381C17.6498 36.0923 19.7053 34.9275 21.9572 34.3712C20.7567 33.6981 19.8133 32.6459 19.2747 31.3794C18.736 30.1129 18.6325 28.7035 18.9804 27.3719C19.3282 26.0403 20.1078 24.8616 21.197 24.0203C22.2863 23.1791 23.6237 22.7227 25 22.7227C26.3763 22.7227 27.7138 23.1791 28.8031 24.0203C29.8923 24.8616 30.6719 26.0403 31.0197 27.3719C31.3676 28.7035 31.2641 30.1129 30.7254 31.3794C30.1868 32.6459 29.2434 33.6981 28.0429 34.3712C30.2948 34.9274 32.3505 36.0921 33.985 37.738C35.6195 39.3838 36.7699 41.4475 37.3105 43.7032H37.3107ZM21.4334 32.5195C22.2586 33.3448 23.3445 33.8584 24.5059 33.9729C25.6674 34.0873 26.8326 33.7955 27.803 33.1472C28.7734 32.4989 29.489 31.5341 29.8279 30.4174C30.1667 29.3006 30.1079 28.1008 29.6613 27.0226C29.2148 25.9443 28.4082 25.0542 27.379 24.504C26.3498 23.9538 25.1616 23.7774 24.0169 24.005C22.8723 24.2326 21.8419 24.85 21.1015 25.7521C20.361 26.6542 19.9562 27.7851 19.9561 28.9521C19.9565 30.29 20.4879 31.5731 21.4334 32.5195Z" fill="url(#paint0_linear_98_726)"/>
</g>
<defs>
<linearGradient id="paint0_linear_98_726" x1="0.000147425" y1="25" x2="50" y2="25" gradientUnits="userSpaceOnUse">
<stop stop-color="#00C2F3"/>
<stop offset="1" stop-color="#4764AF"/>
</linearGradient>
<clipPath id="clip0_98_726">
<rect width="50" height="50" fill="white"/>
</clipPath>
</defs>
</svg>
