<svg width="70" height="70" viewBox="0 0 70 70" fill="none" xmlns="http://www.w3.org/2000/svg">
<path d="M32.5936 36.7639H16.356C15.0694 36.7639 14.0167 37.8165 14.0167 39.103V56.6608C14.0167 57.9474 15.0694 59 16.356 59H32.8667C33.417 59 33.417 58.4088 33.417 58.4088V37.5588C33.4168 37.5588 33.4168 36.7639 32.5936 36.7639ZM54.4289 36.7639H38.2078C37.2198 36.7639 37.3678 37.7928 37.3678 37.7928V58.4279C37.3678 58.4279 37.3597 58.9995 37.954 58.9995H54.4286C55.7152 58.9995 56.7679 57.9469 56.7679 56.6603V39.103C56.7682 37.8165 55.7155 36.7639 54.4289 36.7639ZM33.4168 22.9491C33.4168 22.9491 33.4168 22.1564 32.6335 22.1564H13.7143C12.4278 22.1564 11.375 23.2092 11.375 24.4956V31.7977C11.375 33.0843 12.4278 34.1369 13.7143 34.1369H32.6976C33.4168 34.1369 33.4168 33.5131 33.4168 33.5131V22.9491ZM57.0704 22.1564H38.0909C37.3681 22.1564 37.3681 22.8451 37.3681 22.8451V33.5276C37.3681 33.5276 37.3681 34.1369 38.2468 34.1369H57.0704C58.357 34.1369 59.4098 33.0843 59.4098 31.7977V24.4956C59.4098 23.2092 58.357 22.1564 57.0704 22.1564ZM25.4603 20.4257C24.39 20.4257 23.4124 20.3408 22.5551 20.1733C20.3777 19.7479 18.8811 18.9199 17.9799 17.6424C17.1724 16.4974 16.9253 15.0859 17.2452 13.4469C17.8055 10.5792 19.7314 9 22.6676 9C23.289 9 23.9714 9.07175 24.6961 9.21338C26.5394 9.5735 28.8972 10.6305 31.0032 12.0408C34.5763 14.4338 34.753 15.9215 34.5751 16.8325C34.3135 18.1711 33.0623 19.1275 30.7501 19.7567C29.1879 20.1818 27.2598 20.4257 25.4603 20.4257ZM22.6678 12.7493C21.5306 12.7493 21.1398 13.067 20.9253 14.1658C20.7497 15.0641 20.9711 15.3779 21.0437 15.481C21.3478 15.9122 22.1398 16.2718 23.274 16.4932C23.886 16.6128 24.6422 16.676 25.4601 16.676C27.2586 16.676 28.8431 16.4035 29.8945 16.1054C29.9711 16.0838 30.0898 15.9933 29.9625 15.9175C28.588 14.7977 26.0733 13.3025 23.9772 12.893C23.4889 12.7979 23.0482 12.7493 22.6678 12.7493ZM45.3787 20.4257H45.3784C43.5788 20.4257 41.6509 20.1818 40.0887 19.7567C37.7763 19.1277 36.5253 18.1711 36.2637 16.8327C36.0859 15.9217 36.2623 14.434 39.8358 12.041C41.9414 10.6307 44.2992 9.57367 46.1429 9.21355C46.8676 9.07192 47.55 9.00017 48.1709 9.00017C51.1077 9.00017 53.0334 10.5796 53.5933 13.4472C53.9135 15.0861 53.6666 16.4976 52.8589 17.6426C51.9577 18.9203 50.4613 19.7481 48.2833 20.1735C47.4264 20.3406 46.4488 20.4257 45.3787 20.4257ZM40.9062 15.8943C40.7844 15.965 40.8434 16.0766 40.9066 16.0949C41.9575 16.397 43.5587 16.6762 45.3784 16.6762C46.1966 16.6762 46.9525 16.613 47.5646 16.4933C48.6987 16.2718 49.491 15.9123 49.7949 15.4811C49.8678 15.378 50.0894 15.0643 49.9133 14.1659C49.6989 13.0672 49.308 12.7495 48.1707 12.7495C47.7905 12.7495 47.3501 12.7979 46.8614 12.8933C44.7651 13.3027 42.2808 14.7744 40.9062 15.8943Z" fill="url(#paint0_linear_157_909)"/>
<defs>
<linearGradient id="paint0_linear_157_909" x1="35.3924" y1="9" x2="35.3924" y2="59" gradientUnits="userSpaceOnUse">
<stop stop-color="#4B9DCE"/>
<stop offset="1" stop-color="#59B5D7"/>
</linearGradient>
</defs>
</svg>
