<svg width="70" height="70" viewBox="0 0 70 70" fill="none" xmlns="http://www.w3.org/2000/svg">
<path d="M2.5202 57.54H1.4002C0.980195 57.54 0.700195 57.82 0.700195 58.24C0.700195 58.66 0.980195 58.94 1.4002 58.94H2.5202C2.9402 58.94 3.2202 58.66 3.2202 58.24C3.2202 57.82 2.9402 57.54 2.5202 57.54ZM68.6002 57.54H66.7802C66.3602 57.54 66.0802 57.82 66.0802 58.24C66.0802 58.66 66.3602 58.94 66.7802 58.94H68.6002C69.0202 58.94 69.3002 58.66 69.3002 58.24C69.3002 57.82 68.9502 57.54 68.6002 57.54ZM53.6902 19.74H51.5902V18.13C51.5902 17.36 50.9602 16.73 50.1902 16.73H47.0402C46.2702 16.73 45.6402 17.36 45.6402 18.13V19.74H41.2302V14.56C41.2302 12.6 39.6202 10.99 37.6602 10.99H24.3602C22.4002 10.99 20.7902 12.6 20.7902 14.56V19.74H16.3802V18.13C16.3802 17.36 15.7502 16.73 14.9802 16.73H11.8302C11.0602 16.73 10.4302 17.36 10.4302 18.13V19.74H8.33019C6.51019 19.74 5.1102 21.21 5.1102 22.96V29.05H57.0502V22.96C56.9802 21.21 55.5102 19.74 53.6902 19.74ZM24.7102 19.74V14.49H37.2402V19.74H24.7102ZM45.2202 39.76C45.2202 38.43 46.1302 37.31 47.3202 37.03V36.96C46.1302 36.82 45.2202 35.84 45.2202 34.58V32.69C45.2202 31.64 45.8502 30.8 46.7602 30.45H4.9702V47.46H45.1502V39.76H45.2202ZM35.2802 40.25C35.4202 40.32 35.5602 40.46 35.5602 40.6C35.6302 40.74 35.5602 40.95 35.4902 41.09L35.0002 41.93C34.9302 42.07 34.7902 42.14 34.6502 42.21C34.5102 42.28 34.3002 42.21 34.1602 42.14L32.0602 40.88V43.4C32.0602 43.75 31.7802 44.03 31.4302 44.03H30.4502C30.1002 44.03 29.8202 43.75 29.8202 43.4V40.95L27.7202 42.21C27.5802 42.28 27.3702 42.35 27.2302 42.28C27.0902 42.21 26.9502 42.14 26.8802 42L26.3902 41.16C26.3202 41.02 26.2502 40.81 26.3202 40.67C26.3202 40.53 26.4602 40.39 26.6002 40.32L28.7002 39.06L26.6002 37.8C26.3202 37.66 26.1802 37.24 26.3902 36.96L26.8802 36.12C26.9502 35.98 27.0902 35.84 27.2302 35.84C27.3702 35.77 27.5802 35.84 27.7202 35.91L29.8202 37.17V34.72C29.8202 34.37 30.1002 34.09 30.4502 34.09H31.4302C31.7802 34.09 32.0602 34.37 32.0602 34.72V37.1L34.1602 35.84C34.3002 35.77 34.4402 35.7 34.6502 35.77C34.7902 35.77 34.9302 35.91 35.0002 36.05L35.4902 36.89C35.6302 37.17 35.5602 37.59 35.2802 37.73L33.1802 38.99L35.2802 40.25Z" fill="url(#paint0_linear_157_900)"/>
<path d="M46.6203 32.69V34.58C46.6203 35.14 47.0403 35.56 47.6003 35.56H62.7202C63.2803 35.56 63.7003 35.14 63.7003 34.58V32.69C63.7003 32.13 63.2803 31.71 62.7202 31.71H47.5303C47.0403 31.71 46.6203 32.13 46.6203 32.69ZM64.0503 57.54H60.6903C62.3002 57.54 63.6303 56.21 63.6303 54.6V39.76C63.6303 38.99 63.0003 38.29 62.1603 38.29H61.7402V36.96H48.7203V38.29H48.0903C47.3203 38.29 46.6203 38.92 46.6203 39.76V54.6C46.6203 56.21 47.9503 57.54 49.5603 57.54H46.4103C45.7103 56.77 45.2903 55.72 45.2903 54.6V48.79H4.97025V54.88C4.97025 55.93 5.53025 56.91 6.30025 57.54H5.46025C5.04025 57.54 4.76025 57.82 4.76025 58.24C4.76025 58.66 5.04025 58.94 5.46025 58.94H63.9803C64.4003 58.94 64.6803 58.66 64.6803 58.24C64.7503 57.89 64.4002 57.54 64.0503 57.54ZM49.5603 42.35C49.5603 41.86 49.9103 41.51 50.4002 41.51H59.9202C60.4103 41.51 60.7603 41.86 60.7603 42.35V52.92C60.7603 53.41 60.4103 53.76 59.9202 53.76H50.4002C49.9103 53.76 49.5603 53.41 49.5603 52.92V42.35Z" fill="url(#paint1_linear_157_900)"/>
<defs>
<linearGradient id="paint0_linear_157_900" x1="35.0002" y1="10.99" x2="35.0002" y2="58.94" gradientUnits="userSpaceOnUse">
<stop stop-color="#4796CB"/>
<stop offset="1" stop-color="#5CBAD9"/>
</linearGradient>
<linearGradient id="paint1_linear_157_900" x1="34.7248" y1="31.71" x2="34.7248" y2="58.94" gradientUnits="userSpaceOnUse">
<stop stop-color="#4796CB"/>
<stop offset="1" stop-color="#5CBAD9"/>
</linearGradient>
</defs>
</svg>
