<svg width="70" height="70" viewBox="0 0 70 70" fill="none" xmlns="http://www.w3.org/2000/svg">
<g clip-path="url(#clip0_157_941)">
<path d="M32.8369 50.1881C32.8984 50.4247 32.8725 50.6885 32.7439 50.9127H32.7398C32.6774 51.0219 32.5939 51.1175 32.4942 51.1941C32.3944 51.2706 32.2804 51.3265 32.1588 51.3584C31.9223 51.4241 31.6584 51.3967 31.4342 51.2696V51.2655C31.325 51.2031 31.2294 51.1196 31.1529 51.0198C31.0763 50.92 31.0205 50.806 30.9885 50.6844C30.9229 50.4438 30.9502 50.1799 31.0814 49.9557C31.21 49.7274 31.4219 49.5756 31.6625 49.51C31.9031 49.4485 32.1629 49.4745 32.3912 49.603L32.3871 49.6071C32.6154 49.7383 32.7699 49.9516 32.8369 50.1881ZM12.1295 41.4299H39.975L32.6305 28.7069V12.6069H35.5522C35.9897 12.6069 36.3465 12.25 36.3465 11.8125V8.98794C36.3465 8.55454 35.9897 8.1936 35.5522 8.1936H16.5551C16.1176 8.1936 15.7607 8.55454 15.7607 8.98794V11.8125C15.7607 12.25 16.1176 12.6069 16.5551 12.6069H19.4727V28.7055L12.1295 41.4299ZM51.5195 61.4237C52.3029 62.7758 52.3029 64.3262 51.5195 65.6756C50.7402 67.0278 49.399 67.803 47.8377 67.803H4.2668C2.70547 67.803 1.36836 67.0278 0.584961 65.6756C-0.194336 64.3276 -0.194336 62.7772 0.584961 61.4237L10.9127 43.534C11.0795 43.6311 11.2736 43.6858 11.4787 43.6858H40.6299C40.835 43.6858 41.025 43.6311 41.1918 43.534L51.5195 61.4237ZM23.2994 57.1567C23.0861 56.3624 22.5707 55.6487 21.8037 55.2071H21.7996C21.4354 54.9951 21.0328 54.8575 20.615 54.8023C20.1973 54.7472 19.7727 54.7756 19.366 54.8858C18.5758 55.095 17.8621 55.6145 17.4164 56.3856C16.9748 57.1526 16.8818 58.0249 17.0951 58.8151C17.3084 59.6094 17.8238 60.3231 18.5908 60.7647H18.5936C19.3605 61.2104 20.2369 61.2993 21.0271 61.0901C21.8215 60.8768 22.5352 60.3614 22.9768 59.5944L22.9727 59.5903H22.9768C23.4184 58.8192 23.5113 57.9469 23.2994 57.1567ZM35.0148 49.6071C34.8016 48.8127 34.2861 48.0991 33.5191 47.6575H33.515C33.1507 47.4459 32.7482 47.3083 32.3306 47.2525C31.9131 47.1966 31.4886 47.2237 31.0814 47.3321C30.2912 47.5454 29.5775 48.0608 29.1318 48.8319C28.6861 49.603 28.5973 50.4752 28.8064 51.2655C29.0197 52.0598 29.5352 52.7735 30.3062 53.2151H30.3104C31.0773 53.6608 31.9496 53.7497 32.7398 53.5405C33.5342 53.3272 34.2478 52.8118 34.6895 52.0448V52.0366C35.1352 51.2696 35.224 50.3973 35.0148 49.6071ZM20.6744 57.1567V57.1526C20.4528 57.0277 20.1908 56.9958 19.9457 57.0637C19.7012 57.1282 19.4922 57.287 19.3646 57.5053C19.2334 57.7336 19.2102 57.9934 19.2717 58.234C19.3373 58.4706 19.4891 58.6838 19.7174 58.8151V58.8192C19.9457 58.9504 20.2055 58.9737 20.4461 58.9122C20.6826 58.8465 20.8959 58.6948 21.0271 58.4624V58.4665C21.1584 58.2381 21.1857 57.9784 21.1201 57.7377C21.0884 57.616 21.0326 57.5019 20.956 57.4021C20.8795 57.3023 20.7837 57.2189 20.6744 57.1567ZM68.0912 21.8928C66.6611 21.067 64.9166 21.2721 63.723 22.2797C63.6848 22.2456 63.6383 22.21 63.5918 22.1786L59.2318 19.354C59.1266 19.2842 59.0145 19.2377 58.8982 19.2063C58.9133 19.075 58.9215 18.9383 58.9215 18.803C58.9215 17.0817 57.7854 15.6284 56.2199 15.1526C56.2281 15.0979 56.2309 15.0446 56.2309 14.9858V9.82876C56.2309 9.76997 56.2268 9.71665 56.2199 9.66196C57.7854 9.18481 58.9215 7.73149 58.9215 6.01157C58.9215 3.90337 57.2125 2.19849 55.1043 2.19849C52.9961 2.19849 51.2871 3.90337 51.2871 6.01157C51.2871 7.73286 52.426 9.18618 53.9887 9.66196C53.9805 9.71665 53.9777 9.76997 53.9777 9.82876V14.9872C53.9777 15.0459 53.9818 15.0993 53.9887 15.154C52.4273 15.6311 51.2871 17.0844 51.2871 18.8043C51.2871 18.9397 51.2953 19.075 51.3103 19.2077C51.1941 19.2391 51.082 19.2856 50.9768 19.3553L46.6168 22.1799C46.5703 22.2114 46.5279 22.2456 46.4855 22.2811C45.292 21.2735 43.5475 21.0684 42.1174 21.8942C40.2922 22.9483 39.6687 25.2848 40.7228 27.11C41.777 28.9352 44.1094 29.56 45.9359 28.5045C47.4863 27.609 48.1686 25.792 47.6955 24.1487C47.7461 24.1254 47.7967 24.0981 47.8432 24.0667L52.184 21.2571C52.8812 22.0897 53.9312 22.6215 55.1057 22.6215C56.2801 22.6215 57.3301 22.0911 58.0314 21.2571L62.3682 24.0667C62.4146 24.0981 62.4652 24.1254 62.5158 24.1487C62.0428 25.792 62.725 27.609 64.2754 28.5045C66.1006 29.5586 68.4344 28.9352 69.4885 27.11C70.5426 25.2848 69.9164 22.9469 68.0912 21.8928Z" fill="url(#paint0_linear_157_941)"/>
</g>
<defs>
<linearGradient id="paint0_linear_157_941" x1="35.0004" y1="2.19849" x2="35.0004" y2="67.803" gradientUnits="userSpaceOnUse">
<stop stop-color="#4C9ECE"/>
<stop offset="1" stop-color="#5AB7D8"/>
</linearGradient>
<clipPath id="clip0_157_941">
<rect width="70" height="70" fill="white"/>
</clipPath>
</defs>
</svg>
