<svg width="50" height="50" viewBox="0 0 50 50" fill="none" xmlns="http://www.w3.org/2000/svg">
<path d="M24.9998 13.5797C21.0869 13.5505 17.2363 14.5599 13.8407 16.5047C10.4452 18.4495 7.62635 21.2602 5.67167 24.65C5.61772 24.7593 5.58966 24.8796 5.58966 25.0016C5.58966 25.1235 5.61772 25.2438 5.67167 25.3531C7.62655 28.7427 10.4455 31.553 13.841 33.4976C17.2365 35.4421 21.087 36.4512 24.9998 36.4219C28.9127 36.451 32.7633 35.4417 36.1589 33.4969C39.5544 31.5521 42.3732 28.7414 44.3279 25.3516C44.3819 25.2422 44.4099 25.1219 44.4099 25C44.4099 24.8781 44.3819 24.7578 44.3279 24.6484C42.373 21.2589 39.5541 18.4485 36.1586 16.504C32.7631 14.5595 28.9126 13.5504 24.9998 13.5797ZM24.9998 32.8141C23.4546 32.8141 21.9442 32.3559 20.6594 31.4974C19.3746 30.639 18.3733 29.4188 17.782 27.9913C17.1907 26.5637 17.036 24.9929 17.3374 23.4774C17.6389 21.9619 18.3829 20.5699 19.4755 19.4773C20.5681 18.3847 21.9602 17.6406 23.4757 17.3392C24.9911 17.0377 26.562 17.1924 27.9895 17.7837C29.4171 18.3751 30.6372 19.3764 31.4957 20.6612C32.3541 21.9459 32.8123 23.4564 32.8123 25.0016C32.809 27.0725 31.9848 29.0578 30.5204 30.5222C29.056 31.9866 27.0708 32.8107 24.9998 32.8141ZM24.9998 18.7516C23.7637 18.7516 22.5553 19.1181 21.5275 19.8049C20.4997 20.4916 19.6986 21.4677 19.2255 22.6098C18.7525 23.7518 18.6287 25.0085 18.8699 26.2209C19.111 27.4333 19.7063 28.5469 20.5804 29.421C21.4545 30.2951 22.5681 30.8903 23.7805 31.1315C24.9929 31.3726 26.2495 31.2489 27.3916 30.7758C28.5336 30.3028 29.5097 29.5017 30.1965 28.4739C30.8832 27.4461 31.2498 26.2377 31.2498 25.0016C31.2477 23.3446 30.5886 21.7561 29.4169 20.5844C28.2453 19.4128 26.6568 18.7536 24.9998 18.7516ZM24.9998 28.1266C24.3817 28.1266 23.7775 27.9433 23.2636 27.5999C22.7497 27.2565 22.3492 26.7685 22.1127 26.1974C21.8761 25.6264 21.8143 24.9981 21.9348 24.3919C22.0554 23.7857 22.353 23.2289 22.7901 22.7918C23.2271 22.3548 23.7839 22.0572 24.3901 21.9366C24.9963 21.816 25.6247 21.8779 26.1957 22.1144C26.7667 22.351 27.2548 22.7515 27.5981 23.2654C27.9415 23.7793 28.1248 24.3835 28.1248 25.0016C28.1249 25.412 28.0441 25.8184 27.8871 26.1976C27.7301 26.5768 27.4999 26.9213 27.2097 27.2115C26.9195 27.5017 26.575 27.7319 26.1958 27.8889C25.8166 28.0459 25.4102 28.1267 24.9998 28.1266ZM26.5623 25.0016C26.5623 25.3106 26.4707 25.6127 26.299 25.8696C26.1273 26.1266 25.8832 26.3269 25.5977 26.4451C25.3122 26.5634 24.9981 26.5943 24.695 26.534C24.3919 26.4737 24.1135 26.3249 23.8949 26.1064C23.6764 25.8879 23.5276 25.6095 23.4673 25.3064C23.407 25.0033 23.438 24.6891 23.5562 24.4036C23.6745 24.1181 23.8748 23.8741 24.1317 23.7024C24.3887 23.5307 24.6908 23.4391 24.9998 23.4391C25.4138 23.4403 25.8105 23.6053 26.1033 23.8981C26.396 24.1908 26.5611 24.5875 26.5623 25.0016ZM23.2732 41.4453C23.2729 41.5741 23.2406 41.7007 23.1793 41.8139C23.1179 41.9271 23.0294 42.0232 22.9217 42.0937L15.9607 46.7422C15.8428 46.8212 15.7056 46.8666 15.5638 46.8734C15.422 46.8803 15.2811 46.8484 15.156 46.7812C15.0304 46.7159 14.9252 46.6171 14.8522 46.4958C14.7791 46.3745 14.741 46.2354 14.742 46.0937V44.5312C11.5967 44.328 8.64649 42.9363 6.48937 40.6383C4.33226 38.3403 3.12972 35.308 3.12558 32.1562C3.1181 30.1763 3.5927 28.2243 4.50839 26.4687C4.71151 26.8125 5.04745 27.3437 5.5162 28C5.26616 28.5897 5.07259 29.2018 4.93808 29.8281C5.44212 32.1089 6.66836 34.1663 8.43469 35.6948C10.201 37.2233 12.4132 38.1413 14.7428 38.3125V36.8047C14.7445 36.6644 14.7838 36.5272 14.8567 36.4073C14.9295 36.2874 15.0331 36.1892 15.1568 36.123C15.2805 36.0568 15.4196 36.0249 15.5598 36.0308C15.7 36.0366 15.836 36.0799 15.9537 36.1562L16.36 36.4297L22.9224 40.7969C23.0307 40.8668 23.1195 40.9629 23.1808 41.0762C23.2421 41.1895 23.2739 41.3165 23.2732 41.4453ZM46.8748 17.8437C46.882 19.8238 46.4071 21.7758 45.4912 23.5312C45.2881 23.1875 44.9521 22.6562 44.4834 22C44.7334 21.4103 44.927 20.7981 45.0615 20.1719C44.5573 17.8912 43.331 15.834 41.5647 14.3057C39.7984 12.7774 37.5863 11.8595 35.2568 11.6883V13.1961C35.2578 13.3377 35.2197 13.4768 35.1466 13.5982C35.0736 13.7195 34.9684 13.8183 34.8428 13.8836C34.417 14.1352 33.981 13.8219 33.6396 13.5711L27.0771 9.2039C26.9705 9.13268 26.883 9.03624 26.8225 8.92313C26.762 8.81001 26.7304 8.68373 26.7304 8.55546C26.7304 8.4272 26.762 8.30091 26.8225 8.1878C26.883 8.07469 26.9705 7.97825 27.0771 7.90703L34.0381 3.25859C34.1558 3.17995 34.2927 3.13469 34.4341 3.12762C34.5756 3.12056 34.7163 3.15195 34.8413 3.21847C34.9663 3.28498 35.071 3.38413 35.1441 3.50537C35.2173 3.62662 35.2562 3.76542 35.2568 3.90703V5.46953C38.4025 5.67241 41.3532 7.06405 43.5107 9.36224C45.6682 11.6604 46.8708 14.6931 46.8748 17.8453V17.8437Z" fill="url(#paint0_linear_123_885)"/>
<defs>
<linearGradient id="paint0_linear_123_885" x1="16.7236" y1="41.0483" x2="42.58" y2="5.77656" gradientUnits="userSpaceOnUse">
<stop offset="0.33" stop-color="#52C5DC"/>
<stop offset="0.63" stop-color="#3C99D4"/>
<stop offset="0.895" stop-color="#3E7ABC"/>
</linearGradient>
</defs>
</svg>
