<svg width="70" height="70" viewBox="0 0 70 70" fill="none" xmlns="http://www.w3.org/2000/svg">
<path fill-rule="evenodd" clip-rule="evenodd" d="M40.6144 64.9458C51.4113 61.9294 58.4881 50.8277 58.9274 39.9997C59.4566 26.9574 50.2741 4.60749 35.0002 4.23608C19.7259 4.60749 10.5434 26.9574 11.073 39.9997C11.5118 50.8277 18.5886 61.9294 29.3856 64.9458C33.7273 66.0305 36.2726 66.0305 40.6144 64.9458ZM35.0002 26.5594C39.6617 26.5594 43.4407 30.338 43.4407 34.9999C43.4407 39.6618 39.6621 43.4408 35.0002 43.4408C30.3383 43.4408 26.5593 39.6618 26.5593 34.9999C26.5593 30.338 30.3383 26.5594 35.0002 26.5594ZM38.9403 56.5598C38.6418 56.6497 38.3903 56.8528 38.2397 57.1257C38.089 57.3987 38.0512 57.7197 38.1342 58.0202C38.2172 58.3207 38.4145 58.5767 38.6839 58.7336C38.9533 58.8905 39.2734 58.9357 39.5757 58.8596C48.2528 56.4354 53.9825 47.594 54.3373 38.8382C54.3456 38.5246 54.2299 38.2203 54.0155 37.9914C53.801 37.7624 53.5049 37.6271 53.1914 37.6148C52.8779 37.6026 52.5722 37.7143 52.3405 37.9258C52.1088 38.1374 51.9697 38.4317 51.9535 38.745C51.641 46.4508 46.6049 54.4186 38.9403 56.5598Z" fill="url(#paint0_linear_157_933)"/>
<defs>
<linearGradient id="paint0_linear_157_933" x1="35.0002" y1="4.23608" x2="35.0002" y2="65.7593" gradientUnits="userSpaceOnUse">
<stop stop-color="#4796CB"/>
<stop offset="1" stop-color="#5BB8D9"/>
</linearGradient>
</defs>
</svg>
