<svg width="24" height="24" viewBox="0 0 24 24" fill="none" xmlns="http://www.w3.org/2000/svg">
<g clip-path="url(#clip0_161_1357)">
<path d="M12 24C14.3734 24 16.6934 23.2962 18.6668 21.9777C20.6402 20.6591 22.1783 18.785 23.0865 16.5922C23.9948 14.3995 24.2324 11.9867 23.7694 9.65896C23.3064 7.33119 22.1635 5.19299 20.4853 3.51476C19.0737 2.10353 17.3325 1.06662 15.4192 0.497873C13.5059 -0.0708723 11.481 -0.153492 9.52772 0.257493C7.57446 0.668478 5.75453 1.56009 4.23267 2.85163C2.7108 4.14316 1.53506 5.79384 0.811853 7.65424C0.783546 7.72617 0.769722 7.80299 0.771177 7.88027C0.772633 7.95756 0.789337 8.0338 0.820332 8.10461C0.851326 8.17543 0.896 8.23942 0.95179 8.29293C1.00758 8.34643 1.07339 8.38839 1.14544 8.4164C1.21749 8.44441 1.29436 8.45791 1.37164 8.45613C1.44892 8.45435 1.52509 8.43733 1.59577 8.40604C1.66646 8.37475 1.73026 8.32981 1.78354 8.27379C1.83681 8.21778 1.87849 8.1518 1.9062 8.07963C3.53674 3.88474 7.49881 1.17419 12 1.17419C17.9693 1.17419 22.8258 6.03063 22.8258 12C22.8258 17.9694 17.9693 22.8259 12 22.8259C7.49881 22.8259 3.53674 20.1153 1.9062 15.9204C1.87849 15.8482 1.83681 15.7823 1.78354 15.7263C1.73026 15.6702 1.66646 15.6253 1.59577 15.594C1.52509 15.5627 1.44892 15.5457 1.37164 15.5439C1.29436 15.5421 1.21749 15.5556 1.14544 15.5836C1.07339 15.6117 1.00758 15.6536 0.95179 15.7071C0.896 15.7606 0.851326 15.8246 0.820332 15.8954C0.789337 15.9662 0.772633 16.0425 0.771177 16.1198C0.769722 16.1971 0.783546 16.2739 0.811853 16.3458C1.68835 18.6004 3.22556 20.5376 5.22202 21.9034C7.21848 23.2693 9.58101 24.0001 12 24Z" fill="white"/>
<path d="M18.5527 12C18.553 12.1053 18.5324 12.2096 18.4921 12.3069C18.4518 12.4042 18.3927 12.4925 18.318 12.5668L15.6681 15.2166C15.6138 15.2718 15.549 15.3157 15.4776 15.3458C15.4062 15.3759 15.3295 15.3915 15.2521 15.3918C15.1746 15.3921 15.0978 15.3771 15.0262 15.3476C14.9545 15.318 14.8894 15.2746 14.8347 15.2199C14.7799 15.1651 14.7365 15.1 14.7069 15.0283C14.6774 14.9567 14.6624 14.8799 14.6627 14.8025C14.663 14.725 14.6786 14.6483 14.7087 14.5769C14.7387 14.5055 14.7826 14.4407 14.8378 14.3864L16.6371 12.5871H0.5877C0.431988 12.5871 0.282654 12.5253 0.17255 12.4152C0.0624466 12.3051 0.000591278 12.1557 0.000591278 12C0.000591278 11.8443 0.0624466 11.695 0.17255 11.5849C0.282654 11.4748 0.431988 11.4129 0.5877 11.4129H16.6371L14.8378 9.61366C14.7291 9.50327 14.6685 9.35438 14.6691 9.19946C14.6697 9.04453 14.7315 8.89612 14.841 8.78657C14.9506 8.67702 15.099 8.61522 15.2539 8.61463C15.4089 8.61404 15.5577 8.6747 15.6681 8.78341L18.3179 11.4333C18.3926 11.5075 18.4518 11.5958 18.4921 11.6931C18.5324 11.7904 18.553 11.8947 18.5527 12Z" fill="white"/>
</g>
<defs>
<clipPath id="clip0_161_1357">
<rect width="24" height="24" fill="white" transform="matrix(-1 0 0 1 24 0)"/>
</clipPath>
</defs>
</svg>
