<svg width="154" height="154" viewBox="0 0 154 154" fill="none" xmlns="http://www.w3.org/2000/svg">
<g clip-path="url(#clip0_142_489)">
<path d="M95.631 33.8615C95.447 33.8031 95.2641 33.7471 95.0824 33.6935C86.7156 31.2334 77.411 34.3721 71.9274 41.5041C70.6713 43.1379 68.9511 45.7364 67.8892 48.8383C66.8164 51.971 66.6726 54.8601 67.4612 57.4252C68.7685 61.6774 72.5488 64.7997 78.6981 66.7065C87.0639 69.3015 91.2728 75.8084 94.9852 81.5502C97.2328 85.0261 99.1738 88.028 101.749 89.7822C104.7 91.7924 108.106 91.7814 112.164 89.7471C112.884 89.3873 113.555 88.9371 114.163 88.4076C117.305 85.6662 118.733 80.775 118.31 74.0802C117.355 58.925 106.702 37.3899 95.631 33.8615ZM64.5283 47.0545C64.8141 46.8052 65.0765 46.5304 65.3121 46.2336C66.5695 44.6499 66.9909 42.5853 66.4987 40.4202C66.0268 38.3435 64.7589 36.4113 62.9294 34.9791C59.0807 31.9663 53.8875 32.1135 51.3527 35.3052C50.0955 36.8887 49.6741 38.9533 50.1663 41.1184C50.6381 43.1951 51.9059 45.1275 53.7355 46.5595C57.2212 49.2889 61.8106 49.4258 64.5283 47.0545ZM73.3895 36.2212C73.4909 36.1446 73.5889 36.065 73.6836 35.9825C76.0957 33.8779 76.2728 29.8882 74.0215 26.8874C72.9674 25.4446 71.4389 24.419 69.6951 23.9842C67.9401 23.5741 66.2377 23.9032 64.9032 24.9103C62.2147 26.9372 61.9316 31.1257 64.2712 34.2441C65.3253 35.6866 66.8536 36.7123 68.5973 37.1472C70.3533 37.5573 72.0548 37.228 73.3895 36.2212ZM82.9887 29.2239C83.0641 29.1671 83.1368 29.108 83.207 29.0466C84.9748 27.5042 85.1202 24.6 83.4888 22.4257C82.7282 21.3867 81.626 20.6485 80.3691 20.3363C79.7711 20.1799 79.1431 20.1606 78.5317 20.2798C77.9202 20.399 77.3411 20.6537 76.8372 21.0249C74.8667 22.5124 74.6407 25.5624 76.3369 27.8231C77.0975 28.8626 78.2 29.6011 79.4574 29.9134C80.0554 30.0696 80.6833 30.0887 81.2946 29.9693C81.906 29.8499 82.485 29.5951 82.9887 29.2239ZM88.2043 28.7459C88.6796 29.0193 89.2126 29.1812 89.7635 29.2194C90.3145 29.2577 90.8693 29.1714 91.3866 28.9669C91.7478 28.8195 92.0824 28.6127 92.3764 28.3552C93.6835 27.2148 94.1531 25.1495 93.4026 23.2443C92.998 22.1812 92.2346 21.2971 91.2419 20.742C90.7665 20.4686 90.2335 20.3067 89.6825 20.2684C89.1316 20.2301 88.5767 20.3164 88.0594 20.5209C86.0303 21.3478 85.1261 23.9147 86.0428 26.2431C86.4475 27.3065 87.2112 28.1908 88.2043 28.7459ZM98.294 23.2257C96.1164 23.292 94.3685 25.3932 94.3975 27.91C94.3979 29.0539 94.7948 30.1553 95.5209 31.0276C95.866 31.4525 96.3042 31.7925 96.8028 32.0223C97.3014 32.2521 97.8476 32.3658 98.4007 32.355C99.2472 32.3232 100.061 31.9935 100.696 31.4242C101.218 30.9469 101.632 30.364 101.908 29.7158C102.184 29.0677 102.317 28.3698 102.297 27.6707C102.297 26.5266 101.9 25.4251 101.173 24.5528C100.828 24.128 100.39 23.788 99.8917 23.5583C99.3932 23.3285 98.847 23.2148 98.294 23.2257ZM53.037 83.667C46.7759 90.1348 45.0611 99.7574 48.7698 107.611C48.8505 107.782 48.9337 107.954 49.0194 108.126C54.0081 118.098 73.4053 124.897 87.4164 124.314C93.3063 124.069 97.92 122.559 100.888 119.969C102.117 118.914 103.093 117.596 103.742 116.117C105.575 111.902 105.471 108.713 103.414 106.082C101.627 103.796 98.612 102.26 95.1214 100.481C89.3947 97.5631 82.9034 94.2555 79.1098 86.5184C76.2866 80.7618 72.6124 77.5163 68.1891 76.8728C65.5203 76.4845 62.6704 77.0622 59.7183 78.5897C56.7942 80.1016 54.471 82.1852 53.037 83.667ZM56.7044 110.549C56.5026 110.386 56.3047 110.221 56.1108 110.055C55.8984 109.873 55.7687 109.612 55.7504 109.331C55.7321 109.05 55.8266 108.772 56.0132 108.556C56.1997 108.341 56.463 108.207 56.745 108.184C57.0271 108.16 57.3049 108.249 57.5174 108.432C57.6963 108.585 57.879 108.737 58.0654 108.888C58.1732 108.975 58.2622 109.083 58.3276 109.205C58.3929 109.327 58.4332 109.462 58.4462 109.601C58.4592 109.739 58.4446 109.88 58.4033 110.014C58.362 110.148 58.2947 110.273 58.2053 110.382C58.116 110.491 58.0063 110.582 57.8825 110.65C57.7587 110.717 57.6233 110.76 57.4839 110.775C57.3445 110.791 57.204 110.779 57.0703 110.74C56.9365 110.701 56.8121 110.636 56.7044 110.549ZM73.3571 117.472C73.3141 117.606 73.2452 117.73 73.1545 117.838C73.0638 117.946 72.9529 118.035 72.8283 118.101C72.7037 118.167 72.5678 118.208 72.4282 118.222C72.2887 118.235 72.1484 118.222 72.0152 118.181C67.5162 116.813 63.3427 114.968 59.9468 112.846C59.8291 112.772 59.7276 112.676 59.6479 112.563C59.5682 112.449 59.512 112.321 59.4824 112.185C59.4227 111.911 59.4752 111.622 59.6283 111.382C59.7815 111.142 60.0227 110.971 60.299 110.907C60.5754 110.842 60.8641 110.889 61.1017 111.038C64.3451 113.064 68.3455 114.83 72.6712 116.146C72.8044 116.186 72.9278 116.253 73.0344 116.341C73.141 116.43 73.2286 116.539 73.2924 116.662C73.3561 116.785 73.3946 116.92 73.4057 117.059C73.4169 117.198 73.4003 117.339 73.3571 117.472ZM56.2898 76.882C56.4467 76.7453 56.5965 76.6008 56.7389 76.4491C58.1229 74.9739 58.7158 72.9486 58.4083 70.7466C58.1134 68.6348 57.0145 66.6002 55.315 65.0174C51.7395 61.6886 46.561 61.398 43.7695 64.3742C42.3853 65.8495 41.7923 67.8747 42.0999 70.0768C42.3949 72.1888 43.4937 74.2233 45.1932 75.8061C48.5846 78.9646 53.4197 79.3865 56.2898 76.882ZM46.8263 87.3688C47.3037 86.9534 47.7034 86.4568 48.0061 85.9027C48.8054 84.4385 48.8752 82.7159 48.2028 81.0512C47.5072 79.4024 46.2569 78.0547 44.664 77.2364C41.2113 75.4073 37.0927 76.3181 35.4826 79.2671C34.6832 80.7311 34.6135 82.4538 35.2857 84.1184C35.9813 85.7673 37.2316 87.1151 38.8246 87.9335C41.6158 89.412 44.8419 89.1002 46.8263 87.3688ZM41.6261 97.4838C41.98 97.1758 42.2763 96.8075 42.5007 96.3967C42.7936 95.8453 42.9593 95.2374 42.9855 94.6182C43.0117 93.999 42.8977 93.3844 42.652 92.8201C42.1515 91.6309 41.2509 90.6585 40.103 90.0676C37.6001 88.7415 34.6026 89.4225 33.4219 91.5858C33.129 92.1373 32.9633 92.7452 32.9371 93.3645C32.9109 93.9837 33.0249 94.5984 33.2706 95.1627C33.7712 96.3518 34.6716 97.3242 35.8195 97.9151C37.8375 98.9842 40.1764 98.7486 41.6261 97.4838ZM42.3556 106.564C42.9278 106.074 43.3331 105.419 43.5133 104.692C43.6384 104.152 43.6405 103.594 43.5192 103.058C43.398 102.522 43.1566 102.022 42.813 101.596C42.1113 100.704 41.1174 100.087 39.9998 99.8495C37.5474 99.2998 35.1322 100.578 34.6171 102.696C34.492 103.236 34.49 103.794 34.6112 104.33C34.7325 104.866 34.9738 105.366 35.3174 105.792C36.0191 106.684 37.0131 107.301 38.1308 107.538C39.7259 107.896 41.3047 107.481 42.3556 106.564ZM43.8728 115.614C44.8567 115.483 45.7854 115.066 46.5429 114.416C47.5345 113.551 48.0936 112.333 47.9397 111.077C47.867 110.531 47.6715 110.011 47.3677 109.555C47.064 109.1 46.6598 108.72 46.1854 108.445C45.2086 107.863 44.054 107.639 42.917 107.812C40.4114 108.163 38.5871 110.199 38.85 112.349C38.9228 112.895 39.1183 113.415 39.422 113.87C39.7257 114.326 40.1297 114.705 40.604 114.98C41.5807 115.563 42.7354 115.787 43.8724 115.614L43.8728 115.614Z" fill="#6C6C6C" fill-opacity="0.1"/>
</g>
<defs>
<clipPath id="clip0_142_489">
<rect width="110" height="108" fill="white" transform="translate(0 72.3184) rotate(-41.1048)"/>
</clipPath>
</defs>
</svg>
