<svg width="40" height="40" viewBox="0 0 40 40" fill="none" xmlns="http://www.w3.org/2000/svg">
<path d="M37.5781 14.8492C37.5781 17.1719 36.6742 19.3547 35.032 20.9969L22.1852 33.8438L12.1883 23.8477H14.2836L18.0992 17.5367L21.5938 26.9711L24.3867 20.943H30.1164V19.3805H23.3883L21.7547 22.907L18.4391 13.9555L13.4023 22.2852H10.6258L9.3375 20.9969C5.94844 17.607 5.94844 12.0922 9.3375 8.70234C10.9797 7.06016 13.1633 6.15625 15.4852 6.15625C17.807 6.15625 19.9906 7.06016 21.6328 8.70234L22.1852 9.25469L22.7375 8.70234C24.3797 7.06016 26.5625 6.15625 28.8844 6.15625C31.207 6.15625 33.3898 7.06016 35.032 8.70234C36.6742 10.3445 37.5781 12.5273 37.5781 14.8492ZM10.6258 22.2852H2.42188V23.8477H12.1883L10.6258 22.2852Z" fill="url(#paint0_linear_180_1442)"/>
<defs>
<linearGradient id="paint0_linear_180_1442" x1="13.3491" y1="30.1565" x2="28.2097" y2="4.41711" gradientUnits="userSpaceOnUse">
<stop offset="0.33" stop-color="#52C5DC"/>
<stop offset="0.63" stop-color="#3C99D4"/>
<stop offset="0.895" stop-color="#3E7ABC"/>
</linearGradient>
</defs>
</svg>
