<svg width="45" height="45" viewBox="0 0 45 45" fill="none" xmlns="http://www.w3.org/2000/svg">
<g clip-path="url(#clip0_123_897)">
<path d="M36.0028 9.38637L37.6307 9.47593L33.861 13.2456L32.2331 13.1561L36.0028 9.38637ZM22.9721 22.4172C22.9034 22.4858 22.8134 22.5201 22.7234 22.5201C22.6334 22.5201 22.5435 22.4858 22.4748 22.4172C22.4421 22.3846 22.4162 22.3458 22.3986 22.3032C22.3809 22.2605 22.3718 22.2148 22.3718 22.1686C22.3718 22.1224 22.3809 22.0767 22.3986 22.0341C22.4162 21.9914 22.4421 21.9527 22.4748 21.92L24.0915 20.3033C23.713 20.0514 23.2681 19.916 22.8019 19.916C22.1781 19.916 21.5924 20.1582 21.1526 20.598C20.2432 21.5073 20.2432 22.987 21.1526 23.8964C22.062 24.8058 23.5418 24.8058 24.4511 23.8964C24.8908 23.4567 25.133 22.871 25.133 22.2471C25.133 21.7045 24.9496 21.1908 24.6124 20.7768L22.9721 22.4172ZM38.41 6.59004C42.6596 10.8398 45 16.49 45 22.5C45 28.51 42.6596 34.1602 38.41 38.41C34.1603 42.6597 28.51 45 22.5 45C16.49 45 10.8398 42.6596 6.59004 38.41C2.34026 34.1603 0 28.51 0 22.5C0 16.49 2.34035 10.8398 6.59004 6.59004C10.8397 2.34026 16.49 0 22.5 0C28.51 0 34.1602 2.34035 38.41 6.59004ZM36.4703 13.8089C36.446 13.7697 36.4142 13.7356 36.3768 13.7086C36.3393 13.6816 36.2969 13.6623 36.252 13.6517C36.207 13.6411 36.1604 13.6394 36.1149 13.6468C36.0693 13.6543 36.0256 13.6706 35.9864 13.6949C35.9471 13.7191 35.913 13.7509 35.886 13.7884C35.859 13.8258 35.8397 13.8683 35.8291 13.9132C35.8185 13.9581 35.8169 14.0047 35.8243 14.0503C35.8317 14.0958 35.848 14.1395 35.8723 14.1788C39.6333 20.2596 38.7238 28.0426 33.6606 33.1058C27.6732 39.0933 17.9307 39.0933 11.9432 33.1058C5.95564 27.1183 5.95564 17.376 11.9432 11.3885C17.0064 6.32531 24.7895 5.41591 30.8703 9.17684C30.9496 9.22588 31.0451 9.24141 31.1359 9.22002C31.2266 9.19862 31.3051 9.14205 31.3542 9.06275C31.4032 8.98345 31.4188 8.88792 31.3974 8.79716C31.376 8.70641 31.3194 8.62787 31.2401 8.57883C28.2154 6.7079 24.5912 5.8928 21.0355 6.28436C17.4251 6.68162 14.0195 8.3177 11.446 10.8912C5.1844 17.1529 5.1844 27.3414 11.446 33.603C14.5768 36.7339 18.6894 38.2992 22.8019 38.2992C26.9144 38.2992 31.027 36.7338 34.1578 33.603C36.7313 31.0294 38.3674 27.6238 38.7647 24.0136C39.156 20.4578 38.3411 16.8337 36.4703 13.8089ZM17.8502 17.2955C20.1192 15.0265 23.6294 14.5883 26.3862 16.2301C26.4662 16.2765 26.5613 16.2895 26.6508 16.2662C26.7404 16.2429 26.8171 16.1853 26.8645 16.1058C26.9118 16.0263 26.9259 15.9314 26.9037 15.8416C26.8815 15.7518 26.8248 15.6744 26.7459 15.6261C23.7122 13.8193 19.8497 14.3015 17.3529 16.7982C14.3484 19.8027 14.3484 24.6915 17.3529 27.696C18.8553 29.1982 20.8285 29.9493 22.8019 29.9493C24.7753 29.9493 26.7485 29.1982 28.2509 27.696C30.7477 25.1991 31.2296 21.3367 29.423 18.303C29.3993 18.2634 29.3681 18.2288 29.3311 18.2012C29.2941 18.1735 29.2521 18.1535 29.2073 18.1422C29.1626 18.1308 29.116 18.1284 29.0703 18.135C29.0247 18.1417 28.9807 18.1573 28.9411 18.1809C28.9014 18.2045 28.8668 18.2357 28.8392 18.2727C28.8116 18.3097 28.7915 18.3518 28.7802 18.3965C28.7688 18.4413 28.7664 18.4878 28.7731 18.5335C28.7797 18.5792 28.7953 18.6231 28.8189 18.6628C30.4607 21.4196 30.0226 24.9297 27.7537 27.1987C26.3883 28.5641 24.5954 29.2467 22.802 29.2465C21.0089 29.2463 19.2153 28.5637 17.8503 27.1987C15.1199 24.4684 15.1199 20.0258 17.8502 17.2955ZM29.4828 13.088C29.5201 13.1158 29.5625 13.1361 29.6076 13.1474C29.6527 13.1588 29.6996 13.1611 29.7456 13.1542C29.7916 13.1473 29.8358 13.1314 29.8756 13.1073C29.9154 13.0832 29.95 13.0514 29.9774 13.0139C30.0048 12.9763 30.0245 12.9337 30.0354 12.8884C30.0462 12.8432 30.048 12.7963 30.0405 12.7503C30.0331 12.7044 30.0166 12.6604 29.9921 12.6209C29.9675 12.5814 29.9354 12.5472 29.8975 12.5202C27.6053 10.8461 24.7723 10.0383 21.9212 10.2457C19.0397 10.4552 16.3292 11.6942 14.289 13.7343C12.0187 16.0047 10.7684 19.0279 10.7684 22.2471C10.7684 25.4663 12.0187 28.4896 14.289 30.76C16.5594 33.0303 19.5826 34.2806 22.8018 34.2806C26.0211 34.2806 29.0443 33.0303 31.3146 30.76C33.3548 28.7198 34.5938 26.0093 34.8033 23.1278C35.0106 20.2764 34.2028 17.4437 32.5288 15.1515C32.5018 15.1136 32.4675 15.0814 32.428 15.0569C32.3885 15.0323 32.3445 15.0158 32.2986 15.0084C32.2527 15.001 32.2058 15.0027 32.1605 15.0136C32.1153 15.0244 32.0726 15.0441 32.0351 15.0715C31.9975 15.099 31.9658 15.1336 31.9417 15.1734C31.9176 15.2132 31.9016 15.2574 31.8947 15.3034C31.8879 15.3494 31.8902 15.3963 31.9015 15.4414C31.9129 15.4865 31.9331 15.5289 31.961 15.5661C35.2223 20.0313 34.7307 26.3494 30.8174 30.2627C26.3977 34.6826 19.2059 34.6825 14.7862 30.2627C10.3663 25.8428 10.3663 18.6513 14.7862 14.2314C18.6995 10.3182 25.0177 9.82661 29.4828 13.088ZM38.455 8.8171L36.1991 8.693L36.075 6.43702C36.0712 6.36924 36.048 6.30399 36.008 6.24915C35.9679 6.19431 35.9129 6.15222 35.8495 6.12797C35.7861 6.10372 35.717 6.09835 35.6507 6.1125C35.5843 6.12665 35.5234 6.15972 35.4754 6.20771L31.0382 10.6449C31.0033 10.6798 30.9761 10.7217 30.9584 10.7679C30.9408 10.8141 30.9331 10.8634 30.9357 10.9128L31.0685 13.3263L24.5965 19.7984C24.0796 19.4184 23.457 19.2128 22.8021 19.2128C21.9905 19.2128 21.2281 19.5281 20.6556 20.1007C19.4722 21.2842 19.9691 22.7129 21.1526 23.8964C21.7444 24.4882 22.0248 25.2811 22.8021 25.2811C23.5794 25.2811 24.3567 24.9853 24.9485 24.3935C25.521 23.821 25.8363 23.0586 25.8363 22.247C25.8363 21.5164 25.58 20.8262 25.1113 20.278L31.5657 13.8235L33.9793 13.9563C34.0287 13.959 34.078 13.9513 34.1242 13.9337C34.1704 13.916 34.2123 13.8889 34.2473 13.8539L38.6844 9.41678C38.7325 9.36877 38.7656 9.30788 38.7797 9.24147C38.7939 9.17505 38.7885 9.10596 38.7643 9.04253C38.74 8.97911 38.6979 8.92407 38.643 8.88406C38.5881 8.84406 38.5229 8.8208 38.455 8.8171ZM35.416 7.26126L31.6463 11.031L31.7359 12.6588L35.5056 8.88917L35.416 7.26126Z" fill="url(#paint0_linear_123_897)"/>
</g>
<defs>
<linearGradient id="paint0_linear_123_897" x1="0" y1="22.5" x2="45" y2="22.5" gradientUnits="userSpaceOnUse">
<stop stop-color="#29B5E2"/>
<stop offset="1" stop-color="#0071BC"/>
</linearGradient>
<clipPath id="clip0_123_897">
<rect width="45" height="45" fill="white"/>
</clipPath>
</defs>
</svg>
