<svg width="70" height="70" viewBox="0 0 70 70" fill="none" xmlns="http://www.w3.org/2000/svg">
<g clip-path="url(#clip0_157_889)">
<path d="M22.6967 45.2548C26.0938 45.2548 28.8476 42.5004 28.8476 39.1028C28.8476 35.7051 26.0938 32.9507 22.6967 32.9507C19.2997 32.9507 16.5459 35.7051 16.5459 39.1028C16.5459 42.5004 19.2997 45.2548 22.6967 45.2548Z" fill="url(#paint0_linear_157_889)"/>
<path d="M40.9918 2.05316C40.9918 0.496477 39.3192 -0.495008 37.9538 0.256125L34.9791 1.89169L31.8559 0.240129C31.5606 0.0840356 31.2316 0.00244138 30.8976 0.00244138C30.5636 0.00244138 30.2346 0.0840356 29.9394 0.240129L26.797 1.90181L23.6548 0.240266C23.3595 0.0841724 23.0306 0.0025781 22.6965 0.0025781C22.3625 0.0025781 22.0336 0.0841724 21.7383 0.240266L18.5959 1.90195L15.4537 0.240266C15.1584 0.0841724 14.8295 0.0025781 14.4955 0.0025781C14.1615 0.0025781 13.8325 0.0841724 13.5372 0.240266L10.3815 1.90905L7.11348 0.229192C5.75135 -0.470535 4.12604 0.519582 4.12604 2.05316V10.3927H40.9918V2.05316ZM32.8563 58.0407C29.9011 46.896 35.3846 36.3249 45.229 36.8043C44.9701 32.5808 46.3325 24.7232 42.1332 14.4943H3.00645C1.03414 19.3792 0 24.6533 0 29.9179V67.9494C0 69.0818 0.91793 70.0001 2.05023 70.0001H39.9809C36.5367 66.9144 34.0452 62.5244 32.8563 58.0407ZM22.6965 49.3562C17.0439 49.3562 12.4452 44.7566 12.4452 39.1027C12.4452 33.4488 17.044 28.8492 22.6965 28.8492C28.349 28.8492 32.9479 33.4488 32.9479 39.1027C32.9479 44.7566 28.349 49.3562 22.6965 49.3562Z" fill="url(#paint1_linear_157_889)"/>
<path d="M69.5589 48.2275C67.759 40.7131 60.8655 38.7114 54.9845 43.4454C54.8305 42.4297 54.6122 41.4249 54.3309 40.4369C54.5301 40.4471 54.3167 40.4387 57.5491 40.4424C60.9407 40.4424 63.7 37.6826 63.7 34.2903V31.1786C63.7 30.046 62.782 29.1279 61.6497 29.1279H58.5385C55.147 29.1279 52.3877 31.8877 52.3877 35.28V35.6248C51.6275 34.2 50.7265 32.855 49.6982 31.6098C48.9766 30.7367 47.6843 30.6142 46.8116 31.3357C45.939 32.0573 45.8163 33.3499 46.5377 34.2228C48.6743 36.8081 50.1221 39.8851 50.7705 43.1441C44.9827 38.8038 38.3486 40.8579 36.5834 48.2275C33.9237 59.3318 44.0174 73.2246 52.7938 69.3243C52.8811 69.2855 52.9756 69.2655 53.0712 69.2655C53.1668 69.2655 53.2613 69.2855 53.3487 69.3243C62.0362 73.1845 72.2588 59.4996 69.5589 48.2275Z" fill="url(#paint2_linear_157_889)"/>
</g>
<defs>
<linearGradient id="paint0_linear_157_889" x1="22.6967" y1="32.9507" x2="22.6967" y2="45.2548" gradientUnits="userSpaceOnUse">
<stop stop-color="#4592CA"/>
<stop offset="1" stop-color="#5FBEDB"/>
</linearGradient>
<linearGradient id="paint1_linear_157_889" x1="22.6225" y1="0" x2="22.6225" y2="70.0001" gradientUnits="userSpaceOnUse">
<stop stop-color="#4592CA"/>
<stop offset="1" stop-color="#5FBEDB"/>
</linearGradient>
<linearGradient id="paint2_linear_157_889" x1="53.075" y1="29.1279" x2="53.075" y2="69.9956" gradientUnits="userSpaceOnUse">
<stop stop-color="#4592CA"/>
<stop offset="1" stop-color="#5FBEDB"/>
</linearGradient>
<clipPath id="clip0_157_889">
<rect width="70" height="70" fill="white"/>
</clipPath>
</defs>
</svg>
