<svg width="70" height="70" viewBox="0 0 70 70" fill="none" xmlns="http://www.w3.org/2000/svg">
<path d="M64.1566 7.75464H43.776C45.2704 9.72901 46.0965 12.1284 46.1344 14.6042H64.1566C64.6064 14.6042 65.0517 14.5157 65.4673 14.3436C65.8828 14.1714 66.2603 13.9192 66.5783 13.6011C66.8964 13.2831 67.1486 12.9056 67.3207 12.4901C67.4929 12.0745 67.5814 11.6292 67.5814 11.1794C67.5814 10.7297 67.4929 10.2843 67.3207 9.86883C67.1486 9.45331 66.8964 9.07576 66.5783 8.75774C66.2603 8.43972 65.8828 8.18745 65.4673 8.01534C65.0517 7.84322 64.6064 7.75464 64.1566 7.75464ZM5.81738 7.75464C5.36763 7.75464 4.92228 7.84322 4.50677 8.01534C4.09125 8.18745 3.7137 8.43972 3.39568 8.75774C3.07766 9.07576 2.82539 9.45331 2.65328 9.86883C2.48116 10.2843 2.39258 10.7297 2.39258 11.1794C2.39258 11.6292 2.48116 12.0745 2.65328 12.4901C2.82539 12.9056 3.07766 13.2831 3.39568 13.6011C3.7137 13.9192 4.09125 14.1714 4.50677 14.3436C4.92228 14.5157 5.36763 14.6042 5.81738 14.6042H22.5818C22.6197 12.1284 23.4458 9.72901 24.9402 7.75464H5.81738ZM39.9943 29.456C37.4658 29.5152 35.059 30.5539 33.2814 32.3531L29.0979 36.538L42.0629 49.5031L46.2465 45.3181C48.0464 43.5416 49.0853 41.1349 49.1436 38.6066C49.1813 37.3948 48.9704 36.1882 48.524 35.061C48.0776 33.9338 47.4051 32.91 46.5479 32.0527C45.6907 31.1953 44.667 30.5226 43.5399 30.0761C42.4127 29.6295 41.2061 29.4185 39.9943 29.456ZM23.7521 41.8837C21.9528 43.6607 20.914 46.0671 20.8551 48.5953C20.8194 49.8068 21.0314 51.0129 21.4781 52.1396C21.9248 53.2664 22.5967 54.2901 23.4527 55.1482C27.0279 58.722 32.9779 58.588 36.7145 54.8488L40.8994 50.6624L27.9344 37.6988L23.7521 41.8837Z" fill="url(#paint0_linear_157_921)"/>
<path d="M51.0289 21.8967H43.7828C42.6858 23.3603 41.2629 24.5483 39.6271 25.3666C37.9912 26.1848 36.1872 26.6108 34.3581 26.6108C32.529 26.6108 30.725 26.1848 29.0892 25.3666C27.4533 24.5483 26.0304 23.3603 24.9334 21.8967H18.9711C15.1738 21.9011 11.5333 23.4115 8.84824 26.0965C6.16316 28.7816 4.65278 32.4221 4.64844 36.2194V50.985C4.65386 54.7817 6.16468 58.4213 8.84961 61.1057C11.5345 63.7901 15.1744 65.3002 18.9711 65.3049H51.0289C54.8264 65.3006 58.4671 63.79 61.1522 61.1046C63.8374 58.4193 65.3476 54.7784 65.3516 50.9809V36.2153C65.3465 32.4186 63.8358 28.779 61.1507 26.0947C58.4657 23.4104 54.8256 21.9007 51.0289 21.8967ZM47.4072 46.4842L42.6426 51.2434L37.8711 56.0081C35.796 58.1079 32.9858 59.3188 30.0344 59.385H29.7992C28.3856 59.395 26.9845 59.12 25.6796 58.5764C24.3747 58.0328 23.1927 57.2318 22.2042 56.2213C21.2157 55.2107 20.441 54.0113 19.9264 52.6947C19.4118 51.3781 19.1678 49.9713 19.209 48.5583C19.2764 45.6067 20.4871 42.7965 22.5859 40.7202L27.3561 35.9569L32.1289 31.1936C34.2046 29.0937 37.0151 27.8823 39.967 27.8153C41.3997 27.7743 42.8256 28.0263 44.1575 28.5558C45.4893 29.0854 46.699 29.8813 47.7124 30.8948C48.7258 31.9084 49.5216 33.1182 50.051 34.4501C50.5804 35.782 50.8322 37.208 50.791 38.6407C50.7236 41.5952 49.5102 44.4079 47.4072 46.4842Z" fill="url(#paint1_linear_157_921)"/>
<path d="M34.3588 4.69482C32.3537 4.69455 30.3935 5.28889 28.7262 6.40267C27.0589 7.51645 25.7593 9.09965 24.9918 10.952C24.2243 12.8044 24.0233 14.8428 24.4144 16.8094C24.8054 18.7761 25.7708 20.5826 27.1885 22.0005C28.6062 23.4184 30.4126 24.384 32.3792 24.7753C34.3457 25.1666 36.3841 24.9659 38.2366 24.1987C40.0891 23.4314 41.6725 22.132 42.7865 20.4649C43.9005 18.7977 44.4951 16.8376 44.4951 14.8325C44.4919 12.1451 43.4229 9.56861 41.5227 7.66816C39.6226 5.76772 37.0462 4.69844 34.3588 4.69482ZM30.5635 18.7769H27.8291C27.6463 18.7757 27.4673 18.7247 27.3113 18.6294C27.1553 18.5341 27.0283 18.398 26.9439 18.2359C26.8595 18.0737 26.821 17.8916 26.8324 17.7092C26.8438 17.5267 26.9048 17.3508 27.0088 17.2005L29.5094 13.5624C29.6241 13.3879 29.6654 13.1752 29.6242 12.9704C29.5992 12.8129 29.5127 12.6718 29.3836 12.578C29.3625 12.5598 29.3372 12.5471 29.31 12.5411C29.2828 12.5351 29.2545 12.5361 29.2277 12.5438C28.8955 12.6231 28.4074 13.2083 28.19 13.5993C28.0818 13.7853 27.9049 13.9214 27.6973 13.9782C27.4897 14.0349 27.2681 14.0078 27.0803 13.9027C26.8925 13.7976 26.7536 13.6229 26.6934 13.4163C26.6332 13.2097 26.6566 12.9877 26.7586 12.7981C26.9035 12.5384 27.6842 11.2313 28.8367 10.9497C29.0828 10.8888 29.339 10.8807 29.5885 10.9257C29.838 10.9707 30.0752 11.0678 30.2846 11.2108C30.5337 11.3759 30.7469 11.5896 30.9114 11.8391C31.0758 12.0886 31.1881 12.3688 31.2416 12.6628C31.3015 12.9779 31.2985 13.3017 31.2328 13.6157C31.1671 13.9296 31.04 14.2274 30.8588 14.4921L29.0391 17.1294H30.5635C30.781 17.1294 30.9897 17.2158 31.1435 17.3697C31.2974 17.5235 31.3838 17.7321 31.3838 17.9497C31.3838 18.1673 31.2974 18.3759 31.1435 18.5298C30.9897 18.6836 30.781 18.77 30.5635 18.77V18.7769ZM36.2209 16.1519V17.9565C36.2209 18.1741 36.1345 18.3828 35.9806 18.5366C35.8268 18.6904 35.6182 18.7769 35.4006 18.7769C35.183 18.7769 34.9744 18.6904 34.8205 18.5366C34.6667 18.3828 34.5803 18.1741 34.5803 17.9565V16.1491H32.0893C31.9499 16.1491 31.8129 16.1135 31.6911 16.0458C31.5693 15.978 31.4667 15.8804 31.3931 15.7621C31.3195 15.6437 31.2773 15.5086 31.2704 15.3694C31.2635 15.2302 31.2922 15.0915 31.3537 14.9665L33.1311 11.3517C33.2028 11.2084 33.315 11.0894 33.4536 11.0092C33.5923 10.9289 33.7514 10.8911 33.9113 10.9002C34.0713 10.9094 34.225 10.9652 34.3536 11.0607C34.4822 11.1562 34.58 11.2873 34.635 11.4378C34.7043 11.2567 34.8356 11.106 35.0056 11.0125C35.1755 10.919 35.3731 10.8887 35.5632 10.9271C35.7534 10.9654 35.9238 11.0699 36.0442 11.222C36.1646 11.374 36.2272 11.5639 36.2209 11.7577V14.5153C36.4233 14.5356 36.6109 14.6304 36.7473 14.7812C36.8837 14.932 36.9593 15.1282 36.9593 15.3315C36.9593 15.5349 36.8837 15.731 36.7473 15.8819C36.6109 16.0327 36.4233 16.1274 36.2209 16.1478V16.1519ZM41.2412 18.7769C41.0237 18.7769 40.815 18.6904 40.6612 18.5366C40.5073 18.3828 40.4209 18.1741 40.4209 17.9565V15.6597H39.0688V17.9565C39.0688 18.1741 38.9823 18.3828 38.8285 18.5366C38.6747 18.6904 38.466 18.7769 38.2484 18.7769C38.0309 18.7769 37.8222 18.6904 37.6684 18.5366C37.5146 18.3828 37.4281 18.1741 37.4281 17.9565V11.7153C37.4281 11.4978 37.5146 11.2891 37.6684 11.1353C37.8222 10.9814 38.0309 10.895 38.2484 10.895C38.466 10.895 38.6747 10.9814 38.8285 11.1353C38.9823 11.2891 39.0688 11.4978 39.0688 11.7153V14.0122H40.4209V11.7153C40.4209 11.4978 40.5073 11.2891 40.6612 11.1353C40.815 10.9814 41.0237 10.895 41.2412 10.895C41.4588 10.895 41.6674 10.9814 41.8213 11.1353C41.9751 11.2891 42.0615 11.4978 42.0615 11.7153V17.9497C42.0615 18.1673 41.9751 18.3759 41.8213 18.5298C41.6674 18.6836 41.4588 18.77 41.2412 18.77V18.7769Z" fill="url(#paint2_linear_157_921)"/>
<path d="M34.5804 14.5084V12.135L33.4087 14.5084H34.5804Z" fill="url(#paint3_linear_157_921)"/>
<defs>
<linearGradient id="paint0_linear_157_921" x1="34.987" y1="7.75464" x2="34.987" y2="57.7433" gradientUnits="userSpaceOnUse">
<stop stop-color="#4491C9"/>
<stop offset="1" stop-color="#60C1DC"/>
</linearGradient>
<linearGradient id="paint1_linear_157_921" x1="35" y1="21.8967" x2="35" y2="65.3049" gradientUnits="userSpaceOnUse">
<stop stop-color="#4491C9"/>
<stop offset="1" stop-color="#60C1DC"/>
</linearGradient>
<linearGradient id="paint2_linear_157_921" x1="34.3574" y1="4.69482" x2="34.3574" y2="24.9702" gradientUnits="userSpaceOnUse">
<stop stop-color="#4491C9"/>
<stop offset="1" stop-color="#60C1DC"/>
</linearGradient>
<linearGradient id="paint3_linear_157_921" x1="33.9945" y1="12.135" x2="33.9945" y2="14.5084" gradientUnits="userSpaceOnUse">
<stop stop-color="#4491C9"/>
<stop offset="1" stop-color="#60C1DC"/>
</linearGradient>
</defs>
</svg>
