<svg width="144" height="144" viewBox="0 0 144 144" fill="none" xmlns="http://www.w3.org/2000/svg">
<path d="M116.207 87.8638C116.253 87.6764 116.297 87.4902 116.338 87.3053C118.237 78.7935 114.487 69.7181 107.006 64.7206C105.293 63.5758 102.586 62.0321 99.4199 61.1787C96.2228 60.3165 93.3306 60.365 90.8235 61.3222C86.6676 62.9092 83.8034 66.8887 82.3095 73.1511C80.2762 81.6709 74.0634 86.3029 68.581 90.3886C65.2621 92.8622 62.3959 94.9985 60.8167 97.6841C59.007 100.763 59.2443 104.161 61.5439 108.074C61.9507 108.768 62.4445 109.409 63.0132 109.98C65.9574 112.932 70.9326 114.032 77.5846 113.166C92.6427 111.205 113.422 99.1447 116.207 87.8638ZM100.976 57.7067C101.244 57.9753 101.536 58.2188 101.848 58.4341C103.511 59.5835 105.599 59.8668 107.727 59.2318C109.768 58.623 111.611 57.2295 112.919 55.3089C115.669 51.2684 115.177 46.0965 111.824 43.7794C110.161 42.6302 108.073 42.3469 105.945 42.9819C103.904 43.5907 102.06 44.9841 100.753 46.9048C98.2614 50.5642 98.4298 55.1525 100.976 57.7067ZM112.375 65.8283C112.458 65.9244 112.544 66.017 112.632 66.1059C114.893 68.3728 118.885 68.2844 121.73 65.8387C123.099 64.691 124.021 63.0978 124.339 61.3289C124.632 59.5505 124.19 57.8738 123.097 56.6092C120.896 54.0613 116.697 54.0572 113.741 56.5988C112.372 57.7464 111.45 59.3396 111.132 61.1083C110.84 62.8877 111.281 64.5635 112.375 65.8283ZM119.994 74.9413C120.056 75.0127 120.12 75.0814 120.186 75.1473C121.842 76.8087 124.75 76.7608 126.811 74.9885C127.797 74.1606 128.46 73.0118 128.688 71.7368C128.805 71.1299 128.782 70.5019 128.623 69.8998C128.463 69.2976 128.17 68.7366 127.767 68.2586C126.151 66.3913 123.093 66.3685 120.95 68.2111C119.963 69.0392 119.3 70.1883 119.072 71.4637C118.956 72.0707 118.978 72.6985 119.138 73.3005C119.298 73.9026 119.591 74.4634 119.994 74.9413ZM120.818 80.1136C120.577 80.606 120.451 81.1486 120.449 81.7009C120.448 82.2532 120.571 82.801 120.809 83.3036C120.98 83.6541 121.209 83.9743 121.485 84.2505C122.71 85.4789 124.802 85.8103 126.653 84.9348C127.687 84.4604 128.518 83.64 129.006 82.6126C129.247 82.1201 129.373 81.5775 129.375 81.0252C129.377 80.4729 129.254 79.9251 129.015 79.4224C128.055 77.4528 125.434 76.7212 123.172 77.7906C122.137 78.2651 121.306 79.0858 120.818 80.1136ZM126.996 89.8141C126.786 87.6458 124.573 86.0414 122.064 86.2376C120.922 86.314 119.85 86.7832 119.027 87.5657C118.627 87.9383 118.316 88.3981 118.12 88.9108C117.924 89.4236 117.847 89.9761 117.894 90.5273C117.982 91.3699 118.365 92.1595 118.976 92.7561C119.487 93.245 120.096 93.6188 120.761 93.8516C121.426 94.0843 122.131 94.1704 122.827 94.1038C123.969 94.0275 125.042 93.5582 125.864 92.7754C126.265 92.4029 126.575 91.9432 126.771 91.4304C126.967 90.9177 127.044 90.3653 126.996 89.8141ZM63.6812 48.6738C56.8116 42.8564 47.0964 41.7849 39.5061 46.0073C39.341 46.0991 39.1753 46.1935 39.009 46.2905C29.3907 51.9309 23.8962 71.737 25.4086 85.6784C26.0447 91.539 27.858 96.0422 30.6389 98.8311C31.7742 99.9874 33.1536 100.874 34.6721 101.424C38.9999 102.972 42.1747 102.656 44.6632 100.429C46.8253 98.4939 48.1578 95.3837 49.7008 91.7826C52.232 85.8746 55.1009 79.1779 62.5688 74.8785C68.1251 71.679 71.1192 67.7972 71.4674 63.3409C71.6774 60.6522 70.9116 57.847 69.1913 55.003C67.4884 52.1858 65.2551 50.0062 63.6812 48.6738ZM37.1023 54.1195C37.2517 53.9074 37.403 53.699 37.5561 53.4944C37.7237 53.2704 37.9748 53.1237 38.254 53.0868C38.5331 53.0499 38.8176 53.1256 39.0447 53.2974C39.2719 53.4692 39.4231 53.723 39.4652 54.0029C39.5073 54.2828 39.4367 54.566 39.2691 54.79C39.1278 54.9788 38.9882 55.1712 38.8502 55.3672C38.7704 55.4805 38.6688 55.5765 38.5511 55.6498C38.4335 55.7232 38.3021 55.7723 38.1645 55.7945C38.0269 55.8167 37.8858 55.8115 37.7492 55.7791C37.6126 55.7468 37.4833 55.688 37.3685 55.6061C37.2538 55.5242 37.1558 55.4208 37.0804 55.3017C37.0049 55.1827 36.9533 55.0504 36.9286 54.9124C36.9039 54.7743 36.9065 54.6333 36.9363 54.4973C36.9662 54.3613 37.0224 54.2328 37.1023 54.1195ZM31.3011 71.1956C31.165 71.1615 31.0363 71.1011 30.9226 71.0177C30.8089 70.9343 30.7122 70.8297 30.6383 70.7097C30.5643 70.5898 30.5144 70.4568 30.4915 70.3185C30.4685 70.1802 30.473 70.0393 30.5046 69.9037C31.5708 65.3237 33.1343 61.0368 35.0261 57.5074C35.0917 57.3851 35.1808 57.2774 35.2886 57.1904C35.3964 57.1034 35.5207 57.0387 35.6543 57.0002C35.9242 56.9224 36.216 56.9555 36.4654 57.0924C36.7148 57.2293 36.9014 57.4586 36.9842 57.73C37.067 58.0014 37.0392 58.2927 36.9069 58.5396C35.1007 61.9105 33.604 66.0194 32.579 70.423C32.5474 70.5586 32.4893 70.6862 32.4079 70.7984C32.3266 70.9106 32.2236 71.0054 32.105 71.0771C31.9863 71.1489 31.8542 71.1963 31.7162 71.2166C31.5783 71.237 31.4373 71.2297 31.3011 71.1956ZM70.6673 51.4686C70.8142 51.616 70.9684 51.7559 71.1292 51.8879C72.6931 53.1708 74.7533 53.6277 76.93 53.1747C79.0175 52.7401 80.9746 51.5084 82.441 49.7075C85.5248 45.9186 85.4706 40.7323 82.3155 38.1447C80.7515 36.8616 78.6914 36.4045 76.5145 36.8578C74.4268 37.2925 72.4699 38.524 71.0035 40.325C68.0773 43.9187 67.9777 48.7712 70.6673 51.4686ZM59.5749 42.7229C60.021 43.1716 60.5432 43.5374 61.1161 43.8026C62.6302 44.5029 64.3536 44.458 65.97 43.6765C67.5689 42.8729 68.8306 41.5358 69.5412 39.892C71.1368 36.3254 69.9543 32.2764 66.9049 30.8659C65.391 30.1655 63.6674 30.2105 62.0512 30.9918C60.4522 31.7955 59.1904 33.1325 58.4797 34.7764C57.1899 37.6596 57.7155 40.8579 59.5749 42.7229ZM49.1367 38.2063C49.4675 38.539 49.8547 38.8102 50.2795 39.0068C50.8491 39.2624 51.4667 39.3873 52.0862 39.3723C52.7058 39.3573 53.3115 39.2027 53.8582 38.92C55.0115 38.3416 55.922 37.3784 56.4352 36.1938C57.5921 33.6083 56.7134 30.6626 54.4764 29.6283C53.9067 29.3727 53.2891 29.2478 52.6695 29.2628C52.0498 29.2778 51.4441 29.4324 50.8973 29.7151C49.7442 30.2935 48.8338 31.2567 48.3205 32.4412C47.3878 34.5259 47.7783 36.8439 49.1367 38.2063ZM40.125 39.5376C40.6519 40.076 41.3327 40.4369 42.0698 40.5684C42.6165 40.6574 43.1741 40.6223 43.7008 40.4657C44.2276 40.3091 44.7101 40.0351 45.1124 39.6639C45.956 38.9044 46.5056 37.8717 46.6682 36.7409C47.0537 34.2574 45.6181 31.9324 43.4702 31.5593C42.9235 31.4703 42.366 31.5054 41.8392 31.662C41.3124 31.8186 40.8299 32.0926 40.4276 32.4637C39.5839 33.2232 39.0343 34.256 38.872 35.3869C38.6212 37.0022 39.14 38.5501 40.125 39.5376ZM31.1959 41.653C31.3921 42.626 31.8695 43.5249 32.5685 44.2375C33.4976 45.1694 34.7497 45.6463 35.9935 45.4093C36.533 45.3005 37.0389 45.0709 37.4733 44.7375C37.9076 44.4042 38.2594 43.9757 38.5023 43.484C39.0184 42.4707 39.165 41.3037 38.9173 40.1807C38.4002 37.7041 36.248 36.019 34.1196 36.4243C33.5801 36.5332 33.0743 36.7628 32.64 37.0961C32.2056 37.4294 31.8538 37.8577 31.6107 38.3493C31.0946 39.3625 30.948 40.5295 31.1957 41.6525L31.1959 41.653Z" fill="#6C6C6C" fill-opacity="0.1"/>
</svg>
