<svg width="113" height="109" viewBox="0 0 113 109" fill="none" xmlns="http://www.w3.org/2000/svg">
<rect x="0.499634" y="0.5" width="112" height="108" rx="6.5" stroke="#FAFAFA"/>
<g clip-path="url(#clip0_20_414)">
<path fill-rule="evenodd" clip-rule="evenodd" d="M38.4218 45.2734C38.4218 43.75 39.7108 42.5781 41.1171 42.5781H42.2889V41.4062C42.2889 40 43.4608 38.7109 44.9843 38.7109H45.5702C47.0936 38.7109 48.2655 40 48.2655 41.4062V42.5781H49.4374C50.8436 42.5781 52.0155 43.75 52.0155 45.2734V45.8594C52.0155 47.3828 50.8436 48.5547 49.4374 48.5547H48.2655V49.7266C48.2655 51.1328 47.0936 52.3047 45.5702 52.3047H44.9843C43.4608 52.3047 42.2889 51.1328 42.2889 49.7266V48.5547H41.1171C39.7108 48.5547 38.4218 47.3828 38.4218 45.8594V45.2734ZM35.0233 67.0703C35.0233 68.125 35.9608 68.9453 37.0155 68.9453C38.0702 68.9453 39.0077 68.125 39.0077 67.0703C39.0077 66.0156 38.0702 65.0781 37.0155 65.0781C35.9608 65.0781 35.0233 66.0156 35.0233 67.0703ZM30.1014 68.7109C29.9843 68.2422 29.8671 67.6562 29.8671 67.0703V66.3672H27.2889C26.5858 66.3672 25.9999 66.9531 25.9999 67.5391C25.9999 68.2422 26.5858 68.7109 27.2889 68.7109H30.1014ZM81.5468 67.0703C81.5468 67.6562 81.4296 68.2422 81.3124 68.7109H84.7108C85.4139 68.7109 85.9999 68.2422 85.9999 67.5391C85.9999 66.8359 85.4139 66.25 84.7108 66.25H81.5468V67.0703ZM76.3905 67.0703C76.3905 66.0156 75.453 65.0781 74.3983 65.0781C73.3436 65.0781 72.5233 66.0156 72.5233 67.0703C72.5233 68.125 73.3436 68.9453 74.3983 68.9453C75.453 68.9453 76.3905 68.125 76.3905 67.0703ZM80.0233 65.1953C79.203 62.8516 76.9764 61.0938 74.3983 61.0938C71.1171 61.0938 68.5389 63.7891 68.5389 66.9531C68.5389 70.2344 71.1171 72.9297 74.3983 72.9297C76.7421 72.9297 78.7343 71.6406 79.6718 69.6484C79.6718 69.5312 79.7889 69.4141 79.7889 69.4141C80.1405 68.7109 80.2577 67.8906 80.2577 67.0703C80.2577 66.6016 80.2577 66.1328 80.1405 65.6641C80.0233 65.5469 80.0233 65.4297 80.0233 65.1953ZM74.3983 63.0859C76.6249 63.0859 78.3827 64.8438 78.3827 67.0703C78.3827 69.1797 76.6249 70.9375 74.3983 70.9375C72.2889 70.9375 70.5311 69.1797 70.5311 67.0703C70.5311 64.8438 72.2889 63.0859 74.3983 63.0859ZM70.0624 51.4844C70.0624 52.5391 70.9999 53.4766 72.0546 53.4766H78.6171V49.375H72.0546C70.9999 49.375 70.0624 50.3125 70.0624 51.4844ZM65.2577 45.2734V64.375H67.8358C68.8905 61.7969 71.4686 59.9219 74.3983 59.9219C77.4452 59.9219 80.0233 61.7969 81.078 64.375H83.7733V58.2812C83.7733 56.6406 82.4843 55.2344 80.7264 55.2344H72.0546C70.0624 55.2344 68.3046 53.4766 68.3046 51.4844C68.3046 49.375 70.0624 47.6172 72.0546 47.6172H78.4999V46.6797C78.4999 45.8594 77.9139 45.2734 77.2108 45.2734H65.2577ZM64.3202 66.25H44.1639V67.0703C44.1639 67.6562 44.1639 68.125 44.0468 68.7109H67.4843C67.3671 68.125 67.2499 67.6562 67.2499 67.0703C67.2499 66.8359 67.2499 66.4844 67.3671 66.25H64.3202ZM42.6405 65.0781C41.8202 62.7344 39.5936 61.0938 37.0155 61.0938C34.4374 61.0938 32.2108 62.8516 31.3905 65.1953C31.3905 65.4297 31.3905 65.6641 31.2733 65.7812C31.1561 66.1328 31.1561 66.6016 31.1561 66.9531C31.1561 70.2344 33.7343 72.9297 37.0155 72.9297C39.2421 72.9297 41.2343 71.6406 42.2889 69.7656C42.2889 69.5312 42.4061 69.4141 42.5233 69.1797C42.7577 68.5938 42.9921 67.7734 42.9921 67.0703C42.9921 66.6016 42.8749 66.25 42.7577 65.7812C42.6405 65.6641 42.6405 65.4297 42.6405 65.1953V65.0781ZM37.0155 63.0859C39.1249 63.0859 40.9999 64.8438 40.9999 67.0703C40.9999 69.1797 39.1249 70.9375 37.0155 70.9375C34.7889 70.9375 33.0311 69.1797 33.0311 67.0703C33.0311 64.8438 34.7889 63.0859 37.0155 63.0859ZM63.4999 55.2344H28.578V64.4922H30.3358C31.3905 61.7969 33.9686 59.9219 37.0155 59.9219C40.0624 59.9219 42.6405 61.7969 43.6952 64.375H63.4999V55.2344ZM41.1171 44.3359C40.6483 44.3359 40.2968 44.8047 40.2968 45.2734V45.8594C40.2968 46.3281 40.6483 46.6797 41.1171 46.6797H43.2264C43.6952 46.6797 44.0468 47.1484 44.0468 47.6172V49.7266C44.0468 50.1953 44.5155 50.5469 44.9843 50.5469H45.6874C46.1561 50.5469 46.5077 50.1953 46.5077 49.7266V47.6172C46.5077 47.1484 46.8593 46.6797 47.4452 46.6797H49.4374C49.9061 46.6797 50.3749 46.3281 50.3749 45.8594V45.2734C50.3749 44.8047 49.9061 44.3359 49.4374 44.3359H47.4452C46.8593 44.3359 46.5077 43.9844 46.5077 43.3984V41.4062C46.5077 40.9375 46.1561 40.4688 45.6874 40.4688H44.9843C44.5155 40.4688 44.0468 40.9375 44.0468 41.4062V43.3984C44.0468 43.9844 43.6952 44.3359 43.1093 44.3359H41.1171ZM63.3827 53.4766V37.6562H28.578V53.4766H63.3827Z" fill="url(#paint0_linear_20_414)"/>
</g>
<g clip-path="url(#clip1_20_414)">
<path fill-rule="evenodd" clip-rule="evenodd" d="M38.4218 45.2734C38.4218 43.75 39.7108 42.5781 41.1171 42.5781H42.2889V41.4062C42.2889 40 43.4608 38.7109 44.9843 38.7109H45.5702C47.0936 38.7109 48.2655 40 48.2655 41.4062V42.5781H49.4374C50.8436 42.5781 52.0155 43.75 52.0155 45.2734V45.8594C52.0155 47.3828 50.8436 48.5547 49.4374 48.5547H48.2655V49.7266C48.2655 51.1328 47.0936 52.3047 45.5702 52.3047H44.9843C43.4608 52.3047 42.2889 51.1328 42.2889 49.7266V48.5547H41.1171C39.7108 48.5547 38.4218 47.3828 38.4218 45.8594V45.2734ZM35.0233 67.0703C35.0233 68.125 35.9608 68.9453 37.0155 68.9453C38.0702 68.9453 39.0077 68.125 39.0077 67.0703C39.0077 66.0156 38.0702 65.0781 37.0155 65.0781C35.9608 65.0781 35.0233 66.0156 35.0233 67.0703ZM30.1014 68.7109C29.9843 68.2422 29.8671 67.6562 29.8671 67.0703V66.3672H27.2889C26.5858 66.3672 25.9999 66.9531 25.9999 67.5391C25.9999 68.2422 26.5858 68.7109 27.2889 68.7109H30.1014ZM81.5468 67.0703C81.5468 67.6562 81.4296 68.2422 81.3124 68.7109H84.7108C85.4139 68.7109 85.9999 68.2422 85.9999 67.5391C85.9999 66.8359 85.4139 66.25 84.7108 66.25H81.5468V67.0703ZM76.3905 67.0703C76.3905 66.0156 75.453 65.0781 74.3983 65.0781C73.3436 65.0781 72.5233 66.0156 72.5233 67.0703C72.5233 68.125 73.3436 68.9453 74.3983 68.9453C75.453 68.9453 76.3905 68.125 76.3905 67.0703ZM80.0233 65.1953C79.203 62.8516 76.9764 61.0938 74.3983 61.0938C71.1171 61.0938 68.5389 63.7891 68.5389 66.9531C68.5389 70.2344 71.1171 72.9297 74.3983 72.9297C76.7421 72.9297 78.7343 71.6406 79.6718 69.6484C79.6718 69.5312 79.7889 69.4141 79.7889 69.4141C80.1405 68.7109 80.2577 67.8906 80.2577 67.0703C80.2577 66.6016 80.2577 66.1328 80.1405 65.6641C80.0233 65.5469 80.0233 65.4297 80.0233 65.1953ZM74.3983 63.0859C76.6249 63.0859 78.3827 64.8438 78.3827 67.0703C78.3827 69.1797 76.6249 70.9375 74.3983 70.9375C72.2889 70.9375 70.5311 69.1797 70.5311 67.0703C70.5311 64.8438 72.2889 63.0859 74.3983 63.0859ZM70.0624 51.4844C70.0624 52.5391 70.9999 53.4766 72.0546 53.4766H78.6171V49.375H72.0546C70.9999 49.375 70.0624 50.3125 70.0624 51.4844ZM65.2577 45.2734V64.375H67.8358C68.8905 61.7969 71.4686 59.9219 74.3983 59.9219C77.4452 59.9219 80.0233 61.7969 81.078 64.375H83.7733V58.2812C83.7733 56.6406 82.4843 55.2344 80.7264 55.2344H72.0546C70.0624 55.2344 68.3046 53.4766 68.3046 51.4844C68.3046 49.375 70.0624 47.6172 72.0546 47.6172H78.4999V46.6797C78.4999 45.8594 77.9139 45.2734 77.2108 45.2734H65.2577ZM64.3202 66.25H44.1639V67.0703C44.1639 67.6562 44.1639 68.125 44.0468 68.7109H67.4843C67.3671 68.125 67.2499 67.6562 67.2499 67.0703C67.2499 66.8359 67.2499 66.4844 67.3671 66.25H64.3202ZM42.6405 65.0781C41.8202 62.7344 39.5936 61.0938 37.0155 61.0938C34.4374 61.0938 32.2108 62.8516 31.3905 65.1953C31.3905 65.4297 31.3905 65.6641 31.2733 65.7812C31.1561 66.1328 31.1561 66.6016 31.1561 66.9531C31.1561 70.2344 33.7343 72.9297 37.0155 72.9297C39.2421 72.9297 41.2343 71.6406 42.2889 69.7656C42.2889 69.5312 42.4061 69.4141 42.5233 69.1797C42.7577 68.5938 42.9921 67.7734 42.9921 67.0703C42.9921 66.6016 42.8749 66.25 42.7577 65.7812C42.6405 65.6641 42.6405 65.4297 42.6405 65.1953V65.0781ZM37.0155 63.0859C39.1249 63.0859 40.9999 64.8438 40.9999 67.0703C40.9999 69.1797 39.1249 70.9375 37.0155 70.9375C34.7889 70.9375 33.0311 69.1797 33.0311 67.0703C33.0311 64.8438 34.7889 63.0859 37.0155 63.0859ZM63.4999 55.2344H28.578V64.4922H30.3358C31.3905 61.7969 33.9686 59.9219 37.0155 59.9219C40.0624 59.9219 42.6405 61.7969 43.6952 64.375H63.4999V55.2344ZM41.1171 44.3359C40.6483 44.3359 40.2968 44.8047 40.2968 45.2734V45.8594C40.2968 46.3281 40.6483 46.6797 41.1171 46.6797H43.2264C43.6952 46.6797 44.0468 47.1484 44.0468 47.6172V49.7266C44.0468 50.1953 44.5155 50.5469 44.9843 50.5469H45.6874C46.1561 50.5469 46.5077 50.1953 46.5077 49.7266V47.6172C46.5077 47.1484 46.8593 46.6797 47.4452 46.6797H49.4374C49.9061 46.6797 50.3749 46.3281 50.3749 45.8594V45.2734C50.3749 44.8047 49.9061 44.3359 49.4374 44.3359H47.4452C46.8593 44.3359 46.5077 43.9844 46.5077 43.3984V41.4062C46.5077 40.9375 46.1561 40.4688 45.6874 40.4688H44.9843C44.5155 40.4688 44.0468 40.9375 44.0468 41.4062V43.3984C44.0468 43.9844 43.6952 44.3359 43.1093 44.3359H41.1171ZM63.3827 53.4766V37.6562H28.578V53.4766H63.3827Z" fill="white"/>
</g>
<defs>
<linearGradient id="paint0_linear_20_414" x1="55.9999" y1="72.9296" x2="55.9999" y2="37.6207" gradientUnits="userSpaceOnUse">
<stop stop-color="#1AA8DC"/>
<stop offset="0.42" stop-color="#AE3B89"/>
<stop offset="1" stop-color="#F26270"/>
</linearGradient>
<clipPath id="clip0_20_414">
<rect width="60" height="60" fill="white" transform="translate(25.9999 25)"/>
</clipPath>
<clipPath id="clip1_20_414">
<rect width="60" height="60" fill="white" transform="translate(25.9999 25)"/>
</clipPath>
</defs>
</svg>
