<svg width="113" height="109" viewBox="0 0 113 109" fill="none" xmlns="http://www.w3.org/2000/svg">
<rect x="0.499634" y="0.5" width="112" height="108" rx="6.5" fill="white" stroke="url(#paint0_linear_20_449)"/>
<g clip-path="url(#clip0_20_449)">
<path d="M37.5465 58.125L35.7463 56.3672L34.0309 58.125H28.7574C27.773 58.125 26.9996 58.8983 26.9996 59.8828V73.9453C26.9996 74.9296 27.773 75.7031 28.7574 75.7031H55.1246L57.2339 79.2188L58.6403 75.7031H63.9137C64.8982 75.7031 65.6715 74.9296 65.6715 73.9453V59.8828C65.6715 58.8983 64.8982 58.125 63.9137 58.125H58.6403L56.7688 56.3672L55.1246 58.125H37.5465ZM63.9137 30H28.7574C27.773 30 26.9996 30.7733 26.9996 31.7578V52.8516C26.9996 53.8358 27.773 54.6094 28.7574 54.6094H34.0309L35.8053 56.3672L37.5465 54.6094H55.1246L56.7688 56.3672L58.6403 54.6094H63.9137C64.8982 54.6094 65.6715 53.8358 65.6715 52.8516V31.7578C65.6715 30.7733 64.8982 30 63.9137 30ZM81.7262 47.5781H74.6949C73.7105 47.5781 72.9371 48.3514 72.9371 49.3359V59.8828C72.9371 62.1679 74.4136 64.1366 76.4528 64.8397L78.2106 68.6719L79.9684 64.8397C82.0076 64.1366 83.484 62.1679 83.484 59.8828V49.3359C83.484 48.3514 82.7107 47.5781 81.7262 47.5781Z" fill="url(#paint1_linear_20_449)"/>
<path d="M85.2418 39.1797H71.1793C70.2077 39.1797 69.4215 39.9659 69.4215 40.9375V44.4532C69.4215 47.3611 71.7871 49.7266 74.6949 49.7266H81.7262C84.6341 49.7266 86.9996 47.3611 86.9996 44.4532V40.9375C86.9996 39.9659 86.2134 39.1797 85.2418 39.1797ZM37.3062 43.3752C39.9704 45.2291 43.0946 46.211 46.3356 46.211C49.5765 46.211 52.7007 45.2291 55.365 43.3752C55.7941 43.0799 56.0688 42.6061 56.1135 42.0877C56.1581 41.5694 55.9727 41.0578 55.6053 40.6904L50.4726 35.5577C49.9576 35.0393 49.1749 34.9019 48.5054 35.1972C47.139 35.8152 45.5323 35.8152 44.1658 35.1972C43.4896 34.9019 42.7135 35.0393 42.1986 35.5577L37.0659 40.6904C36.6985 41.0578 36.5131 41.5693 36.5578 42.0877C36.6024 42.6062 36.877 43.0799 37.3062 43.3752ZM39.3043 63.7891C38.3335 63.7891 37.5465 64.5761 37.5465 65.5469C37.5465 66.5177 38.3335 67.3047 39.3043 67.3047C40.2751 67.3047 41.0621 66.5177 41.0621 65.5469C41.0621 64.5761 40.2751 63.7891 39.3043 63.7891ZM46.3356 63.7891C45.3648 63.7891 44.5778 64.5761 44.5778 65.5469C44.5778 66.5177 45.3648 67.3047 46.3356 67.3047C47.3064 67.3047 48.0934 66.5177 48.0934 65.5469C48.0934 64.5761 47.3064 63.7891 46.3356 63.7891ZM53.3668 63.7891C52.396 63.7891 51.609 64.5761 51.609 65.5469C51.609 66.5177 52.396 67.3047 53.3668 67.3047C54.3376 67.3047 55.1246 66.5177 55.1246 65.5469C55.1246 64.5761 54.3376 63.7891 53.3668 63.7891ZM76.4528 63.4726V76.0938C76.4528 77.0781 75.6794 77.8516 74.6949 77.8516H60.3981C59.4136 77.8516 58.6403 77.0781 58.6403 76.0938V74.336H55.1246V76.0938C55.1246 79.0117 57.48 81.3672 60.3981 81.3672H74.6949C77.613 81.3672 79.9684 79.0117 79.9684 76.0938V63.4726C79.406 63.6835 78.8434 63.7891 78.2106 63.7891C77.5778 63.7891 77.0151 63.6835 76.4528 63.4726ZM58.6403 53.2422H34.0309V56.7579H58.6403V53.2422Z" fill="url(#paint2_linear_20_449)"/>
</g>
<defs>
<linearGradient id="paint0_linear_20_449" x1="56.4996" y1="0" x2="56.4996" y2="109" gradientUnits="userSpaceOnUse">
<stop stop-color="#0675BC"/>
<stop offset="1" stop-color="#0675BC" stop-opacity="0"/>
</linearGradient>
<linearGradient id="paint1_linear_20_449" x1="44.556" y1="72.6641" x2="72.2333" y2="29.3366" gradientUnits="userSpaceOnUse">
<stop offset="0.33" stop-color="#52C5DC"/>
<stop offset="0.63" stop-color="#3C99D4"/>
<stop offset="0.895" stop-color="#3E7ABC"/>
</linearGradient>
<linearGradient id="paint2_linear_20_449" x1="60.5153" y1="81.3672" x2="60.5153" y2="35.044" gradientUnits="userSpaceOnUse">
<stop stop-color="#ADDCFF"/>
<stop offset="0.503" stop-color="#EAF6FF"/>
<stop offset="1" stop-color="#EAF6FF"/>
</linearGradient>
<clipPath id="clip0_20_449">
<rect width="60" height="60" fill="white" transform="translate(26.9996 25)"/>
</clipPath>
</defs>
</svg>
