<svg width="230" height="190" viewBox="0 0 230 190" fill="none" xmlns="http://www.w3.org/2000/svg">
<path d="M33.2441 124.62V126H26.4678V124.62H33.2441ZM26.8105 113.203V126H25.1143V113.203H26.8105ZM32.3477 118.705V120.085H26.4678V118.705H32.3477ZM33.1562 113.203V114.592H26.4678V113.203H33.1562ZM36.1973 116.49L38.2803 119.953L40.3896 116.49H42.2969L39.1855 121.184L42.3936 126H40.5127L38.3154 122.432L36.1182 126H34.2285L37.4277 121.184L34.3252 116.49H36.1973ZM45.6543 118.318V129.656H44.0195V116.49H45.5137L45.6543 118.318ZM52.0615 121.166V121.351C52.0615 122.042 51.9795 122.684 51.8154 123.275C51.6514 123.861 51.4111 124.371 51.0947 124.805C50.7842 125.238 50.4004 125.575 49.9434 125.815C49.4863 126.056 48.9619 126.176 48.3701 126.176C47.7666 126.176 47.2334 126.076 46.7705 125.877C46.3076 125.678 45.915 125.388 45.5928 125.007C45.2705 124.626 45.0127 124.169 44.8193 123.636C44.6318 123.103 44.5029 122.502 44.4326 121.834V120.85C44.5029 120.146 44.6348 119.517 44.8281 118.96C45.0215 118.403 45.2764 117.929 45.5928 117.536C45.915 117.138 46.3047 116.836 46.7617 116.631C47.2188 116.42 47.7461 116.314 48.3438 116.314C48.9414 116.314 49.4717 116.432 49.9346 116.666C50.3975 116.895 50.7871 117.223 51.1035 117.65C51.4199 118.078 51.6572 118.591 51.8154 119.188C51.9795 119.78 52.0615 120.439 52.0615 121.166ZM50.4268 121.351V121.166C50.4268 120.691 50.377 120.246 50.2773 119.83C50.1777 119.408 50.0225 119.039 49.8115 118.723C49.6064 118.4 49.3428 118.148 49.0205 117.967C48.6982 117.779 48.3145 117.686 47.8691 117.686C47.459 117.686 47.1016 117.756 46.7969 117.896C46.498 118.037 46.2432 118.228 46.0322 118.468C45.8213 118.702 45.6484 118.972 45.5137 119.276C45.3848 119.575 45.2881 119.886 45.2236 120.208V122.484C45.3408 122.895 45.5049 123.281 45.7158 123.645C45.9268 124.002 46.208 124.292 46.5596 124.515C46.9111 124.731 47.3535 124.84 47.8867 124.84C48.3262 124.84 48.7041 124.749 49.0205 124.567C49.3428 124.38 49.6064 124.125 49.8115 123.803C50.0225 123.48 50.1777 123.111 50.2773 122.695C50.377 122.273 50.4268 121.825 50.4268 121.351ZM58.082 126.176C57.4199 126.176 56.8193 126.064 56.2803 125.842C55.7471 125.613 55.2871 125.294 54.9004 124.884C54.5195 124.474 54.2266 123.987 54.0215 123.425C53.8164 122.862 53.7139 122.247 53.7139 121.579V121.21C53.7139 120.437 53.8281 119.748 54.0566 119.145C54.2852 118.535 54.5957 118.02 54.9883 117.598C55.3809 117.176 55.8262 116.856 56.3242 116.64C56.8223 116.423 57.3379 116.314 57.8711 116.314C58.5508 116.314 59.1367 116.432 59.6289 116.666C60.127 116.9 60.5342 117.229 60.8506 117.65C61.167 118.066 61.4014 118.559 61.5537 119.127C61.7061 119.689 61.7822 120.305 61.7822 120.973V121.702H54.6807V120.375H60.1562V120.252C60.1328 119.83 60.0449 119.42 59.8926 119.021C59.7461 118.623 59.5117 118.295 59.1895 118.037C58.8672 117.779 58.4277 117.65 57.8711 117.65C57.502 117.65 57.1621 117.729 56.8516 117.888C56.541 118.04 56.2744 118.269 56.0518 118.573C55.8291 118.878 55.6562 119.25 55.5332 119.689C55.4102 120.129 55.3486 120.636 55.3486 121.21V121.579C55.3486 122.03 55.4102 122.455 55.5332 122.854C55.6621 123.246 55.8467 123.592 56.0869 123.891C56.333 124.189 56.6289 124.424 56.9746 124.594C57.3262 124.764 57.7246 124.849 58.1699 124.849C58.7441 124.849 59.2305 124.731 59.6289 124.497C60.0273 124.263 60.376 123.949 60.6748 123.557L61.6592 124.339C61.4541 124.649 61.1934 124.945 60.877 125.227C60.5605 125.508 60.1709 125.736 59.708 125.912C59.251 126.088 58.709 126.176 58.082 126.176ZM65.3066 117.984V126H63.6807V116.49H65.2627L65.3066 117.984ZM68.2773 116.438L68.2686 117.949C68.1338 117.92 68.0049 117.902 67.8818 117.896C67.7646 117.885 67.6299 117.879 67.4775 117.879C67.1025 117.879 66.7715 117.938 66.4844 118.055C66.1973 118.172 65.9541 118.336 65.7549 118.547C65.5557 118.758 65.3975 119.01 65.2803 119.303C65.1689 119.59 65.0957 119.906 65.0605 120.252L64.6035 120.516C64.6035 119.941 64.6592 119.402 64.7705 118.898C64.8877 118.395 65.0664 117.949 65.3066 117.562C65.5469 117.17 65.8516 116.865 66.2207 116.648C66.5957 116.426 67.041 116.314 67.5566 116.314C67.6738 116.314 67.8086 116.329 67.9609 116.358C68.1133 116.382 68.2188 116.408 68.2773 116.438ZM74.2012 116.49V117.738H69.0596V116.49H74.2012ZM70.7998 114.179H72.4258V123.645C72.4258 123.967 72.4756 124.21 72.5752 124.374C72.6748 124.538 72.8037 124.646 72.9619 124.699C73.1201 124.752 73.29 124.778 73.4717 124.778C73.6064 124.778 73.7471 124.767 73.8936 124.743C74.0459 124.714 74.1602 124.69 74.2363 124.673L74.2451 126C74.1162 126.041 73.9463 126.079 73.7354 126.114C73.5303 126.155 73.2812 126.176 72.9883 126.176C72.5898 126.176 72.2236 126.097 71.8896 125.938C71.5557 125.78 71.2891 125.517 71.0898 125.147C70.8965 124.772 70.7998 124.269 70.7998 123.636V114.179ZM86.7344 116.49H88.2109V125.798C88.2109 126.636 88.041 127.351 87.7012 127.942C87.3613 128.534 86.8867 128.982 86.2773 129.287C85.6738 129.598 84.9766 129.753 84.1855 129.753C83.8574 129.753 83.4707 129.7 83.0254 129.595C82.5859 129.495 82.1523 129.322 81.7246 129.076C81.3027 128.836 80.9482 128.511 80.6611 128.101L81.5137 127.134C81.9121 127.614 82.3281 127.948 82.7617 128.136C83.2012 128.323 83.6348 128.417 84.0625 128.417C84.5781 128.417 85.0234 128.32 85.3984 128.127C85.7734 127.934 86.0635 127.646 86.2686 127.266C86.4795 126.891 86.585 126.428 86.585 125.877V118.582L86.7344 116.49ZM80.1865 121.351V121.166C80.1865 120.439 80.2715 119.78 80.4414 119.188C80.6172 118.591 80.8662 118.078 81.1885 117.65C81.5166 117.223 81.9121 116.895 82.375 116.666C82.8379 116.432 83.3594 116.314 83.9395 116.314C84.5371 116.314 85.0586 116.42 85.5039 116.631C85.9551 116.836 86.3359 117.138 86.6465 117.536C86.9629 117.929 87.2119 118.403 87.3936 118.96C87.5752 119.517 87.7012 120.146 87.7715 120.85V121.658C87.707 122.355 87.5811 122.982 87.3936 123.539C87.2119 124.096 86.9629 124.57 86.6465 124.963C86.3359 125.355 85.9551 125.657 85.5039 125.868C85.0527 126.073 84.5254 126.176 83.9219 126.176C83.3535 126.176 82.8379 126.056 82.375 125.815C81.918 125.575 81.5254 125.238 81.1973 124.805C80.8691 124.371 80.6172 123.861 80.4414 123.275C80.2715 122.684 80.1865 122.042 80.1865 121.351ZM81.8125 121.166V121.351C81.8125 121.825 81.8594 122.271 81.9531 122.687C82.0527 123.103 82.2021 123.469 82.4014 123.785C82.6064 124.102 82.8672 124.351 83.1836 124.532C83.5 124.708 83.8779 124.796 84.3174 124.796C84.8564 124.796 85.3018 124.682 85.6533 124.453C86.0049 124.225 86.2832 123.923 86.4883 123.548C86.6992 123.173 86.8633 122.766 86.9805 122.326V120.208C86.916 119.886 86.8164 119.575 86.6816 119.276C86.5527 118.972 86.3828 118.702 86.1719 118.468C85.9668 118.228 85.7119 118.037 85.4072 117.896C85.1025 117.756 84.7451 117.686 84.335 117.686C83.8896 117.686 83.5059 117.779 83.1836 117.967C82.8672 118.148 82.6064 118.4 82.4014 118.723C82.2021 119.039 82.0527 119.408 81.9531 119.83C81.8594 120.246 81.8125 120.691 81.8125 121.166ZM96.499 123.803V116.49H98.1338V126H96.5781L96.499 123.803ZM96.8066 121.799L97.4834 121.781C97.4834 122.414 97.416 123 97.2812 123.539C97.1523 124.072 96.9414 124.535 96.6484 124.928C96.3555 125.32 95.9717 125.628 95.4971 125.851C95.0225 126.067 94.4453 126.176 93.7656 126.176C93.3027 126.176 92.8779 126.108 92.4912 125.974C92.1104 125.839 91.7822 125.631 91.5068 125.35C91.2314 125.068 91.0176 124.702 90.8652 124.251C90.7188 123.8 90.6455 123.258 90.6455 122.625V116.49H92.2715V122.643C92.2715 123.07 92.3184 123.425 92.4121 123.706C92.5117 123.981 92.6436 124.201 92.8076 124.365C92.9775 124.523 93.165 124.635 93.3701 124.699C93.5811 124.764 93.7979 124.796 94.0205 124.796C94.7119 124.796 95.2598 124.664 95.6641 124.4C96.0684 124.131 96.3584 123.771 96.5342 123.319C96.7158 122.862 96.8066 122.355 96.8066 121.799ZM102.379 116.49V126H100.744V116.49H102.379ZM100.621 113.968C100.621 113.704 100.7 113.481 100.858 113.3C101.022 113.118 101.263 113.027 101.579 113.027C101.89 113.027 102.127 113.118 102.291 113.3C102.461 113.481 102.546 113.704 102.546 113.968C102.546 114.22 102.461 114.437 102.291 114.618C102.127 114.794 101.89 114.882 101.579 114.882C101.263 114.882 101.022 114.794 100.858 114.618C100.7 114.437 100.621 114.22 100.621 113.968ZM110.983 124.154V112.5H112.618V126H111.124L110.983 124.154ZM104.585 121.351V121.166C104.585 120.439 104.673 119.78 104.849 119.188C105.03 118.591 105.285 118.078 105.613 117.65C105.947 117.223 106.343 116.895 106.8 116.666C107.263 116.432 107.778 116.314 108.347 116.314C108.944 116.314 109.466 116.42 109.911 116.631C110.362 116.836 110.743 117.138 111.054 117.536C111.37 117.929 111.619 118.403 111.801 118.96C111.982 119.517 112.108 120.146 112.179 120.85V121.658C112.114 122.355 111.988 122.982 111.801 123.539C111.619 124.096 111.37 124.57 111.054 124.963C110.743 125.355 110.362 125.657 109.911 125.868C109.46 126.073 108.933 126.176 108.329 126.176C107.772 126.176 107.263 126.056 106.8 125.815C106.343 125.575 105.947 125.238 105.613 124.805C105.285 124.371 105.03 123.861 104.849 123.275C104.673 122.684 104.585 122.042 104.585 121.351ZM106.22 121.166V121.351C106.22 121.825 106.267 122.271 106.36 122.687C106.46 123.103 106.612 123.469 106.817 123.785C107.022 124.102 107.283 124.351 107.6 124.532C107.916 124.708 108.294 124.796 108.733 124.796C109.272 124.796 109.715 124.682 110.061 124.453C110.412 124.225 110.693 123.923 110.904 123.548C111.115 123.173 111.279 122.766 111.396 122.326V120.208C111.326 119.886 111.224 119.575 111.089 119.276C110.96 118.972 110.79 118.702 110.579 118.468C110.374 118.228 110.119 118.037 109.814 117.896C109.516 117.756 109.161 117.686 108.751 117.686C108.306 117.686 107.922 117.779 107.6 117.967C107.283 118.148 107.022 118.4 106.817 118.723C106.612 119.039 106.46 119.408 106.36 119.83C106.267 120.246 106.22 120.691 106.22 121.166ZM120.757 124.374V119.479C120.757 119.104 120.681 118.778 120.528 118.503C120.382 118.222 120.159 118.005 119.86 117.853C119.562 117.7 119.192 117.624 118.753 117.624C118.343 117.624 117.982 117.694 117.672 117.835C117.367 117.976 117.127 118.16 116.951 118.389C116.781 118.617 116.696 118.863 116.696 119.127H115.07C115.07 118.787 115.158 118.45 115.334 118.116C115.51 117.782 115.762 117.48 116.09 117.211C116.424 116.936 116.822 116.719 117.285 116.561C117.754 116.396 118.275 116.314 118.85 116.314C119.541 116.314 120.15 116.432 120.678 116.666C121.211 116.9 121.627 117.255 121.926 117.729C122.23 118.198 122.383 118.787 122.383 119.496V123.926C122.383 124.242 122.409 124.579 122.462 124.937C122.521 125.294 122.605 125.602 122.717 125.859V126H121.021C120.938 125.812 120.874 125.563 120.827 125.253C120.78 124.937 120.757 124.644 120.757 124.374ZM121.038 120.234L121.056 121.377H119.412C118.949 121.377 118.536 121.415 118.173 121.491C117.81 121.562 117.505 121.67 117.259 121.816C117.013 121.963 116.825 122.147 116.696 122.37C116.567 122.587 116.503 122.842 116.503 123.135C116.503 123.434 116.57 123.706 116.705 123.952C116.84 124.198 117.042 124.395 117.312 124.541C117.587 124.682 117.924 124.752 118.322 124.752C118.82 124.752 119.26 124.646 119.641 124.436C120.021 124.225 120.323 123.967 120.546 123.662C120.774 123.357 120.897 123.062 120.915 122.774L121.609 123.557C121.568 123.803 121.457 124.075 121.275 124.374C121.094 124.673 120.851 124.96 120.546 125.235C120.247 125.505 119.89 125.73 119.474 125.912C119.063 126.088 118.601 126.176 118.085 126.176C117.44 126.176 116.875 126.05 116.389 125.798C115.908 125.546 115.533 125.209 115.264 124.787C115 124.359 114.868 123.882 114.868 123.354C114.868 122.845 114.968 122.396 115.167 122.01C115.366 121.617 115.653 121.292 116.028 121.034C116.403 120.771 116.854 120.571 117.382 120.437C117.909 120.302 118.498 120.234 119.148 120.234H121.038ZM126.566 118.521V126H124.94V116.49H126.479L126.566 118.521ZM126.18 120.885L125.503 120.858C125.509 120.208 125.605 119.607 125.793 119.057C125.98 118.5 126.244 118.017 126.584 117.606C126.924 117.196 127.328 116.88 127.797 116.657C128.271 116.429 128.796 116.314 129.37 116.314C129.839 116.314 130.261 116.379 130.636 116.508C131.011 116.631 131.33 116.83 131.594 117.105C131.863 117.381 132.068 117.738 132.209 118.178C132.35 118.611 132.42 119.142 132.42 119.769V126H130.785V119.751C130.785 119.253 130.712 118.854 130.565 118.556C130.419 118.251 130.205 118.031 129.924 117.896C129.643 117.756 129.297 117.686 128.887 117.686C128.482 117.686 128.113 117.771 127.779 117.94C127.451 118.11 127.167 118.345 126.927 118.644C126.692 118.942 126.508 119.285 126.373 119.672C126.244 120.053 126.18 120.457 126.18 120.885ZM138.695 124.84C139.082 124.84 139.439 124.761 139.768 124.603C140.096 124.444 140.365 124.228 140.576 123.952C140.787 123.671 140.907 123.352 140.937 122.994H142.483C142.454 123.557 142.264 124.081 141.912 124.567C141.566 125.048 141.112 125.438 140.55 125.736C139.987 126.029 139.369 126.176 138.695 126.176C137.98 126.176 137.356 126.05 136.823 125.798C136.296 125.546 135.856 125.2 135.505 124.761C135.159 124.321 134.898 123.817 134.723 123.249C134.553 122.675 134.468 122.068 134.468 121.43V121.061C134.468 120.422 134.553 119.818 134.723 119.25C134.898 118.676 135.159 118.169 135.505 117.729C135.856 117.29 136.296 116.944 136.823 116.692C137.356 116.44 137.98 116.314 138.695 116.314C139.439 116.314 140.09 116.467 140.646 116.771C141.203 117.07 141.64 117.48 141.956 118.002C142.278 118.518 142.454 119.104 142.483 119.76H140.937C140.907 119.367 140.796 119.013 140.603 118.696C140.415 118.38 140.157 118.128 139.829 117.94C139.507 117.747 139.129 117.65 138.695 117.65C138.197 117.65 137.778 117.75 137.438 117.949C137.104 118.143 136.838 118.406 136.639 118.74C136.445 119.068 136.305 119.435 136.217 119.839C136.135 120.237 136.094 120.645 136.094 121.061V121.43C136.094 121.846 136.135 122.256 136.217 122.66C136.299 123.064 136.437 123.431 136.63 123.759C136.829 124.087 137.096 124.351 137.43 124.55C137.77 124.743 138.191 124.84 138.695 124.84ZM148.258 126.176C147.596 126.176 146.995 126.064 146.456 125.842C145.923 125.613 145.463 125.294 145.076 124.884C144.695 124.474 144.402 123.987 144.197 123.425C143.992 122.862 143.89 122.247 143.89 121.579V121.21C143.89 120.437 144.004 119.748 144.232 119.145C144.461 118.535 144.771 118.02 145.164 117.598C145.557 117.176 146.002 116.856 146.5 116.64C146.998 116.423 147.514 116.314 148.047 116.314C148.727 116.314 149.312 116.432 149.805 116.666C150.303 116.9 150.71 117.229 151.026 117.65C151.343 118.066 151.577 118.559 151.729 119.127C151.882 119.689 151.958 120.305 151.958 120.973V121.702H144.856V120.375H150.332V120.252C150.309 119.83 150.221 119.42 150.068 119.021C149.922 118.623 149.688 118.295 149.365 118.037C149.043 117.779 148.604 117.65 148.047 117.65C147.678 117.65 147.338 117.729 147.027 117.888C146.717 118.04 146.45 118.269 146.228 118.573C146.005 118.878 145.832 119.25 145.709 119.689C145.586 120.129 145.524 120.636 145.524 121.21V121.579C145.524 122.03 145.586 122.455 145.709 122.854C145.838 123.246 146.022 123.592 146.263 123.891C146.509 124.189 146.805 124.424 147.15 124.594C147.502 124.764 147.9 124.849 148.346 124.849C148.92 124.849 149.406 124.731 149.805 124.497C150.203 124.263 150.552 123.949 150.851 123.557L151.835 124.339C151.63 124.649 151.369 124.945 151.053 125.227C150.736 125.508 150.347 125.736 149.884 125.912C149.427 126.088 148.885 126.176 148.258 126.176ZM160.747 126H159.121V115.488C159.121 114.803 159.244 114.226 159.49 113.757C159.742 113.282 160.103 112.925 160.571 112.685C161.04 112.438 161.597 112.315 162.241 112.315C162.429 112.315 162.616 112.327 162.804 112.351C162.997 112.374 163.185 112.409 163.366 112.456L163.278 113.783C163.155 113.754 163.015 113.733 162.856 113.722C162.704 113.71 162.552 113.704 162.399 113.704C162.054 113.704 161.755 113.774 161.503 113.915C161.257 114.05 161.069 114.249 160.94 114.513C160.812 114.776 160.747 115.102 160.747 115.488V126ZM162.769 116.49V117.738H157.618V116.49H162.769ZM164.148 121.351V121.148C164.148 120.463 164.248 119.827 164.447 119.241C164.646 118.649 164.934 118.137 165.309 117.703C165.684 117.264 166.138 116.924 166.671 116.684C167.204 116.438 167.802 116.314 168.464 116.314C169.132 116.314 169.732 116.438 170.266 116.684C170.805 116.924 171.262 117.264 171.637 117.703C172.018 118.137 172.308 118.649 172.507 119.241C172.706 119.827 172.806 120.463 172.806 121.148V121.351C172.806 122.036 172.706 122.672 172.507 123.258C172.308 123.844 172.018 124.356 171.637 124.796C171.262 125.229 170.808 125.569 170.274 125.815C169.747 126.056 169.149 126.176 168.481 126.176C167.813 126.176 167.213 126.056 166.68 125.815C166.146 125.569 165.689 125.229 165.309 124.796C164.934 124.356 164.646 123.844 164.447 123.258C164.248 122.672 164.148 122.036 164.148 121.351ZM165.774 121.148V121.351C165.774 121.825 165.83 122.273 165.941 122.695C166.053 123.111 166.22 123.48 166.442 123.803C166.671 124.125 166.955 124.38 167.295 124.567C167.635 124.749 168.03 124.84 168.481 124.84C168.927 124.84 169.316 124.749 169.65 124.567C169.99 124.38 170.271 124.125 170.494 123.803C170.717 123.48 170.884 123.111 170.995 122.695C171.112 122.273 171.171 121.825 171.171 121.351V121.148C171.171 120.68 171.112 120.237 170.995 119.821C170.884 119.399 170.714 119.027 170.485 118.705C170.263 118.377 169.981 118.119 169.642 117.932C169.308 117.744 168.915 117.65 168.464 117.65C168.019 117.65 167.626 117.744 167.286 117.932C166.952 118.119 166.671 118.377 166.442 118.705C166.22 119.027 166.053 119.399 165.941 119.821C165.83 120.237 165.774 120.68 165.774 121.148ZM176.471 117.984V126H174.845V116.49H176.427L176.471 117.984ZM179.441 116.438L179.433 117.949C179.298 117.92 179.169 117.902 179.046 117.896C178.929 117.885 178.794 117.879 178.642 117.879C178.267 117.879 177.936 117.938 177.648 118.055C177.361 118.172 177.118 118.336 176.919 118.547C176.72 118.758 176.562 119.01 176.444 119.303C176.333 119.59 176.26 119.906 176.225 120.252L175.768 120.516C175.768 119.941 175.823 119.402 175.935 118.898C176.052 118.395 176.23 117.949 176.471 117.562C176.711 117.17 177.016 116.865 177.385 116.648C177.76 116.426 178.205 116.314 178.721 116.314C178.838 116.314 178.973 116.329 179.125 116.358C179.277 116.382 179.383 116.408 179.441 116.438ZM187.817 124.312L190.261 116.49H191.333L191.122 118.046L188.635 126H187.589L187.817 124.312ZM186.174 116.49L188.257 124.4L188.406 126H187.308L184.548 116.49H186.174ZM193.671 124.339L195.657 116.49H197.274L194.515 126H193.425L193.671 124.339ZM191.57 116.49L193.961 124.181L194.233 126H193.196L190.639 118.028L190.428 116.49H191.57ZM200.711 116.49V126H199.076V116.49H200.711ZM198.953 113.968C198.953 113.704 199.032 113.481 199.19 113.3C199.354 113.118 199.595 113.027 199.911 113.027C200.222 113.027 200.459 113.118 200.623 113.3C200.793 113.481 200.878 113.704 200.878 113.968C200.878 114.22 200.793 114.437 200.623 114.618C200.459 114.794 200.222 114.882 199.911 114.882C199.595 114.882 199.354 114.794 199.19 114.618C199.032 114.437 198.953 114.22 198.953 113.968ZM205.088 112.5V126H203.453V112.5H205.088ZM209.465 112.5V126H207.83V112.5H209.465ZM52.4746 138.49V148H50.8398V138.49H52.4746ZM50.7168 135.968C50.7168 135.704 50.7959 135.481 50.9541 135.3C51.1182 135.118 51.3584 135.027 51.6748 135.027C51.9854 135.027 52.2227 135.118 52.3867 135.3C52.5566 135.481 52.6416 135.704 52.6416 135.968C52.6416 136.22 52.5566 136.437 52.3867 136.618C52.2227 136.794 51.9854 136.882 51.6748 136.882C51.3584 136.882 51.1182 136.794 50.9541 136.618C50.7959 136.437 50.7168 136.22 50.7168 135.968ZM56.7109 140.521V148H55.085V138.49H56.623L56.7109 140.521ZM56.3242 142.885L55.6475 142.858C55.6533 142.208 55.75 141.607 55.9375 141.057C56.125 140.5 56.3887 140.017 56.7285 139.606C57.0684 139.196 57.4727 138.88 57.9414 138.657C58.416 138.429 58.9404 138.314 59.5146 138.314C59.9834 138.314 60.4053 138.379 60.7803 138.508C61.1553 138.631 61.4746 138.83 61.7383 139.105C62.0078 139.381 62.2129 139.738 62.3535 140.178C62.4941 140.611 62.5645 141.142 62.5645 141.769V148H60.9297V141.751C60.9297 141.253 60.8564 140.854 60.71 140.556C60.5635 140.251 60.3496 140.031 60.0684 139.896C59.7871 139.756 59.4414 139.686 59.0312 139.686C58.627 139.686 58.2578 139.771 57.9238 139.94C57.5957 140.11 57.3115 140.345 57.0713 140.644C56.8369 140.942 56.6523 141.285 56.5176 141.672C56.3887 142.053 56.3242 142.457 56.3242 142.885ZM67.46 148H65.834V137.488C65.834 136.803 65.957 136.226 66.2031 135.757C66.4551 135.282 66.8154 134.925 67.2842 134.685C67.7529 134.438 68.3096 134.315 68.9541 134.315C69.1416 134.315 69.3291 134.327 69.5166 134.351C69.71 134.374 69.8975 134.409 70.0791 134.456L69.9912 135.783C69.8682 135.754 69.7275 135.733 69.5693 135.722C69.417 135.71 69.2646 135.704 69.1123 135.704C68.7666 135.704 68.4678 135.774 68.2158 135.915C67.9697 136.05 67.7822 136.249 67.6533 136.513C67.5244 136.776 67.46 137.102 67.46 137.488V148ZM69.4814 138.49V139.738H64.3311V138.49H69.4814ZM75.0273 148.176C74.3652 148.176 73.7646 148.064 73.2256 147.842C72.6924 147.613 72.2324 147.294 71.8457 146.884C71.4648 146.474 71.1719 145.987 70.9668 145.425C70.7617 144.862 70.6592 144.247 70.6592 143.579V143.21C70.6592 142.437 70.7734 141.748 71.002 141.145C71.2305 140.535 71.541 140.02 71.9336 139.598C72.3262 139.176 72.7715 138.856 73.2695 138.64C73.7676 138.423 74.2832 138.314 74.8164 138.314C75.4961 138.314 76.082 138.432 76.5742 138.666C77.0723 138.9 77.4795 139.229 77.7959 139.65C78.1123 140.066 78.3467 140.559 78.499 141.127C78.6514 141.689 78.7275 142.305 78.7275 142.973V143.702H71.626V142.375H77.1016V142.252C77.0781 141.83 76.9902 141.42 76.8379 141.021C76.6914 140.623 76.457 140.295 76.1348 140.037C75.8125 139.779 75.373 139.65 74.8164 139.65C74.4473 139.65 74.1074 139.729 73.7969 139.888C73.4863 140.04 73.2197 140.269 72.9971 140.573C72.7744 140.878 72.6016 141.25 72.4785 141.689C72.3555 142.129 72.2939 142.636 72.2939 143.21V143.579C72.2939 144.03 72.3555 144.455 72.4785 144.854C72.6074 145.246 72.792 145.592 73.0322 145.891C73.2783 146.189 73.5742 146.424 73.9199 146.594C74.2715 146.764 74.6699 146.849 75.1152 146.849C75.6895 146.849 76.1758 146.731 76.5742 146.497C76.9727 146.263 77.3213 145.949 77.6201 145.557L78.6045 146.339C78.3994 146.649 78.1387 146.945 77.8223 147.227C77.5059 147.508 77.1162 147.736 76.6533 147.912C76.1963 148.088 75.6543 148.176 75.0273 148.176ZM82.252 139.984V148H80.626V138.49H82.208L82.252 139.984ZM85.2227 138.438L85.2139 139.949C85.0791 139.92 84.9502 139.902 84.8271 139.896C84.71 139.885 84.5752 139.879 84.4229 139.879C84.0479 139.879 83.7168 139.938 83.4297 140.055C83.1426 140.172 82.8994 140.336 82.7002 140.547C82.501 140.758 82.3428 141.01 82.2256 141.303C82.1143 141.59 82.041 141.906 82.0059 142.252L81.5488 142.516C81.5488 141.941 81.6045 141.402 81.7158 140.898C81.833 140.395 82.0117 139.949 82.252 139.562C82.4922 139.17 82.7969 138.865 83.166 138.648C83.541 138.426 83.9863 138.314 84.502 138.314C84.6191 138.314 84.7539 138.329 84.9062 138.358C85.0586 138.382 85.1641 138.408 85.2227 138.438ZM91.1465 138.49V139.738H86.0049V138.49H91.1465ZM87.7451 136.179H89.3711V145.645C89.3711 145.967 89.4209 146.21 89.5205 146.374C89.6201 146.538 89.749 146.646 89.9072 146.699C90.0654 146.752 90.2354 146.778 90.417 146.778C90.5518 146.778 90.6924 146.767 90.8389 146.743C90.9912 146.714 91.1055 146.69 91.1816 146.673L91.1904 148C91.0615 148.041 90.8916 148.079 90.6807 148.114C90.4756 148.155 90.2266 148.176 89.9336 148.176C89.5352 148.176 89.1689 148.097 88.835 147.938C88.501 147.78 88.2344 147.517 88.0352 147.147C87.8418 146.772 87.7451 146.269 87.7451 145.636V136.179ZM94.8203 138.49V148H93.1855V138.49H94.8203ZM93.0625 135.968C93.0625 135.704 93.1416 135.481 93.2998 135.3C93.4639 135.118 93.7041 135.027 94.0205 135.027C94.3311 135.027 94.5684 135.118 94.7324 135.3C94.9023 135.481 94.9873 135.704 94.9873 135.968C94.9873 136.22 94.9023 136.437 94.7324 136.618C94.5684 136.794 94.3311 136.882 94.0205 136.882C93.7041 136.882 93.4639 136.794 93.2998 136.618C93.1416 136.437 93.0625 136.22 93.0625 135.968ZM99.1973 134.5V148H97.5625V134.5H99.1973ZM103.574 138.49V148H101.939V138.49H103.574ZM101.816 135.968C101.816 135.704 101.896 135.481 102.054 135.3C102.218 135.118 102.458 135.027 102.774 135.027C103.085 135.027 103.322 135.118 103.486 135.3C103.656 135.481 103.741 135.704 103.741 135.968C103.741 136.22 103.656 136.437 103.486 136.618C103.322 136.794 103.085 136.882 102.774 136.882C102.458 136.882 102.218 136.794 102.054 136.618C101.896 136.437 101.816 136.22 101.816 135.968ZM110.166 138.49V139.738H105.024V138.49H110.166ZM106.765 136.179H108.391V145.645C108.391 145.967 108.44 146.21 108.54 146.374C108.64 146.538 108.769 146.646 108.927 146.699C109.085 146.752 109.255 146.778 109.437 146.778C109.571 146.778 109.712 146.767 109.858 146.743C110.011 146.714 110.125 146.69 110.201 146.673L110.21 148C110.081 148.041 109.911 148.079 109.7 148.114C109.495 148.155 109.246 148.176 108.953 148.176C108.555 148.176 108.188 148.097 107.854 147.938C107.521 147.78 107.254 147.517 107.055 147.147C106.861 146.772 106.765 146.269 106.765 145.636V136.179ZM114.745 147.016L117.391 138.49H119.131L115.316 149.468C115.229 149.702 115.111 149.954 114.965 150.224C114.824 150.499 114.643 150.76 114.42 151.006C114.197 151.252 113.928 151.451 113.611 151.604C113.301 151.762 112.929 151.841 112.495 151.841C112.366 151.841 112.202 151.823 112.003 151.788C111.804 151.753 111.663 151.724 111.581 151.7L111.572 150.382C111.619 150.388 111.692 150.394 111.792 150.399C111.897 150.411 111.971 150.417 112.012 150.417C112.381 150.417 112.694 150.367 112.952 150.268C113.21 150.174 113.427 150.013 113.603 149.784C113.784 149.562 113.939 149.254 114.068 148.861L114.745 147.016ZM112.803 138.49L115.272 145.873L115.694 147.587L114.525 148.185L111.027 138.49H112.803ZM127.472 146.312L129.915 138.49H130.987L130.776 140.046L128.289 148H127.243L127.472 146.312ZM125.828 138.49L127.911 146.4L128.061 148H126.962L124.202 138.49H125.828ZM133.325 146.339L135.312 138.49H136.929L134.169 148H133.079L133.325 146.339ZM131.225 138.49L133.615 146.181L133.888 148H132.851L130.293 140.028L130.082 138.49H131.225ZM142.545 148.176C141.883 148.176 141.282 148.064 140.743 147.842C140.21 147.613 139.75 147.294 139.363 146.884C138.982 146.474 138.689 145.987 138.484 145.425C138.279 144.862 138.177 144.247 138.177 143.579V143.21C138.177 142.437 138.291 141.748 138.52 141.145C138.748 140.535 139.059 140.02 139.451 139.598C139.844 139.176 140.289 138.856 140.787 138.64C141.285 138.423 141.801 138.314 142.334 138.314C143.014 138.314 143.6 138.432 144.092 138.666C144.59 138.9 144.997 139.229 145.313 139.65C145.63 140.066 145.864 140.559 146.017 141.127C146.169 141.689 146.245 142.305 146.245 142.973V143.702H139.144V142.375H144.619V142.252C144.596 141.83 144.508 141.42 144.355 141.021C144.209 140.623 143.975 140.295 143.652 140.037C143.33 139.779 142.891 139.65 142.334 139.65C141.965 139.65 141.625 139.729 141.314 139.888C141.004 140.04 140.737 140.269 140.515 140.573C140.292 140.878 140.119 141.25 139.996 141.689C139.873 142.129 139.812 142.636 139.812 143.21V143.579C139.812 144.03 139.873 144.455 139.996 144.854C140.125 145.246 140.31 145.592 140.55 145.891C140.796 146.189 141.092 146.424 141.438 146.594C141.789 146.764 142.188 146.849 142.633 146.849C143.207 146.849 143.693 146.731 144.092 146.497C144.49 146.263 144.839 145.949 145.138 145.557L146.122 146.339C145.917 146.649 145.656 146.945 145.34 147.227C145.023 147.508 144.634 147.736 144.171 147.912C143.714 148.088 143.172 148.176 142.545 148.176ZM156.414 146.84C156.801 146.84 157.158 146.761 157.486 146.603C157.814 146.444 158.084 146.228 158.295 145.952C158.506 145.671 158.626 145.352 158.655 144.994H160.202C160.173 145.557 159.982 146.081 159.631 146.567C159.285 147.048 158.831 147.438 158.269 147.736C157.706 148.029 157.088 148.176 156.414 148.176C155.699 148.176 155.075 148.05 154.542 147.798C154.015 147.546 153.575 147.2 153.224 146.761C152.878 146.321 152.617 145.817 152.441 145.249C152.271 144.675 152.187 144.068 152.187 143.43V143.061C152.187 142.422 152.271 141.818 152.441 141.25C152.617 140.676 152.878 140.169 153.224 139.729C153.575 139.29 154.015 138.944 154.542 138.692C155.075 138.44 155.699 138.314 156.414 138.314C157.158 138.314 157.809 138.467 158.365 138.771C158.922 139.07 159.358 139.48 159.675 140.002C159.997 140.518 160.173 141.104 160.202 141.76H158.655C158.626 141.367 158.515 141.013 158.321 140.696C158.134 140.38 157.876 140.128 157.548 139.94C157.226 139.747 156.848 139.65 156.414 139.65C155.916 139.65 155.497 139.75 155.157 139.949C154.823 140.143 154.557 140.406 154.357 140.74C154.164 141.068 154.023 141.435 153.936 141.839C153.854 142.237 153.812 142.645 153.812 143.061V143.43C153.812 143.846 153.854 144.256 153.936 144.66C154.018 145.064 154.155 145.431 154.349 145.759C154.548 146.087 154.814 146.351 155.148 146.55C155.488 146.743 155.91 146.84 156.414 146.84ZM167.638 146.374V141.479C167.638 141.104 167.562 140.778 167.409 140.503C167.263 140.222 167.04 140.005 166.741 139.853C166.442 139.7 166.073 139.624 165.634 139.624C165.224 139.624 164.863 139.694 164.553 139.835C164.248 139.976 164.008 140.16 163.832 140.389C163.662 140.617 163.577 140.863 163.577 141.127H161.951C161.951 140.787 162.039 140.45 162.215 140.116C162.391 139.782 162.643 139.48 162.971 139.211C163.305 138.936 163.703 138.719 164.166 138.561C164.635 138.396 165.156 138.314 165.73 138.314C166.422 138.314 167.031 138.432 167.559 138.666C168.092 138.9 168.508 139.255 168.807 139.729C169.111 140.198 169.264 140.787 169.264 141.496V145.926C169.264 146.242 169.29 146.579 169.343 146.937C169.401 147.294 169.486 147.602 169.598 147.859V148H167.901C167.819 147.812 167.755 147.563 167.708 147.253C167.661 146.937 167.638 146.644 167.638 146.374ZM167.919 142.234L167.937 143.377H166.293C165.83 143.377 165.417 143.415 165.054 143.491C164.69 143.562 164.386 143.67 164.14 143.816C163.894 143.963 163.706 144.147 163.577 144.37C163.448 144.587 163.384 144.842 163.384 145.135C163.384 145.434 163.451 145.706 163.586 145.952C163.721 146.198 163.923 146.395 164.192 146.541C164.468 146.682 164.805 146.752 165.203 146.752C165.701 146.752 166.141 146.646 166.521 146.436C166.902 146.225 167.204 145.967 167.427 145.662C167.655 145.357 167.778 145.062 167.796 144.774L168.49 145.557C168.449 145.803 168.338 146.075 168.156 146.374C167.975 146.673 167.731 146.96 167.427 147.235C167.128 147.505 166.771 147.73 166.354 147.912C165.944 148.088 165.481 148.176 164.966 148.176C164.321 148.176 163.756 148.05 163.27 147.798C162.789 147.546 162.414 147.209 162.145 146.787C161.881 146.359 161.749 145.882 161.749 145.354C161.749 144.845 161.849 144.396 162.048 144.01C162.247 143.617 162.534 143.292 162.909 143.034C163.284 142.771 163.735 142.571 164.263 142.437C164.79 142.302 165.379 142.234 166.029 142.234H167.919ZM173.447 140.521V148H171.821V138.49H173.359L173.447 140.521ZM173.061 142.885L172.384 142.858C172.39 142.208 172.486 141.607 172.674 141.057C172.861 140.5 173.125 140.017 173.465 139.606C173.805 139.196 174.209 138.88 174.678 138.657C175.152 138.429 175.677 138.314 176.251 138.314C176.72 138.314 177.142 138.379 177.517 138.508C177.892 138.631 178.211 138.83 178.475 139.105C178.744 139.381 178.949 139.738 179.09 140.178C179.23 140.611 179.301 141.142 179.301 141.769V148H177.666V141.751C177.666 141.253 177.593 140.854 177.446 140.556C177.3 140.251 177.086 140.031 176.805 139.896C176.523 139.756 176.178 139.686 175.768 139.686C175.363 139.686 174.994 139.771 174.66 139.94C174.332 140.11 174.048 140.345 173.808 140.644C173.573 140.942 173.389 141.285 173.254 141.672C173.125 142.053 173.061 142.457 173.061 142.885ZM80.2568 165.351V165.148C80.2568 164.463 80.3564 163.827 80.5557 163.241C80.7549 162.649 81.042 162.137 81.417 161.703C81.792 161.264 82.2461 160.924 82.7793 160.684C83.3125 160.438 83.9102 160.314 84.5723 160.314C85.2402 160.314 85.8408 160.438 86.374 160.684C86.9131 160.924 87.3701 161.264 87.7451 161.703C88.126 162.137 88.416 162.649 88.6152 163.241C88.8145 163.827 88.9141 164.463 88.9141 165.148V165.351C88.9141 166.036 88.8145 166.672 88.6152 167.258C88.416 167.844 88.126 168.356 87.7451 168.796C87.3701 169.229 86.916 169.569 86.3828 169.815C85.8555 170.056 85.2578 170.176 84.5898 170.176C83.9219 170.176 83.3213 170.056 82.7881 169.815C82.2549 169.569 81.7979 169.229 81.417 168.796C81.042 168.356 80.7549 167.844 80.5557 167.258C80.3564 166.672 80.2568 166.036 80.2568 165.351ZM81.8828 165.148V165.351C81.8828 165.825 81.9385 166.273 82.0498 166.695C82.1611 167.111 82.3281 167.48 82.5508 167.803C82.7793 168.125 83.0635 168.38 83.4033 168.567C83.7432 168.749 84.1387 168.84 84.5898 168.84C85.0352 168.84 85.4248 168.749 85.7588 168.567C86.0986 168.38 86.3799 168.125 86.6025 167.803C86.8252 167.48 86.9922 167.111 87.1035 166.695C87.2207 166.273 87.2793 165.825 87.2793 165.351V165.148C87.2793 164.68 87.2207 164.237 87.1035 163.821C86.9922 163.399 86.8223 163.027 86.5938 162.705C86.3711 162.377 86.0898 162.119 85.75 161.932C85.416 161.744 85.0234 161.65 84.5723 161.65C84.127 161.65 83.7344 161.744 83.3945 161.932C83.0605 162.119 82.7793 162.377 82.5508 162.705C82.3281 163.027 82.1611 163.399 82.0498 163.821C81.9385 164.237 81.8828 164.68 81.8828 165.148ZM96.7715 167.803V160.49H98.4062V170H96.8506L96.7715 167.803ZM97.0791 165.799L97.7559 165.781C97.7559 166.414 97.6885 167 97.5537 167.539C97.4248 168.072 97.2139 168.535 96.9209 168.928C96.6279 169.32 96.2441 169.628 95.7695 169.851C95.2949 170.067 94.7178 170.176 94.0381 170.176C93.5752 170.176 93.1504 170.108 92.7637 169.974C92.3828 169.839 92.0547 169.631 91.7793 169.35C91.5039 169.068 91.29 168.702 91.1377 168.251C90.9912 167.8 90.918 167.258 90.918 166.625V160.49H92.5439V166.643C92.5439 167.07 92.5908 167.425 92.6846 167.706C92.7842 167.981 92.916 168.201 93.0801 168.365C93.25 168.523 93.4375 168.635 93.6426 168.699C93.8535 168.764 94.0703 168.796 94.293 168.796C94.9844 168.796 95.5322 168.664 95.9365 168.4C96.3408 168.131 96.6309 167.771 96.8066 167.319C96.9883 166.862 97.0791 166.355 97.0791 165.799ZM104.866 160.49V161.738H99.7246V160.49H104.866ZM101.465 158.179H103.091V167.645C103.091 167.967 103.141 168.21 103.24 168.374C103.34 168.538 103.469 168.646 103.627 168.699C103.785 168.752 103.955 168.778 104.137 168.778C104.271 168.778 104.412 168.767 104.559 168.743C104.711 168.714 104.825 168.69 104.901 168.673L104.91 170C104.781 170.041 104.611 170.079 104.4 170.114C104.195 170.155 103.946 170.176 103.653 170.176C103.255 170.176 102.889 170.097 102.555 169.938C102.221 169.78 101.954 169.517 101.755 169.147C101.562 168.772 101.465 168.269 101.465 167.636V158.179ZM110.579 168.84C110.966 168.84 111.323 168.761 111.651 168.603C111.979 168.444 112.249 168.228 112.46 167.952C112.671 167.671 112.791 167.352 112.82 166.994H114.367C114.338 167.557 114.147 168.081 113.796 168.567C113.45 169.048 112.996 169.438 112.434 169.736C111.871 170.029 111.253 170.176 110.579 170.176C109.864 170.176 109.24 170.05 108.707 169.798C108.18 169.546 107.74 169.2 107.389 168.761C107.043 168.321 106.782 167.817 106.606 167.249C106.437 166.675 106.352 166.068 106.352 165.43V165.061C106.352 164.422 106.437 163.818 106.606 163.25C106.782 162.676 107.043 162.169 107.389 161.729C107.74 161.29 108.18 160.944 108.707 160.692C109.24 160.44 109.864 160.314 110.579 160.314C111.323 160.314 111.974 160.467 112.53 160.771C113.087 161.07 113.523 161.48 113.84 162.002C114.162 162.518 114.338 163.104 114.367 163.76H112.82C112.791 163.367 112.68 163.013 112.486 162.696C112.299 162.38 112.041 162.128 111.713 161.94C111.391 161.747 111.013 161.65 110.579 161.65C110.081 161.65 109.662 161.75 109.322 161.949C108.988 162.143 108.722 162.406 108.522 162.74C108.329 163.068 108.188 163.435 108.101 163.839C108.019 164.237 107.978 164.645 107.978 165.061V165.43C107.978 165.846 108.019 166.256 108.101 166.66C108.183 167.064 108.32 167.431 108.514 167.759C108.713 168.087 108.979 168.351 109.313 168.55C109.653 168.743 110.075 168.84 110.579 168.84ZM115.765 165.351V165.148C115.765 164.463 115.864 163.827 116.063 163.241C116.263 162.649 116.55 162.137 116.925 161.703C117.3 161.264 117.754 160.924 118.287 160.684C118.82 160.438 119.418 160.314 120.08 160.314C120.748 160.314 121.349 160.438 121.882 160.684C122.421 160.924 122.878 161.264 123.253 161.703C123.634 162.137 123.924 162.649 124.123 163.241C124.322 163.827 124.422 164.463 124.422 165.148V165.351C124.422 166.036 124.322 166.672 124.123 167.258C123.924 167.844 123.634 168.356 123.253 168.796C122.878 169.229 122.424 169.569 121.891 169.815C121.363 170.056 120.766 170.176 120.098 170.176C119.43 170.176 118.829 170.056 118.296 169.815C117.763 169.569 117.306 169.229 116.925 168.796C116.55 168.356 116.263 167.844 116.063 167.258C115.864 166.672 115.765 166.036 115.765 165.351ZM117.391 165.148V165.351C117.391 165.825 117.446 166.273 117.558 166.695C117.669 167.111 117.836 167.48 118.059 167.803C118.287 168.125 118.571 168.38 118.911 168.567C119.251 168.749 119.646 168.84 120.098 168.84C120.543 168.84 120.933 168.749 121.267 168.567C121.606 168.38 121.888 168.125 122.11 167.803C122.333 167.48 122.5 167.111 122.611 166.695C122.729 166.273 122.787 165.825 122.787 165.351V165.148C122.787 164.68 122.729 164.237 122.611 163.821C122.5 163.399 122.33 163.027 122.102 162.705C121.879 162.377 121.598 162.119 121.258 161.932C120.924 161.744 120.531 161.65 120.08 161.65C119.635 161.65 119.242 161.744 118.902 161.932C118.568 162.119 118.287 162.377 118.059 162.705C117.836 163.027 117.669 163.399 117.558 163.821C117.446 164.237 117.391 164.68 117.391 165.148ZM128.078 162.38V170H126.443V160.49H127.99L128.078 162.38ZM127.744 164.885L126.988 164.858C126.994 164.208 127.079 163.607 127.243 163.057C127.407 162.5 127.65 162.017 127.973 161.606C128.295 161.196 128.696 160.88 129.177 160.657C129.657 160.429 130.214 160.314 130.847 160.314C131.292 160.314 131.702 160.379 132.077 160.508C132.452 160.631 132.777 160.827 133.053 161.097C133.328 161.366 133.542 161.712 133.694 162.134C133.847 162.556 133.923 163.065 133.923 163.663V170H132.297V163.742C132.297 163.244 132.212 162.846 132.042 162.547C131.878 162.248 131.644 162.031 131.339 161.896C131.034 161.756 130.677 161.686 130.267 161.686C129.786 161.686 129.385 161.771 129.062 161.94C128.74 162.11 128.482 162.345 128.289 162.644C128.096 162.942 127.955 163.285 127.867 163.672C127.785 164.053 127.744 164.457 127.744 164.885ZM133.905 163.988L132.815 164.322C132.821 163.801 132.906 163.3 133.07 162.819C133.24 162.339 133.483 161.911 133.8 161.536C134.122 161.161 134.518 160.865 134.986 160.648C135.455 160.426 135.991 160.314 136.595 160.314C137.104 160.314 137.556 160.382 137.948 160.517C138.347 160.651 138.681 160.859 138.95 161.141C139.226 161.416 139.434 161.771 139.574 162.204C139.715 162.638 139.785 163.153 139.785 163.751V170H138.15V163.733C138.15 163.2 138.065 162.787 137.896 162.494C137.731 162.195 137.497 161.987 137.192 161.87C136.894 161.747 136.536 161.686 136.12 161.686C135.763 161.686 135.446 161.747 135.171 161.87C134.896 161.993 134.664 162.163 134.477 162.38C134.289 162.591 134.146 162.834 134.046 163.109C133.952 163.385 133.905 163.678 133.905 163.988ZM146.192 170.176C145.53 170.176 144.93 170.064 144.391 169.842C143.857 169.613 143.397 169.294 143.011 168.884C142.63 168.474 142.337 167.987 142.132 167.425C141.927 166.862 141.824 166.247 141.824 165.579V165.21C141.824 164.437 141.938 163.748 142.167 163.145C142.396 162.535 142.706 162.02 143.099 161.598C143.491 161.176 143.937 160.856 144.435 160.64C144.933 160.423 145.448 160.314 145.981 160.314C146.661 160.314 147.247 160.432 147.739 160.666C148.237 160.9 148.645 161.229 148.961 161.65C149.277 162.066 149.512 162.559 149.664 163.127C149.816 163.689 149.893 164.305 149.893 164.973V165.702H142.791V164.375H148.267V164.252C148.243 163.83 148.155 163.42 148.003 163.021C147.856 162.623 147.622 162.295 147.3 162.037C146.978 161.779 146.538 161.65 145.981 161.65C145.612 161.65 145.272 161.729 144.962 161.888C144.651 162.04 144.385 162.269 144.162 162.573C143.939 162.878 143.767 163.25 143.644 163.689C143.521 164.129 143.459 164.636 143.459 165.21V165.579C143.459 166.03 143.521 166.455 143.644 166.854C143.772 167.246 143.957 167.592 144.197 167.891C144.443 168.189 144.739 168.424 145.085 168.594C145.437 168.764 145.835 168.849 146.28 168.849C146.854 168.849 147.341 168.731 147.739 168.497C148.138 168.263 148.486 167.949 148.785 167.557L149.77 168.339C149.564 168.649 149.304 168.945 148.987 169.227C148.671 169.508 148.281 169.736 147.818 169.912C147.361 170.088 146.819 170.176 146.192 170.176Z" fill="#0F0F0F"/>
<rect x="73" y="15" width="84" height="77" rx="5" fill="#EDF5FC"/>
<path d="M141.142 49.9708C140.853 51.8108 140.176 53.5684 139.156 55.127C138.185 56.6717 136.967 58.0463 135.551 59.1958L119.174 72.6958C119.001 72.839 118.783 72.9173 118.558 72.9173C118.334 72.9173 118.116 72.839 117.943 72.6958L101.566 59.1958C100.951 58.6902 100.371 58.1433 99.8312 57.5589H94.0075C93.8202 58.0541 93.4933 58.4843 93.0665 58.7975C92.6397 59.1107 92.1312 59.2935 91.6027 59.3236C91.0741 59.3537 90.5482 59.2299 90.0886 58.9672C89.6289 58.7045 89.2553 58.3142 89.013 57.8435C88.7707 57.3728 88.6701 56.8419 88.7234 56.3152C88.7766 55.7885 88.9814 55.2885 89.313 54.8758C89.6447 54.4631 90.0888 54.1554 90.5917 53.99C91.0946 53.8246 91.6347 53.8086 92.1465 53.9439C92.5687 54.0532 92.9583 54.2628 93.2822 54.5548C93.6062 54.8467 93.855 55.2125 94.0075 55.6211C98.1128 55.6033 106.054 55.6558 110.345 55.6014C110.531 55.5626 110.702 55.4705 110.836 55.3363C110.97 55.2021 111.063 55.0316 111.102 54.8458L113.476 46.4242L115.443 51.6667C115.504 51.8291 115.607 51.9723 115.741 52.0814C115.876 52.1906 116.037 52.2617 116.208 52.2873L118.157 52.5873L120.269 62.2005C120.32 62.4075 120.437 62.5921 120.603 62.7261C120.769 62.8602 120.974 62.9363 121.187 62.9429C121.4 62.9495 121.61 62.8862 121.783 62.7626C121.957 62.6391 122.086 62.462 122.149 62.2586L124.038 55.6211H127.111C127.368 55.6211 127.614 55.519 127.796 55.3372C127.978 55.1554 128.08 54.9088 128.08 54.6517C128.08 54.3946 127.978 54.1481 127.796 53.9663C127.614 53.7845 127.368 53.6823 127.111 53.6823H123.302C123.092 53.6817 122.888 53.7495 122.72 53.8756C122.552 54.0016 122.43 54.179 122.372 54.3808L121.345 58.0239L119.911 51.5214C119.868 51.3294 119.768 51.1547 119.625 51.02C119.481 50.8853 119.301 50.7967 119.106 50.7658L117.062 50.4564L114.251 42.9751C114.183 42.7807 114.054 42.6138 113.882 42.4999C113.711 42.386 113.507 42.3313 113.301 42.3442C113.097 42.3537 112.901 42.4272 112.742 42.5542C112.582 42.6813 112.466 42.8555 112.411 43.052L109.426 53.6833H97.1668C96.5678 52.5198 96.1649 51.2654 95.9743 49.9708C94.6956 36.9761 105.258 35.2708 105.364 35.2511C113.524 34.1852 117.08 38.5455 118.554 41.6073C120.022 38.5389 123.609 34.1702 131.752 35.2511C131.859 35.2698 142.421 36.9761 141.142 49.9708Z" fill="url(#paint0_linear_27_231)"/>
<rect x="0.5" y="0.5" width="229" height="189" rx="9.5" stroke="url(#paint1_linear_27_231)"/>
<defs>
<linearGradient id="paint0_linear_27_231" x1="105.04" y1="67.8788" x2="124.401" y2="31.2032" gradientUnits="userSpaceOnUse">
<stop offset="0.33" stop-color="#52C5DC"/>
<stop offset="0.63" stop-color="#3C99D4"/>
<stop offset="0.895" stop-color="#3E7ABC"/>
</linearGradient>
<linearGradient id="paint1_linear_27_231" x1="115" y1="0" x2="115" y2="190" gradientUnits="userSpaceOnUse">
<stop offset="0.151042" stop-color="#FAFAFA"/>
<stop offset="0.864583" stop-color="#0457A7"/>
</linearGradient>
</defs>
</svg>
