<svg width="113" height="109" viewBox="0 0 113 109" fill="none" xmlns="http://www.w3.org/2000/svg">
<rect x="0.5" y="0.5" width="112" height="108" rx="6.5" fill="white" stroke="url(#paint0_linear_120_449)"/>
<g clip-path="url(#clip0_120_449)">
<path d="M58.7218 45.9315V44.5161C58.7218 42.9799 56.375 42.9799 56.375 44.5161V45.9315C56.375 47.4799 58.7218 47.4799 58.7218 45.9315ZM53.2177 44.5161V45.9315C53.2177 47.4678 55.5645 47.4678 55.5645 45.9315V44.5161C55.5524 42.9799 53.2177 42.9799 53.2177 44.5161ZM59.6532 72.3871C59.6532 77.2379 52.2742 77.2379 52.2742 72.3871C52.2742 71.3468 52.2621 70.367 52.2258 69.4355C53.8468 66.0121 54.7177 61.9476 54.7177 57.6411C54.7177 48.6774 50.9073 40.9476 45.5 38.625C45.7903 38.1653 46.1048 37.7299 46.4556 37.3065C48.8145 40.0766 52.2863 41.7097 55.9637 41.7097C59.6411 41.7097 63.1129 40.0887 65.4839 37.3065C65.8347 37.7299 66.1613 38.1774 66.4516 38.6492C61.0806 40.996 57.2823 48.7016 57.2823 57.6411C57.2823 61.8871 58.1169 65.9153 59.7016 69.3024C59.6653 70.2823 59.6532 71.3105 59.6532 72.3871ZM74.8105 30.2057C71.2056 30.2057 67.8185 31.9476 65.7258 34.875C63.2097 32.5645 59.7621 31.125 55.9637 31.125C52.2137 31.125 48.8024 32.5282 46.2863 34.8024C44.1814 31.875 40.8065 30.1331 37.1895 30.1331C31.0202 30.121 26 35.1411 26 41.3105C26 45.7379 28.5161 49.4879 32.4355 51.4355C32.9315 53.3226 34.6976 54.7137 36.7903 54.7137C39.2702 54.7137 41.2782 52.754 41.2782 50.3468C41.2782 47.9395 39.2581 45.9799 36.7903 45.9799C35.9073 45.9799 35.0726 46.2339 34.371 46.6694C32.3992 45.629 31.1411 43.5605 31.1411 41.3226C31.1411 37.9839 33.8508 35.2742 37.1895 35.2742C39.1734 35.2742 41.0363 36.254 42.1734 37.8992L43.0806 39.2178C42.4032 40.754 42.0161 42.4476 42.0161 44.2137C42.0161 48.0726 43.4073 49.8145 45.004 51.8468C47.3992 54.871 50.3992 58.6452 50.3992 72.3992C50.3992 79.7178 61.5161 79.7178 61.5161 72.3992C61.5161 58.6452 64.504 54.871 66.9113 51.8468C68.5202 49.8145 69.8992 48.0726 69.8992 44.2137C69.8992 42.4839 69.5363 40.8387 68.8831 39.3266L69.8145 37.9718C70.9516 36.3387 72.8024 35.3468 74.7984 35.3468C78.1371 35.3468 80.8468 38.0565 80.8468 41.3952C80.8468 43.6331 79.5887 45.7137 77.6169 46.742C76.9153 46.3065 76.0927 46.0645 75.2097 46.0645C72.7298 46.0645 70.7218 48.0242 70.7218 50.4315C70.7218 52.8387 72.7419 54.7984 75.2097 54.7984C77.3024 54.7984 79.0564 53.4073 79.5645 51.5202C83.4718 49.6331 86 45.75 86 41.3952C86 35.2258 80.9798 30.2057 74.8105 30.2057Z" fill="url(#paint1_linear_120_449)"/>
</g>
<defs>
<linearGradient id="paint0_linear_120_449" x1="56.5" y1="0" x2="56.5" y2="109" gradientUnits="userSpaceOnUse">
<stop stop-color="#0675BC"/>
<stop offset="1" stop-color="#0675BC" stop-opacity="0"/>
</linearGradient>
<linearGradient id="paint1_linear_120_449" x1="76.2308" y1="31.3191" x2="45.2119" y2="77.3774" gradientUnits="userSpaceOnUse">
<stop stop-color="#3D8AC9"/>
<stop offset="0.463542" stop-color="#52C5DC"/>
</linearGradient>
<clipPath id="clip0_120_449">
<rect width="60" height="60" fill="white" transform="translate(26 24)"/>
</clipPath>
</defs>
</svg>
