<svg width="230" height="190" viewBox="0 0 230 190" fill="none" xmlns="http://www.w3.org/2000/svg">
<path d="M42.1475 133.133L44.6875 124.203H45.918L45.2061 127.675L42.4727 137H41.251L42.1475 133.133ZM39.5195 124.203L41.541 132.957L42.1475 137H40.9346L37.832 124.203H39.5195ZM49.2051 132.948L51.1826 124.203H52.8789L49.7852 137H48.5723L49.2051 132.948ZM46.1025 124.203L48.5723 133.133L49.4688 137H48.2471L45.6104 127.675L44.8896 124.203H46.1025ZM58.1787 137.176C57.5166 137.176 56.916 137.064 56.377 136.842C55.8438 136.613 55.3838 136.294 54.9971 135.884C54.6162 135.474 54.3232 134.987 54.1182 134.425C53.9131 133.862 53.8105 133.247 53.8105 132.579V132.21C53.8105 131.437 53.9248 130.748 54.1533 130.145C54.3818 129.535 54.6924 129.02 55.085 128.598C55.4775 128.176 55.9229 127.856 56.4209 127.64C56.9189 127.423 57.4346 127.314 57.9678 127.314C58.6475 127.314 59.2334 127.432 59.7256 127.666C60.2236 127.9 60.6309 128.229 60.9473 128.65C61.2637 129.066 61.498 129.559 61.6504 130.127C61.8027 130.689 61.8789 131.305 61.8789 131.973V132.702H54.7773V131.375H60.2529V131.252C60.2295 130.83 60.1416 130.42 59.9893 130.021C59.8428 129.623 59.6084 129.295 59.2861 129.037C58.9639 128.779 58.5244 128.65 57.9678 128.65C57.5986 128.65 57.2588 128.729 56.9482 128.888C56.6377 129.04 56.3711 129.269 56.1484 129.573C55.9258 129.878 55.7529 130.25 55.6299 130.689C55.5068 131.129 55.4453 131.636 55.4453 132.21V132.579C55.4453 133.03 55.5068 133.455 55.6299 133.854C55.7588 134.246 55.9434 134.592 56.1836 134.891C56.4297 135.189 56.7256 135.424 57.0713 135.594C57.4229 135.764 57.8213 135.849 58.2666 135.849C58.8408 135.849 59.3271 135.731 59.7256 135.497C60.124 135.263 60.4727 134.949 60.7715 134.557L61.7559 135.339C61.5508 135.649 61.29 135.945 60.9736 136.227C60.6572 136.508 60.2676 136.736 59.8047 136.912C59.3477 137.088 58.8057 137.176 58.1787 137.176ZM65.5439 123.5V137H63.9092V123.5H65.5439ZM69.9209 123.5V137H68.2861V123.5H69.9209ZM80.9775 127.49V128.738H75.8359V127.49H80.9775ZM77.5762 125.179H79.2021V134.645C79.2021 134.967 79.252 135.21 79.3516 135.374C79.4512 135.538 79.5801 135.646 79.7383 135.699C79.8965 135.752 80.0664 135.778 80.248 135.778C80.3828 135.778 80.5234 135.767 80.6699 135.743C80.8223 135.714 80.9365 135.69 81.0127 135.673L81.0215 137C80.8926 137.041 80.7227 137.079 80.5117 137.114C80.3066 137.155 80.0576 137.176 79.7646 137.176C79.3662 137.176 79 137.097 78.666 136.938C78.332 136.78 78.0654 136.517 77.8662 136.147C77.6729 135.772 77.5762 135.269 77.5762 134.636V125.179ZM84.5107 128.984V137H82.8848V127.49H84.4668L84.5107 128.984ZM87.4814 127.438L87.4727 128.949C87.3379 128.92 87.209 128.902 87.0859 128.896C86.9688 128.885 86.834 128.879 86.6816 128.879C86.3066 128.879 85.9756 128.938 85.6885 129.055C85.4014 129.172 85.1582 129.336 84.959 129.547C84.7598 129.758 84.6016 130.01 84.4844 130.303C84.373 130.59 84.2998 130.906 84.2646 131.252L83.8076 131.516C83.8076 130.941 83.8633 130.402 83.9746 129.898C84.0918 129.395 84.2705 128.949 84.5107 128.562C84.751 128.17 85.0557 127.865 85.4248 127.648C85.7998 127.426 86.2451 127.314 86.7607 127.314C86.8779 127.314 87.0127 127.329 87.165 127.358C87.3174 127.382 87.4229 127.408 87.4814 127.438ZM94.2402 135.374V130.479C94.2402 130.104 94.1641 129.778 94.0117 129.503C93.8652 129.222 93.6426 129.005 93.3438 128.853C93.0449 128.7 92.6758 128.624 92.2363 128.624C91.8262 128.624 91.4658 128.694 91.1553 128.835C90.8506 128.976 90.6104 129.16 90.4346 129.389C90.2646 129.617 90.1797 129.863 90.1797 130.127H88.5537C88.5537 129.787 88.6416 129.45 88.8174 129.116C88.9932 128.782 89.2451 128.48 89.5732 128.211C89.9072 127.936 90.3057 127.719 90.7686 127.561C91.2373 127.396 91.7588 127.314 92.333 127.314C93.0244 127.314 93.6338 127.432 94.1611 127.666C94.6943 127.9 95.1104 128.255 95.4092 128.729C95.7139 129.198 95.8662 129.787 95.8662 130.496V134.926C95.8662 135.242 95.8926 135.579 95.9453 135.937C96.0039 136.294 96.0889 136.602 96.2002 136.859V137H94.5039C94.4219 136.812 94.3574 136.563 94.3105 136.253C94.2637 135.937 94.2402 135.644 94.2402 135.374ZM94.5215 131.234L94.5391 132.377H92.8955C92.4326 132.377 92.0195 132.415 91.6562 132.491C91.293 132.562 90.9883 132.67 90.7422 132.816C90.4961 132.963 90.3086 133.147 90.1797 133.37C90.0508 133.587 89.9863 133.842 89.9863 134.135C89.9863 134.434 90.0537 134.706 90.1885 134.952C90.3232 135.198 90.5254 135.395 90.7949 135.541C91.0703 135.682 91.4072 135.752 91.8057 135.752C92.3037 135.752 92.7432 135.646 93.124 135.436C93.5049 135.225 93.8066 134.967 94.0293 134.662C94.2578 134.357 94.3809 134.062 94.3984 133.774L95.0928 134.557C95.0518 134.803 94.9404 135.075 94.7588 135.374C94.5771 135.673 94.334 135.96 94.0293 136.235C93.7305 136.505 93.373 136.73 92.957 136.912C92.5469 137.088 92.084 137.176 91.5684 137.176C90.9238 137.176 90.3584 137.05 89.8721 136.798C89.3916 136.546 89.0166 136.209 88.7471 135.787C88.4834 135.359 88.3516 134.882 88.3516 134.354C88.3516 133.845 88.4512 133.396 88.6504 133.01C88.8496 132.617 89.1367 132.292 89.5117 132.034C89.8867 131.771 90.3379 131.571 90.8652 131.437C91.3926 131.302 91.9814 131.234 92.6318 131.234H94.5215ZM100.19 127.49V137H98.5557V127.49H100.19ZM98.4326 124.968C98.4326 124.704 98.5117 124.481 98.6699 124.3C98.834 124.118 99.0742 124.027 99.3906 124.027C99.7012 124.027 99.9385 124.118 100.103 124.3C100.272 124.481 100.357 124.704 100.357 124.968C100.357 125.22 100.272 125.437 100.103 125.618C99.9385 125.794 99.7012 125.882 99.3906 125.882C99.0742 125.882 98.834 125.794 98.6699 125.618C98.5117 125.437 98.4326 125.22 98.4326 124.968ZM104.427 129.521V137H102.801V127.49H104.339L104.427 129.521ZM104.04 131.885L103.363 131.858C103.369 131.208 103.466 130.607 103.653 130.057C103.841 129.5 104.104 129.017 104.444 128.606C104.784 128.196 105.188 127.88 105.657 127.657C106.132 127.429 106.656 127.314 107.23 127.314C107.699 127.314 108.121 127.379 108.496 127.508C108.871 127.631 109.19 127.83 109.454 128.105C109.724 128.381 109.929 128.738 110.069 129.178C110.21 129.611 110.28 130.142 110.28 130.769V137H108.646V130.751C108.646 130.253 108.572 129.854 108.426 129.556C108.279 129.251 108.065 129.031 107.784 128.896C107.503 128.756 107.157 128.686 106.747 128.686C106.343 128.686 105.974 128.771 105.64 128.94C105.312 129.11 105.027 129.345 104.787 129.644C104.553 129.942 104.368 130.285 104.233 130.672C104.104 131.053 104.04 131.457 104.04 131.885ZM116.696 137.176C116.034 137.176 115.434 137.064 114.895 136.842C114.361 136.613 113.901 136.294 113.515 135.884C113.134 135.474 112.841 134.987 112.636 134.425C112.431 133.862 112.328 133.247 112.328 132.579V132.21C112.328 131.437 112.442 130.748 112.671 130.145C112.899 129.535 113.21 129.02 113.603 128.598C113.995 128.176 114.44 127.856 114.938 127.64C115.437 127.423 115.952 127.314 116.485 127.314C117.165 127.314 117.751 127.432 118.243 127.666C118.741 127.9 119.148 128.229 119.465 128.65C119.781 129.066 120.016 129.559 120.168 130.127C120.32 130.689 120.396 131.305 120.396 131.973V132.702H113.295V131.375H118.771V131.252C118.747 130.83 118.659 130.42 118.507 130.021C118.36 129.623 118.126 129.295 117.804 129.037C117.481 128.779 117.042 128.65 116.485 128.65C116.116 128.65 115.776 128.729 115.466 128.888C115.155 129.04 114.889 129.269 114.666 129.573C114.443 129.878 114.271 130.25 114.147 130.689C114.024 131.129 113.963 131.636 113.963 132.21V132.579C113.963 133.03 114.024 133.455 114.147 133.854C114.276 134.246 114.461 134.592 114.701 134.891C114.947 135.189 115.243 135.424 115.589 135.594C115.94 135.764 116.339 135.849 116.784 135.849C117.358 135.849 117.845 135.731 118.243 135.497C118.642 135.263 118.99 134.949 119.289 134.557L120.273 135.339C120.068 135.649 119.808 135.945 119.491 136.227C119.175 136.508 118.785 136.736 118.322 136.912C117.865 137.088 117.323 137.176 116.696 137.176ZM128.289 135.154V123.5H129.924V137H128.43L128.289 135.154ZM121.891 132.351V132.166C121.891 131.439 121.979 130.78 122.154 130.188C122.336 129.591 122.591 129.078 122.919 128.65C123.253 128.223 123.648 127.895 124.105 127.666C124.568 127.432 125.084 127.314 125.652 127.314C126.25 127.314 126.771 127.42 127.217 127.631C127.668 127.836 128.049 128.138 128.359 128.536C128.676 128.929 128.925 129.403 129.106 129.96C129.288 130.517 129.414 131.146 129.484 131.85V132.658C129.42 133.355 129.294 133.982 129.106 134.539C128.925 135.096 128.676 135.57 128.359 135.963C128.049 136.355 127.668 136.657 127.217 136.868C126.766 137.073 126.238 137.176 125.635 137.176C125.078 137.176 124.568 137.056 124.105 136.815C123.648 136.575 123.253 136.238 122.919 135.805C122.591 135.371 122.336 134.861 122.154 134.275C121.979 133.684 121.891 133.042 121.891 132.351ZM123.525 132.166V132.351C123.525 132.825 123.572 133.271 123.666 133.687C123.766 134.103 123.918 134.469 124.123 134.785C124.328 135.102 124.589 135.351 124.905 135.532C125.222 135.708 125.6 135.796 126.039 135.796C126.578 135.796 127.021 135.682 127.366 135.453C127.718 135.225 127.999 134.923 128.21 134.548C128.421 134.173 128.585 133.766 128.702 133.326V131.208C128.632 130.886 128.529 130.575 128.395 130.276C128.266 129.972 128.096 129.702 127.885 129.468C127.68 129.228 127.425 129.037 127.12 128.896C126.821 128.756 126.467 128.686 126.057 128.686C125.611 128.686 125.228 128.779 124.905 128.967C124.589 129.148 124.328 129.4 124.123 129.723C123.918 130.039 123.766 130.408 123.666 130.83C123.572 131.246 123.525 131.691 123.525 132.166ZM147.01 124.203V137H145.305L138.862 127.13V137H137.166V124.203H138.862L145.331 134.1V124.203H147.01ZM155.588 134.803V127.49H157.223V137H155.667L155.588 134.803ZM155.896 132.799L156.572 132.781C156.572 133.414 156.505 134 156.37 134.539C156.241 135.072 156.03 135.535 155.737 135.928C155.444 136.32 155.061 136.628 154.586 136.851C154.111 137.067 153.534 137.176 152.854 137.176C152.392 137.176 151.967 137.108 151.58 136.974C151.199 136.839 150.871 136.631 150.596 136.35C150.32 136.068 150.106 135.702 149.954 135.251C149.808 134.8 149.734 134.258 149.734 133.625V127.49H151.36V133.643C151.36 134.07 151.407 134.425 151.501 134.706C151.601 134.981 151.732 135.201 151.896 135.365C152.066 135.523 152.254 135.635 152.459 135.699C152.67 135.764 152.887 135.796 153.109 135.796C153.801 135.796 154.349 135.664 154.753 135.4C155.157 135.131 155.447 134.771 155.623 134.319C155.805 133.862 155.896 133.355 155.896 132.799ZM161.327 128.984V137H159.701V127.49H161.283L161.327 128.984ZM164.298 127.438L164.289 128.949C164.154 128.92 164.025 128.902 163.902 128.896C163.785 128.885 163.65 128.879 163.498 128.879C163.123 128.879 162.792 128.938 162.505 129.055C162.218 129.172 161.975 129.336 161.775 129.547C161.576 129.758 161.418 130.01 161.301 130.303C161.189 130.59 161.116 130.906 161.081 131.252L160.624 131.516C160.624 130.941 160.68 130.402 160.791 129.898C160.908 129.395 161.087 128.949 161.327 128.562C161.567 128.17 161.872 127.865 162.241 127.648C162.616 127.426 163.062 127.314 163.577 127.314C163.694 127.314 163.829 127.329 163.981 127.358C164.134 127.382 164.239 127.408 164.298 127.438ZM171.338 134.478C171.338 134.243 171.285 134.026 171.18 133.827C171.08 133.622 170.872 133.438 170.556 133.273C170.245 133.104 169.776 132.957 169.149 132.834C168.622 132.723 168.145 132.591 167.717 132.438C167.295 132.286 166.935 132.102 166.636 131.885C166.343 131.668 166.117 131.413 165.959 131.12C165.801 130.827 165.722 130.484 165.722 130.092C165.722 129.717 165.804 129.362 165.968 129.028C166.138 128.694 166.375 128.398 166.68 128.141C166.99 127.883 167.362 127.681 167.796 127.534C168.229 127.388 168.713 127.314 169.246 127.314C170.008 127.314 170.658 127.449 171.197 127.719C171.736 127.988 172.149 128.349 172.437 128.8C172.724 129.245 172.867 129.74 172.867 130.285H171.241C171.241 130.021 171.162 129.767 171.004 129.521C170.852 129.269 170.626 129.061 170.327 128.896C170.034 128.732 169.674 128.65 169.246 128.65C168.795 128.65 168.429 128.721 168.147 128.861C167.872 128.996 167.67 129.169 167.541 129.38C167.418 129.591 167.356 129.813 167.356 130.048C167.356 130.224 167.386 130.382 167.444 130.522C167.509 130.657 167.62 130.783 167.778 130.9C167.937 131.012 168.159 131.117 168.446 131.217C168.733 131.316 169.1 131.416 169.545 131.516C170.324 131.691 170.966 131.902 171.47 132.148C171.974 132.395 172.349 132.696 172.595 133.054C172.841 133.411 172.964 133.845 172.964 134.354C172.964 134.771 172.876 135.151 172.7 135.497C172.53 135.843 172.281 136.142 171.953 136.394C171.631 136.64 171.244 136.833 170.793 136.974C170.348 137.108 169.847 137.176 169.29 137.176C168.452 137.176 167.743 137.026 167.163 136.728C166.583 136.429 166.144 136.042 165.845 135.567C165.546 135.093 165.396 134.592 165.396 134.064H167.031C167.055 134.51 167.184 134.864 167.418 135.128C167.652 135.386 167.939 135.57 168.279 135.682C168.619 135.787 168.956 135.84 169.29 135.84C169.735 135.84 170.107 135.781 170.406 135.664C170.711 135.547 170.942 135.386 171.101 135.181C171.259 134.976 171.338 134.741 171.338 134.478ZM179.046 137.176C178.384 137.176 177.783 137.064 177.244 136.842C176.711 136.613 176.251 136.294 175.864 135.884C175.483 135.474 175.19 134.987 174.985 134.425C174.78 133.862 174.678 133.247 174.678 132.579V132.21C174.678 131.437 174.792 130.748 175.021 130.145C175.249 129.535 175.56 129.02 175.952 128.598C176.345 128.176 176.79 127.856 177.288 127.64C177.786 127.423 178.302 127.314 178.835 127.314C179.515 127.314 180.101 127.432 180.593 127.666C181.091 127.9 181.498 128.229 181.814 128.65C182.131 129.066 182.365 129.559 182.518 130.127C182.67 130.689 182.746 131.305 182.746 131.973V132.702H175.645V131.375H181.12V131.252C181.097 130.83 181.009 130.42 180.856 130.021C180.71 129.623 180.476 129.295 180.153 129.037C179.831 128.779 179.392 128.65 178.835 128.65C178.466 128.65 178.126 128.729 177.815 128.888C177.505 129.04 177.238 129.269 177.016 129.573C176.793 129.878 176.62 130.25 176.497 130.689C176.374 131.129 176.312 131.636 176.312 132.21V132.579C176.312 133.03 176.374 133.455 176.497 133.854C176.626 134.246 176.811 134.592 177.051 134.891C177.297 135.189 177.593 135.424 177.938 135.594C178.29 135.764 178.688 135.849 179.134 135.849C179.708 135.849 180.194 135.731 180.593 135.497C180.991 135.263 181.34 134.949 181.639 134.557L182.623 135.339C182.418 135.649 182.157 135.945 181.841 136.227C181.524 136.508 181.135 136.736 180.672 136.912C180.215 137.088 179.673 137.176 179.046 137.176ZM190.182 134.478C190.182 134.243 190.129 134.026 190.023 133.827C189.924 133.622 189.716 133.438 189.399 133.273C189.089 133.104 188.62 132.957 187.993 132.834C187.466 132.723 186.988 132.591 186.561 132.438C186.139 132.286 185.778 132.102 185.479 131.885C185.187 131.668 184.961 131.413 184.803 131.12C184.645 130.827 184.565 130.484 184.565 130.092C184.565 129.717 184.647 129.362 184.812 129.028C184.981 128.694 185.219 128.398 185.523 128.141C185.834 127.883 186.206 127.681 186.64 127.534C187.073 127.388 187.557 127.314 188.09 127.314C188.852 127.314 189.502 127.449 190.041 127.719C190.58 127.988 190.993 128.349 191.28 128.8C191.567 129.245 191.711 129.74 191.711 130.285H190.085C190.085 130.021 190.006 129.767 189.848 129.521C189.695 129.269 189.47 129.061 189.171 128.896C188.878 128.732 188.518 128.65 188.09 128.65C187.639 128.65 187.272 128.721 186.991 128.861C186.716 128.996 186.514 129.169 186.385 129.38C186.262 129.591 186.2 129.813 186.2 130.048C186.2 130.224 186.229 130.382 186.288 130.522C186.353 130.657 186.464 130.783 186.622 130.9C186.78 131.012 187.003 131.117 187.29 131.217C187.577 131.316 187.943 131.416 188.389 131.516C189.168 131.691 189.81 131.902 190.313 132.148C190.817 132.395 191.192 132.696 191.438 133.054C191.685 133.411 191.808 133.845 191.808 134.354C191.808 134.771 191.72 135.151 191.544 135.497C191.374 135.843 191.125 136.142 190.797 136.394C190.475 136.64 190.088 136.833 189.637 136.974C189.191 137.108 188.69 137.176 188.134 137.176C187.296 137.176 186.587 137.026 186.007 136.728C185.427 136.429 184.987 136.042 184.688 135.567C184.39 135.093 184.24 134.592 184.24 134.064H185.875C185.898 134.51 186.027 134.864 186.262 135.128C186.496 135.386 186.783 135.57 187.123 135.682C187.463 135.787 187.8 135.84 188.134 135.84C188.579 135.84 188.951 135.781 189.25 135.664C189.555 135.547 189.786 135.386 189.944 135.181C190.103 134.976 190.182 134.741 190.182 134.478ZM18.7861 151.898L20.7021 150.536C21.0713 150.284 21.3555 150.032 21.5547 149.78C21.7598 149.522 21.8623 149.171 21.8623 148.726C21.8623 148.38 21.7275 148.066 21.458 147.785C21.1885 147.498 20.8076 147.354 20.3154 147.354C19.9756 147.354 19.6885 147.434 19.4541 147.592C19.2197 147.75 19.0439 147.961 18.9268 148.225C18.8096 148.482 18.751 148.767 18.751 149.077C18.751 149.341 18.8154 149.613 18.9443 149.895C19.0732 150.176 19.252 150.469 19.4805 150.773C19.709 151.078 19.9697 151.4 20.2627 151.74L26.3184 159H24.3672L19.4014 153.059C18.9619 152.543 18.5693 152.071 18.2236 151.644C17.8779 151.21 17.6055 150.791 17.4062 150.387C17.2129 149.982 17.1162 149.563 17.1162 149.13C17.1162 148.462 17.248 147.899 17.5117 147.442C17.7812 146.979 18.1562 146.628 18.6367 146.388C19.1172 146.147 19.6797 146.027 20.3242 146.027C20.9512 146.027 21.4902 146.153 21.9414 146.405C22.3984 146.651 22.75 146.979 22.9961 147.39C23.2422 147.794 23.3652 148.239 23.3652 148.726C23.3652 149.136 23.292 149.505 23.1455 149.833C22.999 150.155 22.7939 150.451 22.5303 150.721C22.2725 150.99 21.9707 151.254 21.625 151.512L19.085 153.401C18.6631 153.712 18.3555 154.008 18.1621 154.289C17.9688 154.57 17.8428 154.819 17.7842 155.036C17.7314 155.253 17.7051 155.426 17.7051 155.555C17.7051 155.971 17.7959 156.352 17.9775 156.697C18.1592 157.043 18.4346 157.321 18.8037 157.532C19.1787 157.737 19.6475 157.84 20.21 157.84C20.7021 157.84 21.1797 157.729 21.6426 157.506C22.1113 157.277 22.5303 156.955 22.8994 156.539C23.2686 156.117 23.5615 155.616 23.7783 155.036C24.001 154.45 24.1123 153.803 24.1123 153.094H25.5713C25.5713 153.674 25.5156 154.222 25.4043 154.737C25.293 155.253 25.1201 155.733 24.8857 156.179C24.6572 156.618 24.3643 157.02 24.0068 157.383C23.9541 157.436 23.9131 157.497 23.8838 157.567C23.8545 157.638 23.8135 157.699 23.7607 157.752C23.3213 158.227 22.7793 158.584 22.1348 158.824C21.4961 159.059 20.8545 159.176 20.21 159.176C19.3604 159.176 18.625 159.021 18.0039 158.71C17.3887 158.399 16.9141 157.972 16.5801 157.427C16.2461 156.882 16.0791 156.258 16.0791 155.555C16.0791 155.016 16.1934 154.541 16.4219 154.131C16.6562 153.721 16.9756 153.337 17.3799 152.979C17.79 152.622 18.2588 152.262 18.7861 151.898ZM29.2451 151.318V162.656H27.6104V149.49H29.1045L29.2451 151.318ZM35.6523 154.166V154.351C35.6523 155.042 35.5703 155.684 35.4062 156.275C35.2422 156.861 35.002 157.371 34.6855 157.805C34.375 158.238 33.9912 158.575 33.5342 158.815C33.0771 159.056 32.5527 159.176 31.9609 159.176C31.3574 159.176 30.8242 159.076 30.3613 158.877C29.8984 158.678 29.5059 158.388 29.1836 158.007C28.8613 157.626 28.6035 157.169 28.4102 156.636C28.2227 156.103 28.0938 155.502 28.0234 154.834V153.85C28.0938 153.146 28.2256 152.517 28.4189 151.96C28.6123 151.403 28.8672 150.929 29.1836 150.536C29.5059 150.138 29.8955 149.836 30.3525 149.631C30.8096 149.42 31.3369 149.314 31.9346 149.314C32.5322 149.314 33.0625 149.432 33.5254 149.666C33.9883 149.895 34.3779 150.223 34.6943 150.65C35.0107 151.078 35.248 151.591 35.4062 152.188C35.5703 152.78 35.6523 153.439 35.6523 154.166ZM34.0176 154.351V154.166C34.0176 153.691 33.9678 153.246 33.8682 152.83C33.7686 152.408 33.6133 152.039 33.4023 151.723C33.1973 151.4 32.9336 151.148 32.6113 150.967C32.2891 150.779 31.9053 150.686 31.46 150.686C31.0498 150.686 30.6924 150.756 30.3877 150.896C30.0889 151.037 29.834 151.228 29.623 151.468C29.4121 151.702 29.2393 151.972 29.1045 152.276C28.9756 152.575 28.8789 152.886 28.8145 153.208V155.484C28.9316 155.895 29.0957 156.281 29.3066 156.645C29.5176 157.002 29.7988 157.292 30.1504 157.515C30.502 157.731 30.9443 157.84 31.4775 157.84C31.917 157.84 32.2949 157.749 32.6113 157.567C32.9336 157.38 33.1973 157.125 33.4023 156.803C33.6133 156.48 33.7686 156.111 33.8682 155.695C33.9678 155.273 34.0176 154.825 34.0176 154.351ZM43.334 157.374V152.479C43.334 152.104 43.2578 151.778 43.1055 151.503C42.959 151.222 42.7363 151.005 42.4375 150.853C42.1387 150.7 41.7695 150.624 41.3301 150.624C40.9199 150.624 40.5596 150.694 40.249 150.835C39.9443 150.976 39.7041 151.16 39.5283 151.389C39.3584 151.617 39.2734 151.863 39.2734 152.127H37.6475C37.6475 151.787 37.7354 151.45 37.9111 151.116C38.0869 150.782 38.3389 150.48 38.667 150.211C39.001 149.936 39.3994 149.719 39.8623 149.561C40.3311 149.396 40.8525 149.314 41.4268 149.314C42.1182 149.314 42.7275 149.432 43.2549 149.666C43.7881 149.9 44.2041 150.255 44.5029 150.729C44.8076 151.198 44.96 151.787 44.96 152.496V156.926C44.96 157.242 44.9863 157.579 45.0391 157.937C45.0977 158.294 45.1826 158.602 45.2939 158.859V159H43.5977C43.5156 158.812 43.4512 158.563 43.4043 158.253C43.3574 157.937 43.334 157.644 43.334 157.374ZM43.6152 153.234L43.6328 154.377H41.9893C41.5264 154.377 41.1133 154.415 40.75 154.491C40.3867 154.562 40.082 154.67 39.8359 154.816C39.5898 154.963 39.4023 155.147 39.2734 155.37C39.1445 155.587 39.0801 155.842 39.0801 156.135C39.0801 156.434 39.1475 156.706 39.2822 156.952C39.417 157.198 39.6191 157.395 39.8887 157.541C40.1641 157.682 40.501 157.752 40.8994 157.752C41.3975 157.752 41.8369 157.646 42.2178 157.436C42.5986 157.225 42.9004 156.967 43.123 156.662C43.3516 156.357 43.4746 156.062 43.4922 155.774L44.1865 156.557C44.1455 156.803 44.0342 157.075 43.8525 157.374C43.6709 157.673 43.4277 157.96 43.123 158.235C42.8242 158.505 42.4668 158.73 42.0508 158.912C41.6406 159.088 41.1777 159.176 40.6621 159.176C40.0176 159.176 39.4521 159.05 38.9658 158.798C38.4854 158.546 38.1104 158.209 37.8408 157.787C37.5771 157.359 37.4453 156.882 37.4453 156.354C37.4453 155.845 37.5449 155.396 37.7441 155.01C37.9434 154.617 38.2305 154.292 38.6055 154.034C38.9805 153.771 39.4316 153.571 39.959 153.437C40.4863 153.302 41.0752 153.234 41.7256 153.234H43.6152ZM49.1436 150.984V159H47.5176V149.49H49.0996L49.1436 150.984ZM52.1143 149.438L52.1055 150.949C51.9707 150.92 51.8418 150.902 51.7188 150.896C51.6016 150.885 51.4668 150.879 51.3145 150.879C50.9395 150.879 50.6084 150.938 50.3213 151.055C50.0342 151.172 49.791 151.336 49.5918 151.547C49.3926 151.758 49.2344 152.01 49.1172 152.303C49.0059 152.59 48.9326 152.906 48.8975 153.252L48.4404 153.516C48.4404 152.941 48.4961 152.402 48.6074 151.898C48.7246 151.395 48.9033 150.949 49.1436 150.562C49.3838 150.17 49.6885 149.865 50.0576 149.648C50.4326 149.426 50.8779 149.314 51.3936 149.314C51.5107 149.314 51.6455 149.329 51.7979 149.358C51.9502 149.382 52.0557 149.408 52.1143 149.438ZM58.873 157.374V152.479C58.873 152.104 58.7969 151.778 58.6445 151.503C58.498 151.222 58.2754 151.005 57.9766 150.853C57.6777 150.7 57.3086 150.624 56.8691 150.624C56.459 150.624 56.0986 150.694 55.7881 150.835C55.4834 150.976 55.2432 151.16 55.0674 151.389C54.8975 151.617 54.8125 151.863 54.8125 152.127H53.1865C53.1865 151.787 53.2744 151.45 53.4502 151.116C53.626 150.782 53.8779 150.48 54.2061 150.211C54.54 149.936 54.9385 149.719 55.4014 149.561C55.8701 149.396 56.3916 149.314 56.9658 149.314C57.6572 149.314 58.2666 149.432 58.7939 149.666C59.3271 149.9 59.7432 150.255 60.042 150.729C60.3467 151.198 60.499 151.787 60.499 152.496V156.926C60.499 157.242 60.5254 157.579 60.5781 157.937C60.6367 158.294 60.7217 158.602 60.833 158.859V159H59.1367C59.0547 158.812 58.9902 158.563 58.9434 158.253C58.8965 157.937 58.873 157.644 58.873 157.374ZM59.1543 153.234L59.1719 154.377H57.5283C57.0654 154.377 56.6523 154.415 56.2891 154.491C55.9258 154.562 55.6211 154.67 55.375 154.816C55.1289 154.963 54.9414 155.147 54.8125 155.37C54.6836 155.587 54.6191 155.842 54.6191 156.135C54.6191 156.434 54.6865 156.706 54.8213 156.952C54.9561 157.198 55.1582 157.395 55.4277 157.541C55.7031 157.682 56.04 157.752 56.4385 157.752C56.9365 157.752 57.376 157.646 57.7568 157.436C58.1377 157.225 58.4395 156.967 58.6621 156.662C58.8906 156.357 59.0137 156.062 59.0312 155.774L59.7256 156.557C59.6846 156.803 59.5732 157.075 59.3916 157.374C59.21 157.673 58.9668 157.96 58.6621 158.235C58.3633 158.505 58.0059 158.73 57.5898 158.912C57.1797 159.088 56.7168 159.176 56.2012 159.176C55.5566 159.176 54.9912 159.05 54.5049 158.798C54.0244 158.546 53.6494 158.209 53.3799 157.787C53.1162 157.359 52.9844 156.882 52.9844 156.354C52.9844 155.845 53.084 155.396 53.2832 155.01C53.4824 154.617 53.7695 154.292 54.1445 154.034C54.5195 153.771 54.9707 153.571 55.498 153.437C56.0254 153.302 56.6143 153.234 57.2646 153.234H59.1543ZM68.3037 146.203H69.9473L74.1396 156.636L78.3232 146.203H79.9756L74.7725 159H73.4893L68.3037 146.203ZM67.7676 146.203H69.2178L69.4551 154.008V159H67.7676V146.203ZM79.0527 146.203H80.5029V159H78.8154V154.008L79.0527 146.203ZM87.1826 159.176C86.5205 159.176 85.9199 159.064 85.3809 158.842C84.8477 158.613 84.3877 158.294 84.001 157.884C83.6201 157.474 83.3271 156.987 83.1221 156.425C82.917 155.862 82.8145 155.247 82.8145 154.579V154.21C82.8145 153.437 82.9287 152.748 83.1572 152.145C83.3857 151.535 83.6963 151.02 84.0889 150.598C84.4814 150.176 84.9268 149.856 85.4248 149.64C85.9229 149.423 86.4385 149.314 86.9717 149.314C87.6514 149.314 88.2373 149.432 88.7295 149.666C89.2275 149.9 89.6348 150.229 89.9512 150.65C90.2676 151.066 90.502 151.559 90.6543 152.127C90.8066 152.689 90.8828 153.305 90.8828 153.973V154.702H83.7812V153.375H89.2568V153.252C89.2334 152.83 89.1455 152.42 88.9932 152.021C88.8467 151.623 88.6123 151.295 88.29 151.037C87.9678 150.779 87.5283 150.65 86.9717 150.65C86.6025 150.65 86.2627 150.729 85.9521 150.888C85.6416 151.04 85.375 151.269 85.1523 151.573C84.9297 151.878 84.7568 152.25 84.6338 152.689C84.5107 153.129 84.4492 153.636 84.4492 154.21V154.579C84.4492 155.03 84.5107 155.455 84.6338 155.854C84.7627 156.246 84.9473 156.592 85.1875 156.891C85.4336 157.189 85.7295 157.424 86.0752 157.594C86.4268 157.764 86.8252 157.849 87.2705 157.849C87.8447 157.849 88.3311 157.731 88.7295 157.497C89.1279 157.263 89.4766 156.949 89.7754 156.557L90.7598 157.339C90.5547 157.649 90.2939 157.945 89.9775 158.227C89.6611 158.508 89.2715 158.736 88.8086 158.912C88.3516 159.088 87.8096 159.176 87.1826 159.176ZM98.7754 157.154V145.5H100.41V159H98.916L98.7754 157.154ZM92.377 154.351V154.166C92.377 153.439 92.4648 152.78 92.6406 152.188C92.8223 151.591 93.0771 151.078 93.4053 150.65C93.7393 150.223 94.1348 149.895 94.5918 149.666C95.0547 149.432 95.5703 149.314 96.1387 149.314C96.7363 149.314 97.2578 149.42 97.7031 149.631C98.1543 149.836 98.5352 150.138 98.8457 150.536C99.1621 150.929 99.4111 151.403 99.5928 151.96C99.7744 152.517 99.9004 153.146 99.9707 153.85V154.658C99.9062 155.355 99.7803 155.982 99.5928 156.539C99.4111 157.096 99.1621 157.57 98.8457 157.963C98.5352 158.355 98.1543 158.657 97.7031 158.868C97.252 159.073 96.7246 159.176 96.1211 159.176C95.5645 159.176 95.0547 159.056 94.5918 158.815C94.1348 158.575 93.7393 158.238 93.4053 157.805C93.0771 157.371 92.8223 156.861 92.6406 156.275C92.4648 155.684 92.377 155.042 92.377 154.351ZM94.0117 154.166V154.351C94.0117 154.825 94.0586 155.271 94.1523 155.687C94.252 156.103 94.4043 156.469 94.6094 156.785C94.8145 157.102 95.0752 157.351 95.3916 157.532C95.708 157.708 96.0859 157.796 96.5254 157.796C97.0645 157.796 97.5068 157.682 97.8525 157.453C98.2041 157.225 98.4854 156.923 98.6963 156.548C98.9072 156.173 99.0713 155.766 99.1885 155.326V153.208C99.1182 152.886 99.0156 152.575 98.8809 152.276C98.752 151.972 98.582 151.702 98.3711 151.468C98.166 151.228 97.9111 151.037 97.6064 150.896C97.3076 150.756 96.9531 150.686 96.543 150.686C96.0977 150.686 95.7139 150.779 95.3916 150.967C95.0752 151.148 94.8145 151.4 94.6094 151.723C94.4043 152.039 94.252 152.408 94.1523 152.83C94.0586 153.246 94.0117 153.691 94.0117 154.166ZM104.708 149.49V159H103.073V149.49H104.708ZM102.95 146.968C102.95 146.704 103.029 146.481 103.188 146.3C103.352 146.118 103.592 146.027 103.908 146.027C104.219 146.027 104.456 146.118 104.62 146.3C104.79 146.481 104.875 146.704 104.875 146.968C104.875 147.22 104.79 147.437 104.62 147.618C104.456 147.794 104.219 147.882 103.908 147.882C103.592 147.882 103.352 147.794 103.188 147.618C103.029 147.437 102.95 147.22 102.95 146.968ZM111.124 157.84C111.511 157.84 111.868 157.761 112.196 157.603C112.524 157.444 112.794 157.228 113.005 156.952C113.216 156.671 113.336 156.352 113.365 155.994H114.912C114.883 156.557 114.692 157.081 114.341 157.567C113.995 158.048 113.541 158.438 112.979 158.736C112.416 159.029 111.798 159.176 111.124 159.176C110.409 159.176 109.785 159.05 109.252 158.798C108.725 158.546 108.285 158.2 107.934 157.761C107.588 157.321 107.327 156.817 107.151 156.249C106.981 155.675 106.896 155.068 106.896 154.43V154.061C106.896 153.422 106.981 152.818 107.151 152.25C107.327 151.676 107.588 151.169 107.934 150.729C108.285 150.29 108.725 149.944 109.252 149.692C109.785 149.44 110.409 149.314 111.124 149.314C111.868 149.314 112.519 149.467 113.075 149.771C113.632 150.07 114.068 150.48 114.385 151.002C114.707 151.518 114.883 152.104 114.912 152.76H113.365C113.336 152.367 113.225 152.013 113.031 151.696C112.844 151.38 112.586 151.128 112.258 150.94C111.936 150.747 111.558 150.65 111.124 150.65C110.626 150.65 110.207 150.75 109.867 150.949C109.533 151.143 109.267 151.406 109.067 151.74C108.874 152.068 108.733 152.435 108.646 152.839C108.563 153.237 108.522 153.645 108.522 154.061V154.43C108.522 154.846 108.563 155.256 108.646 155.66C108.728 156.064 108.865 156.431 109.059 156.759C109.258 157.087 109.524 157.351 109.858 157.55C110.198 157.743 110.62 157.84 111.124 157.84ZM122.348 157.374V152.479C122.348 152.104 122.271 151.778 122.119 151.503C121.973 151.222 121.75 151.005 121.451 150.853C121.152 150.7 120.783 150.624 120.344 150.624C119.934 150.624 119.573 150.694 119.263 150.835C118.958 150.976 118.718 151.16 118.542 151.389C118.372 151.617 118.287 151.863 118.287 152.127H116.661C116.661 151.787 116.749 151.45 116.925 151.116C117.101 150.782 117.353 150.48 117.681 150.211C118.015 149.936 118.413 149.719 118.876 149.561C119.345 149.396 119.866 149.314 120.44 149.314C121.132 149.314 121.741 149.432 122.269 149.666C122.802 149.9 123.218 150.255 123.517 150.729C123.821 151.198 123.974 151.787 123.974 152.496V156.926C123.974 157.242 124 157.579 124.053 157.937C124.111 158.294 124.196 158.602 124.308 158.859V159H122.611C122.529 158.812 122.465 158.563 122.418 158.253C122.371 157.937 122.348 157.644 122.348 157.374ZM122.629 153.234L122.646 154.377H121.003C120.54 154.377 120.127 154.415 119.764 154.491C119.4 154.562 119.096 154.67 118.85 154.816C118.604 154.963 118.416 155.147 118.287 155.37C118.158 155.587 118.094 155.842 118.094 156.135C118.094 156.434 118.161 156.706 118.296 156.952C118.431 157.198 118.633 157.395 118.902 157.541C119.178 157.682 119.515 157.752 119.913 157.752C120.411 157.752 120.851 157.646 121.231 157.436C121.612 157.225 121.914 156.967 122.137 156.662C122.365 156.357 122.488 156.062 122.506 155.774L123.2 156.557C123.159 156.803 123.048 157.075 122.866 157.374C122.685 157.673 122.441 157.96 122.137 158.235C121.838 158.505 121.48 158.73 121.064 158.912C120.654 159.088 120.191 159.176 119.676 159.176C119.031 159.176 118.466 159.05 117.979 158.798C117.499 158.546 117.124 158.209 116.854 157.787C116.591 157.359 116.459 156.882 116.459 156.354C116.459 155.845 116.559 155.396 116.758 155.01C116.957 154.617 117.244 154.292 117.619 154.034C117.994 153.771 118.445 153.571 118.973 153.437C119.5 153.302 120.089 153.234 120.739 153.234H122.629ZM128.298 145.5V159H126.663V145.5H128.298ZM140.98 157.374V152.479C140.98 152.104 140.904 151.778 140.752 151.503C140.605 151.222 140.383 151.005 140.084 150.853C139.785 150.7 139.416 150.624 138.977 150.624C138.566 150.624 138.206 150.694 137.896 150.835C137.591 150.976 137.351 151.16 137.175 151.389C137.005 151.617 136.92 151.863 136.92 152.127H135.294C135.294 151.787 135.382 151.45 135.558 151.116C135.733 150.782 135.985 150.48 136.313 150.211C136.647 149.936 137.046 149.719 137.509 149.561C137.978 149.396 138.499 149.314 139.073 149.314C139.765 149.314 140.374 149.432 140.901 149.666C141.435 149.9 141.851 150.255 142.149 150.729C142.454 151.198 142.606 151.787 142.606 152.496V156.926C142.606 157.242 142.633 157.579 142.686 157.937C142.744 158.294 142.829 158.602 142.94 158.859V159H141.244C141.162 158.812 141.098 158.563 141.051 158.253C141.004 157.937 140.98 157.644 140.98 157.374ZM141.262 153.234L141.279 154.377H139.636C139.173 154.377 138.76 154.415 138.396 154.491C138.033 154.562 137.729 154.67 137.482 154.816C137.236 154.963 137.049 155.147 136.92 155.37C136.791 155.587 136.727 155.842 136.727 156.135C136.727 156.434 136.794 156.706 136.929 156.952C137.063 157.198 137.266 157.395 137.535 157.541C137.811 157.682 138.147 157.752 138.546 157.752C139.044 157.752 139.483 157.646 139.864 157.436C140.245 157.225 140.547 156.967 140.77 156.662C140.998 156.357 141.121 156.062 141.139 155.774L141.833 156.557C141.792 156.803 141.681 157.075 141.499 157.374C141.317 157.673 141.074 157.96 140.77 158.235C140.471 158.505 140.113 158.73 139.697 158.912C139.287 159.088 138.824 159.176 138.309 159.176C137.664 159.176 137.099 159.05 136.612 158.798C136.132 158.546 135.757 158.209 135.487 157.787C135.224 157.359 135.092 156.882 135.092 156.354C135.092 155.845 135.191 155.396 135.391 155.01C135.59 154.617 135.877 154.292 136.252 154.034C136.627 153.771 137.078 153.571 137.605 153.437C138.133 153.302 138.722 153.234 139.372 153.234H141.262ZM152.037 157.312L154.48 149.49H155.553L155.342 151.046L152.854 159H151.809L152.037 157.312ZM150.394 149.49L152.477 157.4L152.626 159H151.527L148.768 149.49H150.394ZM157.891 157.339L159.877 149.49H161.494L158.734 159H157.645L157.891 157.339ZM155.79 149.49L158.181 157.181L158.453 159H157.416L154.858 151.028L154.647 149.49H155.79ZM167.11 159.176C166.448 159.176 165.848 159.064 165.309 158.842C164.775 158.613 164.315 158.294 163.929 157.884C163.548 157.474 163.255 156.987 163.05 156.425C162.845 155.862 162.742 155.247 162.742 154.579V154.21C162.742 153.437 162.856 152.748 163.085 152.145C163.313 151.535 163.624 151.02 164.017 150.598C164.409 150.176 164.854 149.856 165.353 149.64C165.851 149.423 166.366 149.314 166.899 149.314C167.579 149.314 168.165 149.432 168.657 149.666C169.155 149.9 169.562 150.229 169.879 150.65C170.195 151.066 170.43 151.559 170.582 152.127C170.734 152.689 170.811 153.305 170.811 153.973V154.702H163.709V153.375H169.185V153.252C169.161 152.83 169.073 152.42 168.921 152.021C168.774 151.623 168.54 151.295 168.218 151.037C167.896 150.779 167.456 150.65 166.899 150.65C166.53 150.65 166.19 150.729 165.88 150.888C165.569 151.04 165.303 151.269 165.08 151.573C164.857 151.878 164.685 152.25 164.562 152.689C164.438 153.129 164.377 153.636 164.377 154.21V154.579C164.377 155.03 164.438 155.455 164.562 155.854C164.69 156.246 164.875 156.592 165.115 156.891C165.361 157.189 165.657 157.424 166.003 157.594C166.354 157.764 166.753 157.849 167.198 157.849C167.772 157.849 168.259 157.731 168.657 157.497C169.056 157.263 169.404 156.949 169.703 156.557L170.688 157.339C170.482 157.649 170.222 157.945 169.905 158.227C169.589 158.508 169.199 158.736 168.736 158.912C168.279 159.088 167.737 159.176 167.11 159.176ZM184.24 155.766C184.24 155.467 184.193 155.203 184.1 154.975C184.012 154.74 183.854 154.529 183.625 154.342C183.402 154.154 183.092 153.976 182.693 153.806C182.301 153.636 181.803 153.463 181.199 153.287C180.566 153.1 179.995 152.892 179.485 152.663C178.976 152.429 178.539 152.162 178.176 151.863C177.812 151.564 177.534 151.222 177.341 150.835C177.147 150.448 177.051 150.006 177.051 149.508C177.051 149.01 177.153 148.55 177.358 148.128C177.563 147.706 177.856 147.34 178.237 147.029C178.624 146.713 179.084 146.467 179.617 146.291C180.15 146.115 180.745 146.027 181.401 146.027C182.362 146.027 183.177 146.212 183.845 146.581C184.519 146.944 185.031 147.422 185.383 148.014C185.734 148.6 185.91 149.227 185.91 149.895H184.223C184.223 149.414 184.12 148.989 183.915 148.62C183.71 148.245 183.399 147.952 182.983 147.741C182.567 147.524 182.04 147.416 181.401 147.416C180.798 147.416 180.3 147.507 179.907 147.688C179.515 147.87 179.222 148.116 179.028 148.427C178.841 148.737 178.747 149.092 178.747 149.49C178.747 149.76 178.803 150.006 178.914 150.229C179.031 150.445 179.21 150.647 179.45 150.835C179.696 151.022 180.007 151.195 180.382 151.354C180.763 151.512 181.217 151.664 181.744 151.811C182.471 152.016 183.098 152.244 183.625 152.496C184.152 152.748 184.586 153.032 184.926 153.349C185.271 153.659 185.526 154.014 185.69 154.412C185.86 154.805 185.945 155.25 185.945 155.748C185.945 156.27 185.84 156.741 185.629 157.163C185.418 157.585 185.116 157.945 184.724 158.244C184.331 158.543 183.859 158.774 183.309 158.938C182.764 159.097 182.154 159.176 181.48 159.176C180.889 159.176 180.306 159.094 179.731 158.93C179.163 158.766 178.645 158.52 178.176 158.191C177.713 157.863 177.341 157.459 177.06 156.979C176.784 156.492 176.646 155.93 176.646 155.291H178.334C178.334 155.73 178.419 156.108 178.589 156.425C178.759 156.735 178.99 156.993 179.283 157.198C179.582 157.403 179.919 157.556 180.294 157.655C180.675 157.749 181.07 157.796 181.48 157.796C182.072 157.796 182.573 157.714 182.983 157.55C183.394 157.386 183.704 157.151 183.915 156.847C184.132 156.542 184.24 156.182 184.24 155.766ZM191.843 149.49V150.738H186.701V149.49H191.843ZM188.441 147.179H190.067V156.645C190.067 156.967 190.117 157.21 190.217 157.374C190.316 157.538 190.445 157.646 190.604 157.699C190.762 157.752 190.932 157.778 191.113 157.778C191.248 157.778 191.389 157.767 191.535 157.743C191.688 157.714 191.802 157.69 191.878 157.673L191.887 159C191.758 159.041 191.588 159.079 191.377 159.114C191.172 159.155 190.923 159.176 190.63 159.176C190.231 159.176 189.865 159.097 189.531 158.938C189.197 158.78 188.931 158.517 188.731 158.147C188.538 157.772 188.441 157.269 188.441 156.636V147.179ZM199.357 157.374V152.479C199.357 152.104 199.281 151.778 199.129 151.503C198.982 151.222 198.76 151.005 198.461 150.853C198.162 150.7 197.793 150.624 197.354 150.624C196.943 150.624 196.583 150.694 196.272 150.835C195.968 150.976 195.728 151.16 195.552 151.389C195.382 151.617 195.297 151.863 195.297 152.127H193.671C193.671 151.787 193.759 151.45 193.935 151.116C194.11 150.782 194.362 150.48 194.69 150.211C195.024 149.936 195.423 149.719 195.886 149.561C196.354 149.396 196.876 149.314 197.45 149.314C198.142 149.314 198.751 149.432 199.278 149.666C199.812 149.9 200.228 150.255 200.526 150.729C200.831 151.198 200.983 151.787 200.983 152.496V156.926C200.983 157.242 201.01 157.579 201.062 157.937C201.121 158.294 201.206 158.602 201.317 158.859V159H199.621C199.539 158.812 199.475 158.563 199.428 158.253C199.381 157.937 199.357 157.644 199.357 157.374ZM199.639 153.234L199.656 154.377H198.013C197.55 154.377 197.137 154.415 196.773 154.491C196.41 154.562 196.105 154.67 195.859 154.816C195.613 154.963 195.426 155.147 195.297 155.37C195.168 155.587 195.104 155.842 195.104 156.135C195.104 156.434 195.171 156.706 195.306 156.952C195.44 157.198 195.643 157.395 195.912 157.541C196.188 157.682 196.524 157.752 196.923 157.752C197.421 157.752 197.86 157.646 198.241 157.436C198.622 157.225 198.924 156.967 199.146 156.662C199.375 156.357 199.498 156.062 199.516 155.774L200.21 156.557C200.169 156.803 200.058 157.075 199.876 157.374C199.694 157.673 199.451 157.96 199.146 158.235C198.848 158.505 198.49 158.73 198.074 158.912C197.664 159.088 197.201 159.176 196.686 159.176C196.041 159.176 195.476 159.05 194.989 158.798C194.509 158.546 194.134 158.209 193.864 157.787C193.601 157.359 193.469 156.882 193.469 156.354C193.469 155.845 193.568 155.396 193.768 155.01C193.967 154.617 194.254 154.292 194.629 154.034C195.004 153.771 195.455 153.571 195.982 153.437C196.51 153.302 197.099 153.234 197.749 153.234H199.639ZM205.967 159H204.341V148.488C204.341 147.803 204.464 147.226 204.71 146.757C204.962 146.282 205.322 145.925 205.791 145.685C206.26 145.438 206.816 145.315 207.461 145.315C207.648 145.315 207.836 145.327 208.023 145.351C208.217 145.374 208.404 145.409 208.586 145.456L208.498 146.783C208.375 146.754 208.234 146.733 208.076 146.722C207.924 146.71 207.771 146.704 207.619 146.704C207.273 146.704 206.975 146.774 206.723 146.915C206.477 147.05 206.289 147.249 206.16 147.513C206.031 147.776 205.967 148.102 205.967 148.488V159ZM207.988 149.49V150.738H202.838V149.49H207.988ZM212.225 159H210.599V148.488C210.599 147.803 210.722 147.226 210.968 146.757C211.22 146.282 211.58 145.925 212.049 145.685C212.518 145.438 213.074 145.315 213.719 145.315C213.906 145.315 214.094 145.327 214.281 145.351C214.475 145.374 214.662 145.409 214.844 145.456L214.756 146.783C214.633 146.754 214.492 146.733 214.334 146.722C214.182 146.71 214.029 146.704 213.877 146.704C213.531 146.704 213.232 146.774 212.98 146.915C212.734 147.05 212.547 147.249 212.418 147.513C212.289 147.776 212.225 148.102 212.225 148.488V159ZM214.246 149.49V150.738H209.096V149.49H214.246Z" fill="#0F0F0F"/>
<rect x="73" y="15" width="84" height="77" rx="5" fill="#EDF5FC"/>
<g clip-path="url(#clip0_27_207)">
<path fill-rule="evenodd" clip-rule="evenodd" d="M120.37 32.9612L115 30L109.631 32.9612L103.5 33.082L100.33 38.3298L95.082 41.5L94.9612 47.6314L92 53L94.9612 58.3705L95.082 64.5L100.33 67.6702L103.5 72.918L109.631 73.0387L115 76L120.37 73.0387L126.5 72.918L129.67 67.6702L134.918 64.5L135.039 58.3705L138 53L135.039 47.6314L134.918 41.5L129.67 38.3298L126.5 33.082L120.37 32.9612ZM110.76 61.3605L126.803 46.7498L124.221 43.9169L110.801 56.1395L105.741 51.39L103.117 54.1845L110.76 61.3605Z" fill="url(#paint0_linear_27_207)"/>
</g>
<rect x="0.5" y="0.5" width="229" height="189" rx="9.5" stroke="url(#paint1_linear_27_207)"/>
<defs>
<linearGradient id="paint0_linear_27_207" x1="106.298" y1="69.874" x2="133.485" y2="32.7873" gradientUnits="userSpaceOnUse">
<stop offset="0.33" stop-color="#52C5DC"/>
<stop offset="0.63" stop-color="#3C99D4"/>
<stop offset="0.895" stop-color="#3E7ABC"/>
</linearGradient>
<linearGradient id="paint1_linear_27_207" x1="115" y1="0" x2="115" y2="190" gradientUnits="userSpaceOnUse">
<stop offset="0.151042" stop-color="#FAFAFA"/>
<stop offset="0.864583" stop-color="#0457A7"/>
</linearGradient>
<clipPath id="clip0_27_207">
<rect width="46" height="46" fill="white" transform="translate(92 30)"/>
</clipPath>
</defs>
</svg>
