<svg width="230" height="190" viewBox="0 0 230 190" fill="none" xmlns="http://www.w3.org/2000/svg">
<path d="M27.4346 113.203H29.0781L33.2705 123.636L37.4541 113.203H39.1064L33.9033 126H32.6201L27.4346 113.203ZM26.8984 113.203H28.3486L28.5859 121.008V126H26.8984V113.203ZM38.1836 113.203H39.6338V126H37.9463V121.008L38.1836 113.203ZM41.9365 121.351V121.148C41.9365 120.463 42.0361 119.827 42.2354 119.241C42.4346 118.649 42.7217 118.137 43.0967 117.703C43.4717 117.264 43.9258 116.924 44.459 116.684C44.9922 116.438 45.5898 116.314 46.252 116.314C46.9199 116.314 47.5205 116.438 48.0537 116.684C48.5928 116.924 49.0498 117.264 49.4248 117.703C49.8057 118.137 50.0957 118.649 50.2949 119.241C50.4941 119.827 50.5938 120.463 50.5938 121.148V121.351C50.5938 122.036 50.4941 122.672 50.2949 123.258C50.0957 123.844 49.8057 124.356 49.4248 124.796C49.0498 125.229 48.5957 125.569 48.0625 125.815C47.5352 126.056 46.9375 126.176 46.2695 126.176C45.6016 126.176 45.001 126.056 44.4678 125.815C43.9346 125.569 43.4775 125.229 43.0967 124.796C42.7217 124.356 42.4346 123.844 42.2354 123.258C42.0361 122.672 41.9365 122.036 41.9365 121.351ZM43.5625 121.148V121.351C43.5625 121.825 43.6182 122.273 43.7295 122.695C43.8408 123.111 44.0078 123.48 44.2305 123.803C44.459 124.125 44.7432 124.38 45.083 124.567C45.4229 124.749 45.8184 124.84 46.2695 124.84C46.7148 124.84 47.1045 124.749 47.4385 124.567C47.7783 124.38 48.0596 124.125 48.2822 123.803C48.5049 123.48 48.6719 123.111 48.7832 122.695C48.9004 122.273 48.959 121.825 48.959 121.351V121.148C48.959 120.68 48.9004 120.237 48.7832 119.821C48.6719 119.399 48.502 119.027 48.2734 118.705C48.0508 118.377 47.7695 118.119 47.4297 117.932C47.0957 117.744 46.7031 117.65 46.252 117.65C45.8066 117.65 45.4141 117.744 45.0742 117.932C44.7402 118.119 44.459 118.377 44.2305 118.705C44.0078 119.027 43.8408 119.399 43.7295 119.821C43.6182 120.237 43.5625 120.68 43.5625 121.148ZM58.627 124.154V112.5H60.2617V126H58.7676L58.627 124.154ZM52.2285 121.351V121.166C52.2285 120.439 52.3164 119.78 52.4922 119.188C52.6738 118.591 52.9287 118.078 53.2568 117.65C53.5908 117.223 53.9863 116.895 54.4434 116.666C54.9062 116.432 55.4219 116.314 55.9902 116.314C56.5879 116.314 57.1094 116.42 57.5547 116.631C58.0059 116.836 58.3867 117.138 58.6973 117.536C59.0137 117.929 59.2627 118.403 59.4443 118.96C59.626 119.517 59.752 120.146 59.8223 120.85V121.658C59.7578 122.355 59.6318 122.982 59.4443 123.539C59.2627 124.096 59.0137 124.57 58.6973 124.963C58.3867 125.355 58.0059 125.657 57.5547 125.868C57.1035 126.073 56.5762 126.176 55.9727 126.176C55.416 126.176 54.9062 126.056 54.4434 125.815C53.9863 125.575 53.5908 125.238 53.2568 124.805C52.9287 124.371 52.6738 123.861 52.4922 123.275C52.3164 122.684 52.2285 122.042 52.2285 121.351ZM53.8633 121.166V121.351C53.8633 121.825 53.9102 122.271 54.0039 122.687C54.1035 123.103 54.2559 123.469 54.4609 123.785C54.666 124.102 54.9268 124.351 55.2432 124.532C55.5596 124.708 55.9375 124.796 56.377 124.796C56.916 124.796 57.3584 124.682 57.7041 124.453C58.0557 124.225 58.3369 123.923 58.5479 123.548C58.7588 123.173 58.9229 122.766 59.04 122.326V120.208C58.9697 119.886 58.8672 119.575 58.7324 119.276C58.6035 118.972 58.4336 118.702 58.2227 118.468C58.0176 118.228 57.7627 118.037 57.458 117.896C57.1592 117.756 56.8047 117.686 56.3945 117.686C55.9492 117.686 55.5654 117.779 55.2432 117.967C54.9268 118.148 54.666 118.4 54.4609 118.723C54.2559 119.039 54.1035 119.408 54.0039 119.83C53.9102 120.246 53.8633 120.691 53.8633 121.166ZM66.7393 126.176C66.0771 126.176 65.4766 126.064 64.9375 125.842C64.4043 125.613 63.9443 125.294 63.5576 124.884C63.1768 124.474 62.8838 123.987 62.6787 123.425C62.4736 122.862 62.3711 122.247 62.3711 121.579V121.21C62.3711 120.437 62.4854 119.748 62.7139 119.145C62.9424 118.535 63.2529 118.02 63.6455 117.598C64.0381 117.176 64.4834 116.856 64.9814 116.64C65.4795 116.423 65.9951 116.314 66.5283 116.314C67.208 116.314 67.7939 116.432 68.2861 116.666C68.7842 116.9 69.1914 117.229 69.5078 117.65C69.8242 118.066 70.0586 118.559 70.2109 119.127C70.3633 119.689 70.4395 120.305 70.4395 120.973V121.702H63.3379V120.375H68.8135V120.252C68.79 119.83 68.7021 119.42 68.5498 119.021C68.4033 118.623 68.1689 118.295 67.8467 118.037C67.5244 117.779 67.085 117.65 66.5283 117.65C66.1592 117.65 65.8193 117.729 65.5088 117.888C65.1982 118.04 64.9316 118.269 64.709 118.573C64.4863 118.878 64.3135 119.25 64.1904 119.689C64.0674 120.129 64.0059 120.636 64.0059 121.21V121.579C64.0059 122.03 64.0674 122.455 64.1904 122.854C64.3193 123.246 64.5039 123.592 64.7441 123.891C64.9902 124.189 65.2861 124.424 65.6318 124.594C65.9834 124.764 66.3818 124.849 66.8271 124.849C67.4014 124.849 67.8877 124.731 68.2861 124.497C68.6846 124.263 69.0332 123.949 69.332 123.557L70.3164 124.339C70.1113 124.649 69.8506 124.945 69.5342 125.227C69.2178 125.508 68.8281 125.736 68.3652 125.912C67.9082 126.088 67.3662 126.176 66.7393 126.176ZM73.9639 117.984V126H72.3379V116.49H73.9199L73.9639 117.984ZM76.9346 116.438L76.9258 117.949C76.791 117.92 76.6621 117.902 76.5391 117.896C76.4219 117.885 76.2871 117.879 76.1348 117.879C75.7598 117.879 75.4287 117.938 75.1416 118.055C74.8545 118.172 74.6113 118.336 74.4121 118.547C74.2129 118.758 74.0547 119.01 73.9375 119.303C73.8262 119.59 73.7529 119.906 73.7178 120.252L73.2607 120.516C73.2607 119.941 73.3164 119.402 73.4277 118.898C73.5449 118.395 73.7236 117.949 73.9639 117.562C74.2041 117.17 74.5088 116.865 74.8779 116.648C75.2529 116.426 75.6982 116.314 76.2139 116.314C76.3311 116.314 76.4658 116.329 76.6182 116.358C76.7705 116.382 76.876 116.408 76.9346 116.438ZM80.0635 118.521V126H78.4375V116.49H79.9756L80.0635 118.521ZM79.6768 120.885L79 120.858C79.0059 120.208 79.1025 119.607 79.29 119.057C79.4775 118.5 79.7412 118.017 80.0811 117.606C80.4209 117.196 80.8252 116.88 81.2939 116.657C81.7686 116.429 82.293 116.314 82.8672 116.314C83.3359 116.314 83.7578 116.379 84.1328 116.508C84.5078 116.631 84.8271 116.83 85.0908 117.105C85.3604 117.381 85.5654 117.738 85.7061 118.178C85.8467 118.611 85.917 119.142 85.917 119.769V126H84.2822V119.751C84.2822 119.253 84.209 118.854 84.0625 118.556C83.916 118.251 83.7021 118.031 83.4209 117.896C83.1396 117.756 82.7939 117.686 82.3838 117.686C81.9795 117.686 81.6104 117.771 81.2764 117.94C80.9482 118.11 80.6641 118.345 80.4238 118.644C80.1895 118.942 80.0049 119.285 79.8701 119.672C79.7412 120.053 79.6768 120.457 79.6768 120.885ZM96.4639 122.133L99.0039 113.203H100.234L99.5225 116.675L96.7891 126H95.5674L96.4639 122.133ZM93.8359 113.203L95.8574 121.957L96.4639 126H95.251L92.1484 113.203H93.8359ZM103.521 121.948L105.499 113.203H107.195L104.102 126H102.889L103.521 121.948ZM100.419 113.203L102.889 122.133L103.785 126H102.563L99.9268 116.675L99.2061 113.203H100.419ZM112.495 126.176C111.833 126.176 111.232 126.064 110.693 125.842C110.16 125.613 109.7 125.294 109.313 124.884C108.933 124.474 108.64 123.987 108.435 123.425C108.229 122.862 108.127 122.247 108.127 121.579V121.21C108.127 120.437 108.241 119.748 108.47 119.145C108.698 118.535 109.009 118.02 109.401 117.598C109.794 117.176 110.239 116.856 110.737 116.64C111.235 116.423 111.751 116.314 112.284 116.314C112.964 116.314 113.55 116.432 114.042 116.666C114.54 116.9 114.947 117.229 115.264 117.65C115.58 118.066 115.814 118.559 115.967 119.127C116.119 119.689 116.195 120.305 116.195 120.973V121.702H109.094V120.375H114.569V120.252C114.546 119.83 114.458 119.42 114.306 119.021C114.159 118.623 113.925 118.295 113.603 118.037C113.28 117.779 112.841 117.65 112.284 117.65C111.915 117.65 111.575 117.729 111.265 117.888C110.954 118.04 110.688 118.269 110.465 118.573C110.242 118.878 110.069 119.25 109.946 119.689C109.823 120.129 109.762 120.636 109.762 121.21V121.579C109.762 122.03 109.823 122.455 109.946 122.854C110.075 123.246 110.26 123.592 110.5 123.891C110.746 124.189 111.042 124.424 111.388 124.594C111.739 124.764 112.138 124.849 112.583 124.849C113.157 124.849 113.644 124.731 114.042 124.497C114.44 124.263 114.789 123.949 115.088 123.557L116.072 124.339C115.867 124.649 115.606 124.945 115.29 125.227C114.974 125.508 114.584 125.736 114.121 125.912C113.664 126.088 113.122 126.176 112.495 126.176ZM119.86 112.5V126H118.226V112.5H119.86ZM124.237 112.5V126H122.603V112.5H124.237ZM139.688 124.62V126H132.912V124.62H139.688ZM133.255 113.203V126H131.559V113.203H133.255ZM138.792 118.705V120.085H132.912V118.705H138.792ZM139.601 113.203V114.592H132.912V113.203H139.601ZM147.353 129.656V118.318L147.493 116.49H148.987V129.656H147.353ZM140.963 121.351V121.166C140.963 120.439 141.048 119.78 141.218 119.188C141.388 118.591 141.637 118.078 141.965 117.65C142.293 117.223 142.688 116.895 143.151 116.666C143.62 116.432 144.153 116.314 144.751 116.314C145.349 116.314 145.873 116.42 146.324 116.631C146.781 116.836 147.168 117.138 147.484 117.536C147.807 117.929 148.062 118.403 148.249 118.96C148.437 119.517 148.565 120.146 148.636 120.85V121.658C148.571 122.355 148.445 122.982 148.258 123.539C148.07 124.096 147.815 124.57 147.493 124.963C147.177 125.355 146.787 125.657 146.324 125.868C145.867 126.073 145.337 126.176 144.733 126.176C144.147 126.176 143.62 126.056 143.151 125.815C142.688 125.575 142.293 125.238 141.965 124.805C141.643 124.371 141.394 123.861 141.218 123.275C141.048 122.684 140.963 122.042 140.963 121.351ZM142.598 121.166V121.351C142.598 121.825 142.647 122.273 142.747 122.695C142.847 123.111 142.999 123.48 143.204 123.803C143.415 124.125 143.679 124.38 143.995 124.567C144.317 124.749 144.698 124.84 145.138 124.84C145.677 124.84 146.125 124.723 146.482 124.488C146.846 124.254 147.136 123.946 147.353 123.565C147.569 123.179 147.736 122.766 147.854 122.326V120.208C147.789 119.886 147.687 119.572 147.546 119.268C147.411 118.963 147.235 118.69 147.019 118.45C146.802 118.204 146.538 118.011 146.228 117.87C145.923 117.724 145.565 117.65 145.155 117.65C144.71 117.65 144.326 117.744 144.004 117.932C143.682 118.119 143.415 118.377 143.204 118.705C142.999 119.027 142.847 119.399 142.747 119.821C142.647 120.243 142.598 120.691 142.598 121.166ZM157.416 123.803V116.49H159.051V126H157.495L157.416 123.803ZM157.724 121.799L158.4 121.781C158.4 122.414 158.333 123 158.198 123.539C158.069 124.072 157.858 124.535 157.565 124.928C157.272 125.32 156.889 125.628 156.414 125.851C155.939 126.067 155.362 126.176 154.683 126.176C154.22 126.176 153.795 126.108 153.408 125.974C153.027 125.839 152.699 125.631 152.424 125.35C152.148 125.068 151.935 124.702 151.782 124.251C151.636 123.8 151.562 123.258 151.562 122.625V116.49H153.188V122.643C153.188 123.07 153.235 123.425 153.329 123.706C153.429 123.981 153.561 124.201 153.725 124.365C153.895 124.523 154.082 124.635 154.287 124.699C154.498 124.764 154.715 124.796 154.938 124.796C155.629 124.796 156.177 124.664 156.581 124.4C156.985 124.131 157.275 123.771 157.451 123.319C157.633 122.862 157.724 122.355 157.724 121.799ZM163.296 116.49V126H161.661V116.49H163.296ZM161.538 113.968C161.538 113.704 161.617 113.481 161.775 113.3C161.939 113.118 162.18 113.027 162.496 113.027C162.807 113.027 163.044 113.118 163.208 113.3C163.378 113.481 163.463 113.704 163.463 113.968C163.463 114.22 163.378 114.437 163.208 114.618C163.044 114.794 162.807 114.882 162.496 114.882C162.18 114.882 161.939 114.794 161.775 114.618C161.617 114.437 161.538 114.22 161.538 113.968ZM167.532 118.318V129.656H165.897V116.49H167.392L167.532 118.318ZM173.939 121.166V121.351C173.939 122.042 173.857 122.684 173.693 123.275C173.529 123.861 173.289 124.371 172.973 124.805C172.662 125.238 172.278 125.575 171.821 125.815C171.364 126.056 170.84 126.176 170.248 126.176C169.645 126.176 169.111 126.076 168.648 125.877C168.186 125.678 167.793 125.388 167.471 125.007C167.148 124.626 166.891 124.169 166.697 123.636C166.51 123.103 166.381 122.502 166.311 121.834V120.85C166.381 120.146 166.513 119.517 166.706 118.96C166.899 118.403 167.154 117.929 167.471 117.536C167.793 117.138 168.183 116.836 168.64 116.631C169.097 116.42 169.624 116.314 170.222 116.314C170.819 116.314 171.35 116.432 171.812 116.666C172.275 116.895 172.665 117.223 172.981 117.65C173.298 118.078 173.535 118.591 173.693 119.188C173.857 119.78 173.939 120.439 173.939 121.166ZM172.305 121.351V121.166C172.305 120.691 172.255 120.246 172.155 119.83C172.056 119.408 171.9 119.039 171.689 118.723C171.484 118.4 171.221 118.148 170.898 117.967C170.576 117.779 170.192 117.686 169.747 117.686C169.337 117.686 168.979 117.756 168.675 117.896C168.376 118.037 168.121 118.228 167.91 118.468C167.699 118.702 167.526 118.972 167.392 119.276C167.263 119.575 167.166 119.886 167.102 120.208V122.484C167.219 122.895 167.383 123.281 167.594 123.645C167.805 124.002 168.086 124.292 168.438 124.515C168.789 124.731 169.231 124.84 169.765 124.84C170.204 124.84 170.582 124.749 170.898 124.567C171.221 124.38 171.484 124.125 171.689 123.803C171.9 123.48 172.056 123.111 172.155 122.695C172.255 122.273 172.305 121.825 172.305 121.351ZM177.64 118.318V129.656H176.005V116.49H177.499L177.64 118.318ZM184.047 121.166V121.351C184.047 122.042 183.965 122.684 183.801 123.275C183.637 123.861 183.396 124.371 183.08 124.805C182.77 125.238 182.386 125.575 181.929 125.815C181.472 126.056 180.947 126.176 180.355 126.176C179.752 126.176 179.219 126.076 178.756 125.877C178.293 125.678 177.9 125.388 177.578 125.007C177.256 124.626 176.998 124.169 176.805 123.636C176.617 123.103 176.488 122.502 176.418 121.834V120.85C176.488 120.146 176.62 119.517 176.813 118.96C177.007 118.403 177.262 117.929 177.578 117.536C177.9 117.138 178.29 116.836 178.747 116.631C179.204 116.42 179.731 116.314 180.329 116.314C180.927 116.314 181.457 116.432 181.92 116.666C182.383 116.895 182.772 117.223 183.089 117.65C183.405 118.078 183.643 118.591 183.801 119.188C183.965 119.78 184.047 120.439 184.047 121.166ZM182.412 121.351V121.166C182.412 120.691 182.362 120.246 182.263 119.83C182.163 119.408 182.008 119.039 181.797 118.723C181.592 118.4 181.328 118.148 181.006 117.967C180.684 117.779 180.3 117.686 179.854 117.686C179.444 117.686 179.087 117.756 178.782 117.896C178.483 118.037 178.229 118.228 178.018 118.468C177.807 118.702 177.634 118.972 177.499 119.276C177.37 119.575 177.273 119.886 177.209 120.208V122.484C177.326 122.895 177.49 123.281 177.701 123.645C177.912 124.002 178.193 124.292 178.545 124.515C178.896 124.731 179.339 124.84 179.872 124.84C180.312 124.84 180.689 124.749 181.006 124.567C181.328 124.38 181.592 124.125 181.797 123.803C182.008 123.48 182.163 123.111 182.263 122.695C182.362 122.273 182.412 121.825 182.412 121.351ZM190.067 126.176C189.405 126.176 188.805 126.064 188.266 125.842C187.732 125.613 187.272 125.294 186.886 124.884C186.505 124.474 186.212 123.987 186.007 123.425C185.802 122.862 185.699 122.247 185.699 121.579V121.21C185.699 120.437 185.813 119.748 186.042 119.145C186.271 118.535 186.581 118.02 186.974 117.598C187.366 117.176 187.812 116.856 188.31 116.64C188.808 116.423 189.323 116.314 189.856 116.314C190.536 116.314 191.122 116.432 191.614 116.666C192.112 116.9 192.52 117.229 192.836 117.65C193.152 118.066 193.387 118.559 193.539 119.127C193.691 119.689 193.768 120.305 193.768 120.973V121.702H186.666V120.375H192.142V120.252C192.118 119.83 192.03 119.42 191.878 119.021C191.731 118.623 191.497 118.295 191.175 118.037C190.853 117.779 190.413 117.65 189.856 117.65C189.487 117.65 189.147 117.729 188.837 117.888C188.526 118.04 188.26 118.269 188.037 118.573C187.814 118.878 187.642 119.25 187.519 119.689C187.396 120.129 187.334 120.636 187.334 121.21V121.579C187.334 122.03 187.396 122.455 187.519 122.854C187.647 123.246 187.832 123.592 188.072 123.891C188.318 124.189 188.614 124.424 188.96 124.594C189.312 124.764 189.71 124.849 190.155 124.849C190.729 124.849 191.216 124.731 191.614 124.497C192.013 124.263 192.361 123.949 192.66 123.557L193.645 124.339C193.439 124.649 193.179 124.945 192.862 125.227C192.546 125.508 192.156 125.736 191.693 125.912C191.236 126.088 190.694 126.176 190.067 126.176ZM201.66 124.154V112.5H203.295V126H201.801L201.66 124.154ZM195.262 121.351V121.166C195.262 120.439 195.35 119.78 195.525 119.188C195.707 118.591 195.962 118.078 196.29 117.65C196.624 117.223 197.02 116.895 197.477 116.666C197.939 116.432 198.455 116.314 199.023 116.314C199.621 116.314 200.143 116.42 200.588 116.631C201.039 116.836 201.42 117.138 201.73 117.536C202.047 117.929 202.296 118.403 202.478 118.96C202.659 119.517 202.785 120.146 202.855 120.85V121.658C202.791 122.355 202.665 122.982 202.478 123.539C202.296 124.096 202.047 124.57 201.73 124.963C201.42 125.355 201.039 125.657 200.588 125.868C200.137 126.073 199.609 126.176 199.006 126.176C198.449 126.176 197.939 126.056 197.477 125.815C197.02 125.575 196.624 125.238 196.29 124.805C195.962 124.371 195.707 123.861 195.525 123.275C195.35 122.684 195.262 122.042 195.262 121.351ZM196.896 121.166V121.351C196.896 121.825 196.943 122.271 197.037 122.687C197.137 123.103 197.289 123.469 197.494 123.785C197.699 124.102 197.96 124.351 198.276 124.532C198.593 124.708 198.971 124.796 199.41 124.796C199.949 124.796 200.392 124.682 200.737 124.453C201.089 124.225 201.37 123.923 201.581 123.548C201.792 123.173 201.956 122.766 202.073 122.326V120.208C202.003 119.886 201.9 119.575 201.766 119.276C201.637 118.972 201.467 118.702 201.256 118.468C201.051 118.228 200.796 118.037 200.491 117.896C200.192 117.756 199.838 117.686 199.428 117.686C198.982 117.686 198.599 117.779 198.276 117.967C197.96 118.148 197.699 118.4 197.494 118.723C197.289 119.039 197.137 119.408 197.037 119.83C196.943 120.246 196.896 120.691 196.896 121.166ZM51.6572 141.197V142.006C51.6572 142.967 51.5371 143.828 51.2969 144.59C51.0566 145.352 50.7109 145.999 50.2598 146.532C49.8086 147.065 49.2666 147.473 48.6338 147.754C48.0068 148.035 47.3037 148.176 46.5244 148.176C45.7686 148.176 45.0742 148.035 44.4414 147.754C43.8145 147.473 43.2695 147.065 42.8066 146.532C42.3496 145.999 41.9951 145.352 41.7432 144.59C41.4912 143.828 41.3652 142.967 41.3652 142.006V141.197C41.3652 140.236 41.4883 139.378 41.7344 138.622C41.9863 137.86 42.3408 137.213 42.7979 136.68C43.2549 136.141 43.7969 135.73 44.4238 135.449C45.0566 135.168 45.751 135.027 46.5068 135.027C47.2861 135.027 47.9893 135.168 48.6162 135.449C49.249 135.73 49.791 136.141 50.2422 136.68C50.6992 137.213 51.0479 137.86 51.2881 138.622C51.5342 139.378 51.6572 140.236 51.6572 141.197ZM49.9785 142.006V141.18C49.9785 140.418 49.8994 139.744 49.7412 139.158C49.5889 138.572 49.3633 138.08 49.0645 137.682C48.7656 137.283 48.3994 136.981 47.9658 136.776C47.5381 136.571 47.0518 136.469 46.5068 136.469C45.9795 136.469 45.502 136.571 45.0742 136.776C44.6523 136.981 44.2891 137.283 43.9844 137.682C43.6855 138.08 43.4541 138.572 43.29 139.158C43.126 139.744 43.0439 140.418 43.0439 141.18V142.006C43.0439 142.773 43.126 143.453 43.29 144.045C43.4541 144.631 43.6885 145.126 43.9932 145.53C44.3037 145.929 44.6699 146.23 45.0918 146.436C45.5195 146.641 45.9971 146.743 46.5244 146.743C47.0752 146.743 47.5645 146.641 47.9922 146.436C48.4199 146.23 48.7803 145.929 49.0732 145.53C49.3721 145.126 49.5977 144.631 49.75 144.045C49.9023 143.453 49.9785 142.773 49.9785 142.006ZM58.6797 135.203V148H57.0098V135.203H58.6797ZM62.793 135.203V136.592H52.9053V135.203H62.793ZM66.8096 140.898L68.7256 139.536C69.0947 139.284 69.3789 139.032 69.5781 138.78C69.7832 138.522 69.8857 138.171 69.8857 137.726C69.8857 137.38 69.751 137.066 69.4814 136.785C69.2119 136.498 68.8311 136.354 68.3389 136.354C67.999 136.354 67.7119 136.434 67.4775 136.592C67.2432 136.75 67.0674 136.961 66.9502 137.225C66.833 137.482 66.7744 137.767 66.7744 138.077C66.7744 138.341 66.8389 138.613 66.9678 138.895C67.0967 139.176 67.2754 139.469 67.5039 139.773C67.7324 140.078 67.9932 140.4 68.2861 140.74L74.3418 148H72.3906L67.4248 142.059C66.9854 141.543 66.5928 141.071 66.2471 140.644C65.9014 140.21 65.6289 139.791 65.4297 139.387C65.2363 138.982 65.1396 138.563 65.1396 138.13C65.1396 137.462 65.2715 136.899 65.5352 136.442C65.8047 135.979 66.1797 135.628 66.6602 135.388C67.1406 135.147 67.7031 135.027 68.3477 135.027C68.9746 135.027 69.5137 135.153 69.9648 135.405C70.4219 135.651 70.7734 135.979 71.0195 136.39C71.2656 136.794 71.3887 137.239 71.3887 137.726C71.3887 138.136 71.3154 138.505 71.1689 138.833C71.0225 139.155 70.8174 139.451 70.5537 139.721C70.2959 139.99 69.9941 140.254 69.6484 140.512L67.1084 142.401C66.6865 142.712 66.3789 143.008 66.1855 143.289C65.9922 143.57 65.8662 143.819 65.8076 144.036C65.7549 144.253 65.7285 144.426 65.7285 144.555C65.7285 144.971 65.8193 145.352 66.001 145.697C66.1826 146.043 66.458 146.321 66.8271 146.532C67.2021 146.737 67.6709 146.84 68.2334 146.84C68.7256 146.84 69.2031 146.729 69.666 146.506C70.1348 146.277 70.5537 145.955 70.9229 145.539C71.292 145.117 71.585 144.616 71.8018 144.036C72.0244 143.45 72.1357 142.803 72.1357 142.094H73.5947C73.5947 142.674 73.5391 143.222 73.4277 143.737C73.3164 144.253 73.1436 144.733 72.9092 145.179C72.6807 145.618 72.3877 146.02 72.0303 146.383C71.9775 146.436 71.9365 146.497 71.9072 146.567C71.8779 146.638 71.8369 146.699 71.7842 146.752C71.3447 147.227 70.8027 147.584 70.1582 147.824C69.5195 148.059 68.8779 148.176 68.2334 148.176C67.3838 148.176 66.6484 148.021 66.0273 147.71C65.4121 147.399 64.9375 146.972 64.6035 146.427C64.2695 145.882 64.1025 145.258 64.1025 144.555C64.1025 144.016 64.2168 143.541 64.4453 143.131C64.6797 142.721 64.999 142.337 65.4033 141.979C65.8135 141.622 66.2822 141.262 66.8096 140.898ZM85.0908 136.337L80.8545 148H79.123L84.001 135.203H85.1172L85.0908 136.337ZM88.6416 148L84.3965 136.337L84.3701 135.203H85.4863L90.3818 148H88.6416ZM88.4219 143.263V144.651H81.2324V143.263H88.4219ZM97.3867 145.478C97.3867 145.243 97.334 145.026 97.2285 144.827C97.1289 144.622 96.9209 144.438 96.6045 144.273C96.2939 144.104 95.8252 143.957 95.1982 143.834C94.6709 143.723 94.1934 143.591 93.7656 143.438C93.3438 143.286 92.9834 143.102 92.6846 142.885C92.3916 142.668 92.166 142.413 92.0078 142.12C91.8496 141.827 91.7705 141.484 91.7705 141.092C91.7705 140.717 91.8525 140.362 92.0166 140.028C92.1865 139.694 92.4238 139.398 92.7285 139.141C93.0391 138.883 93.4111 138.681 93.8447 138.534C94.2783 138.388 94.7617 138.314 95.2949 138.314C96.0566 138.314 96.707 138.449 97.2461 138.719C97.7852 138.988 98.1982 139.349 98.4854 139.8C98.7725 140.245 98.916 140.74 98.916 141.285H97.29C97.29 141.021 97.2109 140.767 97.0527 140.521C96.9004 140.269 96.6748 140.061 96.376 139.896C96.083 139.732 95.7227 139.65 95.2949 139.65C94.8438 139.65 94.4775 139.721 94.1963 139.861C93.9209 139.996 93.7188 140.169 93.5898 140.38C93.4668 140.591 93.4053 140.813 93.4053 141.048C93.4053 141.224 93.4346 141.382 93.4932 141.522C93.5576 141.657 93.6689 141.783 93.8271 141.9C93.9854 142.012 94.208 142.117 94.4951 142.217C94.7822 142.316 95.1484 142.416 95.5938 142.516C96.373 142.691 97.0146 142.902 97.5186 143.148C98.0225 143.395 98.3975 143.696 98.6436 144.054C98.8896 144.411 99.0127 144.845 99.0127 145.354C99.0127 145.771 98.9248 146.151 98.749 146.497C98.5791 146.843 98.3301 147.142 98.002 147.394C97.6797 147.64 97.293 147.833 96.8418 147.974C96.3965 148.108 95.8955 148.176 95.3389 148.176C94.501 148.176 93.792 148.026 93.2119 147.728C92.6318 147.429 92.1924 147.042 91.8936 146.567C91.5947 146.093 91.4453 145.592 91.4453 145.064H93.0801C93.1035 145.51 93.2324 145.864 93.4668 146.128C93.7012 146.386 93.9883 146.57 94.3281 146.682C94.668 146.787 95.0049 146.84 95.3389 146.84C95.7842 146.84 96.1562 146.781 96.4551 146.664C96.7598 146.547 96.9912 146.386 97.1494 146.181C97.3076 145.976 97.3867 145.741 97.3867 145.478ZM105.095 148.176C104.433 148.176 103.832 148.064 103.293 147.842C102.76 147.613 102.3 147.294 101.913 146.884C101.532 146.474 101.239 145.987 101.034 145.425C100.829 144.862 100.727 144.247 100.727 143.579V143.21C100.727 142.437 100.841 141.748 101.069 141.145C101.298 140.535 101.608 140.02 102.001 139.598C102.394 139.176 102.839 138.856 103.337 138.64C103.835 138.423 104.351 138.314 104.884 138.314C105.563 138.314 106.149 138.432 106.642 138.666C107.14 138.9 107.547 139.229 107.863 139.65C108.18 140.066 108.414 140.559 108.566 141.127C108.719 141.689 108.795 142.305 108.795 142.973V143.702H101.693V142.375H107.169V142.252C107.146 141.83 107.058 141.42 106.905 141.021C106.759 140.623 106.524 140.295 106.202 140.037C105.88 139.779 105.44 139.65 104.884 139.65C104.515 139.65 104.175 139.729 103.864 139.888C103.554 140.04 103.287 140.269 103.064 140.573C102.842 140.878 102.669 141.25 102.546 141.689C102.423 142.129 102.361 142.636 102.361 143.21V143.579C102.361 144.03 102.423 144.455 102.546 144.854C102.675 145.246 102.859 145.592 103.1 145.891C103.346 146.189 103.642 146.424 103.987 146.594C104.339 146.764 104.737 146.849 105.183 146.849C105.757 146.849 106.243 146.731 106.642 146.497C107.04 146.263 107.389 145.949 107.688 145.557L108.672 146.339C108.467 146.649 108.206 146.945 107.89 147.227C107.573 147.508 107.184 147.736 106.721 147.912C106.264 148.088 105.722 148.176 105.095 148.176ZM112.319 140.318V151.656H110.685V138.49H112.179L112.319 140.318ZM118.727 143.166V143.351C118.727 144.042 118.645 144.684 118.48 145.275C118.316 145.861 118.076 146.371 117.76 146.805C117.449 147.238 117.065 147.575 116.608 147.815C116.151 148.056 115.627 148.176 115.035 148.176C114.432 148.176 113.898 148.076 113.436 147.877C112.973 147.678 112.58 147.388 112.258 147.007C111.936 146.626 111.678 146.169 111.484 145.636C111.297 145.103 111.168 144.502 111.098 143.834V142.85C111.168 142.146 111.3 141.517 111.493 140.96C111.687 140.403 111.941 139.929 112.258 139.536C112.58 139.138 112.97 138.836 113.427 138.631C113.884 138.42 114.411 138.314 115.009 138.314C115.606 138.314 116.137 138.432 116.6 138.666C117.062 138.895 117.452 139.223 117.769 139.65C118.085 140.078 118.322 140.591 118.48 141.188C118.645 141.78 118.727 142.439 118.727 143.166ZM117.092 143.351V143.166C117.092 142.691 117.042 142.246 116.942 141.83C116.843 141.408 116.688 141.039 116.477 140.723C116.271 140.4 116.008 140.148 115.686 139.967C115.363 139.779 114.979 139.686 114.534 139.686C114.124 139.686 113.767 139.756 113.462 139.896C113.163 140.037 112.908 140.228 112.697 140.468C112.486 140.702 112.313 140.972 112.179 141.276C112.05 141.575 111.953 141.886 111.889 142.208V144.484C112.006 144.895 112.17 145.281 112.381 145.645C112.592 146.002 112.873 146.292 113.225 146.515C113.576 146.731 114.019 146.84 114.552 146.84C114.991 146.84 115.369 146.749 115.686 146.567C116.008 146.38 116.271 146.125 116.477 145.803C116.688 145.48 116.843 145.111 116.942 144.695C117.042 144.273 117.092 143.825 117.092 143.351ZM124.782 138.49V139.738H119.641V138.49H124.782ZM121.381 136.179H123.007V145.645C123.007 145.967 123.057 146.21 123.156 146.374C123.256 146.538 123.385 146.646 123.543 146.699C123.701 146.752 123.871 146.778 124.053 146.778C124.188 146.778 124.328 146.767 124.475 146.743C124.627 146.714 124.741 146.69 124.817 146.673L124.826 148C124.697 148.041 124.527 148.079 124.316 148.114C124.111 148.155 123.862 148.176 123.569 148.176C123.171 148.176 122.805 148.097 122.471 147.938C122.137 147.78 121.87 147.517 121.671 147.147C121.478 146.772 121.381 146.269 121.381 145.636V136.179ZM128.456 138.49V148H126.821V138.49H128.456ZM126.698 135.968C126.698 135.704 126.777 135.481 126.936 135.3C127.1 135.118 127.34 135.027 127.656 135.027C127.967 135.027 128.204 135.118 128.368 135.3C128.538 135.481 128.623 135.704 128.623 135.968C128.623 136.22 128.538 136.437 128.368 136.618C128.204 136.794 127.967 136.882 127.656 136.882C127.34 136.882 127.1 136.794 126.936 136.618C126.777 136.437 126.698 136.22 126.698 135.968ZM134.872 146.84C135.259 146.84 135.616 146.761 135.944 146.603C136.272 146.444 136.542 146.228 136.753 145.952C136.964 145.671 137.084 145.352 137.113 144.994H138.66C138.631 145.557 138.44 146.081 138.089 146.567C137.743 147.048 137.289 147.438 136.727 147.736C136.164 148.029 135.546 148.176 134.872 148.176C134.157 148.176 133.533 148.05 133 147.798C132.473 147.546 132.033 147.2 131.682 146.761C131.336 146.321 131.075 145.817 130.899 145.249C130.729 144.675 130.645 144.068 130.645 143.43V143.061C130.645 142.422 130.729 141.818 130.899 141.25C131.075 140.676 131.336 140.169 131.682 139.729C132.033 139.29 132.473 138.944 133 138.692C133.533 138.44 134.157 138.314 134.872 138.314C135.616 138.314 136.267 138.467 136.823 138.771C137.38 139.07 137.816 139.48 138.133 140.002C138.455 140.518 138.631 141.104 138.66 141.76H137.113C137.084 141.367 136.973 141.013 136.779 140.696C136.592 140.38 136.334 140.128 136.006 139.94C135.684 139.747 135.306 139.65 134.872 139.65C134.374 139.65 133.955 139.75 133.615 139.949C133.281 140.143 133.015 140.406 132.815 140.74C132.622 141.068 132.481 141.435 132.394 141.839C132.312 142.237 132.271 142.645 132.271 143.061V143.43C132.271 143.846 132.312 144.256 132.394 144.66C132.476 145.064 132.613 145.431 132.807 145.759C133.006 146.087 133.272 146.351 133.606 146.55C133.946 146.743 134.368 146.84 134.872 146.84ZM152.96 146.62V148H146.562V146.62H152.96ZM146.896 135.203V148H145.199V135.203H146.896ZM160.264 146.374V141.479C160.264 141.104 160.188 140.778 160.035 140.503C159.889 140.222 159.666 140.005 159.367 139.853C159.068 139.7 158.699 139.624 158.26 139.624C157.85 139.624 157.489 139.694 157.179 139.835C156.874 139.976 156.634 140.16 156.458 140.389C156.288 140.617 156.203 140.863 156.203 141.127H154.577C154.577 140.787 154.665 140.45 154.841 140.116C155.017 139.782 155.269 139.48 155.597 139.211C155.931 138.936 156.329 138.719 156.792 138.561C157.261 138.396 157.782 138.314 158.356 138.314C159.048 138.314 159.657 138.432 160.185 138.666C160.718 138.9 161.134 139.255 161.433 139.729C161.737 140.198 161.89 140.787 161.89 141.496V145.926C161.89 146.242 161.916 146.579 161.969 146.937C162.027 147.294 162.112 147.602 162.224 147.859V148H160.527C160.445 147.812 160.381 147.563 160.334 147.253C160.287 146.937 160.264 146.644 160.264 146.374ZM160.545 142.234L160.562 143.377H158.919C158.456 143.377 158.043 143.415 157.68 143.491C157.316 143.562 157.012 143.67 156.766 143.816C156.52 143.963 156.332 144.147 156.203 144.37C156.074 144.587 156.01 144.842 156.01 145.135C156.01 145.434 156.077 145.706 156.212 145.952C156.347 146.198 156.549 146.395 156.818 146.541C157.094 146.682 157.431 146.752 157.829 146.752C158.327 146.752 158.767 146.646 159.147 146.436C159.528 146.225 159.83 145.967 160.053 145.662C160.281 145.357 160.404 145.062 160.422 144.774L161.116 145.557C161.075 145.803 160.964 146.075 160.782 146.374C160.601 146.673 160.357 146.96 160.053 147.235C159.754 147.505 159.396 147.73 158.98 147.912C158.57 148.088 158.107 148.176 157.592 148.176C156.947 148.176 156.382 148.05 155.896 147.798C155.415 147.546 155.04 147.209 154.771 146.787C154.507 146.359 154.375 145.882 154.375 145.354C154.375 144.845 154.475 144.396 154.674 144.01C154.873 143.617 155.16 143.292 155.535 143.034C155.91 142.771 156.361 142.571 156.889 142.437C157.416 142.302 158.005 142.234 158.655 142.234H160.545ZM164.438 134.5H166.073V146.154L165.933 148H164.438V134.5ZM172.498 143.166V143.351C172.498 144.042 172.416 144.684 172.252 145.275C172.088 145.861 171.848 146.371 171.531 146.805C171.215 147.238 170.828 147.575 170.371 147.815C169.914 148.056 169.39 148.176 168.798 148.176C168.194 148.176 167.664 148.073 167.207 147.868C166.756 147.657 166.375 147.355 166.064 146.963C165.754 146.57 165.505 146.096 165.317 145.539C165.136 144.982 165.01 144.355 164.939 143.658V142.85C165.01 142.146 165.136 141.517 165.317 140.96C165.505 140.403 165.754 139.929 166.064 139.536C166.375 139.138 166.756 138.836 167.207 138.631C167.658 138.42 168.183 138.314 168.78 138.314C169.378 138.314 169.908 138.432 170.371 138.666C170.834 138.895 171.221 139.223 171.531 139.65C171.848 140.078 172.088 140.591 172.252 141.188C172.416 141.78 172.498 142.439 172.498 143.166ZM170.863 143.351V143.166C170.863 142.691 170.819 142.246 170.731 141.83C170.644 141.408 170.503 141.039 170.31 140.723C170.116 140.4 169.861 140.148 169.545 139.967C169.229 139.779 168.839 139.686 168.376 139.686C167.966 139.686 167.608 139.756 167.304 139.896C167.005 140.037 166.75 140.228 166.539 140.468C166.328 140.702 166.155 140.972 166.021 141.276C165.892 141.575 165.795 141.886 165.73 142.208V144.326C165.824 144.736 165.977 145.132 166.188 145.513C166.404 145.888 166.691 146.195 167.049 146.436C167.412 146.676 167.86 146.796 168.394 146.796C168.833 146.796 169.208 146.708 169.519 146.532C169.835 146.351 170.09 146.102 170.283 145.785C170.482 145.469 170.629 145.103 170.723 144.687C170.816 144.271 170.863 143.825 170.863 143.351ZM174.124 143.351V143.148C174.124 142.463 174.224 141.827 174.423 141.241C174.622 140.649 174.909 140.137 175.284 139.703C175.659 139.264 176.113 138.924 176.646 138.684C177.18 138.438 177.777 138.314 178.439 138.314C179.107 138.314 179.708 138.438 180.241 138.684C180.78 138.924 181.237 139.264 181.612 139.703C181.993 140.137 182.283 140.649 182.482 141.241C182.682 141.827 182.781 142.463 182.781 143.148V143.351C182.781 144.036 182.682 144.672 182.482 145.258C182.283 145.844 181.993 146.356 181.612 146.796C181.237 147.229 180.783 147.569 180.25 147.815C179.723 148.056 179.125 148.176 178.457 148.176C177.789 148.176 177.188 148.056 176.655 147.815C176.122 147.569 175.665 147.229 175.284 146.796C174.909 146.356 174.622 145.844 174.423 145.258C174.224 144.672 174.124 144.036 174.124 143.351ZM175.75 143.148V143.351C175.75 143.825 175.806 144.273 175.917 144.695C176.028 145.111 176.195 145.48 176.418 145.803C176.646 146.125 176.931 146.38 177.271 146.567C177.61 146.749 178.006 146.84 178.457 146.84C178.902 146.84 179.292 146.749 179.626 146.567C179.966 146.38 180.247 146.125 180.47 145.803C180.692 145.48 180.859 145.111 180.971 144.695C181.088 144.273 181.146 143.825 181.146 143.351V143.148C181.146 142.68 181.088 142.237 180.971 141.821C180.859 141.399 180.689 141.027 180.461 140.705C180.238 140.377 179.957 140.119 179.617 139.932C179.283 139.744 178.891 139.65 178.439 139.65C177.994 139.65 177.602 139.744 177.262 139.932C176.928 140.119 176.646 140.377 176.418 140.705C176.195 141.027 176.028 141.399 175.917 141.821C175.806 142.237 175.75 142.68 175.75 143.148ZM186.446 139.984V148H184.82V138.49H186.402L186.446 139.984ZM189.417 138.438L189.408 139.949C189.273 139.92 189.145 139.902 189.021 139.896C188.904 139.885 188.77 139.879 188.617 139.879C188.242 139.879 187.911 139.938 187.624 140.055C187.337 140.172 187.094 140.336 186.895 140.547C186.695 140.758 186.537 141.01 186.42 141.303C186.309 141.59 186.235 141.906 186.2 142.252L185.743 142.516C185.743 141.941 185.799 141.402 185.91 140.898C186.027 140.395 186.206 139.949 186.446 139.562C186.687 139.17 186.991 138.865 187.36 138.648C187.735 138.426 188.181 138.314 188.696 138.314C188.813 138.314 188.948 138.329 189.101 138.358C189.253 138.382 189.358 138.408 189.417 138.438ZM92.7812 157.203H97.0176C97.9785 157.203 98.79 157.35 99.4521 157.643C100.12 157.936 100.627 158.369 100.973 158.943C101.324 159.512 101.5 160.212 101.5 161.044C101.5 161.63 101.38 162.166 101.14 162.652C100.905 163.133 100.565 163.543 100.12 163.883C99.6807 164.217 99.1533 164.466 98.5381 164.63L98.0635 164.814H94.082L94.0645 163.435H97.0703C97.6797 163.435 98.1865 163.329 98.5908 163.118C98.9951 162.901 99.2998 162.611 99.5049 162.248C99.71 161.885 99.8125 161.483 99.8125 161.044C99.8125 160.552 99.7158 160.121 99.5225 159.752C99.3291 159.383 99.0244 159.099 98.6084 158.899C98.1982 158.694 97.668 158.592 97.0176 158.592H94.4775V170H92.7812V157.203ZM100.261 170L97.1494 164.199L98.916 164.19L102.071 169.895V170H100.261ZM103.196 165.351V165.148C103.196 164.463 103.296 163.827 103.495 163.241C103.694 162.649 103.981 162.137 104.356 161.703C104.731 161.264 105.186 160.924 105.719 160.684C106.252 160.438 106.85 160.314 107.512 160.314C108.18 160.314 108.78 160.438 109.313 160.684C109.853 160.924 110.31 161.264 110.685 161.703C111.065 162.137 111.355 162.649 111.555 163.241C111.754 163.827 111.854 164.463 111.854 165.148V165.351C111.854 166.036 111.754 166.672 111.555 167.258C111.355 167.844 111.065 168.356 110.685 168.796C110.31 169.229 109.855 169.569 109.322 169.815C108.795 170.056 108.197 170.176 107.529 170.176C106.861 170.176 106.261 170.056 105.728 169.815C105.194 169.569 104.737 169.229 104.356 168.796C103.981 168.356 103.694 167.844 103.495 167.258C103.296 166.672 103.196 166.036 103.196 165.351ZM104.822 165.148V165.351C104.822 165.825 104.878 166.273 104.989 166.695C105.101 167.111 105.268 167.48 105.49 167.803C105.719 168.125 106.003 168.38 106.343 168.567C106.683 168.749 107.078 168.84 107.529 168.84C107.975 168.84 108.364 168.749 108.698 168.567C109.038 168.38 109.319 168.125 109.542 167.803C109.765 167.48 109.932 167.111 110.043 166.695C110.16 166.273 110.219 165.825 110.219 165.351V165.148C110.219 164.68 110.16 164.237 110.043 163.821C109.932 163.399 109.762 163.027 109.533 162.705C109.311 162.377 109.029 162.119 108.689 161.932C108.355 161.744 107.963 161.65 107.512 161.65C107.066 161.65 106.674 161.744 106.334 161.932C106 162.119 105.719 162.377 105.49 162.705C105.268 163.027 105.101 163.399 104.989 163.821C104.878 164.237 104.822 164.68 104.822 165.148ZM113.462 165.351V165.148C113.462 164.463 113.562 163.827 113.761 163.241C113.96 162.649 114.247 162.137 114.622 161.703C114.997 161.264 115.451 160.924 115.984 160.684C116.518 160.438 117.115 160.314 117.777 160.314C118.445 160.314 119.046 160.438 119.579 160.684C120.118 160.924 120.575 161.264 120.95 161.703C121.331 162.137 121.621 162.649 121.82 163.241C122.02 163.827 122.119 164.463 122.119 165.148V165.351C122.119 166.036 122.02 166.672 121.82 167.258C121.621 167.844 121.331 168.356 120.95 168.796C120.575 169.229 120.121 169.569 119.588 169.815C119.061 170.056 118.463 170.176 117.795 170.176C117.127 170.176 116.526 170.056 115.993 169.815C115.46 169.569 115.003 169.229 114.622 168.796C114.247 168.356 113.96 167.844 113.761 167.258C113.562 166.672 113.462 166.036 113.462 165.351ZM115.088 165.148V165.351C115.088 165.825 115.144 166.273 115.255 166.695C115.366 167.111 115.533 167.48 115.756 167.803C115.984 168.125 116.269 168.38 116.608 168.567C116.948 168.749 117.344 168.84 117.795 168.84C118.24 168.84 118.63 168.749 118.964 168.567C119.304 168.38 119.585 168.125 119.808 167.803C120.03 167.48 120.197 167.111 120.309 166.695C120.426 166.273 120.484 165.825 120.484 165.351V165.148C120.484 164.68 120.426 164.237 120.309 163.821C120.197 163.399 120.027 163.027 119.799 162.705C119.576 162.377 119.295 162.119 118.955 161.932C118.621 161.744 118.229 161.65 117.777 161.65C117.332 161.65 116.939 161.744 116.6 161.932C116.266 162.119 115.984 162.377 115.756 162.705C115.533 163.027 115.366 163.399 115.255 163.821C115.144 164.237 115.088 164.68 115.088 165.148ZM125.775 162.38V170H124.141V160.49H125.688L125.775 162.38ZM125.441 164.885L124.686 164.858C124.691 164.208 124.776 163.607 124.94 163.057C125.104 162.5 125.348 162.017 125.67 161.606C125.992 161.196 126.394 160.88 126.874 160.657C127.354 160.429 127.911 160.314 128.544 160.314C128.989 160.314 129.399 160.379 129.774 160.508C130.149 160.631 130.475 160.827 130.75 161.097C131.025 161.366 131.239 161.712 131.392 162.134C131.544 162.556 131.62 163.065 131.62 163.663V170H129.994V163.742C129.994 163.244 129.909 162.846 129.739 162.547C129.575 162.248 129.341 162.031 129.036 161.896C128.731 161.756 128.374 161.686 127.964 161.686C127.483 161.686 127.082 161.771 126.76 161.94C126.438 162.11 126.18 162.345 125.986 162.644C125.793 162.942 125.652 163.285 125.564 163.672C125.482 164.053 125.441 164.457 125.441 164.885ZM131.603 163.988L130.513 164.322C130.519 163.801 130.604 163.3 130.768 162.819C130.938 162.339 131.181 161.911 131.497 161.536C131.819 161.161 132.215 160.865 132.684 160.648C133.152 160.426 133.688 160.314 134.292 160.314C134.802 160.314 135.253 160.382 135.646 160.517C136.044 160.651 136.378 160.859 136.647 161.141C136.923 161.416 137.131 161.771 137.271 162.204C137.412 162.638 137.482 163.153 137.482 163.751V170H135.848V163.733C135.848 163.2 135.763 162.787 135.593 162.494C135.429 162.195 135.194 161.987 134.89 161.87C134.591 161.747 134.233 161.686 133.817 161.686C133.46 161.686 133.144 161.747 132.868 161.87C132.593 161.993 132.361 162.163 132.174 162.38C131.986 162.591 131.843 162.834 131.743 163.109C131.649 163.385 131.603 163.678 131.603 163.988Z" fill="#0F0F0F"/>
<rect x="73" y="15" width="84" height="77" rx="5" fill="#EDF5FC"/>
<path d="M131.415 72.7358C131.364 72.9592 131.242 73.1624 131.07 73.3046C130.541 73.7413 120.426 81.9475 110.127 81.9475C107.812 81.9475 105.486 81.5311 103.252 80.5256C104.369 80.3022 105.709 80.0077 107.121 79.6319C109.867 78.8885 112.877 77.8028 115.002 76.3108C118.699 73.7108 125.098 72.228 125.169 72.2077C126.372 71.9274 126.089 70.1521 124.895 70.2069C125.098 68.8155 125.159 66.4491 123.93 63.91C122.823 61.635 122.823 57.6335 122.823 57.5928C122.823 57.0342 122.376 56.5772 121.807 56.5772C121.248 56.5772 120.791 57.0241 120.791 57.5827C120.791 57.7655 120.791 62.092 122.102 64.7936C123.523 67.7288 122.792 70.4506 122.701 70.7655C120.375 71.446 116.526 72.746 113.834 74.6452C111.143 76.5444 106.674 77.7327 103.556 78.3827C102.937 78.5117 102.07 78.6853 101.413 78.7788C100.388 76.9811 98.6305 73.0811 99.8899 69.1202C100.885 66.0124 103.505 63.585 107.69 61.8991C106.877 60.8835 106.004 59.36 106.298 57.735C106.593 56.1608 107.873 54.9522 110.117 54.1295C115.51 52.1491 115.957 47.8124 115.845 45.771C111.429 49.1936 109.114 45.512 107.893 42.003H106.41C105.61 42.0284 105.105 41.0361 105.577 40.3983C105.628 40.3272 106.847 38.4991 106.309 35.696C105.323 30.5366 107.253 27.0428 111.884 25.6006C115.764 24.3921 118.11 25.4686 119.268 26.3624C120.375 25.3467 122.142 24.4936 123.96 25.7428C126.935 27.6949 126.919 34.0283 122.66 34.5178C122.741 36.0413 122.731 38.6108 121.959 40.053C122 40.8046 122.315 43.2624 124.752 45.7913C128.33 49.4455 128.683 52.08 129.627 57.9585C129.871 59.1061 132.075 69.7499 131.415 72.7358Z" fill="url(#paint0_linear_27_199)"/>
<rect x="0.5" y="0.5" width="229" height="189" rx="9.5" stroke="url(#paint1_linear_27_199)"/>
<defs>
<linearGradient id="paint0_linear_27_199" x1="109.425" y1="74.3718" x2="143.503" y2="48.1527" gradientUnits="userSpaceOnUse">
<stop offset="0.33" stop-color="#52C5DC"/>
<stop offset="0.63" stop-color="#3C99D4"/>
<stop offset="0.895" stop-color="#3E7ABC"/>
</linearGradient>
<linearGradient id="paint1_linear_27_199" x1="115" y1="0" x2="115" y2="190" gradientUnits="userSpaceOnUse">
<stop offset="0.151042" stop-color="#FAFAFA"/>
<stop offset="0.864583" stop-color="#0457A7"/>
</linearGradient>
</defs>
</svg>
