<svg width="113" height="109" viewBox="0 0 113 109" fill="none" xmlns="http://www.w3.org/2000/svg">
<rect x="0.5" y="0.5" width="112" height="108" rx="6.5" fill="white" stroke="url(#paint0_linear_120_419)"/>
<g clip-path="url(#clip0_120_419)">
<path d="M37.8917 69.6225L26 81.5141L28.4859 84L40.3776 72.1084C39.9392 71.7191 39.5121 71.3172 39.097 70.9031C38.6829 70.488 38.281 70.061 37.8917 69.6225Z" fill="url(#paint1_linear_120_419)"/>
<path d="M64.2628 49.9031C66.5637 49.9031 68.4289 48.0379 68.4289 45.737C68.4289 43.4361 66.5637 41.5709 64.2628 41.5709C61.9619 41.5709 60.0967 43.4361 60.0967 45.737C60.0967 48.0379 61.9619 49.9031 64.2628 49.9031Z" fill="url(#paint2_linear_120_419)"/>
<path d="M59.9809 76.0379C74.3277 76.0379 85.9998 64.3658 85.9998 50.0189C85.9998 35.672 74.3277 24 59.9809 24C45.6341 24 33.9619 35.6721 33.9619 50.0189C33.9619 56.5611 36.3898 62.5464 40.3908 67.123L46.1242 61.3896C44.7666 60.4345 43.202 59.8357 41.5196 59.6391L40.5113 59.5212L40.1095 58.5888C38.4145 54.6557 37.9266 50.3418 38.6987 46.1137C39.4895 41.7833 41.5584 37.8435 44.682 34.72C48.7684 30.6334 54.2017 28.3829 59.9809 28.3829C65.7602 28.3829 71.1934 30.6334 75.2799 34.72C83.7156 43.1558 83.7156 56.882 75.2799 65.3179C72.1564 68.4414 68.2165 70.5103 63.886 71.3011C62.5919 71.5379 61.279 71.6571 59.9635 71.6575C57.0333 71.6575 54.1313 71.0627 51.411 69.8904L50.4787 69.4886L50.3608 68.4802C50.164 66.7977 49.5652 65.2331 48.6101 63.8755L42.8767 69.6089C47.4534 73.61 53.4387 76.0379 59.9809 76.0379Z" fill="url(#paint3_linear_120_419)"/>
<path d="M53.6884 67.017C60.3303 69.4831 67.7368 67.8892 72.794 62.8321C79.859 55.767 79.859 44.2711 72.794 37.206C69.3716 33.7835 64.8212 31.8987 59.981 31.8987C55.1408 31.8987 50.5904 33.7834 47.168 37.206C42.1107 42.2633 40.517 49.6697 42.9831 56.3118C45.0571 56.7172 46.9742 57.5896 48.6375 58.8767L54.5491 52.965L57.035 55.4509L51.1234 61.3625C52.4107 63.0257 53.283 64.9429 53.6884 67.017ZM56.5813 45.737C56.5813 41.5013 60.0273 38.0552 64.263 38.0552C68.4988 38.0552 71.9448 41.5013 71.9448 45.737C71.9448 49.9727 68.4988 53.4188 64.263 53.4188C60.0273 53.4188 56.5813 49.9727 56.5813 45.737Z" fill="url(#paint4_linear_120_419)"/>
</g>
<defs>
<linearGradient id="paint0_linear_120_419" x1="56.5" y1="0" x2="56.5" y2="109" gradientUnits="userSpaceOnUse">
<stop stop-color="#0675BC"/>
<stop offset="1" stop-color="#0675BC" stop-opacity="0"/>
</linearGradient>
<linearGradient id="paint1_linear_120_419" x1="33.1888" y1="69.6225" x2="33.1888" y2="84" gradientUnits="userSpaceOnUse">
<stop stop-color="#3D85C5"/>
<stop offset="1" stop-color="#68CDE1"/>
</linearGradient>
<linearGradient id="paint2_linear_120_419" x1="64.2628" y1="41.5709" x2="64.2628" y2="49.9031" gradientUnits="userSpaceOnUse">
<stop stop-color="#3D85C5"/>
<stop offset="1" stop-color="#68CDE1"/>
</linearGradient>
<linearGradient id="paint3_linear_120_419" x1="59.9809" y1="24" x2="59.9809" y2="76.0379" gradientUnits="userSpaceOnUse">
<stop stop-color="#3D85C5"/>
<stop offset="1" stop-color="#68CDE1"/>
</linearGradient>
<linearGradient id="paint4_linear_120_419" x1="59.9675" y1="31.8987" x2="59.9675" y2="68.1577" gradientUnits="userSpaceOnUse">
<stop stop-color="#3D85C5"/>
<stop offset="1" stop-color="#68CDE1"/>
</linearGradient>
<clipPath id="clip0_120_419">
<rect width="60" height="60" fill="white" transform="translate(26 24)"/>
</clipPath>
</defs>
</svg>
