<svg width="48" height="48" viewBox="0 0 48 48" fill="none" xmlns="http://www.w3.org/2000/svg">
<path d="M28.2725 33.157C27.4825 32.9465 26.637 33.143 26.0035 33.66L23.044 36.0785C22.194 36.7735 20.9875 36.8655 20.0605 36.276C16.663 34.117 13.883 31.337 11.724 27.94C11.135 27.013 11.227 25.8065 11.922 24.956L14.34 21.9965C14.857 21.3635 15.054 20.518 14.843 19.728C13.7995 15.816 11.5865 13.037 8.24796 11.3535C7.49946 10.976 6.60996 11.0255 5.87396 11.4265C4.2894 12.2873 2.76522 13.2549 1.31196 14.3225C0.52196 14.9035 0.11596 15.8815 0.28996 16.8465C1.51746 23.6665 5.23196 30.8095 11.2115 36.789C17.191 42.7685 24.3335 46.483 31.1535 47.71C32.1185 47.8835 33.0965 47.4775 33.678 46.688C34.7454 45.2347 35.7128 43.7105 36.5735 42.126C36.9745 41.3895 37.024 40.5005 36.6465 39.752C34.963 36.413 32.184 34.2005 28.2725 33.157Z" fill="url(#paint0_linear_103_1779)"/>
<path d="M40.8905 7.10998C36.27 2.48848 29.864 -0.00701797 23.314 0.270482C23.0072 0.283472 22.7181 0.417744 22.5102 0.64379C22.3023 0.869836 22.1927 1.16916 22.2055 1.47598C22.232 2.11598 22.7955 2.60098 23.411 2.58548C26.3341 2.46025 29.2515 2.94322 31.9783 4.00381C34.7052 5.06441 37.1821 6.67954 39.2525 8.74698C43.4155 12.9115 45.662 18.685 45.4145 24.5885C45.4016 24.8955 45.5112 25.195 45.7192 25.4212C45.9272 25.6473 46.2165 25.7816 46.5235 25.7945C46.8305 25.8073 47.13 25.6977 47.3561 25.4898C47.5823 25.2818 47.7166 24.9925 47.7295 24.6855C48.004 18.1365 45.5115 11.73 40.8905 7.10898V7.10998Z" fill="url(#paint1_linear_103_1779)"/>
<path d="M23.295 6.436C23.1431 6.44487 22.9945 6.48356 22.8576 6.54988C22.7207 6.6162 22.5982 6.70883 22.4971 6.8225C22.3961 6.93616 22.3184 7.06863 22.2685 7.21233C22.2186 7.35603 22.1975 7.50815 22.2065 7.66C22.2147 7.81212 22.253 7.9611 22.3191 8.09834C22.3852 8.23558 22.4779 8.35835 22.5918 8.45957C22.7056 8.56078 22.8384 8.63843 22.9824 8.68802C23.1265 8.73761 23.2789 8.75817 23.431 8.7485C27.6995 8.5015 31.8825 10.0835 34.9 13.1005C36.3934 14.597 37.5532 16.3926 38.3032 18.3693C39.0532 20.346 39.3763 22.459 39.2515 24.5695C39.2426 24.7214 39.2637 24.8735 39.3136 25.0172C39.3635 25.1609 39.4412 25.2934 39.5423 25.4071C39.6434 25.5208 39.7659 25.6134 39.9028 25.6798C40.0397 25.7461 40.1883 25.7849 40.3402 25.7937C40.4921 25.8026 40.6442 25.7815 40.7879 25.7316C40.9317 25.6817 41.0641 25.604 41.1778 25.5029C41.2915 25.4018 41.3842 25.2793 41.4505 25.1424C41.5168 25.0055 41.5556 24.8569 41.5645 24.705C41.7084 22.268 41.3349 19.8281 40.4686 17.5457C39.6023 15.2634 38.2627 13.1902 36.538 11.4625C34.8103 9.73758 32.737 8.39791 30.4546 7.53157C28.1721 6.66524 25.7321 6.29186 23.295 6.436Z" fill="url(#paint2_linear_103_1779)"/>
<path d="M34.143 25.7905C34.4489 25.819 34.7536 25.7248 34.9901 25.5286C35.2266 25.3325 35.3755 25.0504 35.404 24.7445C35.5591 23.1108 35.3509 21.4631 34.7944 19.9193C34.2379 18.3755 33.3468 16.9739 32.185 15.815C31.026 14.6531 29.6243 13.762 28.0805 13.2055C26.5366 12.649 24.8888 12.4408 23.255 12.596C23.1035 12.6101 22.9563 12.654 22.8218 12.725C22.6872 12.7961 22.568 12.8929 22.4709 13.01C22.3738 13.1271 22.3007 13.2622 22.2558 13.4076C22.2109 13.553 22.1951 13.7058 22.2092 13.8572C22.2234 14.0087 22.2672 14.1559 22.3383 14.2905C22.4093 14.425 22.5062 14.5442 22.6233 14.6413C22.7404 14.7384 22.8755 14.8115 23.0209 14.8564C23.1662 14.9013 23.319 14.9171 23.4705 14.903C24.7651 14.7798 26.0709 14.9446 27.2943 15.3854C28.5178 15.8263 29.6285 16.5324 30.547 17.453C31.4675 18.3716 32.1734 19.4823 32.6143 20.7057C33.0551 21.9291 33.22 23.2349 33.097 24.5295C33.0685 24.8354 33.1627 25.1401 33.3588 25.3766C33.555 25.6131 33.8371 25.762 34.143 25.7905Z" fill="url(#paint3_linear_103_1779)"/>
<defs>
<linearGradient id="paint0_linear_103_1779" x1="-9.27454" y1="4.80799" x2="43.288" y2="56.858" gradientUnits="userSpaceOnUse">
<stop stop-color="#52C5DC"/>
<stop offset="0.085" stop-color="#14F6FD"/>
<stop offset="0.222" stop-color="#13DEF7"/>
<stop offset="0.394" stop-color="#10B8ED"/>
<stop offset="0.595" stop-color="#0C82E0"/>
<stop offset="0.816" stop-color="#073ECF"/>
<stop offset="1" stop-color="#3679BE"/>
</linearGradient>
<linearGradient id="paint1_linear_103_1779" x1="11.0285" y1="-15.6955" x2="63.5915" y2="36.355" gradientUnits="userSpaceOnUse">
<stop stop-color="#15FFFF"/>
<stop offset="0.085" stop-color="#14F6FD"/>
<stop offset="0.222" stop-color="#13DEF7"/>
<stop offset="0.394" stop-color="#10B8ED"/>
<stop offset="0.595" stop-color="#0C82E0"/>
<stop offset="0.816" stop-color="#073ECF"/>
<stop offset="1" stop-color="#0300BF"/>
</linearGradient>
<linearGradient id="paint2_linear_103_1779" x1="7.33697" y1="-11.9675" x2="59.9" y2="40.0825" gradientUnits="userSpaceOnUse">
<stop stop-color="#15FFFF"/>
<stop offset="0.085" stop-color="#14F6FD"/>
<stop offset="0.222" stop-color="#13DEF7"/>
<stop offset="0.394" stop-color="#10B8ED"/>
<stop offset="0.595" stop-color="#0C82E0"/>
<stop offset="0.816" stop-color="#073ECF"/>
<stop offset="1" stop-color="#0300BF"/>
</linearGradient>
<linearGradient id="paint3_linear_103_1779" x1="3.647" y1="-8.24102" x2="56.21" y2="43.809" gradientUnits="userSpaceOnUse">
<stop stop-color="#0FAEE4"/>
<stop offset="0.085" stop-color="#11AAE2"/>
<stop offset="0.222" stop-color="#11ABE2"/>
<stop offset="0.394" stop-color="#10ACE3"/>
<stop offset="0.651042" stop-color="#367ABF"/>
<stop offset="0.816" stop-color="#3779BE"/>
<stop offset="1" stop-color="#357BC0"/>
</linearGradient>
</defs>
</svg>
