<svg width="230" height="190" viewBox="0 0 230 190" fill="none" xmlns="http://www.w3.org/2000/svg">
<path d="M24.2617 120.015H21.0186L21.001 118.652H23.9453C24.4316 118.652 24.8564 118.57 25.2197 118.406C25.583 118.242 25.8643 118.008 26.0635 117.703C26.2686 117.393 26.3711 117.023 26.3711 116.596C26.3711 116.127 26.2803 115.746 26.0986 115.453C25.9229 115.154 25.6504 114.938 25.2812 114.803C24.918 114.662 24.4551 114.592 23.8926 114.592H21.3965V126H19.7002V113.203H23.8926C24.5488 113.203 25.1348 113.271 25.6504 113.405C26.166 113.534 26.6025 113.739 26.96 114.021C27.3232 114.296 27.5986 114.647 27.7861 115.075C27.9736 115.503 28.0674 116.016 28.0674 116.613C28.0674 117.141 27.9326 117.618 27.6631 118.046C27.3936 118.468 27.0186 118.813 26.5381 119.083C26.0635 119.353 25.5068 119.525 24.8682 119.602L24.2617 120.015ZM24.1826 126H20.3506L21.3086 124.62H24.1826C24.7217 124.62 25.1787 124.526 25.5537 124.339C25.9346 124.151 26.2246 123.888 26.4238 123.548C26.623 123.202 26.7227 122.795 26.7227 122.326C26.7227 121.852 26.6377 121.441 26.4678 121.096C26.2979 120.75 26.0312 120.483 25.668 120.296C25.3047 120.108 24.8359 120.015 24.2617 120.015H21.8447L21.8623 118.652H25.167L25.5273 119.145C26.1426 119.197 26.6641 119.373 27.0918 119.672C27.5195 119.965 27.8447 120.34 28.0674 120.797C28.2959 121.254 28.4102 121.758 28.4102 122.309C28.4102 123.105 28.2344 123.779 27.8828 124.33C27.5371 124.875 27.0479 125.291 26.415 125.578C25.7822 125.859 25.0381 126 24.1826 126ZM34.6152 126.176C33.9531 126.176 33.3525 126.064 32.8135 125.842C32.2803 125.613 31.8203 125.294 31.4336 124.884C31.0527 124.474 30.7598 123.987 30.5547 123.425C30.3496 122.862 30.2471 122.247 30.2471 121.579V121.21C30.2471 120.437 30.3613 119.748 30.5898 119.145C30.8184 118.535 31.1289 118.02 31.5215 117.598C31.9141 117.176 32.3594 116.856 32.8574 116.64C33.3555 116.423 33.8711 116.314 34.4043 116.314C35.084 116.314 35.6699 116.432 36.1621 116.666C36.6602 116.9 37.0674 117.229 37.3838 117.65C37.7002 118.066 37.9346 118.559 38.0869 119.127C38.2393 119.689 38.3154 120.305 38.3154 120.973V121.702H31.2139V120.375H36.6895V120.252C36.666 119.83 36.5781 119.42 36.4258 119.021C36.2793 118.623 36.0449 118.295 35.7227 118.037C35.4004 117.779 34.9609 117.65 34.4043 117.65C34.0352 117.65 33.6953 117.729 33.3848 117.888C33.0742 118.04 32.8076 118.269 32.585 118.573C32.3623 118.878 32.1895 119.25 32.0664 119.689C31.9434 120.129 31.8818 120.636 31.8818 121.21V121.579C31.8818 122.03 31.9434 122.455 32.0664 122.854C32.1953 123.246 32.3799 123.592 32.6201 123.891C32.8662 124.189 33.1621 124.424 33.5078 124.594C33.8594 124.764 34.2578 124.849 34.7031 124.849C35.2773 124.849 35.7637 124.731 36.1621 124.497C36.5605 124.263 36.9092 123.949 37.208 123.557L38.1924 124.339C37.9873 124.649 37.7266 124.945 37.4102 125.227C37.0938 125.508 36.7041 125.736 36.2412 125.912C35.7842 126.088 35.2422 126.176 34.6152 126.176ZM45.751 123.478C45.751 123.243 45.6982 123.026 45.5928 122.827C45.4932 122.622 45.2852 122.438 44.9688 122.273C44.6582 122.104 44.1895 121.957 43.5625 121.834C43.0352 121.723 42.5576 121.591 42.1299 121.438C41.708 121.286 41.3477 121.102 41.0488 120.885C40.7559 120.668 40.5303 120.413 40.3721 120.12C40.2139 119.827 40.1348 119.484 40.1348 119.092C40.1348 118.717 40.2168 118.362 40.3809 118.028C40.5508 117.694 40.7881 117.398 41.0928 117.141C41.4033 116.883 41.7754 116.681 42.209 116.534C42.6426 116.388 43.126 116.314 43.6592 116.314C44.4209 116.314 45.0713 116.449 45.6104 116.719C46.1494 116.988 46.5625 117.349 46.8496 117.8C47.1367 118.245 47.2803 118.74 47.2803 119.285H45.6543C45.6543 119.021 45.5752 118.767 45.417 118.521C45.2646 118.269 45.0391 118.061 44.7402 117.896C44.4473 117.732 44.0869 117.65 43.6592 117.65C43.208 117.65 42.8418 117.721 42.5605 117.861C42.2852 117.996 42.083 118.169 41.9541 118.38C41.8311 118.591 41.7695 118.813 41.7695 119.048C41.7695 119.224 41.7988 119.382 41.8574 119.522C41.9219 119.657 42.0332 119.783 42.1914 119.9C42.3496 120.012 42.5723 120.117 42.8594 120.217C43.1465 120.316 43.5127 120.416 43.958 120.516C44.7373 120.691 45.3789 120.902 45.8828 121.148C46.3867 121.395 46.7617 121.696 47.0078 122.054C47.2539 122.411 47.377 122.845 47.377 123.354C47.377 123.771 47.2891 124.151 47.1133 124.497C46.9434 124.843 46.6943 125.142 46.3662 125.394C46.0439 125.64 45.6572 125.833 45.2061 125.974C44.7607 126.108 44.2598 126.176 43.7031 126.176C42.8652 126.176 42.1562 126.026 41.5762 125.728C40.9961 125.429 40.5566 125.042 40.2578 124.567C39.959 124.093 39.8096 123.592 39.8096 123.064H41.4443C41.4678 123.51 41.5967 123.864 41.8311 124.128C42.0654 124.386 42.3525 124.57 42.6924 124.682C43.0322 124.787 43.3691 124.84 43.7031 124.84C44.1484 124.84 44.5205 124.781 44.8193 124.664C45.124 124.547 45.3555 124.386 45.5137 124.181C45.6719 123.976 45.751 123.741 45.751 123.478ZM53.4941 116.49V117.738H48.3525V116.49H53.4941ZM50.0928 114.179H51.7188V123.645C51.7188 123.967 51.7686 124.21 51.8682 124.374C51.9678 124.538 52.0967 124.646 52.2549 124.699C52.4131 124.752 52.583 124.778 52.7646 124.778C52.8994 124.778 53.04 124.767 53.1865 124.743C53.3389 124.714 53.4531 124.69 53.5293 124.673L53.5381 126C53.4092 126.041 53.2393 126.079 53.0283 126.114C52.8232 126.155 52.5742 126.176 52.2812 126.176C51.8828 126.176 51.5166 126.097 51.1826 125.938C50.8486 125.78 50.582 125.517 50.3828 125.147C50.1895 124.772 50.0928 124.269 50.0928 123.636V114.179ZM67.8379 121.931H69.5254C69.4375 122.739 69.2061 123.463 68.8311 124.102C68.4561 124.74 67.9258 125.247 67.2402 125.622C66.5547 125.991 65.6992 126.176 64.6738 126.176C63.9238 126.176 63.2412 126.035 62.626 125.754C62.0166 125.473 61.4922 125.074 61.0527 124.559C60.6133 124.037 60.2734 123.413 60.0332 122.687C59.7988 121.954 59.6816 121.14 59.6816 120.243V118.969C59.6816 118.072 59.7988 117.261 60.0332 116.534C60.2734 115.802 60.6162 115.175 61.0615 114.653C61.5127 114.132 62.0547 113.73 62.6875 113.449C63.3203 113.168 64.0322 113.027 64.8232 113.027C65.79 113.027 66.6074 113.209 67.2754 113.572C67.9434 113.936 68.4619 114.439 68.8311 115.084C69.2061 115.723 69.4375 116.464 69.5254 117.308H67.8379C67.7559 116.71 67.6035 116.197 67.3809 115.77C67.1582 115.336 66.8418 115.002 66.4316 114.768C66.0215 114.533 65.4854 114.416 64.8232 114.416C64.2549 114.416 63.7539 114.524 63.3203 114.741C62.8926 114.958 62.5322 115.266 62.2393 115.664C61.9521 116.062 61.7354 116.54 61.5889 117.097C61.4424 117.653 61.3691 118.271 61.3691 118.951V120.243C61.3691 120.87 61.4336 121.459 61.5625 122.01C61.6973 122.561 61.8994 123.044 62.1689 123.46C62.4385 123.876 62.7812 124.204 63.1973 124.444C63.6133 124.679 64.1055 124.796 64.6738 124.796C65.3945 124.796 65.9688 124.682 66.3965 124.453C66.8242 124.225 67.1465 123.896 67.3633 123.469C67.5859 123.041 67.7441 122.528 67.8379 121.931ZM71.1602 121.351V121.148C71.1602 120.463 71.2598 119.827 71.459 119.241C71.6582 118.649 71.9453 118.137 72.3203 117.703C72.6953 117.264 73.1494 116.924 73.6826 116.684C74.2158 116.438 74.8135 116.314 75.4756 116.314C76.1436 116.314 76.7441 116.438 77.2773 116.684C77.8164 116.924 78.2734 117.264 78.6484 117.703C79.0293 118.137 79.3193 118.649 79.5186 119.241C79.7178 119.827 79.8174 120.463 79.8174 121.148V121.351C79.8174 122.036 79.7178 122.672 79.5186 123.258C79.3193 123.844 79.0293 124.356 78.6484 124.796C78.2734 125.229 77.8193 125.569 77.2861 125.815C76.7588 126.056 76.1611 126.176 75.4932 126.176C74.8252 126.176 74.2246 126.056 73.6914 125.815C73.1582 125.569 72.7012 125.229 72.3203 124.796C71.9453 124.356 71.6582 123.844 71.459 123.258C71.2598 122.672 71.1602 122.036 71.1602 121.351ZM72.7861 121.148V121.351C72.7861 121.825 72.8418 122.273 72.9531 122.695C73.0645 123.111 73.2314 123.48 73.4541 123.803C73.6826 124.125 73.9668 124.38 74.3066 124.567C74.6465 124.749 75.042 124.84 75.4932 124.84C75.9385 124.84 76.3281 124.749 76.6621 124.567C77.002 124.38 77.2832 124.125 77.5059 123.803C77.7285 123.48 77.8955 123.111 78.0068 122.695C78.124 122.273 78.1826 121.825 78.1826 121.351V121.148C78.1826 120.68 78.124 120.237 78.0068 119.821C77.8955 119.399 77.7256 119.027 77.4971 118.705C77.2744 118.377 76.9932 118.119 76.6533 117.932C76.3193 117.744 75.9268 117.65 75.4756 117.65C75.0303 117.65 74.6377 117.744 74.2979 117.932C73.9639 118.119 73.6826 118.377 73.4541 118.705C73.2314 119.027 73.0645 119.399 72.9531 119.821C72.8418 120.237 72.7861 120.68 72.7861 121.148ZM87.6748 123.803V116.49H89.3096V126H87.7539L87.6748 123.803ZM87.9824 121.799L88.6592 121.781C88.6592 122.414 88.5918 123 88.457 123.539C88.3281 124.072 88.1172 124.535 87.8242 124.928C87.5312 125.32 87.1475 125.628 86.6729 125.851C86.1982 126.067 85.6211 126.176 84.9414 126.176C84.4785 126.176 84.0537 126.108 83.667 125.974C83.2861 125.839 82.958 125.631 82.6826 125.35C82.4072 125.068 82.1934 124.702 82.041 124.251C81.8945 123.8 81.8213 123.258 81.8213 122.625V116.49H83.4473V122.643C83.4473 123.07 83.4941 123.425 83.5879 123.706C83.6875 123.981 83.8193 124.201 83.9834 124.365C84.1533 124.523 84.3408 124.635 84.5459 124.699C84.7568 124.764 84.9736 124.796 85.1963 124.796C85.8877 124.796 86.4355 124.664 86.8398 124.4C87.2441 124.131 87.5342 123.771 87.71 123.319C87.8916 122.862 87.9824 122.355 87.9824 121.799ZM93.4141 118.521V126H91.7881V116.49H93.3262L93.4141 118.521ZM93.0273 120.885L92.3506 120.858C92.3564 120.208 92.4531 119.607 92.6406 119.057C92.8281 118.5 93.0918 118.017 93.4316 117.606C93.7715 117.196 94.1758 116.88 94.6445 116.657C95.1191 116.429 95.6436 116.314 96.2178 116.314C96.6865 116.314 97.1084 116.379 97.4834 116.508C97.8584 116.631 98.1777 116.83 98.4414 117.105C98.7109 117.381 98.916 117.738 99.0566 118.178C99.1973 118.611 99.2676 119.142 99.2676 119.769V126H97.6328V119.751C97.6328 119.253 97.5596 118.854 97.4131 118.556C97.2666 118.251 97.0527 118.031 96.7715 117.896C96.4902 117.756 96.1445 117.686 95.7344 117.686C95.3301 117.686 94.9609 117.771 94.627 117.94C94.2988 118.11 94.0146 118.345 93.7744 118.644C93.54 118.942 93.3555 119.285 93.2207 119.672C93.0918 120.053 93.0273 120.457 93.0273 120.885ZM107.274 123.478C107.274 123.243 107.222 123.026 107.116 122.827C107.017 122.622 106.809 122.438 106.492 122.273C106.182 122.104 105.713 121.957 105.086 121.834C104.559 121.723 104.081 121.591 103.653 121.438C103.231 121.286 102.871 121.102 102.572 120.885C102.279 120.668 102.054 120.413 101.896 120.12C101.737 119.827 101.658 119.484 101.658 119.092C101.658 118.717 101.74 118.362 101.904 118.028C102.074 117.694 102.312 117.398 102.616 117.141C102.927 116.883 103.299 116.681 103.732 116.534C104.166 116.388 104.649 116.314 105.183 116.314C105.944 116.314 106.595 116.449 107.134 116.719C107.673 116.988 108.086 117.349 108.373 117.8C108.66 118.245 108.804 118.74 108.804 119.285H107.178C107.178 119.021 107.099 118.767 106.94 118.521C106.788 118.269 106.562 118.061 106.264 117.896C105.971 117.732 105.61 117.65 105.183 117.65C104.731 117.65 104.365 117.721 104.084 117.861C103.809 117.996 103.606 118.169 103.478 118.38C103.354 118.591 103.293 118.813 103.293 119.048C103.293 119.224 103.322 119.382 103.381 119.522C103.445 119.657 103.557 119.783 103.715 119.9C103.873 120.012 104.096 120.117 104.383 120.217C104.67 120.316 105.036 120.416 105.481 120.516C106.261 120.691 106.902 120.902 107.406 121.148C107.91 121.395 108.285 121.696 108.531 122.054C108.777 122.411 108.9 122.845 108.9 123.354C108.9 123.771 108.812 124.151 108.637 124.497C108.467 124.843 108.218 125.142 107.89 125.394C107.567 125.64 107.181 125.833 106.729 125.974C106.284 126.108 105.783 126.176 105.227 126.176C104.389 126.176 103.68 126.026 103.1 125.728C102.52 125.429 102.08 125.042 101.781 124.567C101.482 124.093 101.333 123.592 101.333 123.064H102.968C102.991 123.51 103.12 123.864 103.354 124.128C103.589 124.386 103.876 124.57 104.216 124.682C104.556 124.787 104.893 124.84 105.227 124.84C105.672 124.84 106.044 124.781 106.343 124.664C106.647 124.547 106.879 124.386 107.037 124.181C107.195 123.976 107.274 123.741 107.274 123.478ZM114.982 126.176C114.32 126.176 113.72 126.064 113.181 125.842C112.647 125.613 112.188 125.294 111.801 124.884C111.42 124.474 111.127 123.987 110.922 123.425C110.717 122.862 110.614 122.247 110.614 121.579V121.21C110.614 120.437 110.729 119.748 110.957 119.145C111.186 118.535 111.496 118.02 111.889 117.598C112.281 117.176 112.727 116.856 113.225 116.64C113.723 116.423 114.238 116.314 114.771 116.314C115.451 116.314 116.037 116.432 116.529 116.666C117.027 116.9 117.435 117.229 117.751 117.65C118.067 118.066 118.302 118.559 118.454 119.127C118.606 119.689 118.683 120.305 118.683 120.973V121.702H111.581V120.375H117.057V120.252C117.033 119.83 116.945 119.42 116.793 119.021C116.646 118.623 116.412 118.295 116.09 118.037C115.768 117.779 115.328 117.65 114.771 117.65C114.402 117.65 114.062 117.729 113.752 117.888C113.441 118.04 113.175 118.269 112.952 118.573C112.729 118.878 112.557 119.25 112.434 119.689C112.311 120.129 112.249 120.636 112.249 121.21V121.579C112.249 122.03 112.311 122.455 112.434 122.854C112.562 123.246 112.747 123.592 112.987 123.891C113.233 124.189 113.529 124.424 113.875 124.594C114.227 124.764 114.625 124.849 115.07 124.849C115.645 124.849 116.131 124.731 116.529 124.497C116.928 124.263 117.276 123.949 117.575 123.557L118.56 124.339C118.354 124.649 118.094 124.945 117.777 125.227C117.461 125.508 117.071 125.736 116.608 125.912C116.151 126.088 115.609 126.176 114.982 126.176ZM122.348 112.5V126H120.713V112.5H122.348ZM126.725 112.5V126H125.09V112.5H126.725ZM131.102 116.49V126H129.467V116.49H131.102ZM129.344 113.968C129.344 113.704 129.423 113.481 129.581 113.3C129.745 113.118 129.985 113.027 130.302 113.027C130.612 113.027 130.85 113.118 131.014 113.3C131.184 113.481 131.269 113.704 131.269 113.968C131.269 114.22 131.184 114.437 131.014 114.618C130.85 114.794 130.612 114.882 130.302 114.882C129.985 114.882 129.745 114.794 129.581 114.618C129.423 114.437 129.344 114.22 129.344 113.968ZM135.338 118.521V126H133.712V116.49H135.25L135.338 118.521ZM134.951 120.885L134.274 120.858C134.28 120.208 134.377 119.607 134.564 119.057C134.752 118.5 135.016 118.017 135.355 117.606C135.695 117.196 136.1 116.88 136.568 116.657C137.043 116.429 137.567 116.314 138.142 116.314C138.61 116.314 139.032 116.379 139.407 116.508C139.782 116.631 140.102 116.83 140.365 117.105C140.635 117.381 140.84 117.738 140.98 118.178C141.121 118.611 141.191 119.142 141.191 119.769V126H139.557V119.751C139.557 119.253 139.483 118.854 139.337 118.556C139.19 118.251 138.977 118.031 138.695 117.896C138.414 117.756 138.068 117.686 137.658 117.686C137.254 117.686 136.885 117.771 136.551 117.94C136.223 118.11 135.938 118.345 135.698 118.644C135.464 118.942 135.279 119.285 135.145 119.672C135.016 120.053 134.951 120.457 134.951 120.885ZM149.822 116.49H151.299V125.798C151.299 126.636 151.129 127.351 150.789 127.942C150.449 128.534 149.975 128.982 149.365 129.287C148.762 129.598 148.064 129.753 147.273 129.753C146.945 129.753 146.559 129.7 146.113 129.595C145.674 129.495 145.24 129.322 144.812 129.076C144.391 128.836 144.036 128.511 143.749 128.101L144.602 127.134C145 127.614 145.416 127.948 145.85 128.136C146.289 128.323 146.723 128.417 147.15 128.417C147.666 128.417 148.111 128.32 148.486 128.127C148.861 127.934 149.151 127.646 149.356 127.266C149.567 126.891 149.673 126.428 149.673 125.877V118.582L149.822 116.49ZM143.274 121.351V121.166C143.274 120.439 143.359 119.78 143.529 119.188C143.705 118.591 143.954 118.078 144.276 117.65C144.604 117.223 145 116.895 145.463 116.666C145.926 116.432 146.447 116.314 147.027 116.314C147.625 116.314 148.146 116.42 148.592 116.631C149.043 116.836 149.424 117.138 149.734 117.536C150.051 117.929 150.3 118.403 150.481 118.96C150.663 119.517 150.789 120.146 150.859 120.85V121.658C150.795 122.355 150.669 122.982 150.481 123.539C150.3 124.096 150.051 124.57 149.734 124.963C149.424 125.355 149.043 125.657 148.592 125.868C148.141 126.073 147.613 126.176 147.01 126.176C146.441 126.176 145.926 126.056 145.463 125.815C145.006 125.575 144.613 125.238 144.285 124.805C143.957 124.371 143.705 123.861 143.529 123.275C143.359 122.684 143.274 122.042 143.274 121.351ZM144.9 121.166V121.351C144.9 121.825 144.947 122.271 145.041 122.687C145.141 123.103 145.29 123.469 145.489 123.785C145.694 124.102 145.955 124.351 146.271 124.532C146.588 124.708 146.966 124.796 147.405 124.796C147.944 124.796 148.39 124.682 148.741 124.453C149.093 124.225 149.371 123.923 149.576 123.548C149.787 123.173 149.951 122.766 150.068 122.326V120.208C150.004 119.886 149.904 119.575 149.77 119.276C149.641 118.972 149.471 118.702 149.26 118.468C149.055 118.228 148.8 118.037 148.495 117.896C148.19 117.756 147.833 117.686 147.423 117.686C146.978 117.686 146.594 117.779 146.271 117.967C145.955 118.148 145.694 118.4 145.489 118.723C145.29 119.039 145.141 119.408 145.041 119.83C144.947 120.246 144.9 120.691 144.9 121.166ZM155.245 124.066V125.376C155.245 125.909 155.11 126.472 154.841 127.063C154.571 127.661 154.193 128.159 153.707 128.558L152.784 127.916C152.972 127.658 153.13 127.395 153.259 127.125C153.388 126.861 153.484 126.586 153.549 126.299C153.619 126.018 153.654 125.719 153.654 125.402V124.066H155.245ZM170.16 124.62V126H163.384V124.62H170.16ZM163.727 113.203V126H162.03V113.203H163.727ZM169.264 118.705V120.085H163.384V118.705H169.264ZM170.072 113.203V114.592H163.384V113.203H170.072ZM173.113 116.49L175.196 119.953L177.306 116.49H179.213L176.102 121.184L179.31 126H177.429L175.231 122.432L173.034 126H171.145L174.344 121.184L171.241 116.49H173.113ZM182.57 118.318V129.656H180.936V116.49H182.43L182.57 118.318ZM188.978 121.166V121.351C188.978 122.042 188.896 122.684 188.731 123.275C188.567 123.861 188.327 124.371 188.011 124.805C187.7 125.238 187.316 125.575 186.859 125.815C186.402 126.056 185.878 126.176 185.286 126.176C184.683 126.176 184.149 126.076 183.687 125.877C183.224 125.678 182.831 125.388 182.509 125.007C182.187 124.626 181.929 124.169 181.735 123.636C181.548 123.103 181.419 122.502 181.349 121.834V120.85C181.419 120.146 181.551 119.517 181.744 118.96C181.938 118.403 182.192 117.929 182.509 117.536C182.831 117.138 183.221 116.836 183.678 116.631C184.135 116.42 184.662 116.314 185.26 116.314C185.857 116.314 186.388 116.432 186.851 116.666C187.313 116.895 187.703 117.223 188.02 117.65C188.336 118.078 188.573 118.591 188.731 119.188C188.896 119.78 188.978 120.439 188.978 121.166ZM187.343 121.351V121.166C187.343 120.691 187.293 120.246 187.193 119.83C187.094 119.408 186.938 119.039 186.728 118.723C186.522 118.4 186.259 118.148 185.937 117.967C185.614 117.779 185.23 117.686 184.785 117.686C184.375 117.686 184.018 117.756 183.713 117.896C183.414 118.037 183.159 118.228 182.948 118.468C182.737 118.702 182.564 118.972 182.43 119.276C182.301 119.575 182.204 119.886 182.14 120.208V122.484C182.257 122.895 182.421 123.281 182.632 123.645C182.843 124.002 183.124 124.292 183.476 124.515C183.827 124.731 184.27 124.84 184.803 124.84C185.242 124.84 185.62 124.749 185.937 124.567C186.259 124.38 186.522 124.125 186.728 123.803C186.938 123.48 187.094 123.111 187.193 122.695C187.293 122.273 187.343 121.825 187.343 121.351ZM194.998 126.176C194.336 126.176 193.735 126.064 193.196 125.842C192.663 125.613 192.203 125.294 191.816 124.884C191.436 124.474 191.143 123.987 190.938 123.425C190.732 122.862 190.63 122.247 190.63 121.579V121.21C190.63 120.437 190.744 119.748 190.973 119.145C191.201 118.535 191.512 118.02 191.904 117.598C192.297 117.176 192.742 116.856 193.24 116.64C193.738 116.423 194.254 116.314 194.787 116.314C195.467 116.314 196.053 116.432 196.545 116.666C197.043 116.9 197.45 117.229 197.767 117.65C198.083 118.066 198.317 118.559 198.47 119.127C198.622 119.689 198.698 120.305 198.698 120.973V121.702H191.597V120.375H197.072V120.252C197.049 119.83 196.961 119.42 196.809 119.021C196.662 118.623 196.428 118.295 196.105 118.037C195.783 117.779 195.344 117.65 194.787 117.65C194.418 117.65 194.078 117.729 193.768 117.888C193.457 118.04 193.19 118.269 192.968 118.573C192.745 118.878 192.572 119.25 192.449 119.689C192.326 120.129 192.265 120.636 192.265 121.21V121.579C192.265 122.03 192.326 122.455 192.449 122.854C192.578 123.246 192.763 123.592 193.003 123.891C193.249 124.189 193.545 124.424 193.891 124.594C194.242 124.764 194.641 124.849 195.086 124.849C195.66 124.849 196.146 124.731 196.545 124.497C196.943 124.263 197.292 123.949 197.591 123.557L198.575 124.339C198.37 124.649 198.109 124.945 197.793 125.227C197.477 125.508 197.087 125.736 196.624 125.912C196.167 126.088 195.625 126.176 194.998 126.176ZM202.223 117.984V126H200.597V116.49H202.179L202.223 117.984ZM205.193 116.438L205.185 117.949C205.05 117.92 204.921 117.902 204.798 117.896C204.681 117.885 204.546 117.879 204.394 117.879C204.019 117.879 203.688 117.938 203.4 118.055C203.113 118.172 202.87 118.336 202.671 118.547C202.472 118.758 202.313 119.01 202.196 119.303C202.085 119.59 202.012 119.906 201.977 120.252L201.52 120.516C201.52 119.941 201.575 119.402 201.687 118.898C201.804 118.395 201.982 117.949 202.223 117.562C202.463 117.17 202.768 116.865 203.137 116.648C203.512 116.426 203.957 116.314 204.473 116.314C204.59 116.314 204.725 116.329 204.877 116.358C205.029 116.382 205.135 116.408 205.193 116.438ZM211.117 116.49V117.738H205.976V116.49H211.117ZM207.716 114.179H209.342V123.645C209.342 123.967 209.392 124.21 209.491 124.374C209.591 124.538 209.72 124.646 209.878 124.699C210.036 124.752 210.206 124.778 210.388 124.778C210.522 124.778 210.663 124.767 210.81 124.743C210.962 124.714 211.076 124.69 211.152 124.673L211.161 126C211.032 126.041 210.862 126.079 210.651 126.114C210.446 126.155 210.197 126.176 209.904 126.176C209.506 126.176 209.14 126.097 208.806 125.938C208.472 125.78 208.205 125.517 208.006 125.147C207.812 124.772 207.716 124.269 207.716 123.636V114.179ZM38.5352 141.197V142.006C38.5352 142.967 38.415 143.828 38.1748 144.59C37.9346 145.352 37.5889 145.999 37.1377 146.532C36.6865 147.065 36.1445 147.473 35.5117 147.754C34.8848 148.035 34.1816 148.176 33.4023 148.176C32.6465 148.176 31.9521 148.035 31.3193 147.754C30.6924 147.473 30.1475 147.065 29.6846 146.532C29.2275 145.999 28.873 145.352 28.6211 144.59C28.3691 143.828 28.2432 142.967 28.2432 142.006V141.197C28.2432 140.236 28.3662 139.378 28.6123 138.622C28.8643 137.86 29.2188 137.213 29.6758 136.68C30.1328 136.141 30.6748 135.73 31.3018 135.449C31.9346 135.168 32.6289 135.027 33.3848 135.027C34.1641 135.027 34.8672 135.168 35.4941 135.449C36.127 135.73 36.6689 136.141 37.1201 136.68C37.5771 137.213 37.9258 137.86 38.166 138.622C38.4121 139.378 38.5352 140.236 38.5352 141.197ZM36.8564 142.006V141.18C36.8564 140.418 36.7773 139.744 36.6191 139.158C36.4668 138.572 36.2412 138.08 35.9424 137.682C35.6436 137.283 35.2773 136.981 34.8438 136.776C34.416 136.571 33.9297 136.469 33.3848 136.469C32.8574 136.469 32.3799 136.571 31.9521 136.776C31.5303 136.981 31.167 137.283 30.8623 137.682C30.5635 138.08 30.332 138.572 30.168 139.158C30.0039 139.744 29.9219 140.418 29.9219 141.18V142.006C29.9219 142.773 30.0039 143.453 30.168 144.045C30.332 144.631 30.5664 145.126 30.8711 145.53C31.1816 145.929 31.5479 146.23 31.9697 146.436C32.3975 146.641 32.875 146.743 33.4023 146.743C33.9531 146.743 34.4424 146.641 34.8701 146.436C35.2979 146.23 35.6582 145.929 35.9512 145.53C36.25 145.126 36.4756 144.631 36.6279 144.045C36.7803 143.453 36.8564 142.773 36.8564 142.006ZM42.4551 140.318V151.656H40.8203V138.49H42.3145L42.4551 140.318ZM48.8623 143.166V143.351C48.8623 144.042 48.7803 144.684 48.6162 145.275C48.4521 145.861 48.2119 146.371 47.8955 146.805C47.585 147.238 47.2012 147.575 46.7441 147.815C46.2871 148.056 45.7627 148.176 45.1709 148.176C44.5674 148.176 44.0342 148.076 43.5713 147.877C43.1084 147.678 42.7158 147.388 42.3936 147.007C42.0713 146.626 41.8135 146.169 41.6201 145.636C41.4326 145.103 41.3037 144.502 41.2334 143.834V142.85C41.3037 142.146 41.4355 141.517 41.6289 140.96C41.8223 140.403 42.0771 139.929 42.3936 139.536C42.7158 139.138 43.1055 138.836 43.5625 138.631C44.0195 138.42 44.5469 138.314 45.1445 138.314C45.7422 138.314 46.2725 138.432 46.7354 138.666C47.1982 138.895 47.5879 139.223 47.9043 139.65C48.2207 140.078 48.458 140.591 48.6162 141.188C48.7803 141.78 48.8623 142.439 48.8623 143.166ZM47.2275 143.351V143.166C47.2275 142.691 47.1777 142.246 47.0781 141.83C46.9785 141.408 46.8232 141.039 46.6123 140.723C46.4072 140.4 46.1436 140.148 45.8213 139.967C45.499 139.779 45.1152 139.686 44.6699 139.686C44.2598 139.686 43.9023 139.756 43.5977 139.896C43.2988 140.037 43.0439 140.228 42.833 140.468C42.6221 140.702 42.4492 140.972 42.3145 141.276C42.1855 141.575 42.0889 141.886 42.0244 142.208V144.484C42.1416 144.895 42.3057 145.281 42.5166 145.645C42.7275 146.002 43.0088 146.292 43.3604 146.515C43.7119 146.731 44.1543 146.84 44.6875 146.84C45.127 146.84 45.5049 146.749 45.8213 146.567C46.1436 146.38 46.4072 146.125 46.6123 145.803C46.8232 145.48 46.9785 145.111 47.0781 144.695C47.1777 144.273 47.2275 143.825 47.2275 143.351ZM52.7031 138.49V148H51.0684V138.49H52.7031ZM50.9453 135.968C50.9453 135.704 51.0244 135.481 51.1826 135.3C51.3467 135.118 51.5869 135.027 51.9033 135.027C52.2139 135.027 52.4512 135.118 52.6152 135.3C52.7852 135.481 52.8701 135.704 52.8701 135.968C52.8701 136.22 52.7852 136.437 52.6152 136.618C52.4512 136.794 52.2139 136.882 51.9033 136.882C51.5869 136.882 51.3467 136.794 51.1826 136.618C51.0244 136.437 50.9453 136.22 50.9453 135.968ZM56.9395 140.521V148H55.3135V138.49H56.8516L56.9395 140.521ZM56.5527 142.885L55.876 142.858C55.8818 142.208 55.9785 141.607 56.166 141.057C56.3535 140.5 56.6172 140.017 56.957 139.606C57.2969 139.196 57.7012 138.88 58.1699 138.657C58.6445 138.429 59.1689 138.314 59.7432 138.314C60.2119 138.314 60.6338 138.379 61.0088 138.508C61.3838 138.631 61.7031 138.83 61.9668 139.105C62.2363 139.381 62.4414 139.738 62.582 140.178C62.7227 140.611 62.793 141.142 62.793 141.769V148H61.1582V141.751C61.1582 141.253 61.085 140.854 60.9385 140.556C60.792 140.251 60.5781 140.031 60.2969 139.896C60.0156 139.756 59.6699 139.686 59.2598 139.686C58.8555 139.686 58.4863 139.771 58.1523 139.94C57.8242 140.11 57.54 140.345 57.2998 140.644C57.0654 140.942 56.8809 141.285 56.7461 141.672C56.6172 142.053 56.5527 142.457 56.5527 142.885ZM67.0293 138.49V148H65.3945V138.49H67.0293ZM65.2715 135.968C65.2715 135.704 65.3506 135.481 65.5088 135.3C65.6729 135.118 65.9131 135.027 66.2295 135.027C66.54 135.027 66.7773 135.118 66.9414 135.3C67.1113 135.481 67.1963 135.704 67.1963 135.968C67.1963 136.22 67.1113 136.437 66.9414 136.618C66.7773 136.794 66.54 136.882 66.2295 136.882C65.9131 136.882 65.6729 136.794 65.5088 136.618C65.3506 136.437 65.2715 136.22 65.2715 135.968ZM69.209 143.351V143.148C69.209 142.463 69.3086 141.827 69.5078 141.241C69.707 140.649 69.9941 140.137 70.3691 139.703C70.7441 139.264 71.1982 138.924 71.7314 138.684C72.2646 138.438 72.8623 138.314 73.5244 138.314C74.1924 138.314 74.793 138.438 75.3262 138.684C75.8652 138.924 76.3223 139.264 76.6973 139.703C77.0781 140.137 77.3682 140.649 77.5674 141.241C77.7666 141.827 77.8662 142.463 77.8662 143.148V143.351C77.8662 144.036 77.7666 144.672 77.5674 145.258C77.3682 145.844 77.0781 146.356 76.6973 146.796C76.3223 147.229 75.8682 147.569 75.335 147.815C74.8076 148.056 74.21 148.176 73.542 148.176C72.874 148.176 72.2734 148.056 71.7402 147.815C71.207 147.569 70.75 147.229 70.3691 146.796C69.9941 146.356 69.707 145.844 69.5078 145.258C69.3086 144.672 69.209 144.036 69.209 143.351ZM70.835 143.148V143.351C70.835 143.825 70.8906 144.273 71.002 144.695C71.1133 145.111 71.2803 145.48 71.5029 145.803C71.7314 146.125 72.0156 146.38 72.3555 146.567C72.6953 146.749 73.0908 146.84 73.542 146.84C73.9873 146.84 74.377 146.749 74.7109 146.567C75.0508 146.38 75.332 146.125 75.5547 145.803C75.7773 145.48 75.9443 145.111 76.0557 144.695C76.1729 144.273 76.2314 143.825 76.2314 143.351V143.148C76.2314 142.68 76.1729 142.237 76.0557 141.821C75.9443 141.399 75.7744 141.027 75.5459 140.705C75.3232 140.377 75.042 140.119 74.7021 139.932C74.3682 139.744 73.9756 139.65 73.5244 139.65C73.0791 139.65 72.6865 139.744 72.3467 139.932C72.0127 140.119 71.7314 140.377 71.5029 140.705C71.2803 141.027 71.1133 141.399 71.002 141.821C70.8906 142.237 70.835 142.68 70.835 143.148ZM81.5312 140.521V148H79.9053V138.49H81.4434L81.5312 140.521ZM81.1445 142.885L80.4678 142.858C80.4736 142.208 80.5703 141.607 80.7578 141.057C80.9453 140.5 81.209 140.017 81.5488 139.606C81.8887 139.196 82.293 138.88 82.7617 138.657C83.2363 138.429 83.7607 138.314 84.335 138.314C84.8037 138.314 85.2256 138.379 85.6006 138.508C85.9756 138.631 86.2949 138.83 86.5586 139.105C86.8281 139.381 87.0332 139.738 87.1738 140.178C87.3145 140.611 87.3848 141.142 87.3848 141.769V148H85.75V141.751C85.75 141.253 85.6768 140.854 85.5303 140.556C85.3838 140.251 85.1699 140.031 84.8887 139.896C84.6074 139.756 84.2617 139.686 83.8516 139.686C83.4473 139.686 83.0781 139.771 82.7441 139.94C82.416 140.11 82.1318 140.345 81.8916 140.644C81.6572 140.942 81.4727 141.285 81.3379 141.672C81.209 142.053 81.1445 142.457 81.1445 142.885ZM94.3105 134.5H95.9453V146.154L95.8047 148H94.3105V134.5ZM102.37 143.166V143.351C102.37 144.042 102.288 144.684 102.124 145.275C101.96 145.861 101.72 146.371 101.403 146.805C101.087 147.238 100.7 147.575 100.243 147.815C99.7861 148.056 99.2617 148.176 98.6699 148.176C98.0664 148.176 97.5361 148.073 97.0791 147.868C96.6279 147.657 96.2471 147.355 95.9365 146.963C95.626 146.57 95.377 146.096 95.1895 145.539C95.0078 144.982 94.8818 144.355 94.8115 143.658V142.85C94.8818 142.146 95.0078 141.517 95.1895 140.96C95.377 140.403 95.626 139.929 95.9365 139.536C96.2471 139.138 96.6279 138.836 97.0791 138.631C97.5303 138.42 98.0547 138.314 98.6523 138.314C99.25 138.314 99.7803 138.432 100.243 138.666C100.706 138.895 101.093 139.223 101.403 139.65C101.72 140.078 101.96 140.591 102.124 141.188C102.288 141.78 102.37 142.439 102.37 143.166ZM100.735 143.351V143.166C100.735 142.691 100.691 142.246 100.604 141.83C100.516 141.408 100.375 141.039 100.182 140.723C99.9883 140.4 99.7334 140.148 99.417 139.967C99.1006 139.779 98.7109 139.686 98.248 139.686C97.8379 139.686 97.4805 139.756 97.1758 139.896C96.877 140.037 96.6221 140.228 96.4111 140.468C96.2002 140.702 96.0273 140.972 95.8926 141.276C95.7637 141.575 95.667 141.886 95.6025 142.208V144.326C95.6963 144.736 95.8486 145.132 96.0596 145.513C96.2764 145.888 96.5635 146.195 96.9209 146.436C97.2842 146.676 97.7324 146.796 98.2656 146.796C98.7051 146.796 99.0801 146.708 99.3906 146.532C99.707 146.351 99.9619 146.102 100.155 145.785C100.354 145.469 100.501 145.103 100.595 144.687C100.688 144.271 100.735 143.825 100.735 143.351ZM106.993 147.016L109.639 138.49H111.379L107.564 149.468C107.477 149.702 107.359 149.954 107.213 150.224C107.072 150.499 106.891 150.76 106.668 151.006C106.445 151.252 106.176 151.451 105.859 151.604C105.549 151.762 105.177 151.841 104.743 151.841C104.614 151.841 104.45 151.823 104.251 151.788C104.052 151.753 103.911 151.724 103.829 151.7L103.82 150.382C103.867 150.388 103.94 150.394 104.04 150.399C104.146 150.411 104.219 150.417 104.26 150.417C104.629 150.417 104.942 150.367 105.2 150.268C105.458 150.174 105.675 150.013 105.851 149.784C106.032 149.562 106.188 149.254 106.316 148.861L106.993 147.016ZM105.051 138.49L107.521 145.873L107.942 147.587L106.773 148.185L103.275 138.49H105.051ZM127.41 141.197V142.006C127.41 142.967 127.29 143.828 127.05 144.59C126.81 145.352 126.464 145.999 126.013 146.532C125.562 147.065 125.02 147.473 124.387 147.754C123.76 148.035 123.057 148.176 122.277 148.176C121.521 148.176 120.827 148.035 120.194 147.754C119.567 147.473 119.022 147.065 118.56 146.532C118.103 145.999 117.748 145.352 117.496 144.59C117.244 143.828 117.118 142.967 117.118 142.006V141.197C117.118 140.236 117.241 139.378 117.487 138.622C117.739 137.86 118.094 137.213 118.551 136.68C119.008 136.141 119.55 135.73 120.177 135.449C120.81 135.168 121.504 135.027 122.26 135.027C123.039 135.027 123.742 135.168 124.369 135.449C125.002 135.73 125.544 136.141 125.995 136.68C126.452 137.213 126.801 137.86 127.041 138.622C127.287 139.378 127.41 140.236 127.41 141.197ZM125.731 142.006V141.18C125.731 140.418 125.652 139.744 125.494 139.158C125.342 138.572 125.116 138.08 124.817 137.682C124.519 137.283 124.152 136.981 123.719 136.776C123.291 136.571 122.805 136.469 122.26 136.469C121.732 136.469 121.255 136.571 120.827 136.776C120.405 136.981 120.042 137.283 119.737 137.682C119.438 138.08 119.207 138.572 119.043 139.158C118.879 139.744 118.797 140.418 118.797 141.18V142.006C118.797 142.773 118.879 143.453 119.043 144.045C119.207 144.631 119.441 145.126 119.746 145.53C120.057 145.929 120.423 146.23 120.845 146.436C121.272 146.641 121.75 146.743 122.277 146.743C122.828 146.743 123.317 146.641 123.745 146.436C124.173 146.23 124.533 145.929 124.826 145.53C125.125 145.126 125.351 144.631 125.503 144.045C125.655 143.453 125.731 142.773 125.731 142.006ZM135.522 145.803V138.49H137.157V148H135.602L135.522 145.803ZM135.83 143.799L136.507 143.781C136.507 144.414 136.439 145 136.305 145.539C136.176 146.072 135.965 146.535 135.672 146.928C135.379 147.32 134.995 147.628 134.521 147.851C134.046 148.067 133.469 148.176 132.789 148.176C132.326 148.176 131.901 148.108 131.515 147.974C131.134 147.839 130.806 147.631 130.53 147.35C130.255 147.068 130.041 146.702 129.889 146.251C129.742 145.8 129.669 145.258 129.669 144.625V138.49H131.295V144.643C131.295 145.07 131.342 145.425 131.436 145.706C131.535 145.981 131.667 146.201 131.831 146.365C132.001 146.523 132.188 146.635 132.394 146.699C132.604 146.764 132.821 146.796 133.044 146.796C133.735 146.796 134.283 146.664 134.688 146.4C135.092 146.131 135.382 145.771 135.558 145.319C135.739 144.862 135.83 144.355 135.83 143.799ZM141.262 139.984V148H139.636V138.49H141.218L141.262 139.984ZM144.232 138.438L144.224 139.949C144.089 139.92 143.96 139.902 143.837 139.896C143.72 139.885 143.585 139.879 143.433 139.879C143.058 139.879 142.727 139.938 142.439 140.055C142.152 140.172 141.909 140.336 141.71 140.547C141.511 140.758 141.353 141.01 141.235 141.303C141.124 141.59 141.051 141.906 141.016 142.252L140.559 142.516C140.559 141.941 140.614 141.402 140.726 140.898C140.843 140.395 141.021 139.949 141.262 139.562C141.502 139.17 141.807 138.865 142.176 138.648C142.551 138.426 142.996 138.314 143.512 138.314C143.629 138.314 143.764 138.329 143.916 138.358C144.068 138.382 144.174 138.408 144.232 138.438ZM158.207 146.62V148H151.809V146.62H158.207ZM152.143 135.203V148H150.446V135.203H152.143ZM163.85 148.176C163.188 148.176 162.587 148.064 162.048 147.842C161.515 147.613 161.055 147.294 160.668 146.884C160.287 146.474 159.994 145.987 159.789 145.425C159.584 144.862 159.481 144.247 159.481 143.579V143.21C159.481 142.437 159.596 141.748 159.824 141.145C160.053 140.535 160.363 140.02 160.756 139.598C161.148 139.176 161.594 138.856 162.092 138.64C162.59 138.423 163.105 138.314 163.639 138.314C164.318 138.314 164.904 138.432 165.396 138.666C165.895 138.9 166.302 139.229 166.618 139.65C166.935 140.066 167.169 140.559 167.321 141.127C167.474 141.689 167.55 142.305 167.55 142.973V143.702H160.448V142.375H165.924V142.252C165.9 141.83 165.812 141.42 165.66 141.021C165.514 140.623 165.279 140.295 164.957 140.037C164.635 139.779 164.195 139.65 163.639 139.65C163.27 139.65 162.93 139.729 162.619 139.888C162.309 140.04 162.042 140.269 161.819 140.573C161.597 140.878 161.424 141.25 161.301 141.689C161.178 142.129 161.116 142.636 161.116 143.21V143.579C161.116 144.03 161.178 144.455 161.301 144.854C161.43 145.246 161.614 145.592 161.854 145.891C162.101 146.189 162.396 146.424 162.742 146.594C163.094 146.764 163.492 146.849 163.938 146.849C164.512 146.849 164.998 146.731 165.396 146.497C165.795 146.263 166.144 145.949 166.442 145.557L167.427 146.339C167.222 146.649 166.961 146.945 166.645 147.227C166.328 147.508 165.938 147.736 165.476 147.912C165.019 148.088 164.477 148.176 163.85 148.176ZM175.442 146.154V134.5H177.077V148H175.583L175.442 146.154ZM169.044 143.351V143.166C169.044 142.439 169.132 141.78 169.308 141.188C169.489 140.591 169.744 140.078 170.072 139.65C170.406 139.223 170.802 138.895 171.259 138.666C171.722 138.432 172.237 138.314 172.806 138.314C173.403 138.314 173.925 138.42 174.37 138.631C174.821 138.836 175.202 139.138 175.513 139.536C175.829 139.929 176.078 140.403 176.26 140.96C176.441 141.517 176.567 142.146 176.638 142.85V143.658C176.573 144.355 176.447 144.982 176.26 145.539C176.078 146.096 175.829 146.57 175.513 146.963C175.202 147.355 174.821 147.657 174.37 147.868C173.919 148.073 173.392 148.176 172.788 148.176C172.231 148.176 171.722 148.056 171.259 147.815C170.802 147.575 170.406 147.238 170.072 146.805C169.744 146.371 169.489 145.861 169.308 145.275C169.132 144.684 169.044 144.042 169.044 143.351ZM170.679 143.166V143.351C170.679 143.825 170.726 144.271 170.819 144.687C170.919 145.103 171.071 145.469 171.276 145.785C171.481 146.102 171.742 146.351 172.059 146.532C172.375 146.708 172.753 146.796 173.192 146.796C173.731 146.796 174.174 146.682 174.52 146.453C174.871 146.225 175.152 145.923 175.363 145.548C175.574 145.173 175.738 144.766 175.855 144.326V142.208C175.785 141.886 175.683 141.575 175.548 141.276C175.419 140.972 175.249 140.702 175.038 140.468C174.833 140.228 174.578 140.037 174.273 139.896C173.975 139.756 173.62 139.686 173.21 139.686C172.765 139.686 172.381 139.779 172.059 139.967C171.742 140.148 171.481 140.4 171.276 140.723C171.071 141.039 170.919 141.408 170.819 141.83C170.726 142.246 170.679 142.691 170.679 143.166ZM181.375 138.49V148H179.74V138.49H181.375ZM179.617 135.968C179.617 135.704 179.696 135.481 179.854 135.3C180.019 135.118 180.259 135.027 180.575 135.027C180.886 135.027 181.123 135.118 181.287 135.3C181.457 135.481 181.542 135.704 181.542 135.968C181.542 136.22 181.457 136.437 181.287 136.618C181.123 136.794 180.886 136.882 180.575 136.882C180.259 136.882 180.019 136.794 179.854 136.618C179.696 136.437 179.617 136.22 179.617 135.968ZM185.611 140.521V148H183.985V138.49H185.523L185.611 140.521ZM185.225 142.885L184.548 142.858C184.554 142.208 184.65 141.607 184.838 141.057C185.025 140.5 185.289 140.017 185.629 139.606C185.969 139.196 186.373 138.88 186.842 138.657C187.316 138.429 187.841 138.314 188.415 138.314C188.884 138.314 189.306 138.379 189.681 138.508C190.056 138.631 190.375 138.83 190.639 139.105C190.908 139.381 191.113 139.738 191.254 140.178C191.395 140.611 191.465 141.142 191.465 141.769V148H189.83V141.751C189.83 141.253 189.757 140.854 189.61 140.556C189.464 140.251 189.25 140.031 188.969 139.896C188.688 139.756 188.342 139.686 187.932 139.686C187.527 139.686 187.158 139.771 186.824 139.94C186.496 140.11 186.212 140.345 185.972 140.644C185.737 140.942 185.553 141.285 185.418 141.672C185.289 142.053 185.225 142.457 185.225 142.885ZM200.096 138.49H201.572V147.798C201.572 148.636 201.402 149.351 201.062 149.942C200.723 150.534 200.248 150.982 199.639 151.287C199.035 151.598 198.338 151.753 197.547 151.753C197.219 151.753 196.832 151.7 196.387 151.595C195.947 151.495 195.514 151.322 195.086 151.076C194.664 150.836 194.31 150.511 194.022 150.101L194.875 149.134C195.273 149.614 195.689 149.948 196.123 150.136C196.562 150.323 196.996 150.417 197.424 150.417C197.939 150.417 198.385 150.32 198.76 150.127C199.135 149.934 199.425 149.646 199.63 149.266C199.841 148.891 199.946 148.428 199.946 147.877V140.582L200.096 138.49ZM193.548 143.351V143.166C193.548 142.439 193.633 141.78 193.803 141.188C193.979 140.591 194.228 140.078 194.55 139.65C194.878 139.223 195.273 138.895 195.736 138.666C196.199 138.432 196.721 138.314 197.301 138.314C197.898 138.314 198.42 138.42 198.865 138.631C199.316 138.836 199.697 139.138 200.008 139.536C200.324 139.929 200.573 140.403 200.755 140.96C200.937 141.517 201.062 142.146 201.133 142.85V143.658C201.068 144.355 200.942 144.982 200.755 145.539C200.573 146.096 200.324 146.57 200.008 146.963C199.697 147.355 199.316 147.657 198.865 147.868C198.414 148.073 197.887 148.176 197.283 148.176C196.715 148.176 196.199 148.056 195.736 147.815C195.279 147.575 194.887 147.238 194.559 146.805C194.23 146.371 193.979 145.861 193.803 145.275C193.633 144.684 193.548 144.042 193.548 143.351ZM195.174 143.166V143.351C195.174 143.825 195.221 144.271 195.314 144.687C195.414 145.103 195.563 145.469 195.763 145.785C195.968 146.102 196.229 146.351 196.545 146.532C196.861 146.708 197.239 146.796 197.679 146.796C198.218 146.796 198.663 146.682 199.015 146.453C199.366 146.225 199.645 145.923 199.85 145.548C200.061 145.173 200.225 144.766 200.342 144.326V142.208C200.277 141.886 200.178 141.575 200.043 141.276C199.914 140.972 199.744 140.702 199.533 140.468C199.328 140.228 199.073 140.037 198.769 139.896C198.464 139.756 198.106 139.686 197.696 139.686C197.251 139.686 196.867 139.779 196.545 139.967C196.229 140.148 195.968 140.4 195.763 140.723C195.563 141.039 195.414 141.408 195.314 141.83C195.221 142.246 195.174 142.691 195.174 143.166ZM93.1592 170H90.4873L90.5049 168.62H93.1592C94.0732 168.62 94.835 168.43 95.4443 168.049C96.0537 167.662 96.5107 167.123 96.8154 166.432C97.126 165.734 97.2812 164.92 97.2812 163.988V163.206C97.2812 162.474 97.1934 161.823 97.0176 161.255C96.8418 160.681 96.584 160.197 96.2441 159.805C95.9043 159.406 95.4883 159.104 94.9961 158.899C94.5098 158.694 93.9502 158.592 93.3174 158.592H90.4346V157.203H93.3174C94.1553 157.203 94.9199 157.344 95.6113 157.625C96.3027 157.9 96.8975 158.302 97.3955 158.829C97.8994 159.351 98.2861 159.983 98.5557 160.728C98.8252 161.466 98.96 162.298 98.96 163.224V163.988C98.96 164.914 98.8252 165.749 98.5557 166.493C98.2861 167.231 97.8965 167.861 97.3867 168.383C96.8828 168.904 96.2734 169.306 95.5586 169.587C94.8496 169.862 94.0498 170 93.1592 170ZM91.3926 157.203V170H89.6963V157.203H91.3926ZM100.832 165.351V165.148C100.832 164.463 100.932 163.827 101.131 163.241C101.33 162.649 101.617 162.137 101.992 161.703C102.367 161.264 102.821 160.924 103.354 160.684C103.888 160.438 104.485 160.314 105.147 160.314C105.815 160.314 106.416 160.438 106.949 160.684C107.488 160.924 107.945 161.264 108.32 161.703C108.701 162.137 108.991 162.649 109.19 163.241C109.39 163.827 109.489 164.463 109.489 165.148V165.351C109.489 166.036 109.39 166.672 109.19 167.258C108.991 167.844 108.701 168.356 108.32 168.796C107.945 169.229 107.491 169.569 106.958 169.815C106.431 170.056 105.833 170.176 105.165 170.176C104.497 170.176 103.896 170.056 103.363 169.815C102.83 169.569 102.373 169.229 101.992 168.796C101.617 168.356 101.33 167.844 101.131 167.258C100.932 166.672 100.832 166.036 100.832 165.351ZM102.458 165.148V165.351C102.458 165.825 102.514 166.273 102.625 166.695C102.736 167.111 102.903 167.48 103.126 167.803C103.354 168.125 103.639 168.38 103.979 168.567C104.318 168.749 104.714 168.84 105.165 168.84C105.61 168.84 106 168.749 106.334 168.567C106.674 168.38 106.955 168.125 107.178 167.803C107.4 167.48 107.567 167.111 107.679 166.695C107.796 166.273 107.854 165.825 107.854 165.351V165.148C107.854 164.68 107.796 164.237 107.679 163.821C107.567 163.399 107.397 163.027 107.169 162.705C106.946 162.377 106.665 162.119 106.325 161.932C105.991 161.744 105.599 161.65 105.147 161.65C104.702 161.65 104.31 161.744 103.97 161.932C103.636 162.119 103.354 162.377 103.126 162.705C102.903 163.027 102.736 163.399 102.625 163.821C102.514 164.237 102.458 164.68 102.458 165.148ZM115.334 168.84C115.721 168.84 116.078 168.761 116.406 168.603C116.734 168.444 117.004 168.228 117.215 167.952C117.426 167.671 117.546 167.352 117.575 166.994H119.122C119.093 167.557 118.902 168.081 118.551 168.567C118.205 169.048 117.751 169.438 117.188 169.736C116.626 170.029 116.008 170.176 115.334 170.176C114.619 170.176 113.995 170.05 113.462 169.798C112.935 169.546 112.495 169.2 112.144 168.761C111.798 168.321 111.537 167.817 111.361 167.249C111.191 166.675 111.106 166.068 111.106 165.43V165.061C111.106 164.422 111.191 163.818 111.361 163.25C111.537 162.676 111.798 162.169 112.144 161.729C112.495 161.29 112.935 160.944 113.462 160.692C113.995 160.44 114.619 160.314 115.334 160.314C116.078 160.314 116.729 160.467 117.285 160.771C117.842 161.07 118.278 161.48 118.595 162.002C118.917 162.518 119.093 163.104 119.122 163.76H117.575C117.546 163.367 117.435 163.013 117.241 162.696C117.054 162.38 116.796 162.128 116.468 161.94C116.146 161.747 115.768 161.65 115.334 161.65C114.836 161.65 114.417 161.75 114.077 161.949C113.743 162.143 113.477 162.406 113.277 162.74C113.084 163.068 112.943 163.435 112.855 163.839C112.773 164.237 112.732 164.645 112.732 165.061V165.43C112.732 165.846 112.773 166.256 112.855 166.66C112.938 167.064 113.075 167.431 113.269 167.759C113.468 168.087 113.734 168.351 114.068 168.55C114.408 168.743 114.83 168.84 115.334 168.84ZM124.932 160.49V161.738H119.79V160.49H124.932ZM121.53 158.179H123.156V167.645C123.156 167.967 123.206 168.21 123.306 168.374C123.405 168.538 123.534 168.646 123.692 168.699C123.851 168.752 124.021 168.778 124.202 168.778C124.337 168.778 124.478 168.767 124.624 168.743C124.776 168.714 124.891 168.69 124.967 168.673L124.976 170C124.847 170.041 124.677 170.079 124.466 170.114C124.261 170.155 124.012 170.176 123.719 170.176C123.32 170.176 122.954 170.097 122.62 169.938C122.286 169.78 122.02 169.517 121.82 169.147C121.627 168.772 121.53 168.269 121.53 167.636V158.179ZM126.232 165.351V165.148C126.232 164.463 126.332 163.827 126.531 163.241C126.73 162.649 127.018 162.137 127.393 161.703C127.768 161.264 128.222 160.924 128.755 160.684C129.288 160.438 129.886 160.314 130.548 160.314C131.216 160.314 131.816 160.438 132.35 160.684C132.889 160.924 133.346 161.264 133.721 161.703C134.102 162.137 134.392 162.649 134.591 163.241C134.79 163.827 134.89 164.463 134.89 165.148V165.351C134.89 166.036 134.79 166.672 134.591 167.258C134.392 167.844 134.102 168.356 133.721 168.796C133.346 169.229 132.892 169.569 132.358 169.815C131.831 170.056 131.233 170.176 130.565 170.176C129.897 170.176 129.297 170.056 128.764 169.815C128.23 169.569 127.773 169.229 127.393 168.796C127.018 168.356 126.73 167.844 126.531 167.258C126.332 166.672 126.232 166.036 126.232 165.351ZM127.858 165.148V165.351C127.858 165.825 127.914 166.273 128.025 166.695C128.137 167.111 128.304 167.48 128.526 167.803C128.755 168.125 129.039 168.38 129.379 168.567C129.719 168.749 130.114 168.84 130.565 168.84C131.011 168.84 131.4 168.749 131.734 168.567C132.074 168.38 132.355 168.125 132.578 167.803C132.801 167.48 132.968 167.111 133.079 166.695C133.196 166.273 133.255 165.825 133.255 165.351V165.148C133.255 164.68 133.196 164.237 133.079 163.821C132.968 163.399 132.798 163.027 132.569 162.705C132.347 162.377 132.065 162.119 131.726 161.932C131.392 161.744 130.999 161.65 130.548 161.65C130.103 161.65 129.71 161.744 129.37 161.932C129.036 162.119 128.755 162.377 128.526 162.705C128.304 163.027 128.137 163.399 128.025 163.821C127.914 164.237 127.858 164.68 127.858 165.148ZM138.555 161.984V170H136.929V160.49H138.511L138.555 161.984ZM141.525 160.438L141.517 161.949C141.382 161.92 141.253 161.902 141.13 161.896C141.013 161.885 140.878 161.879 140.726 161.879C140.351 161.879 140.02 161.938 139.732 162.055C139.445 162.172 139.202 162.336 139.003 162.547C138.804 162.758 138.646 163.01 138.528 163.303C138.417 163.59 138.344 163.906 138.309 164.252L137.852 164.516C137.852 163.941 137.907 163.402 138.019 162.898C138.136 162.395 138.314 161.949 138.555 161.562C138.795 161.17 139.1 160.865 139.469 160.648C139.844 160.426 140.289 160.314 140.805 160.314C140.922 160.314 141.057 160.329 141.209 160.358C141.361 160.382 141.467 160.408 141.525 160.438Z" fill="#0F0F0F"/>
<rect x="73" y="15" width="84" height="77" rx="5" fill="#E0F0FF" fill-opacity="0.5"/>
<path d="M123.624 40.7943C123.624 35.9451 119.679 32 114.83 32C109.981 32 106.035 35.9451 106.035 40.7943C106.035 45.6435 109.981 49.5887 114.83 49.5887C119.679 49.5887 123.624 45.6435 123.624 40.7943ZM114.83 49.5887C106.101 49.5887 99 56.6899 99 65.4185V67.0669C99 67.5669 99.2127 68.0432 99.5851 68.3768C103.869 72.2158 109.284 74.3301 114.83 74.3301C120.376 74.3301 125.79 72.2158 130.074 68.3768C130.259 68.2118 130.406 68.0099 130.507 67.7842C130.608 67.5585 130.66 67.3141 130.66 67.0669V65.4185C130.66 56.6899 123.558 49.5887 114.83 49.5887Z" fill="url(#paint0_linear_27_198)"/>
<rect x="0.5" y="0.5" width="229" height="189" rx="9.5" stroke="url(#paint1_linear_27_198)"/>
<defs>
<linearGradient id="paint0_linear_27_198" x1="108.84" y1="68.6928" x2="135.07" y2="41.933" gradientUnits="userSpaceOnUse">
<stop offset="0.33" stop-color="#52C5DC"/>
<stop offset="0.63" stop-color="#3C99D4"/>
<stop offset="0.895" stop-color="#3E7ABC"/>
</linearGradient>
<linearGradient id="paint1_linear_27_198" x1="115" y1="0" x2="115" y2="190" gradientUnits="userSpaceOnUse">
<stop offset="0.151042" stop-color="#FAFAFA"/>
<stop offset="0.864583" stop-color="#0457A7"/>
</linearGradient>
</defs>
</svg>
