<svg width="113" height="109" viewBox="0 0 113 109" fill="none" xmlns="http://www.w3.org/2000/svg">
<rect x="0.499512" y="0.5" width="112" height="108" rx="6.5" fill="white" stroke="url(#paint0_linear_20_462)"/>
<path d="M78.8714 34.8656C71.1959 34.8382 63.7226 32.4018 57.5058 27.9C57.3545 27.8036 57.1789 27.7524 56.9996 27.7524C56.8202 27.7524 56.6446 27.8036 56.4933 27.9L54.1496 29.4094C48.449 32.9826 41.8555 34.8739 35.1277 34.8656C34.8793 34.8664 34.6412 34.9654 34.4656 35.141C34.2899 35.3167 34.1909 35.5547 34.1902 35.8031V58.5938C34.1902 65.4281 38.6527 71.7656 45.8433 75.1219L56.6058 80.1656C56.7296 80.2212 56.8638 80.25 56.9996 80.25C57.1353 80.25 57.2695 80.2212 57.3933 80.1656L68.1558 75.1219C75.3464 71.7656 79.8089 65.4281 79.8089 58.5938V35.8031C79.8082 35.5547 79.7092 35.3167 79.5335 35.141C79.3579 34.9654 79.1199 34.8664 78.8714 34.8656ZM76.1902 57.8344C76.1892 63.9694 71.9752 69.1875 66.3746 71.775C64.1264 72.8241 59.6442 74.9222 57.3933 75.975C57.2714 76.0374 57.1365 76.0699 56.9996 76.0699C56.8626 76.0699 56.7277 76.0374 56.6058 75.975L52.0402 73.8375C52.0214 73.8375 52.0121 73.8281 51.9933 73.8188L47.6246 71.775C42.0249 69.1894 37.8089 63.9684 37.8089 57.8344V38.8125C37.8082 38.69 37.8316 38.5685 37.8779 38.455C37.9242 38.3416 37.9923 38.2383 38.0786 38.1513C38.1648 38.0642 38.2673 37.995 38.3803 37.9476C38.4933 37.9001 38.6145 37.8755 38.7371 37.875C44.3237 37.8811 49.7989 36.3117 54.5339 33.3469L56.4933 32.0813C56.6445 31.9848 56.8202 31.9335 56.9996 31.9335C57.1789 31.9335 57.3546 31.9848 57.5058 32.0813C62.6702 35.8274 68.8821 37.8543 75.2621 37.875C75.3846 37.8756 75.5057 37.9004 75.6187 37.9478C75.7316 37.9952 75.8341 38.0645 75.9203 38.1515C76.0065 38.2386 76.0747 38.3418 76.121 38.4552C76.1673 38.5686 76.1908 38.69 76.1902 38.8125V57.8344ZM71.1464 60.8438V65.925C69.2002 68.4338 65.5674 70.17 62.5589 71.4938V69.0563C62.5608 67.5983 61.9842 66.1991 60.9558 65.1656C61.539 64.3145 61.8336 63.2987 61.7965 62.2676C61.7594 61.2365 61.3924 60.2445 60.7496 59.4375C61.012 58.4928 61.5312 57.6393 62.2496 56.9719C63.3001 57.7088 64.5536 58.101 65.8368 58.0942C67.1199 58.0875 68.3693 57.6822 69.4121 56.9344C69.9598 57.4274 70.3973 58.0305 70.6962 58.7041C70.995 59.3777 71.1485 60.1068 71.1464 60.8438ZM59.6152 66.4688C61.1367 67.7925 60.5949 70.6031 60.6839 72.3656L56.9996 74.0906L53.3152 72.3656C53.4089 70.6031 52.8577 67.8403 54.3652 66.5063C55.1426 67.0064 56.0471 67.2732 56.9714 67.275C57.9137 67.2784 58.8351 66.9974 59.6152 66.4688ZM53.2496 59.3625C52.5299 60.2257 52.1352 61.3136 52.1339 62.4375C52.1328 63.4286 52.4408 64.3954 53.0152 65.2031C52.0067 66.2323 51.4413 67.6154 51.4402 69.0563V71.4938C48.4355 70.1756 44.7952 68.43 42.8527 65.925V60.8438C42.8529 60.1153 43.0047 59.3949 43.2985 58.7283C43.5922 58.0617 44.0215 57.4636 44.5589 56.9719C45.608 57.7068 46.8591 58.0987 48.14 58.0937C49.4209 58.0887 50.6688 57.6869 51.7121 56.9438C52.3446 57.6671 52.8631 58.4827 53.2496 59.3625ZM74.3152 39.7313V57.8344C74.3109 59.6867 73.8676 61.5116 73.0214 63.1594V60.8438C73.0258 59.8637 72.8264 58.8933 72.4358 57.9944C72.0452 57.0955 71.4721 56.2875 70.7527 55.6219C73.8474 51.735 70.8108 45.5972 65.8027 45.7125C60.7702 45.5981 57.7308 51.8016 60.8996 55.6781C60.1652 56.3775 59.587 57.2241 59.2027 58.1625C58.5229 57.804 57.7668 57.6142 56.9983 57.6094C56.2298 57.6045 55.4714 57.7845 54.7871 58.1344C54.4067 57.179 53.8135 56.323 53.0527 55.6313C56.1586 51.7434 53.123 45.6 48.1121 45.7125C43.0702 45.5981 40.0552 51.7875 43.1996 55.6688C42.4984 56.3361 41.9399 57.1389 41.558 58.0284C41.1761 58.9179 40.9786 59.8757 40.9777 60.8438V63.1594C40.1316 61.5116 39.6882 59.6867 39.6839 57.8344V39.7313C45.8931 39.5472 51.9125 37.5494 56.9996 33.9844C62.0865 37.5496 68.106 39.5474 74.3152 39.7313ZM58.9964 60.2906C61.7705 63.0141 57.8396 67.2066 54.9558 64.5938C52.1377 61.8816 56.1071 57.6703 58.9964 60.2906ZM48.1121 47.5875C48.8114 47.5871 49.5003 47.7565 50.1197 48.0812C50.7391 48.4058 51.2705 48.8759 51.6681 49.4512C52.0657 50.0265 52.3177 50.6897 52.4025 51.3839C52.4873 52.078 52.4022 52.7824 52.1547 53.4364C51.9072 54.0905 51.5046 54.6747 50.9816 55.1388C50.4585 55.603 49.8305 55.9332 49.1517 56.1011C48.4728 56.269 47.7634 56.2696 47.0842 56.1029C46.4051 55.9361 45.7766 55.607 45.2527 55.1438C44.6008 54.5607 44.1409 53.794 43.9333 52.9445C43.7257 52.0949 43.7802 51.2025 44.0897 50.3845C44.3993 49.5666 44.9492 48.8616 45.6672 48.3623C46.3852 47.8631 47.2376 47.5929 48.1121 47.5875ZM65.8027 47.5875C66.502 47.5871 67.1909 47.7565 67.8103 48.0812C68.4298 48.4058 68.9611 48.8759 69.3587 49.4512C69.7563 50.0265 70.0083 50.6897 70.0931 51.3839C70.1779 52.078 70.0929 52.7824 69.8454 53.4364C69.5979 54.0905 69.1953 54.6747 68.6722 55.1388C68.1491 55.603 67.5212 55.9332 66.8423 56.1011C66.1635 56.269 65.454 56.2696 64.7748 56.1029C64.0957 55.9361 63.4672 55.607 62.9433 55.1438C62.288 54.5623 61.8248 53.7954 61.6152 52.9447C61.4055 52.0941 61.4593 51.1998 61.7693 50.3804C62.0794 49.561 62.6312 48.8551 63.3514 48.3564C64.0717 47.8576 64.9266 47.5895 65.8027 47.5875Z" fill="url(#paint1_linear_20_462)"/>
<defs>
<linearGradient id="paint0_linear_20_462" x1="56.4995" y1="0" x2="56.4995" y2="109" gradientUnits="userSpaceOnUse">
<stop stop-color="#0675BC"/>
<stop offset="1" stop-color="#0675BC" stop-opacity="0"/>
</linearGradient>
<linearGradient id="paint1_linear_20_462" x1="48.3693" y1="73.2587" x2="80.4404" y2="35.2432" gradientUnits="userSpaceOnUse">
<stop offset="0.33" stop-color="#52C5DC"/>
<stop offset="0.63" stop-color="#3C99D4"/>
<stop offset="0.895" stop-color="#3E7ABC"/>
</linearGradient>
</defs>
</svg>
