<svg width="70" height="70" viewBox="0 0 70 70" fill="none" xmlns="http://www.w3.org/2000/svg">
<path d="M36.4962 38.2083C38.8817 37.3173 41.1002 36.031 43.0587 34.4036L46.0556 31.8894L43.6202 35.1181C43.443 35.355 43.3601 35.6493 43.3877 35.9438C43.4152 36.2384 43.5513 36.5122 43.7693 36.7121C43.9874 36.912 44.272 37.0237 44.5678 37.0256C44.8636 37.0275 45.1496 36.9194 45.3702 36.7223C46.8532 35.4921 48.2169 34.125 49.4433 32.639C49.7612 31.3046 50.0471 29.4554 50.0471 29.4554L60.6404 19.0721H50.3125L44.5754 27.7594C41.8833 28.8059 39.4539 30.4308 37.4587 32.5194C35.089 35.4638 33.6962 38.9229 36.4962 38.2083ZM59.3702 34.1527L56.6562 33.8421C55.3743 33.6914 54.0801 33.9948 52.9987 34.6996C50.7121 36.1958 46.97 38.834 47.2252 39.9146C47.3356 40.3733 47.5714 40.7923 47.9062 41.1248C48.2409 41.4572 48.6616 41.6901 49.121 41.7973C50.6033 41.9877 52.1023 42.0092 53.5894 41.8615C59.1806 41.424 61.5067 38.6852 61.5067 38.6852L68.9106 34.3831V25.2846L59.3702 34.1527ZM23.8102 13.1017C25.5879 13.5545 27.3078 14.2097 28.9362 15.0544C28.8913 13.9309 28.4423 12.8614 27.6717 12.0426C26.9011 11.2237 25.8608 10.7107 24.7421 10.5977C23.3158 10.3473 21.8493 10.4621 20.4794 10.9317C20.4794 10.9317 21.0379 12.3711 23.8102 13.1017ZM17.271 19.1042C19.1756 19.4075 20.7273 19.6015 22.05 19.7692C23.8755 19.9371 25.6836 20.2596 27.4546 20.7331C28.6214 21.0796 29.7393 21.5736 30.781 22.2031C31.0661 21.2071 30.9673 20.1403 30.504 19.2136C29.5998 17.4636 26.339 16.0227 23.259 15.2206C19.3317 14.1998 18.4683 11.7979 18.4683 11.7979C16.7796 11.729 15.0984 12.0608 13.5625 12.7663C12.1628 13.3912 11.0272 14.4881 10.3542 15.8652C11.1989 16.5694 12.0998 17.2035 13.0477 17.7611C14.368 18.4478 15.7966 18.9022 17.271 19.1042ZM15.5925 26.7911C20.0871 26.3886 24.745 26.4163 27.4487 27.6865C28.3582 28.1144 29.0635 28.882 29.4131 29.8244C30.076 29.3207 30.6159 28.6731 30.992 27.9304C31.3682 27.1877 31.5708 26.3693 31.5846 25.5369C30.2256 24.2799 28.5961 23.3519 26.8217 22.8244C25.1679 22.3885 23.4806 22.0919 21.7773 21.9377C20.4342 21.7686 18.8606 21.5702 16.9254 21.2611C15.2012 21.0227 13.5314 20.4868 11.9904 19.6773C10.9702 19.0797 10.0002 18.4003 9.08979 17.6458C7.88958 18.8869 5.90333 21.2917 6.125 23.4661C6.42542 26.371 8.92354 27.389 15.5925 26.7911ZM7.9975 42.4288C7.59925 42.2496 7.24114 41.9922 6.94449 41.6717C6.64784 41.3513 6.41874 40.9744 6.27083 40.5636C6.01526 39.2828 6.09718 37.9575 6.50854 36.7179C6.58729 36.3533 6.69958 35.8211 6.73021 35.5746C6.6587 35.3073 6.57599 35.0431 6.48229 34.7827C4.32833 36.2615 1.09375 38.6765 1.09375 39.8752C1.09375 42.0992 4.235 44.7796 6.34375 46.3313C6.69667 45.465 7.9975 42.4288 7.9975 42.4288Z" fill="url(#paint0_linear_157_769)"/>
<path d="M53.7586 44.0416C52.9594 44.1057 52.0771 44.1407 51.2794 44.1407C50.393 44.1651 49.5065 44.0937 48.6354 43.9278C47.7757 43.7341 46.9881 43.3016 46.3633 42.6801C45.7384 42.0586 45.3017 41.2734 45.1033 40.4147C44.9997 40.0064 44.9922 39.5795 45.0815 39.1678C44.9137 39.1958 44.7441 39.2114 44.574 39.2145C44.1111 39.2135 43.6534 39.1179 43.2288 38.9336C42.8042 38.7492 42.4218 38.4801 42.105 38.1426C42.0421 38.0764 41.9822 38.0073 41.9256 37.9355C40.4313 38.9797 38.7836 39.7851 37.0417 40.3228C36.6494 40.4293 36.245 40.4847 35.8386 40.4876C35.266 40.5077 34.6999 40.3618 34.2083 40.0677C33.7167 39.7735 33.3206 39.3435 33.0677 38.8295C31.9346 36.4626 34.265 32.9961 35.7569 31.147C35.9261 30.937 36.1186 30.7416 36.3067 30.5418C35.8473 30.5855 34.914 30.6876 34.914 30.6876C32.9977 30.8874 31.1646 31.2709 31.1646 31.2709L28.2202 33.3957L27.335 30.5068C27.1715 30.1372 26.8814 29.8383 26.5169 29.6639C24.5326 28.9265 22.4156 28.614 20.3029 28.7466C18.9452 28.7466 17.4271 28.8224 15.7821 28.9682C14.4856 29.0849 13.3613 29.1403 12.3463 29.1403C10.2612 29.2619 8.18325 28.8025 6.34376 27.8132C6.36564 27.8847 6.3773 27.9591 6.40209 28.0247C7.98147 32.6199 8.84335 34.6309 8.9148 35.4214C8.98626 36.2118 8.05293 39.0118 8.34022 39.8736C8.62751 40.7355 10.5671 40.807 10.71 41.3101C11.1386 42.2221 11.6182 43.1092 12.1465 43.9672C12.1465 43.9672 12.3069 44.6686 12.565 45.4037C12.6506 45.651 12.7937 45.8744 12.9827 46.0555C13.1716 46.2366 13.4008 46.3702 13.6515 46.4452C13.9022 46.5203 14.1672 46.5347 14.4245 46.4872C14.6819 46.4397 14.9243 46.3318 15.1317 46.1722C16.7541 44.8551 18.2996 43.446 19.7604 41.9518L29.0486 41.4151C27.8356 43.0899 26.3303 44.532 24.605 45.672C22.321 47.2096 19.8307 48.416 17.2083 49.2551L17.8777 46.7409C17.3761 47.1784 16.8963 47.5839 16.4879 47.9076C15.8188 48.429 14.9941 48.7109 14.1458 48.7082C13.3488 48.7071 12.5716 48.4592 11.9212 47.9986C11.2707 47.538 10.7788 46.8872 10.5131 46.1357C10.3323 45.6195 10.1952 45.1295 10.1136 44.813L9.6848 44.0839C9.6848 44.0839 4.33126 55.5245 6.1148 58.5972C7.74814 61.4089 15.5444 59.6545 23.7213 56.4651C34.1031 52.4182 34.8804 50.9103 37.0183 51.3799C49.175 54.0516 68.9121 52.4459 68.9121 52.4459V36.9132L62.8717 40.422C60.3493 42.6547 57.1255 43.9351 53.7586 44.0416Z" fill="url(#paint1_linear_157_769)"/>
<defs>
<linearGradient id="paint0_linear_157_769" x1="35.0022" y1="10.4685" x2="35.0022" y2="46.3313" gradientUnits="userSpaceOnUse">
<stop stop-color="#3F88C6"/>
<stop offset="1" stop-color="#64C7DF"/>
</linearGradient>
<linearGradient id="paint1_linear_157_769" x1="37.3315" y1="27.8132" x2="37.3315" y2="60.0057" gradientUnits="userSpaceOnUse">
<stop stop-color="#3F88C6"/>
<stop offset="1" stop-color="#64C7DF"/>
</linearGradient>
</defs>
</svg>
