<svg width="230" height="190" viewBox="0 0 230 190" fill="none" xmlns="http://www.w3.org/2000/svg">
<path d="M25.9316 129.705V131.085H19.0059V129.705H25.9316ZM19.2695 124.203V137H17.5732V124.203H19.2695ZM27.4082 124.203V137H25.7207V124.203H27.4082ZM31.9434 127.49V137H30.3086V127.49H31.9434ZM30.1855 124.968C30.1855 124.704 30.2646 124.481 30.4229 124.3C30.5869 124.118 30.8271 124.027 31.1436 124.027C31.4541 124.027 31.6914 124.118 31.8555 124.3C32.0254 124.481 32.1104 124.704 32.1104 124.968C32.1104 125.22 32.0254 125.437 31.8555 125.618C31.6914 125.794 31.4541 125.882 31.1436 125.882C30.8271 125.882 30.5869 125.794 30.4229 125.618C30.2646 125.437 30.1855 125.22 30.1855 124.968ZM40.7148 127.49H42.1914V136.798C42.1914 137.636 42.0215 138.351 41.6816 138.942C41.3418 139.534 40.8672 139.982 40.2578 140.287C39.6543 140.598 38.957 140.753 38.166 140.753C37.8379 140.753 37.4512 140.7 37.0059 140.595C36.5664 140.495 36.1328 140.322 35.7051 140.076C35.2832 139.836 34.9287 139.511 34.6416 139.101L35.4941 138.134C35.8926 138.614 36.3086 138.948 36.7422 139.136C37.1816 139.323 37.6152 139.417 38.043 139.417C38.5586 139.417 39.0039 139.32 39.3789 139.127C39.7539 138.934 40.0439 138.646 40.249 138.266C40.46 137.891 40.5654 137.428 40.5654 136.877V129.582L40.7148 127.49ZM34.167 132.351V132.166C34.167 131.439 34.252 130.78 34.4219 130.188C34.5977 129.591 34.8467 129.078 35.1689 128.65C35.4971 128.223 35.8926 127.895 36.3555 127.666C36.8184 127.432 37.3398 127.314 37.9199 127.314C38.5176 127.314 39.0391 127.42 39.4844 127.631C39.9355 127.836 40.3164 128.138 40.627 128.536C40.9434 128.929 41.1924 129.403 41.374 129.96C41.5557 130.517 41.6816 131.146 41.752 131.85V132.658C41.6875 133.355 41.5615 133.982 41.374 134.539C41.1924 135.096 40.9434 135.57 40.627 135.963C40.3164 136.355 39.9355 136.657 39.4844 136.868C39.0332 137.073 38.5059 137.176 37.9023 137.176C37.334 137.176 36.8184 137.056 36.3555 136.815C35.8984 136.575 35.5059 136.238 35.1777 135.805C34.8496 135.371 34.5977 134.861 34.4219 134.275C34.252 133.684 34.167 133.042 34.167 132.351ZM35.793 132.166V132.351C35.793 132.825 35.8398 133.271 35.9336 133.687C36.0332 134.103 36.1826 134.469 36.3818 134.785C36.5869 135.102 36.8477 135.351 37.1641 135.532C37.4805 135.708 37.8584 135.796 38.2979 135.796C38.8369 135.796 39.2822 135.682 39.6338 135.453C39.9854 135.225 40.2637 134.923 40.4688 134.548C40.6797 134.173 40.8438 133.766 40.9609 133.326V131.208C40.8965 130.886 40.7969 130.575 40.6621 130.276C40.5332 129.972 40.3633 129.702 40.1523 129.468C39.9473 129.228 39.6924 129.037 39.3877 128.896C39.083 128.756 38.7256 128.686 38.3154 128.686C37.8701 128.686 37.4863 128.779 37.1641 128.967C36.8477 129.148 36.5869 129.4 36.3818 129.723C36.1826 130.039 36.0332 130.408 35.9336 130.83C35.8398 131.246 35.793 131.691 35.793 132.166ZM46.2871 123.5V137H44.6611V123.5H46.2871ZM45.9004 131.885L45.2236 131.858C45.2295 131.208 45.3262 130.607 45.5137 130.057C45.7012 129.5 45.9648 129.017 46.3047 128.606C46.6445 128.196 47.0488 127.88 47.5176 127.657C47.9922 127.429 48.5166 127.314 49.0908 127.314C49.5596 127.314 49.9814 127.379 50.3564 127.508C50.7314 127.631 51.0508 127.83 51.3145 128.105C51.584 128.381 51.7891 128.738 51.9297 129.178C52.0703 129.611 52.1406 130.142 52.1406 130.769V137H50.5059V130.751C50.5059 130.253 50.4326 129.854 50.2861 129.556C50.1396 129.251 49.9258 129.031 49.6445 128.896C49.3633 128.756 49.0176 128.686 48.6074 128.686C48.2031 128.686 47.834 128.771 47.5 128.94C47.1719 129.11 46.8877 129.345 46.6475 129.644C46.4131 129.942 46.2285 130.285 46.0938 130.672C45.9648 131.053 45.9004 131.457 45.9004 131.885ZM60.666 128.984V137H59.04V127.49H60.6221L60.666 128.984ZM63.6367 127.438L63.6279 128.949C63.4932 128.92 63.3643 128.902 63.2412 128.896C63.124 128.885 62.9893 128.879 62.8369 128.879C62.4619 128.879 62.1309 128.938 61.8438 129.055C61.5566 129.172 61.3135 129.336 61.1143 129.547C60.915 129.758 60.7568 130.01 60.6396 130.303C60.5283 130.59 60.4551 130.906 60.4199 131.252L59.9629 131.516C59.9629 130.941 60.0186 130.402 60.1299 129.898C60.2471 129.395 60.4258 128.949 60.666 128.562C60.9062 128.17 61.2109 127.865 61.5801 127.648C61.9551 127.426 62.4004 127.314 62.916 127.314C63.0332 127.314 63.168 127.329 63.3203 127.358C63.4727 127.382 63.5781 127.408 63.6367 127.438ZM66.9062 127.49V137H65.2715V127.49H66.9062ZM65.1484 124.968C65.1484 124.704 65.2275 124.481 65.3857 124.3C65.5498 124.118 65.79 124.027 66.1064 124.027C66.417 124.027 66.6543 124.118 66.8184 124.3C66.9883 124.481 67.0732 124.704 67.0732 124.968C67.0732 125.22 66.9883 125.437 66.8184 125.618C66.6543 125.794 66.417 125.882 66.1064 125.882C65.79 125.882 65.5498 125.794 65.3857 125.618C65.2275 125.437 65.1484 125.22 65.1484 124.968ZM75.0537 134.478C75.0537 134.243 75.001 134.026 74.8955 133.827C74.7959 133.622 74.5879 133.438 74.2715 133.273C73.9609 133.104 73.4922 132.957 72.8652 132.834C72.3379 132.723 71.8604 132.591 71.4326 132.438C71.0107 132.286 70.6504 132.102 70.3516 131.885C70.0586 131.668 69.833 131.413 69.6748 131.12C69.5166 130.827 69.4375 130.484 69.4375 130.092C69.4375 129.717 69.5195 129.362 69.6836 129.028C69.8535 128.694 70.0908 128.398 70.3955 128.141C70.7061 127.883 71.0781 127.681 71.5117 127.534C71.9453 127.388 72.4287 127.314 72.9619 127.314C73.7236 127.314 74.374 127.449 74.9131 127.719C75.4521 127.988 75.8652 128.349 76.1523 128.8C76.4395 129.245 76.583 129.74 76.583 130.285H74.957C74.957 130.021 74.8779 129.767 74.7197 129.521C74.5674 129.269 74.3418 129.061 74.043 128.896C73.75 128.732 73.3896 128.65 72.9619 128.65C72.5107 128.65 72.1445 128.721 71.8633 128.861C71.5879 128.996 71.3857 129.169 71.2568 129.38C71.1338 129.591 71.0723 129.813 71.0723 130.048C71.0723 130.224 71.1016 130.382 71.1602 130.522C71.2246 130.657 71.3359 130.783 71.4941 130.9C71.6523 131.012 71.875 131.117 72.1621 131.217C72.4492 131.316 72.8154 131.416 73.2607 131.516C74.04 131.691 74.6816 131.902 75.1855 132.148C75.6895 132.395 76.0645 132.696 76.3105 133.054C76.5566 133.411 76.6797 133.845 76.6797 134.354C76.6797 134.771 76.5918 135.151 76.416 135.497C76.2461 135.843 75.9971 136.142 75.6689 136.394C75.3467 136.64 74.96 136.833 74.5088 136.974C74.0635 137.108 73.5625 137.176 73.0059 137.176C72.168 137.176 71.459 137.026 70.8789 136.728C70.2988 136.429 69.8594 136.042 69.5605 135.567C69.2617 135.093 69.1123 134.592 69.1123 134.064H70.7471C70.7705 134.51 70.8994 134.864 71.1338 135.128C71.3682 135.386 71.6553 135.57 71.9951 135.682C72.335 135.787 72.6719 135.84 73.0059 135.84C73.4512 135.84 73.8232 135.781 74.1221 135.664C74.4268 135.547 74.6582 135.386 74.8164 135.181C74.9746 134.976 75.0537 134.741 75.0537 134.478ZM80.4502 123.5V137H78.8154V123.5H80.4502ZM86.2598 127.49L82.1113 131.929L79.791 134.337L79.6592 132.605L81.3203 130.619L84.2734 127.49H86.2598ZM84.7744 137L81.3818 132.465L82.2256 131.015L86.6904 137H84.7744ZM97.3691 131.981H93.9502V130.602H97.3691C98.0312 130.602 98.5674 130.496 98.9775 130.285C99.3877 130.074 99.6865 129.781 99.874 129.406C100.067 129.031 100.164 128.604 100.164 128.123C100.164 127.684 100.067 127.271 99.874 126.884C99.6865 126.497 99.3877 126.187 98.9775 125.952C98.5674 125.712 98.0312 125.592 97.3691 125.592H94.3457V137H92.6494V124.203H97.3691C98.3359 124.203 99.1533 124.37 99.8213 124.704C100.489 125.038 100.996 125.501 101.342 126.093C101.688 126.679 101.86 127.35 101.86 128.105C101.86 128.926 101.688 129.626 101.342 130.206C100.996 130.786 100.489 131.229 99.8213 131.533C99.1533 131.832 98.3359 131.981 97.3691 131.981ZM105.385 128.984V137H103.759V127.49H105.341L105.385 128.984ZM108.355 127.438L108.347 128.949C108.212 128.92 108.083 128.902 107.96 128.896C107.843 128.885 107.708 128.879 107.556 128.879C107.181 128.879 106.85 128.938 106.562 129.055C106.275 129.172 106.032 129.336 105.833 129.547C105.634 129.758 105.476 130.01 105.358 130.303C105.247 130.59 105.174 130.906 105.139 131.252L104.682 131.516C104.682 130.941 104.737 130.402 104.849 129.898C104.966 129.395 105.145 128.949 105.385 128.562C105.625 128.17 105.93 127.865 106.299 127.648C106.674 127.426 107.119 127.314 107.635 127.314C107.752 127.314 107.887 127.329 108.039 127.358C108.191 127.382 108.297 127.408 108.355 127.438ZM113.629 137.176C112.967 137.176 112.366 137.064 111.827 136.842C111.294 136.613 110.834 136.294 110.447 135.884C110.066 135.474 109.773 134.987 109.568 134.425C109.363 133.862 109.261 133.247 109.261 132.579V132.21C109.261 131.437 109.375 130.748 109.604 130.145C109.832 129.535 110.143 129.02 110.535 128.598C110.928 128.176 111.373 127.856 111.871 127.64C112.369 127.423 112.885 127.314 113.418 127.314C114.098 127.314 114.684 127.432 115.176 127.666C115.674 127.9 116.081 128.229 116.397 128.65C116.714 129.066 116.948 129.559 117.101 130.127C117.253 130.689 117.329 131.305 117.329 131.973V132.702H110.228V131.375H115.703V131.252C115.68 130.83 115.592 130.42 115.439 130.021C115.293 129.623 115.059 129.295 114.736 129.037C114.414 128.779 113.975 128.65 113.418 128.65C113.049 128.65 112.709 128.729 112.398 128.888C112.088 129.04 111.821 129.269 111.599 129.573C111.376 129.878 111.203 130.25 111.08 130.689C110.957 131.129 110.896 131.636 110.896 132.21V132.579C110.896 133.03 110.957 133.455 111.08 133.854C111.209 134.246 111.394 134.592 111.634 134.891C111.88 135.189 112.176 135.424 112.521 135.594C112.873 135.764 113.271 135.849 113.717 135.849C114.291 135.849 114.777 135.731 115.176 135.497C115.574 135.263 115.923 134.949 116.222 134.557L117.206 135.339C117.001 135.649 116.74 135.945 116.424 136.227C116.107 136.508 115.718 136.736 115.255 136.912C114.798 137.088 114.256 137.176 113.629 137.176ZM125.389 127.49H126.865V136.798C126.865 137.636 126.695 138.351 126.355 138.942C126.016 139.534 125.541 139.982 124.932 140.287C124.328 140.598 123.631 140.753 122.84 140.753C122.512 140.753 122.125 140.7 121.68 140.595C121.24 140.495 120.807 140.322 120.379 140.076C119.957 139.836 119.603 139.511 119.315 139.101L120.168 138.134C120.566 138.614 120.982 138.948 121.416 139.136C121.855 139.323 122.289 139.417 122.717 139.417C123.232 139.417 123.678 139.32 124.053 139.127C124.428 138.934 124.718 138.646 124.923 138.266C125.134 137.891 125.239 137.428 125.239 136.877V129.582L125.389 127.49ZM118.841 132.351V132.166C118.841 131.439 118.926 130.78 119.096 130.188C119.271 129.591 119.521 129.078 119.843 128.65C120.171 128.223 120.566 127.895 121.029 127.666C121.492 127.432 122.014 127.314 122.594 127.314C123.191 127.314 123.713 127.42 124.158 127.631C124.609 127.836 124.99 128.138 125.301 128.536C125.617 128.929 125.866 129.403 126.048 129.96C126.229 130.517 126.355 131.146 126.426 131.85V132.658C126.361 133.355 126.235 133.982 126.048 134.539C125.866 135.096 125.617 135.57 125.301 135.963C124.99 136.355 124.609 136.657 124.158 136.868C123.707 137.073 123.18 137.176 122.576 137.176C122.008 137.176 121.492 137.056 121.029 136.815C120.572 136.575 120.18 136.238 119.852 135.805C119.523 135.371 119.271 134.861 119.096 134.275C118.926 133.684 118.841 133.042 118.841 132.351ZM120.467 132.166V132.351C120.467 132.825 120.514 133.271 120.607 133.687C120.707 134.103 120.856 134.469 121.056 134.785C121.261 135.102 121.521 135.351 121.838 135.532C122.154 135.708 122.532 135.796 122.972 135.796C123.511 135.796 123.956 135.682 124.308 135.453C124.659 135.225 124.938 134.923 125.143 134.548C125.354 134.173 125.518 133.766 125.635 133.326V131.208C125.57 130.886 125.471 130.575 125.336 130.276C125.207 129.972 125.037 129.702 124.826 129.468C124.621 129.228 124.366 129.037 124.062 128.896C123.757 128.756 123.399 128.686 122.989 128.686C122.544 128.686 122.16 128.779 121.838 128.967C121.521 129.148 121.261 129.4 121.056 129.723C120.856 130.039 120.707 130.408 120.607 130.83C120.514 131.246 120.467 131.691 120.467 132.166ZM130.961 129.521V137H129.335V127.49H130.873L130.961 129.521ZM130.574 131.885L129.897 131.858C129.903 131.208 130 130.607 130.188 130.057C130.375 129.5 130.639 129.017 130.979 128.606C131.318 128.196 131.723 127.88 132.191 127.657C132.666 127.429 133.19 127.314 133.765 127.314C134.233 127.314 134.655 127.379 135.03 127.508C135.405 127.631 135.725 127.83 135.988 128.105C136.258 128.381 136.463 128.738 136.604 129.178C136.744 129.611 136.814 130.142 136.814 130.769V137H135.18V130.751C135.18 130.253 135.106 129.854 134.96 129.556C134.813 129.251 134.6 129.031 134.318 128.896C134.037 128.756 133.691 128.686 133.281 128.686C132.877 128.686 132.508 128.771 132.174 128.94C131.846 129.11 131.562 129.345 131.321 129.644C131.087 129.942 130.902 130.285 130.768 130.672C130.639 131.053 130.574 131.457 130.574 131.885ZM144.892 135.374V130.479C144.892 130.104 144.815 129.778 144.663 129.503C144.517 129.222 144.294 129.005 143.995 128.853C143.696 128.7 143.327 128.624 142.888 128.624C142.478 128.624 142.117 128.694 141.807 128.835C141.502 128.976 141.262 129.16 141.086 129.389C140.916 129.617 140.831 129.863 140.831 130.127H139.205C139.205 129.787 139.293 129.45 139.469 129.116C139.645 128.782 139.896 128.48 140.225 128.211C140.559 127.936 140.957 127.719 141.42 127.561C141.889 127.396 142.41 127.314 142.984 127.314C143.676 127.314 144.285 127.432 144.812 127.666C145.346 127.9 145.762 128.255 146.061 128.729C146.365 129.198 146.518 129.787 146.518 130.496V134.926C146.518 135.242 146.544 135.579 146.597 135.937C146.655 136.294 146.74 136.602 146.852 136.859V137H145.155C145.073 136.812 145.009 136.563 144.962 136.253C144.915 135.937 144.892 135.644 144.892 135.374ZM145.173 131.234L145.19 132.377H143.547C143.084 132.377 142.671 132.415 142.308 132.491C141.944 132.562 141.64 132.67 141.394 132.816C141.147 132.963 140.96 133.147 140.831 133.37C140.702 133.587 140.638 133.842 140.638 134.135C140.638 134.434 140.705 134.706 140.84 134.952C140.975 135.198 141.177 135.395 141.446 135.541C141.722 135.682 142.059 135.752 142.457 135.752C142.955 135.752 143.395 135.646 143.775 135.436C144.156 135.225 144.458 134.967 144.681 134.662C144.909 134.357 145.032 134.062 145.05 133.774L145.744 134.557C145.703 134.803 145.592 135.075 145.41 135.374C145.229 135.673 144.985 135.96 144.681 136.235C144.382 136.505 144.024 136.73 143.608 136.912C143.198 137.088 142.735 137.176 142.22 137.176C141.575 137.176 141.01 137.05 140.523 136.798C140.043 136.546 139.668 136.209 139.398 135.787C139.135 135.359 139.003 134.882 139.003 134.354C139.003 133.845 139.103 133.396 139.302 133.01C139.501 132.617 139.788 132.292 140.163 132.034C140.538 131.771 140.989 131.571 141.517 131.437C142.044 131.302 142.633 131.234 143.283 131.234H145.173ZM150.701 129.521V137H149.075V127.49H150.613L150.701 129.521ZM150.314 131.885L149.638 131.858C149.644 131.208 149.74 130.607 149.928 130.057C150.115 129.5 150.379 129.017 150.719 128.606C151.059 128.196 151.463 127.88 151.932 127.657C152.406 127.429 152.931 127.314 153.505 127.314C153.974 127.314 154.396 127.379 154.771 127.508C155.146 127.631 155.465 127.83 155.729 128.105C155.998 128.381 156.203 128.738 156.344 129.178C156.484 129.611 156.555 130.142 156.555 130.769V137H154.92V130.751C154.92 130.253 154.847 129.854 154.7 129.556C154.554 129.251 154.34 129.031 154.059 128.896C153.777 128.756 153.432 128.686 153.021 128.686C152.617 128.686 152.248 128.771 151.914 128.94C151.586 129.11 151.302 129.345 151.062 129.644C150.827 129.942 150.643 130.285 150.508 130.672C150.379 131.053 150.314 131.457 150.314 131.885ZM162.83 135.84C163.217 135.84 163.574 135.761 163.902 135.603C164.23 135.444 164.5 135.228 164.711 134.952C164.922 134.671 165.042 134.352 165.071 133.994H166.618C166.589 134.557 166.398 135.081 166.047 135.567C165.701 136.048 165.247 136.438 164.685 136.736C164.122 137.029 163.504 137.176 162.83 137.176C162.115 137.176 161.491 137.05 160.958 136.798C160.431 136.546 159.991 136.2 159.64 135.761C159.294 135.321 159.033 134.817 158.857 134.249C158.688 133.675 158.603 133.068 158.603 132.43V132.061C158.603 131.422 158.688 130.818 158.857 130.25C159.033 129.676 159.294 129.169 159.64 128.729C159.991 128.29 160.431 127.944 160.958 127.692C161.491 127.44 162.115 127.314 162.83 127.314C163.574 127.314 164.225 127.467 164.781 127.771C165.338 128.07 165.774 128.48 166.091 129.002C166.413 129.518 166.589 130.104 166.618 130.76H165.071C165.042 130.367 164.931 130.013 164.737 129.696C164.55 129.38 164.292 129.128 163.964 128.94C163.642 128.747 163.264 128.65 162.83 128.65C162.332 128.65 161.913 128.75 161.573 128.949C161.239 129.143 160.973 129.406 160.773 129.74C160.58 130.068 160.439 130.435 160.352 130.839C160.27 131.237 160.229 131.645 160.229 132.061V132.43C160.229 132.846 160.27 133.256 160.352 133.66C160.434 134.064 160.571 134.431 160.765 134.759C160.964 135.087 161.23 135.351 161.564 135.55C161.904 135.743 162.326 135.84 162.83 135.84ZM171.118 136.016L173.764 127.49H175.504L171.689 138.468C171.602 138.702 171.484 138.954 171.338 139.224C171.197 139.499 171.016 139.76 170.793 140.006C170.57 140.252 170.301 140.451 169.984 140.604C169.674 140.762 169.302 140.841 168.868 140.841C168.739 140.841 168.575 140.823 168.376 140.788C168.177 140.753 168.036 140.724 167.954 140.7L167.945 139.382C167.992 139.388 168.065 139.394 168.165 139.399C168.271 139.411 168.344 139.417 168.385 139.417C168.754 139.417 169.067 139.367 169.325 139.268C169.583 139.174 169.8 139.013 169.976 138.784C170.157 138.562 170.312 138.254 170.441 137.861L171.118 136.016ZM169.176 127.49L171.646 134.873L172.067 136.587L170.898 137.185L167.4 127.49H169.176ZM183.845 135.312L186.288 127.49H187.36L187.149 129.046L184.662 137H183.616L183.845 135.312ZM182.201 127.49L184.284 135.4L184.434 137H183.335L180.575 127.49H182.201ZM189.698 135.339L191.685 127.49H193.302L190.542 137H189.452L189.698 135.339ZM187.598 127.49L189.988 135.181L190.261 137H189.224L186.666 129.028L186.455 127.49H187.598ZM196.738 127.49V137H195.104V127.49H196.738ZM194.98 124.968C194.98 124.704 195.06 124.481 195.218 124.3C195.382 124.118 195.622 124.027 195.938 124.027C196.249 124.027 196.486 124.118 196.65 124.3C196.82 124.481 196.905 124.704 196.905 124.968C196.905 125.22 196.82 125.437 196.65 125.618C196.486 125.794 196.249 125.882 195.938 125.882C195.622 125.882 195.382 125.794 195.218 125.618C195.06 125.437 194.98 125.22 194.98 124.968ZM203.33 127.49V128.738H198.188V127.49H203.33ZM199.929 125.179H201.555V134.645C201.555 134.967 201.604 135.21 201.704 135.374C201.804 135.538 201.933 135.646 202.091 135.699C202.249 135.752 202.419 135.778 202.601 135.778C202.735 135.778 202.876 135.767 203.022 135.743C203.175 135.714 203.289 135.69 203.365 135.673L203.374 137C203.245 137.041 203.075 137.079 202.864 137.114C202.659 137.155 202.41 137.176 202.117 137.176C201.719 137.176 201.353 137.097 201.019 136.938C200.685 136.78 200.418 136.517 200.219 136.147C200.025 135.772 199.929 135.269 199.929 134.636V125.179ZM206.863 123.5V137H205.237V123.5H206.863ZM206.477 131.885L205.8 131.858C205.806 131.208 205.902 130.607 206.09 130.057C206.277 129.5 206.541 129.017 206.881 128.606C207.221 128.196 207.625 127.88 208.094 127.657C208.568 127.429 209.093 127.314 209.667 127.314C210.136 127.314 210.558 127.379 210.933 127.508C211.308 127.631 211.627 127.83 211.891 128.105C212.16 128.381 212.365 128.738 212.506 129.178C212.646 129.611 212.717 130.142 212.717 130.769V137H211.082V130.751C211.082 130.253 211.009 129.854 210.862 129.556C210.716 129.251 210.502 129.031 210.221 128.896C209.939 128.756 209.594 128.686 209.184 128.686C208.779 128.686 208.41 128.771 208.076 128.94C207.748 129.11 207.464 129.345 207.224 129.644C206.989 129.942 206.805 130.285 206.67 130.672C206.541 131.053 206.477 131.457 206.477 131.885ZM42.5957 157.62V159H35.8193V157.62H42.5957ZM36.1621 146.203V159H34.4658V146.203H36.1621ZM41.6992 151.705V153.085H35.8193V151.705H41.6992ZM42.5078 146.203V147.592H35.8193V146.203H42.5078ZM45.5488 149.49L47.6318 152.953L49.7412 149.49H51.6484L48.5371 154.184L51.7451 159H49.8643L47.667 155.432L45.4697 159H43.5801L46.7793 154.184L43.6768 149.49H45.5488ZM57.0098 157.84C57.3965 157.84 57.7539 157.761 58.082 157.603C58.4102 157.444 58.6797 157.228 58.8906 156.952C59.1016 156.671 59.2217 156.352 59.251 155.994H60.7979C60.7686 156.557 60.5781 157.081 60.2266 157.567C59.8809 158.048 59.4268 158.438 58.8643 158.736C58.3018 159.029 57.6836 159.176 57.0098 159.176C56.2949 159.176 55.6709 159.05 55.1377 158.798C54.6104 158.546 54.1709 158.2 53.8193 157.761C53.4736 157.321 53.2129 156.817 53.0371 156.249C52.8672 155.675 52.7822 155.068 52.7822 154.43V154.061C52.7822 153.422 52.8672 152.818 53.0371 152.25C53.2129 151.676 53.4736 151.169 53.8193 150.729C54.1709 150.29 54.6104 149.944 55.1377 149.692C55.6709 149.44 56.2949 149.314 57.0098 149.314C57.7539 149.314 58.4043 149.467 58.9609 149.771C59.5176 150.07 59.9541 150.48 60.2705 151.002C60.5928 151.518 60.7686 152.104 60.7979 152.76H59.251C59.2217 152.367 59.1104 152.013 58.917 151.696C58.7295 151.38 58.4717 151.128 58.1436 150.94C57.8213 150.747 57.4434 150.65 57.0098 150.65C56.5117 150.65 56.0928 150.75 55.7529 150.949C55.4189 151.143 55.1523 151.406 54.9531 151.74C54.7598 152.068 54.6191 152.435 54.5312 152.839C54.4492 153.237 54.4082 153.645 54.4082 154.061V154.43C54.4082 154.846 54.4492 155.256 54.5312 155.66C54.6133 156.064 54.751 156.431 54.9443 156.759C55.1436 157.087 55.4102 157.351 55.7441 157.55C56.084 157.743 56.5059 157.84 57.0098 157.84ZM66.5723 159.176C65.9102 159.176 65.3096 159.064 64.7705 158.842C64.2373 158.613 63.7773 158.294 63.3906 157.884C63.0098 157.474 62.7168 156.987 62.5117 156.425C62.3066 155.862 62.2041 155.247 62.2041 154.579V154.21C62.2041 153.437 62.3184 152.748 62.5469 152.145C62.7754 151.535 63.0859 151.02 63.4785 150.598C63.8711 150.176 64.3164 149.856 64.8145 149.64C65.3125 149.423 65.8281 149.314 66.3613 149.314C67.041 149.314 67.627 149.432 68.1191 149.666C68.6172 149.9 69.0244 150.229 69.3408 150.65C69.6572 151.066 69.8916 151.559 70.0439 152.127C70.1963 152.689 70.2725 153.305 70.2725 153.973V154.702H63.1709V153.375H68.6465V153.252C68.623 152.83 68.5352 152.42 68.3828 152.021C68.2363 151.623 68.002 151.295 67.6797 151.037C67.3574 150.779 66.918 150.65 66.3613 150.65C65.9922 150.65 65.6523 150.729 65.3418 150.888C65.0312 151.04 64.7646 151.269 64.542 151.573C64.3193 151.878 64.1465 152.25 64.0234 152.689C63.9004 153.129 63.8389 153.636 63.8389 154.21V154.579C63.8389 155.03 63.9004 155.455 64.0234 155.854C64.1523 156.246 64.3369 156.592 64.5771 156.891C64.8232 157.189 65.1191 157.424 65.4648 157.594C65.8164 157.764 66.2148 157.849 66.6602 157.849C67.2344 157.849 67.7207 157.731 68.1191 157.497C68.5176 157.263 68.8662 156.949 69.165 156.557L70.1494 157.339C69.9443 157.649 69.6836 157.945 69.3672 158.227C69.0508 158.508 68.6611 158.736 68.1982 158.912C67.7412 159.088 67.1992 159.176 66.5723 159.176ZM73.9375 145.5V159H72.3027V145.5H73.9375ZM78.3145 145.5V159H76.6797V145.5H78.3145ZM84.8711 159.176C84.209 159.176 83.6084 159.064 83.0693 158.842C82.5361 158.613 82.0762 158.294 81.6895 157.884C81.3086 157.474 81.0156 156.987 80.8105 156.425C80.6055 155.862 80.5029 155.247 80.5029 154.579V154.21C80.5029 153.437 80.6172 152.748 80.8457 152.145C81.0742 151.535 81.3848 151.02 81.7773 150.598C82.1699 150.176 82.6152 149.856 83.1133 149.64C83.6113 149.423 84.127 149.314 84.6602 149.314C85.3398 149.314 85.9258 149.432 86.418 149.666C86.916 149.9 87.3232 150.229 87.6396 150.65C87.9561 151.066 88.1904 151.559 88.3428 152.127C88.4951 152.689 88.5713 153.305 88.5713 153.973V154.702H81.4697V153.375H86.9453V153.252C86.9219 152.83 86.834 152.42 86.6816 152.021C86.5352 151.623 86.3008 151.295 85.9785 151.037C85.6562 150.779 85.2168 150.65 84.6602 150.65C84.291 150.65 83.9512 150.729 83.6406 150.888C83.3301 151.04 83.0635 151.269 82.8408 151.573C82.6182 151.878 82.4453 152.25 82.3223 152.689C82.1992 153.129 82.1377 153.636 82.1377 154.21V154.579C82.1377 155.03 82.1992 155.455 82.3223 155.854C82.4512 156.246 82.6357 156.592 82.876 156.891C83.1221 157.189 83.418 157.424 83.7637 157.594C84.1152 157.764 84.5137 157.849 84.959 157.849C85.5332 157.849 86.0195 157.731 86.418 157.497C86.8164 157.263 87.165 156.949 87.4639 156.557L88.4482 157.339C88.2432 157.649 87.9824 157.945 87.666 158.227C87.3496 158.508 86.96 158.736 86.4971 158.912C86.04 159.088 85.498 159.176 84.8711 159.176ZM92.0957 151.521V159H90.4697V149.49H92.0078L92.0957 151.521ZM91.709 153.885L91.0322 153.858C91.0381 153.208 91.1348 152.607 91.3223 152.057C91.5098 151.5 91.7734 151.017 92.1133 150.606C92.4531 150.196 92.8574 149.88 93.3262 149.657C93.8008 149.429 94.3252 149.314 94.8994 149.314C95.3682 149.314 95.79 149.379 96.165 149.508C96.54 149.631 96.8594 149.83 97.123 150.105C97.3926 150.381 97.5977 150.738 97.7383 151.178C97.8789 151.611 97.9492 152.142 97.9492 152.769V159H96.3145V152.751C96.3145 152.253 96.2412 151.854 96.0947 151.556C95.9482 151.251 95.7344 151.031 95.4531 150.896C95.1719 150.756 94.8262 150.686 94.416 150.686C94.0117 150.686 93.6426 150.771 93.3086 150.94C92.9805 151.11 92.6963 151.345 92.4561 151.644C92.2217 151.942 92.0371 152.285 91.9023 152.672C91.7734 153.053 91.709 153.457 91.709 153.885ZM104.4 149.49V150.738H99.2588V149.49H104.4ZM100.999 147.179H102.625V156.645C102.625 156.967 102.675 157.21 102.774 157.374C102.874 157.538 103.003 157.646 103.161 157.699C103.319 157.752 103.489 157.778 103.671 157.778C103.806 157.778 103.946 157.767 104.093 157.743C104.245 157.714 104.359 157.69 104.436 157.673L104.444 159C104.315 159.041 104.146 159.079 103.935 159.114C103.729 159.155 103.48 159.176 103.188 159.176C102.789 159.176 102.423 159.097 102.089 158.938C101.755 158.78 101.488 158.517 101.289 158.147C101.096 157.772 100.999 157.269 100.999 156.636V147.179ZM116.38 157.374V152.479C116.38 152.104 116.304 151.778 116.151 151.503C116.005 151.222 115.782 151.005 115.483 150.853C115.185 150.7 114.815 150.624 114.376 150.624C113.966 150.624 113.605 150.694 113.295 150.835C112.99 150.976 112.75 151.16 112.574 151.389C112.404 151.617 112.319 151.863 112.319 152.127H110.693C110.693 151.787 110.781 151.45 110.957 151.116C111.133 150.782 111.385 150.48 111.713 150.211C112.047 149.936 112.445 149.719 112.908 149.561C113.377 149.396 113.898 149.314 114.473 149.314C115.164 149.314 115.773 149.432 116.301 149.666C116.834 149.9 117.25 150.255 117.549 150.729C117.854 151.198 118.006 151.787 118.006 152.496V156.926C118.006 157.242 118.032 157.579 118.085 157.937C118.144 158.294 118.229 158.602 118.34 158.859V159H116.644C116.562 158.812 116.497 158.563 116.45 158.253C116.403 157.937 116.38 157.644 116.38 157.374ZM116.661 153.234L116.679 154.377H115.035C114.572 154.377 114.159 154.415 113.796 154.491C113.433 154.562 113.128 154.67 112.882 154.816C112.636 154.963 112.448 155.147 112.319 155.37C112.19 155.587 112.126 155.842 112.126 156.135C112.126 156.434 112.193 156.706 112.328 156.952C112.463 157.198 112.665 157.395 112.935 157.541C113.21 157.682 113.547 157.752 113.945 157.752C114.443 157.752 114.883 157.646 115.264 157.436C115.645 157.225 115.946 156.967 116.169 156.662C116.397 156.357 116.521 156.062 116.538 155.774L117.232 156.557C117.191 156.803 117.08 157.075 116.898 157.374C116.717 157.673 116.474 157.96 116.169 158.235C115.87 158.505 115.513 158.73 115.097 158.912C114.687 159.088 114.224 159.176 113.708 159.176C113.063 159.176 112.498 159.05 112.012 158.798C111.531 158.546 111.156 158.209 110.887 157.787C110.623 157.359 110.491 156.882 110.491 156.354C110.491 155.845 110.591 155.396 110.79 155.01C110.989 154.617 111.276 154.292 111.651 154.034C112.026 153.771 112.478 153.571 113.005 153.437C113.532 153.302 114.121 153.234 114.771 153.234H116.661ZM135.127 152.197V153.006C135.127 153.967 135.007 154.828 134.767 155.59C134.526 156.352 134.181 156.999 133.729 157.532C133.278 158.065 132.736 158.473 132.104 158.754C131.477 159.035 130.773 159.176 129.994 159.176C129.238 159.176 128.544 159.035 127.911 158.754C127.284 158.473 126.739 158.065 126.276 157.532C125.819 156.999 125.465 156.352 125.213 155.59C124.961 154.828 124.835 153.967 124.835 153.006V152.197C124.835 151.236 124.958 150.378 125.204 149.622C125.456 148.86 125.811 148.213 126.268 147.68C126.725 147.141 127.267 146.73 127.894 146.449C128.526 146.168 129.221 146.027 129.977 146.027C130.756 146.027 131.459 146.168 132.086 146.449C132.719 146.73 133.261 147.141 133.712 147.68C134.169 148.213 134.518 148.86 134.758 149.622C135.004 150.378 135.127 151.236 135.127 152.197ZM133.448 153.006V152.18C133.448 151.418 133.369 150.744 133.211 150.158C133.059 149.572 132.833 149.08 132.534 148.682C132.235 148.283 131.869 147.981 131.436 147.776C131.008 147.571 130.521 147.469 129.977 147.469C129.449 147.469 128.972 147.571 128.544 147.776C128.122 147.981 127.759 148.283 127.454 148.682C127.155 149.08 126.924 149.572 126.76 150.158C126.596 150.744 126.514 151.418 126.514 152.18V153.006C126.514 153.773 126.596 154.453 126.76 155.045C126.924 155.631 127.158 156.126 127.463 156.53C127.773 156.929 128.14 157.23 128.562 157.436C128.989 157.641 129.467 157.743 129.994 157.743C130.545 157.743 131.034 157.641 131.462 157.436C131.89 157.23 132.25 156.929 132.543 156.53C132.842 156.126 133.067 155.631 133.22 155.045C133.372 154.453 133.448 153.773 133.448 153.006ZM143.239 156.803V149.49H144.874V159H143.318L143.239 156.803ZM143.547 154.799L144.224 154.781C144.224 155.414 144.156 156 144.021 156.539C143.893 157.072 143.682 157.535 143.389 157.928C143.096 158.32 142.712 158.628 142.237 158.851C141.763 159.067 141.186 159.176 140.506 159.176C140.043 159.176 139.618 159.108 139.231 158.974C138.851 158.839 138.522 158.631 138.247 158.35C137.972 158.068 137.758 157.702 137.605 157.251C137.459 156.8 137.386 156.258 137.386 155.625V149.49H139.012V155.643C139.012 156.07 139.059 156.425 139.152 156.706C139.252 156.981 139.384 157.201 139.548 157.365C139.718 157.523 139.905 157.635 140.11 157.699C140.321 157.764 140.538 157.796 140.761 157.796C141.452 157.796 142 157.664 142.404 157.4C142.809 157.131 143.099 156.771 143.274 156.319C143.456 155.862 143.547 155.355 143.547 154.799ZM151.334 149.49V150.738H146.192V149.49H151.334ZM147.933 147.179H149.559V156.645C149.559 156.967 149.608 157.21 149.708 157.374C149.808 157.538 149.937 157.646 150.095 157.699C150.253 157.752 150.423 157.778 150.604 157.778C150.739 157.778 150.88 157.767 151.026 157.743C151.179 157.714 151.293 157.69 151.369 157.673L151.378 159C151.249 159.041 151.079 159.079 150.868 159.114C150.663 159.155 150.414 159.176 150.121 159.176C149.723 159.176 149.356 159.097 149.022 158.938C148.688 158.78 148.422 158.517 148.223 158.147C148.029 157.772 147.933 157.269 147.933 156.636V147.179ZM157.047 157.84C157.434 157.84 157.791 157.761 158.119 157.603C158.447 157.444 158.717 157.228 158.928 156.952C159.139 156.671 159.259 156.352 159.288 155.994H160.835C160.806 156.557 160.615 157.081 160.264 157.567C159.918 158.048 159.464 158.438 158.901 158.736C158.339 159.029 157.721 159.176 157.047 159.176C156.332 159.176 155.708 159.05 155.175 158.798C154.647 158.546 154.208 158.2 153.856 157.761C153.511 157.321 153.25 156.817 153.074 156.249C152.904 155.675 152.819 155.068 152.819 154.43V154.061C152.819 153.422 152.904 152.818 153.074 152.25C153.25 151.676 153.511 151.169 153.856 150.729C154.208 150.29 154.647 149.944 155.175 149.692C155.708 149.44 156.332 149.314 157.047 149.314C157.791 149.314 158.441 149.467 158.998 149.771C159.555 150.07 159.991 150.48 160.308 151.002C160.63 151.518 160.806 152.104 160.835 152.76H159.288C159.259 152.367 159.147 152.013 158.954 151.696C158.767 151.38 158.509 151.128 158.181 150.94C157.858 150.747 157.48 150.65 157.047 150.65C156.549 150.65 156.13 150.75 155.79 150.949C155.456 151.143 155.189 151.406 154.99 151.74C154.797 152.068 154.656 152.435 154.568 152.839C154.486 153.237 154.445 153.645 154.445 154.061V154.43C154.445 154.846 154.486 155.256 154.568 155.66C154.65 156.064 154.788 156.431 154.981 156.759C155.181 157.087 155.447 157.351 155.781 157.55C156.121 157.743 156.543 157.84 157.047 157.84ZM162.232 154.351V154.148C162.232 153.463 162.332 152.827 162.531 152.241C162.73 151.649 163.018 151.137 163.393 150.703C163.768 150.264 164.222 149.924 164.755 149.684C165.288 149.438 165.886 149.314 166.548 149.314C167.216 149.314 167.816 149.438 168.35 149.684C168.889 149.924 169.346 150.264 169.721 150.703C170.102 151.137 170.392 151.649 170.591 152.241C170.79 152.827 170.89 153.463 170.89 154.148V154.351C170.89 155.036 170.79 155.672 170.591 156.258C170.392 156.844 170.102 157.356 169.721 157.796C169.346 158.229 168.892 158.569 168.358 158.815C167.831 159.056 167.233 159.176 166.565 159.176C165.897 159.176 165.297 159.056 164.764 158.815C164.23 158.569 163.773 158.229 163.393 157.796C163.018 157.356 162.73 156.844 162.531 156.258C162.332 155.672 162.232 155.036 162.232 154.351ZM163.858 154.148V154.351C163.858 154.825 163.914 155.273 164.025 155.695C164.137 156.111 164.304 156.48 164.526 156.803C164.755 157.125 165.039 157.38 165.379 157.567C165.719 157.749 166.114 157.84 166.565 157.84C167.011 157.84 167.4 157.749 167.734 157.567C168.074 157.38 168.355 157.125 168.578 156.803C168.801 156.48 168.968 156.111 169.079 155.695C169.196 155.273 169.255 154.825 169.255 154.351V154.148C169.255 153.68 169.196 153.237 169.079 152.821C168.968 152.399 168.798 152.027 168.569 151.705C168.347 151.377 168.065 151.119 167.726 150.932C167.392 150.744 166.999 150.65 166.548 150.65C166.103 150.65 165.71 150.744 165.37 150.932C165.036 151.119 164.755 151.377 164.526 151.705C164.304 152.027 164.137 152.399 164.025 152.821C163.914 153.237 163.858 153.68 163.858 154.148ZM174.546 151.38V159H172.911V149.49H174.458L174.546 151.38ZM174.212 153.885L173.456 153.858C173.462 153.208 173.547 152.607 173.711 152.057C173.875 151.5 174.118 151.017 174.44 150.606C174.763 150.196 175.164 149.88 175.645 149.657C176.125 149.429 176.682 149.314 177.314 149.314C177.76 149.314 178.17 149.379 178.545 149.508C178.92 149.631 179.245 149.827 179.521 150.097C179.796 150.366 180.01 150.712 180.162 151.134C180.314 151.556 180.391 152.065 180.391 152.663V159H178.765V152.742C178.765 152.244 178.68 151.846 178.51 151.547C178.346 151.248 178.111 151.031 177.807 150.896C177.502 150.756 177.145 150.686 176.734 150.686C176.254 150.686 175.853 150.771 175.53 150.94C175.208 151.11 174.95 151.345 174.757 151.644C174.563 151.942 174.423 152.285 174.335 152.672C174.253 153.053 174.212 153.457 174.212 153.885ZM180.373 152.988L179.283 153.322C179.289 152.801 179.374 152.3 179.538 151.819C179.708 151.339 179.951 150.911 180.268 150.536C180.59 150.161 180.985 149.865 181.454 149.648C181.923 149.426 182.459 149.314 183.062 149.314C183.572 149.314 184.023 149.382 184.416 149.517C184.814 149.651 185.148 149.859 185.418 150.141C185.693 150.416 185.901 150.771 186.042 151.204C186.183 151.638 186.253 152.153 186.253 152.751V159H184.618V152.733C184.618 152.2 184.533 151.787 184.363 151.494C184.199 151.195 183.965 150.987 183.66 150.87C183.361 150.747 183.004 150.686 182.588 150.686C182.23 150.686 181.914 150.747 181.639 150.87C181.363 150.993 181.132 151.163 180.944 151.38C180.757 151.591 180.613 151.834 180.514 152.109C180.42 152.385 180.373 152.678 180.373 152.988ZM192.66 159.176C191.998 159.176 191.397 159.064 190.858 158.842C190.325 158.613 189.865 158.294 189.479 157.884C189.098 157.474 188.805 156.987 188.6 156.425C188.395 155.862 188.292 155.247 188.292 154.579V154.21C188.292 153.437 188.406 152.748 188.635 152.145C188.863 151.535 189.174 151.02 189.566 150.598C189.959 150.176 190.404 149.856 190.902 149.64C191.4 149.423 191.916 149.314 192.449 149.314C193.129 149.314 193.715 149.432 194.207 149.666C194.705 149.9 195.112 150.229 195.429 150.65C195.745 151.066 195.979 151.559 196.132 152.127C196.284 152.689 196.36 153.305 196.36 153.973V154.702H189.259V153.375H194.734V153.252C194.711 152.83 194.623 152.42 194.471 152.021C194.324 151.623 194.09 151.295 193.768 151.037C193.445 150.779 193.006 150.65 192.449 150.65C192.08 150.65 191.74 150.729 191.43 150.888C191.119 151.04 190.853 151.269 190.63 151.573C190.407 151.878 190.234 152.25 190.111 152.689C189.988 153.129 189.927 153.636 189.927 154.21V154.579C189.927 155.03 189.988 155.455 190.111 155.854C190.24 156.246 190.425 156.592 190.665 156.891C190.911 157.189 191.207 157.424 191.553 157.594C191.904 157.764 192.303 157.849 192.748 157.849C193.322 157.849 193.809 157.731 194.207 157.497C194.605 157.263 194.954 156.949 195.253 156.557L196.237 157.339C196.032 157.649 195.771 157.945 195.455 158.227C195.139 158.508 194.749 158.736 194.286 158.912C193.829 159.088 193.287 159.176 192.66 159.176Z" fill="#0F0F0F"/>
<rect x="73" y="15" width="84" height="77" rx="5" fill="#EDF5FC"/>
<g clip-path="url(#clip0_27_223)">
<path d="M136.113 31.8544C130.971 26.7152 122.607 26.7152 117.465 31.8544L106.593 42.7261L118.936 55.0692C121.477 52.9537 124.698 51.6291 128.254 51.6291C130.294 51.6291 132.235 52.0528 134.001 52.8094L136.113 50.5024C141.253 45.3618 141.253 36.9965 136.113 31.8544ZM116.882 57.158L104.521 44.7977L93.881 55.4486C88.7405 60.5891 88.7405 68.9546 93.881 74.0966C99.0229 79.2354 107.485 79.3335 112.627 74.1941L114.784 72.0267C114.027 70.2605 113.603 68.3194 113.603 66.2796C113.603 62.8145 114.863 59.6691 116.882 57.158ZM116.533 66.2797C116.533 72.2508 121.015 77.1239 126.789 77.8523V54.7069C121.015 55.4353 116.533 60.3083 116.533 66.2797ZM129.719 54.7069V77.8523C135.493 77.1239 139.974 72.2508 139.974 66.2796C139.974 60.3084 135.493 55.4353 129.719 54.7069Z" fill="url(#paint0_linear_27_223)"/>
</g>
<rect x="0.5" y="0.5" width="229" height="189" rx="9.5" stroke="url(#paint1_linear_27_223)"/>
<defs>
<linearGradient id="paint0_linear_27_223" x1="105.551" y1="71.3413" x2="135.112" y2="31.0587" gradientUnits="userSpaceOnUse">
<stop offset="0.33" stop-color="#52C5DC"/>
<stop offset="0.63" stop-color="#3C99D4"/>
<stop offset="0.895" stop-color="#3E7ABC"/>
</linearGradient>
<linearGradient id="paint1_linear_27_223" x1="115" y1="0" x2="115" y2="190" gradientUnits="userSpaceOnUse">
<stop offset="0.151042" stop-color="#FAFAFA"/>
<stop offset="0.864583" stop-color="#0457A7"/>
</linearGradient>
<clipPath id="clip0_27_223">
<rect width="50" height="50" fill="white" transform="translate(90 28)"/>
</clipPath>
</defs>
</svg>
