<svg width="113" height="109" viewBox="0 0 113 109" fill="none" xmlns="http://www.w3.org/2000/svg">
<rect x="0.5" y="0.5" width="112" height="108" rx="6.5" fill="white" stroke="url(#paint0_linear_120_430)"/>
<g clip-path="url(#clip0_120_430)">
<path d="M86.8701 60.5669C86.1886 56.3921 82.1833 53.2422 77.7063 53.2422H75.3245C74.1788 52.068 71.3869 49.4597 67.9669 47.9688H65.7779V56.7578H48.1997V47.9688H45.9947C42.5802 49.461 39.7948 52.0684 38.6518 53.2422H36.2708C31.7938 53.2422 27.7885 56.3921 27.1068 60.5687C26.688 63.1486 27.5248 65.7566 29.1984 67.7235C30.5629 69.328 32.4467 70.335 34.4915 70.6674C35.3814 72.8107 37.9795 74.3359 41.1684 74.3359C45.1111 74.3359 48.1996 72.0201 48.1996 69.0625C48.1996 66.1049 45.1111 63.7891 41.1684 63.7891C38.1394 63.7891 35.6304 65.1613 34.6224 67.1358C33.5636 66.8717 32.4814 66.2949 31.759 65.4457C30.7391 64.2473 30.3203 62.7161 30.578 61.1336C30.9831 58.6393 33.4986 56.7578 36.2709 56.7578H37.9009C38.7452 59.7215 41.7297 60.241 43.8222 60.5875C46.1586 60.9739 47.6331 61.3171 48.3866 62.8191C49.4633 64.9683 49.5044 66.5444 49.5507 68.3709C49.58 69.5568 49.6124 70.7841 49.9095 72.2298C50.2409 73.8365 50.5874 74.9471 50.8946 75.929C51.3891 77.512 51.7154 78.5588 51.7154 81.0084V85H62.2622L62.2384 83.125C62.2384 78.4352 62.5076 77.6955 62.997 76.2224C63.2872 75.347 63.6493 74.2554 64.0681 72.2298C64.3653 70.7841 64.3977 69.5568 64.427 68.3709C64.4733 66.5444 64.5145 64.9683 65.5907 62.8191C66.3477 61.3121 67.8204 60.9706 70.1569 60.5875C72.2502 60.2437 75.2349 59.7273 76.0776 56.7578H77.7067C80.479 56.7578 82.9943 58.6393 83.3995 61.1317C83.6568 62.7161 83.1208 64.2473 82.1013 65.4457C81.3789 66.2949 80.4135 66.8717 79.3547 67.1358C78.347 65.1613 75.8376 63.7891 72.809 63.7891C68.8659 63.7891 65.7777 66.1049 65.7777 69.0625C65.7777 72.0201 68.8659 74.3359 72.809 74.3359C75.9973 74.3359 78.5957 72.8106 79.4855 70.6674C81.5308 70.335 83.414 69.3276 84.7786 67.7236C86.4527 65.7561 87.2889 63.1486 86.8701 60.5669Z" fill="url(#paint1_linear_120_430)"/>
<path d="M51.7153 53.2422H62.2622V44.4531H71.0513V33.9062H62.2622V25H51.7153V33.9062H42.9263V44.4531H51.7153V53.2422Z" fill="url(#paint2_linear_120_430)"/>
</g>
<defs>
<linearGradient id="paint0_linear_120_430" x1="56.5" y1="0" x2="56.5" y2="109" gradientUnits="userSpaceOnUse">
<stop stop-color="#0675BC"/>
<stop offset="1" stop-color="#0675BC" stop-opacity="0"/>
</linearGradient>
<linearGradient id="paint1_linear_120_430" x1="56.9885" y1="47.9688" x2="56.9885" y2="85" gradientUnits="userSpaceOnUse">
<stop stop-color="#4196CD"/>
<stop offset="1" stop-color="#67CBE0"/>
</linearGradient>
<linearGradient id="paint2_linear_120_430" x1="56.9888" y1="25" x2="56.9888" y2="53.2422" gradientUnits="userSpaceOnUse">
<stop stop-color="#4196CD"/>
<stop offset="1" stop-color="#67CBE0"/>
</linearGradient>
<clipPath id="clip0_120_430">
<rect width="60" height="60" fill="white" transform="translate(27 25)"/>
</clipPath>
</defs>
</svg>
