<svg width="84" height="77" viewBox="0 0 84 77" fill="none" xmlns="http://www.w3.org/2000/svg">
<rect width="84" height="77" rx="5" fill="#E0F0FF" fill-opacity="0.5"/>
<path d="M50.6241 25.7943C50.6241 20.9451 46.679 17 41.8298 17C36.9806 17 33.0355 20.9451 33.0355 25.7943C33.0355 30.6435 36.9806 34.5887 41.8298 34.5887C46.679 34.5887 50.6241 30.6435 50.6241 25.7943ZM41.8298 34.5887C33.1013 34.5887 26 41.6899 26 50.4185V52.0669C26 52.5669 26.2127 53.0432 26.5851 53.3768C30.8695 57.2158 36.2835 59.3301 41.8298 59.3301C47.3762 59.3301 52.7903 57.2158 57.0745 53.3768C57.2586 53.2118 57.4059 53.0099 57.5067 52.7842C57.6075 52.5585 57.6596 52.3141 57.6596 52.0669V50.4185C57.6596 41.6899 50.5584 34.5887 41.8298 34.5887Z" fill="url(#paint0_linear_27_197)"/>
<defs>
<linearGradient id="paint0_linear_27_197" x1="35.8404" y1="53.6928" x2="62.0696" y2="26.933" gradientUnits="userSpaceOnUse">
<stop offset="0.33" stop-color="#52C5DC"/>
<stop offset="0.63" stop-color="#3C99D4"/>
<stop offset="0.895" stop-color="#3E7ABC"/>
</linearGradient>
</defs>
</svg>
