<svg width="230" height="190" viewBox="0 0 230 190" fill="none" xmlns="http://www.w3.org/2000/svg">
<path d="M49.6445 113.203V126H47.9395L41.4971 116.13V126H39.8008V113.203H41.4971L47.9658 123.1V113.203H49.6445ZM56.3506 126.176C55.6885 126.176 55.0879 126.064 54.5488 125.842C54.0156 125.613 53.5557 125.294 53.1689 124.884C52.7881 124.474 52.4951 123.987 52.29 123.425C52.085 122.862 51.9824 122.247 51.9824 121.579V121.21C51.9824 120.437 52.0967 119.748 52.3252 119.145C52.5537 118.535 52.8643 118.02 53.2568 117.598C53.6494 117.176 54.0947 116.856 54.5928 116.64C55.0908 116.423 55.6064 116.314 56.1396 116.314C56.8193 116.314 57.4053 116.432 57.8975 116.666C58.3955 116.9 58.8027 117.229 59.1191 117.65C59.4355 118.066 59.6699 118.559 59.8223 119.127C59.9746 119.689 60.0508 120.305 60.0508 120.973V121.702H52.9492V120.375H58.4248V120.252C58.4014 119.83 58.3135 119.42 58.1611 119.021C58.0146 118.623 57.7803 118.295 57.458 118.037C57.1357 117.779 56.6963 117.65 56.1396 117.65C55.7705 117.65 55.4307 117.729 55.1201 117.888C54.8096 118.04 54.543 118.269 54.3203 118.573C54.0977 118.878 53.9248 119.25 53.8018 119.689C53.6787 120.129 53.6172 120.636 53.6172 121.21V121.579C53.6172 122.03 53.6787 122.455 53.8018 122.854C53.9307 123.246 54.1152 123.592 54.3555 123.891C54.6016 124.189 54.8975 124.424 55.2432 124.594C55.5947 124.764 55.9932 124.849 56.4385 124.849C57.0127 124.849 57.499 124.731 57.8975 124.497C58.2959 124.263 58.6445 123.949 58.9434 123.557L59.9277 124.339C59.7227 124.649 59.4619 124.945 59.1455 125.227C58.8291 125.508 58.4395 125.736 57.9766 125.912C57.5195 126.088 56.9775 126.176 56.3506 126.176ZM67.5566 124.374V119.479C67.5566 119.104 67.4805 118.778 67.3281 118.503C67.1816 118.222 66.959 118.005 66.6602 117.853C66.3613 117.7 65.9922 117.624 65.5527 117.624C65.1426 117.624 64.7822 117.694 64.4717 117.835C64.167 117.976 63.9268 118.16 63.751 118.389C63.5811 118.617 63.4961 118.863 63.4961 119.127H61.8701C61.8701 118.787 61.958 118.45 62.1338 118.116C62.3096 117.782 62.5615 117.48 62.8896 117.211C63.2236 116.936 63.6221 116.719 64.085 116.561C64.5537 116.396 65.0752 116.314 65.6494 116.314C66.3408 116.314 66.9502 116.432 67.4775 116.666C68.0107 116.9 68.4268 117.255 68.7256 117.729C69.0303 118.198 69.1826 118.787 69.1826 119.496V123.926C69.1826 124.242 69.209 124.579 69.2617 124.937C69.3203 125.294 69.4053 125.602 69.5166 125.859V126H67.8203C67.7383 125.812 67.6738 125.563 67.627 125.253C67.5801 124.937 67.5566 124.644 67.5566 124.374ZM67.8379 120.234L67.8555 121.377H66.2119C65.749 121.377 65.3359 121.415 64.9727 121.491C64.6094 121.562 64.3047 121.67 64.0586 121.816C63.8125 121.963 63.625 122.147 63.4961 122.37C63.3672 122.587 63.3027 122.842 63.3027 123.135C63.3027 123.434 63.3701 123.706 63.5049 123.952C63.6396 124.198 63.8418 124.395 64.1113 124.541C64.3867 124.682 64.7236 124.752 65.1221 124.752C65.6201 124.752 66.0596 124.646 66.4404 124.436C66.8213 124.225 67.123 123.967 67.3457 123.662C67.5742 123.357 67.6973 123.062 67.7148 122.774L68.4092 123.557C68.3682 123.803 68.2568 124.075 68.0752 124.374C67.8936 124.673 67.6504 124.96 67.3457 125.235C67.0469 125.505 66.6895 125.73 66.2734 125.912C65.8633 126.088 65.4004 126.176 64.8848 126.176C64.2402 126.176 63.6748 126.05 63.1885 125.798C62.708 125.546 62.333 125.209 62.0635 124.787C61.7998 124.359 61.668 123.882 61.668 123.354C61.668 122.845 61.7676 122.396 61.9668 122.01C62.166 121.617 62.4531 121.292 62.8281 121.034C63.2031 120.771 63.6543 120.571 64.1816 120.437C64.709 120.302 65.2979 120.234 65.9482 120.234H67.8379ZM73.3662 117.984V126H71.7402V116.49H73.3223L73.3662 117.984ZM76.3369 116.438L76.3281 117.949C76.1934 117.92 76.0645 117.902 75.9414 117.896C75.8242 117.885 75.6895 117.879 75.5371 117.879C75.1621 117.879 74.8311 117.938 74.5439 118.055C74.2568 118.172 74.0137 118.336 73.8145 118.547C73.6152 118.758 73.457 119.01 73.3398 119.303C73.2285 119.59 73.1553 119.906 73.1201 120.252L72.6631 120.516C72.6631 119.941 72.7188 119.402 72.8301 118.898C72.9473 118.395 73.126 117.949 73.3662 117.562C73.6064 117.17 73.9111 116.865 74.2803 116.648C74.6553 116.426 75.1006 116.314 75.6162 116.314C75.7334 116.314 75.8682 116.329 76.0205 116.358C76.1729 116.382 76.2783 116.408 76.3369 116.438ZM77.8311 112.5H79.4658V124.154L79.3252 126H77.8311V112.5ZM85.8906 121.166V121.351C85.8906 122.042 85.8086 122.684 85.6445 123.275C85.4805 123.861 85.2402 124.371 84.9238 124.805C84.6074 125.238 84.2207 125.575 83.7637 125.815C83.3066 126.056 82.7822 126.176 82.1904 126.176C81.5869 126.176 81.0566 126.073 80.5996 125.868C80.1484 125.657 79.7676 125.355 79.457 124.963C79.1465 124.57 78.8975 124.096 78.71 123.539C78.5283 122.982 78.4023 122.355 78.332 121.658V120.85C78.4023 120.146 78.5283 119.517 78.71 118.96C78.8975 118.403 79.1465 117.929 79.457 117.536C79.7676 117.138 80.1484 116.836 80.5996 116.631C81.0508 116.42 81.5752 116.314 82.1729 116.314C82.7705 116.314 83.3008 116.432 83.7637 116.666C84.2266 116.895 84.6133 117.223 84.9238 117.65C85.2402 118.078 85.4805 118.591 85.6445 119.188C85.8086 119.78 85.8906 120.439 85.8906 121.166ZM84.2559 121.351V121.166C84.2559 120.691 84.2119 120.246 84.124 119.83C84.0361 119.408 83.8955 119.039 83.7021 118.723C83.5088 118.4 83.2539 118.148 82.9375 117.967C82.6211 117.779 82.2314 117.686 81.7686 117.686C81.3584 117.686 81.001 117.756 80.6963 117.896C80.3975 118.037 80.1426 118.228 79.9316 118.468C79.7207 118.702 79.5479 118.972 79.4131 119.276C79.2842 119.575 79.1875 119.886 79.123 120.208V122.326C79.2168 122.736 79.3691 123.132 79.5801 123.513C79.7969 123.888 80.084 124.195 80.4414 124.436C80.8047 124.676 81.2529 124.796 81.7861 124.796C82.2256 124.796 82.6006 124.708 82.9111 124.532C83.2275 124.351 83.4824 124.102 83.6758 123.785C83.875 123.469 84.0215 123.103 84.1152 122.687C84.209 122.271 84.2559 121.825 84.2559 121.351ZM90.5137 125.016L93.1592 116.49H94.8994L91.085 127.468C90.9971 127.702 90.8799 127.954 90.7334 128.224C90.5928 128.499 90.4111 128.76 90.1885 129.006C89.9658 129.252 89.6963 129.451 89.3799 129.604C89.0693 129.762 88.6973 129.841 88.2637 129.841C88.1348 129.841 87.9707 129.823 87.7715 129.788C87.5723 129.753 87.4316 129.724 87.3496 129.7L87.3408 128.382C87.3877 128.388 87.4609 128.394 87.5605 128.399C87.666 128.411 87.7393 128.417 87.7803 128.417C88.1494 128.417 88.4629 128.367 88.7207 128.268C88.9785 128.174 89.1953 128.013 89.3711 127.784C89.5527 127.562 89.708 127.254 89.8369 126.861L90.5137 125.016ZM88.5713 116.49L91.041 123.873L91.4629 125.587L90.2939 126.185L86.7959 116.49H88.5713ZM102.774 113.203V126H101.078V113.203H102.774ZM108.136 118.96V120.349H102.405V118.96H108.136ZM109.006 113.203V114.592H102.405V113.203H109.006ZM116.09 124.374V119.479C116.09 119.104 116.014 118.778 115.861 118.503C115.715 118.222 115.492 118.005 115.193 117.853C114.895 117.7 114.525 117.624 114.086 117.624C113.676 117.624 113.315 117.694 113.005 117.835C112.7 117.976 112.46 118.16 112.284 118.389C112.114 118.617 112.029 118.863 112.029 119.127H110.403C110.403 118.787 110.491 118.45 110.667 118.116C110.843 117.782 111.095 117.48 111.423 117.211C111.757 116.936 112.155 116.719 112.618 116.561C113.087 116.396 113.608 116.314 114.183 116.314C114.874 116.314 115.483 116.432 116.011 116.666C116.544 116.9 116.96 117.255 117.259 117.729C117.563 118.198 117.716 118.787 117.716 119.496V123.926C117.716 124.242 117.742 124.579 117.795 124.937C117.854 125.294 117.938 125.602 118.05 125.859V126H116.354C116.271 125.812 116.207 125.563 116.16 125.253C116.113 124.937 116.09 124.644 116.09 124.374ZM116.371 120.234L116.389 121.377H114.745C114.282 121.377 113.869 121.415 113.506 121.491C113.143 121.562 112.838 121.67 112.592 121.816C112.346 121.963 112.158 122.147 112.029 122.37C111.9 122.587 111.836 122.842 111.836 123.135C111.836 123.434 111.903 123.706 112.038 123.952C112.173 124.198 112.375 124.395 112.645 124.541C112.92 124.682 113.257 124.752 113.655 124.752C114.153 124.752 114.593 124.646 114.974 124.436C115.354 124.225 115.656 123.967 115.879 123.662C116.107 123.357 116.23 123.062 116.248 122.774L116.942 123.557C116.901 123.803 116.79 124.075 116.608 124.374C116.427 124.673 116.184 124.96 115.879 125.235C115.58 125.505 115.223 125.73 114.807 125.912C114.396 126.088 113.934 126.176 113.418 126.176C112.773 126.176 112.208 126.05 111.722 125.798C111.241 125.546 110.866 125.209 110.597 124.787C110.333 124.359 110.201 123.882 110.201 123.354C110.201 122.845 110.301 122.396 110.5 122.01C110.699 121.617 110.986 121.292 111.361 121.034C111.736 120.771 112.188 120.571 112.715 120.437C113.242 120.302 113.831 120.234 114.481 120.234H116.371ZM124.079 124.84C124.466 124.84 124.823 124.761 125.151 124.603C125.479 124.444 125.749 124.228 125.96 123.952C126.171 123.671 126.291 123.352 126.32 122.994H127.867C127.838 123.557 127.647 124.081 127.296 124.567C126.95 125.048 126.496 125.438 125.934 125.736C125.371 126.029 124.753 126.176 124.079 126.176C123.364 126.176 122.74 126.05 122.207 125.798C121.68 125.546 121.24 125.2 120.889 124.761C120.543 124.321 120.282 123.817 120.106 123.249C119.937 122.675 119.852 122.068 119.852 121.43V121.061C119.852 120.422 119.937 119.818 120.106 119.25C120.282 118.676 120.543 118.169 120.889 117.729C121.24 117.29 121.68 116.944 122.207 116.692C122.74 116.44 123.364 116.314 124.079 116.314C124.823 116.314 125.474 116.467 126.03 116.771C126.587 117.07 127.023 117.48 127.34 118.002C127.662 118.518 127.838 119.104 127.867 119.76H126.32C126.291 119.367 126.18 119.013 125.986 118.696C125.799 118.38 125.541 118.128 125.213 117.94C124.891 117.747 124.513 117.65 124.079 117.65C123.581 117.65 123.162 117.75 122.822 117.949C122.488 118.143 122.222 118.406 122.022 118.74C121.829 119.068 121.688 119.435 121.601 119.839C121.519 120.237 121.478 120.645 121.478 121.061V121.43C121.478 121.846 121.519 122.256 121.601 122.66C121.683 123.064 121.82 123.431 122.014 123.759C122.213 124.087 122.479 124.351 122.813 124.55C123.153 124.743 123.575 124.84 124.079 124.84ZM131.462 116.49V126H129.827V116.49H131.462ZM129.704 113.968C129.704 113.704 129.783 113.481 129.941 113.3C130.105 113.118 130.346 113.027 130.662 113.027C130.973 113.027 131.21 113.118 131.374 113.3C131.544 113.481 131.629 113.704 131.629 113.968C131.629 114.22 131.544 114.437 131.374 114.618C131.21 114.794 130.973 114.882 130.662 114.882C130.346 114.882 130.105 114.794 129.941 114.618C129.783 114.437 129.704 114.22 129.704 113.968ZM135.839 112.5V126H134.204V112.5H135.839ZM140.216 116.49V126H138.581V116.49H140.216ZM138.458 113.968C138.458 113.704 138.537 113.481 138.695 113.3C138.859 113.118 139.1 113.027 139.416 113.027C139.727 113.027 139.964 113.118 140.128 113.3C140.298 113.481 140.383 113.704 140.383 113.968C140.383 114.22 140.298 114.437 140.128 114.618C139.964 114.794 139.727 114.882 139.416 114.882C139.1 114.882 138.859 114.794 138.695 114.618C138.537 114.437 138.458 114.22 138.458 113.968ZM146.808 116.49V117.738H141.666V116.49H146.808ZM143.406 114.179H145.032V123.645C145.032 123.967 145.082 124.21 145.182 124.374C145.281 124.538 145.41 124.646 145.568 124.699C145.727 124.752 145.896 124.778 146.078 124.778C146.213 124.778 146.354 124.767 146.5 124.743C146.652 124.714 146.767 124.69 146.843 124.673L146.852 126C146.723 126.041 146.553 126.079 146.342 126.114C146.137 126.155 145.888 126.176 145.595 126.176C145.196 126.176 144.83 126.097 144.496 125.938C144.162 125.78 143.896 125.517 143.696 125.147C143.503 124.772 143.406 124.269 143.406 123.636V114.179ZM150.481 116.49V126H148.847V116.49H150.481ZM148.724 113.968C148.724 113.704 148.803 113.481 148.961 113.3C149.125 113.118 149.365 113.027 149.682 113.027C149.992 113.027 150.229 113.118 150.394 113.3C150.563 113.481 150.648 113.704 150.648 113.968C150.648 114.22 150.563 114.437 150.394 114.618C150.229 114.794 149.992 114.882 149.682 114.882C149.365 114.882 149.125 114.794 148.961 114.618C148.803 114.437 148.724 114.22 148.724 113.968ZM157.038 126.176C156.376 126.176 155.775 126.064 155.236 125.842C154.703 125.613 154.243 125.294 153.856 124.884C153.476 124.474 153.183 123.987 152.978 123.425C152.772 122.862 152.67 122.247 152.67 121.579V121.21C152.67 120.437 152.784 119.748 153.013 119.145C153.241 118.535 153.552 118.02 153.944 117.598C154.337 117.176 154.782 116.856 155.28 116.64C155.778 116.423 156.294 116.314 156.827 116.314C157.507 116.314 158.093 116.432 158.585 116.666C159.083 116.9 159.49 117.229 159.807 117.65C160.123 118.066 160.357 118.559 160.51 119.127C160.662 119.689 160.738 120.305 160.738 120.973V121.702H153.637V120.375H159.112V120.252C159.089 119.83 159.001 119.42 158.849 119.021C158.702 118.623 158.468 118.295 158.146 118.037C157.823 117.779 157.384 117.65 156.827 117.65C156.458 117.65 156.118 117.729 155.808 117.888C155.497 118.04 155.23 118.269 155.008 118.573C154.785 118.878 154.612 119.25 154.489 119.689C154.366 120.129 154.305 120.636 154.305 121.21V121.579C154.305 122.03 154.366 122.455 154.489 122.854C154.618 123.246 154.803 123.592 155.043 123.891C155.289 124.189 155.585 124.424 155.931 124.594C156.282 124.764 156.681 124.849 157.126 124.849C157.7 124.849 158.187 124.731 158.585 124.497C158.983 124.263 159.332 123.949 159.631 123.557L160.615 124.339C160.41 124.649 160.149 124.945 159.833 125.227C159.517 125.508 159.127 125.736 158.664 125.912C158.207 126.088 157.665 126.176 157.038 126.176ZM168.174 123.478C168.174 123.243 168.121 123.026 168.016 122.827C167.916 122.622 167.708 122.438 167.392 122.273C167.081 122.104 166.612 121.957 165.985 121.834C165.458 121.723 164.98 121.591 164.553 121.438C164.131 121.286 163.771 121.102 163.472 120.885C163.179 120.668 162.953 120.413 162.795 120.12C162.637 119.827 162.558 119.484 162.558 119.092C162.558 118.717 162.64 118.362 162.804 118.028C162.974 117.694 163.211 117.398 163.516 117.141C163.826 116.883 164.198 116.681 164.632 116.534C165.065 116.388 165.549 116.314 166.082 116.314C166.844 116.314 167.494 116.449 168.033 116.719C168.572 116.988 168.985 117.349 169.272 117.8C169.56 118.245 169.703 118.74 169.703 119.285H168.077C168.077 119.021 167.998 118.767 167.84 118.521C167.688 118.269 167.462 118.061 167.163 117.896C166.87 117.732 166.51 117.65 166.082 117.65C165.631 117.65 165.265 117.721 164.983 117.861C164.708 117.996 164.506 118.169 164.377 118.38C164.254 118.591 164.192 118.813 164.192 119.048C164.192 119.224 164.222 119.382 164.28 119.522C164.345 119.657 164.456 119.783 164.614 119.9C164.772 120.012 164.995 120.117 165.282 120.217C165.569 120.316 165.936 120.416 166.381 120.516C167.16 120.691 167.802 120.902 168.306 121.148C168.81 121.395 169.185 121.696 169.431 122.054C169.677 122.411 169.8 122.845 169.8 123.354C169.8 123.771 169.712 124.151 169.536 124.497C169.366 124.843 169.117 125.142 168.789 125.394C168.467 125.64 168.08 125.833 167.629 125.974C167.184 126.108 166.683 126.176 166.126 126.176C165.288 126.176 164.579 126.026 163.999 125.728C163.419 125.429 162.979 125.042 162.681 124.567C162.382 124.093 162.232 123.592 162.232 123.064H163.867C163.891 123.51 164.02 123.864 164.254 124.128C164.488 124.386 164.775 124.57 165.115 124.682C165.455 124.787 165.792 124.84 166.126 124.84C166.571 124.84 166.943 124.781 167.242 124.664C167.547 124.547 167.778 124.386 167.937 124.181C168.095 123.976 168.174 123.741 168.174 123.478ZM175.97 121.351V121.148C175.97 120.463 176.069 119.827 176.269 119.241C176.468 118.649 176.755 118.137 177.13 117.703C177.505 117.264 177.959 116.924 178.492 116.684C179.025 116.438 179.623 116.314 180.285 116.314C180.953 116.314 181.554 116.438 182.087 116.684C182.626 116.924 183.083 117.264 183.458 117.703C183.839 118.137 184.129 118.649 184.328 119.241C184.527 119.827 184.627 120.463 184.627 121.148V121.351C184.627 122.036 184.527 122.672 184.328 123.258C184.129 123.844 183.839 124.356 183.458 124.796C183.083 125.229 182.629 125.569 182.096 125.815C181.568 126.056 180.971 126.176 180.303 126.176C179.635 126.176 179.034 126.056 178.501 125.815C177.968 125.569 177.511 125.229 177.13 124.796C176.755 124.356 176.468 123.844 176.269 123.258C176.069 122.672 175.97 122.036 175.97 121.351ZM177.596 121.148V121.351C177.596 121.825 177.651 122.273 177.763 122.695C177.874 123.111 178.041 123.48 178.264 123.803C178.492 124.125 178.776 124.38 179.116 124.567C179.456 124.749 179.852 124.84 180.303 124.84C180.748 124.84 181.138 124.749 181.472 124.567C181.812 124.38 182.093 124.125 182.315 123.803C182.538 123.48 182.705 123.111 182.816 122.695C182.934 122.273 182.992 121.825 182.992 121.351V121.148C182.992 120.68 182.934 120.237 182.816 119.821C182.705 119.399 182.535 119.027 182.307 118.705C182.084 118.377 181.803 118.119 181.463 117.932C181.129 117.744 180.736 117.65 180.285 117.65C179.84 117.65 179.447 117.744 179.107 117.932C178.773 118.119 178.492 118.377 178.264 118.705C178.041 119.027 177.874 119.399 177.763 119.821C177.651 120.237 177.596 120.68 177.596 121.148ZM189.092 126H187.466V115.488C187.466 114.803 187.589 114.226 187.835 113.757C188.087 113.282 188.447 112.925 188.916 112.685C189.385 112.438 189.941 112.315 190.586 112.315C190.773 112.315 190.961 112.327 191.148 112.351C191.342 112.374 191.529 112.409 191.711 112.456L191.623 113.783C191.5 113.754 191.359 113.733 191.201 113.722C191.049 113.71 190.896 113.704 190.744 113.704C190.398 113.704 190.1 113.774 189.848 113.915C189.602 114.05 189.414 114.249 189.285 114.513C189.156 114.776 189.092 115.102 189.092 115.488V126ZM191.113 116.49V117.738H185.963V116.49H191.113ZM28.4102 142.981H24.9912V141.602H28.4102C29.0723 141.602 29.6084 141.496 30.0186 141.285C30.4287 141.074 30.7275 140.781 30.915 140.406C31.1084 140.031 31.2051 139.604 31.2051 139.123C31.2051 138.684 31.1084 138.271 30.915 137.884C30.7275 137.497 30.4287 137.187 30.0186 136.952C29.6084 136.712 29.0723 136.592 28.4102 136.592H25.3867V148H23.6904V135.203H28.4102C29.377 135.203 30.1943 135.37 30.8623 135.704C31.5303 136.038 32.0371 136.501 32.3828 137.093C32.7285 137.679 32.9014 138.35 32.9014 139.105C32.9014 139.926 32.7285 140.626 32.3828 141.206C32.0371 141.786 31.5303 142.229 30.8623 142.533C30.1943 142.832 29.377 142.981 28.4102 142.981ZM36.4258 134.5V148H34.7998V134.5H36.4258ZM36.0391 142.885L35.3623 142.858C35.3682 142.208 35.4648 141.607 35.6523 141.057C35.8398 140.5 36.1035 140.017 36.4434 139.606C36.7832 139.196 37.1875 138.88 37.6562 138.657C38.1309 138.429 38.6553 138.314 39.2295 138.314C39.6982 138.314 40.1201 138.379 40.4951 138.508C40.8701 138.631 41.1895 138.83 41.4531 139.105C41.7227 139.381 41.9277 139.738 42.0684 140.178C42.209 140.611 42.2793 141.142 42.2793 141.769V148H40.6445V141.751C40.6445 141.253 40.5713 140.854 40.4248 140.556C40.2783 140.251 40.0645 140.031 39.7832 139.896C39.502 139.756 39.1562 139.686 38.7461 139.686C38.3418 139.686 37.9727 139.771 37.6387 139.94C37.3105 140.11 37.0264 140.345 36.7861 140.644C36.5518 140.942 36.3672 141.285 36.2324 141.672C36.1035 142.053 36.0391 142.457 36.0391 142.885ZM50.3213 146.374V141.479C50.3213 141.104 50.2451 140.778 50.0928 140.503C49.9463 140.222 49.7236 140.005 49.4248 139.853C49.126 139.7 48.7568 139.624 48.3174 139.624C47.9072 139.624 47.5469 139.694 47.2363 139.835C46.9316 139.976 46.6914 140.16 46.5156 140.389C46.3457 140.617 46.2607 140.863 46.2607 141.127H44.6348C44.6348 140.787 44.7227 140.45 44.8984 140.116C45.0742 139.782 45.3262 139.48 45.6543 139.211C45.9883 138.936 46.3867 138.719 46.8496 138.561C47.3184 138.396 47.8398 138.314 48.4141 138.314C49.1055 138.314 49.7148 138.432 50.2422 138.666C50.7754 138.9 51.1914 139.255 51.4902 139.729C51.7949 140.198 51.9473 140.787 51.9473 141.496V145.926C51.9473 146.242 51.9736 146.579 52.0264 146.937C52.085 147.294 52.1699 147.602 52.2812 147.859V148H50.585C50.5029 147.812 50.4385 147.563 50.3916 147.253C50.3447 146.937 50.3213 146.644 50.3213 146.374ZM50.6025 142.234L50.6201 143.377H48.9766C48.5137 143.377 48.1006 143.415 47.7373 143.491C47.374 143.562 47.0693 143.67 46.8232 143.816C46.5771 143.963 46.3896 144.147 46.2607 144.37C46.1318 144.587 46.0674 144.842 46.0674 145.135C46.0674 145.434 46.1348 145.706 46.2695 145.952C46.4043 146.198 46.6064 146.395 46.876 146.541C47.1514 146.682 47.4883 146.752 47.8867 146.752C48.3848 146.752 48.8242 146.646 49.2051 146.436C49.5859 146.225 49.8877 145.967 50.1104 145.662C50.3389 145.357 50.4619 145.062 50.4795 144.774L51.1738 145.557C51.1328 145.803 51.0215 146.075 50.8398 146.374C50.6582 146.673 50.415 146.96 50.1104 147.235C49.8115 147.505 49.4541 147.73 49.0381 147.912C48.6279 148.088 48.165 148.176 47.6494 148.176C47.0049 148.176 46.4395 148.05 45.9531 147.798C45.4727 147.546 45.0977 147.209 44.8281 146.787C44.5645 146.359 44.4326 145.882 44.4326 145.354C44.4326 144.845 44.5322 144.396 44.7314 144.01C44.9307 143.617 45.2178 143.292 45.5928 143.034C45.9678 142.771 46.4189 142.571 46.9463 142.437C47.4736 142.302 48.0625 142.234 48.7129 142.234H50.6025ZM56.1309 139.984V148H54.5049V138.49H56.0869L56.1309 139.984ZM59.1016 138.438L59.0928 139.949C58.958 139.92 58.8291 139.902 58.7061 139.896C58.5889 139.885 58.4541 139.879 58.3018 139.879C57.9268 139.879 57.5957 139.938 57.3086 140.055C57.0215 140.172 56.7783 140.336 56.5791 140.547C56.3799 140.758 56.2217 141.01 56.1045 141.303C55.9932 141.59 55.9199 141.906 55.8848 142.252L55.4277 142.516C55.4277 141.941 55.4834 141.402 55.5947 140.898C55.7119 140.395 55.8906 139.949 56.1309 139.562C56.3711 139.17 56.6758 138.865 57.0449 138.648C57.4199 138.426 57.8652 138.314 58.3809 138.314C58.498 138.314 58.6328 138.329 58.7852 138.358C58.9375 138.382 59.043 138.408 59.1016 138.438ZM62.2217 140.38V148H60.5869V138.49H62.1338L62.2217 140.38ZM61.8877 142.885L61.1318 142.858C61.1377 142.208 61.2227 141.607 61.3867 141.057C61.5508 140.5 61.7939 140.017 62.1162 139.606C62.4385 139.196 62.8398 138.88 63.3203 138.657C63.8008 138.429 64.3574 138.314 64.9902 138.314C65.4355 138.314 65.8457 138.379 66.2207 138.508C66.5957 138.631 66.9209 138.827 67.1963 139.097C67.4717 139.366 67.6855 139.712 67.8379 140.134C67.9902 140.556 68.0664 141.065 68.0664 141.663V148H66.4404V141.742C66.4404 141.244 66.3555 140.846 66.1855 140.547C66.0215 140.248 65.7871 140.031 65.4824 139.896C65.1777 139.756 64.8203 139.686 64.4102 139.686C63.9297 139.686 63.5283 139.771 63.2061 139.94C62.8838 140.11 62.626 140.345 62.4326 140.644C62.2393 140.942 62.0986 141.285 62.0107 141.672C61.9287 142.053 61.8877 142.457 61.8877 142.885ZM68.0488 141.988L66.959 142.322C66.9648 141.801 67.0498 141.3 67.2139 140.819C67.3838 140.339 67.627 139.911 67.9434 139.536C68.2656 139.161 68.6611 138.865 69.1299 138.648C69.5986 138.426 70.1348 138.314 70.7383 138.314C71.248 138.314 71.6992 138.382 72.0918 138.517C72.4902 138.651 72.8242 138.859 73.0938 139.141C73.3691 139.416 73.5771 139.771 73.7178 140.204C73.8584 140.638 73.9287 141.153 73.9287 141.751V148H72.2939V141.733C72.2939 141.2 72.209 140.787 72.0391 140.494C71.875 140.195 71.6406 139.987 71.3359 139.87C71.0371 139.747 70.6797 139.686 70.2637 139.686C69.9062 139.686 69.5898 139.747 69.3145 139.87C69.0391 139.993 68.8076 140.163 68.6201 140.38C68.4326 140.591 68.2891 140.834 68.1895 141.109C68.0957 141.385 68.0488 141.678 68.0488 141.988ZM81.9971 146.374V141.479C81.9971 141.104 81.9209 140.778 81.7686 140.503C81.6221 140.222 81.3994 140.005 81.1006 139.853C80.8018 139.7 80.4326 139.624 79.9932 139.624C79.583 139.624 79.2227 139.694 78.9121 139.835C78.6074 139.976 78.3672 140.16 78.1914 140.389C78.0215 140.617 77.9365 140.863 77.9365 141.127H76.3105C76.3105 140.787 76.3984 140.45 76.5742 140.116C76.75 139.782 77.002 139.48 77.3301 139.211C77.6641 138.936 78.0625 138.719 78.5254 138.561C78.9941 138.396 79.5156 138.314 80.0898 138.314C80.7812 138.314 81.3906 138.432 81.918 138.666C82.4512 138.9 82.8672 139.255 83.166 139.729C83.4707 140.198 83.623 140.787 83.623 141.496V145.926C83.623 146.242 83.6494 146.579 83.7021 146.937C83.7607 147.294 83.8457 147.602 83.957 147.859V148H82.2607C82.1787 147.812 82.1143 147.563 82.0674 147.253C82.0205 146.937 81.9971 146.644 81.9971 146.374ZM82.2783 142.234L82.2959 143.377H80.6523C80.1895 143.377 79.7764 143.415 79.4131 143.491C79.0498 143.562 78.7451 143.67 78.499 143.816C78.2529 143.963 78.0654 144.147 77.9365 144.37C77.8076 144.587 77.7432 144.842 77.7432 145.135C77.7432 145.434 77.8105 145.706 77.9453 145.952C78.0801 146.198 78.2822 146.395 78.5518 146.541C78.8271 146.682 79.1641 146.752 79.5625 146.752C80.0605 146.752 80.5 146.646 80.8809 146.436C81.2617 146.225 81.5635 145.967 81.7861 145.662C82.0146 145.357 82.1377 145.062 82.1553 144.774L82.8496 145.557C82.8086 145.803 82.6973 146.075 82.5156 146.374C82.334 146.673 82.0908 146.96 81.7861 147.235C81.4873 147.505 81.1299 147.73 80.7139 147.912C80.3037 148.088 79.8408 148.176 79.3252 148.176C78.6807 148.176 78.1152 148.05 77.6289 147.798C77.1484 147.546 76.7734 147.209 76.5039 146.787C76.2402 146.359 76.1084 145.882 76.1084 145.354C76.1084 144.845 76.208 144.396 76.4072 144.01C76.6064 143.617 76.8936 143.292 77.2686 143.034C77.6436 142.771 78.0947 142.571 78.6221 142.437C79.1494 142.302 79.7383 142.234 80.3887 142.234H82.2783ZM89.9863 146.84C90.373 146.84 90.7305 146.761 91.0586 146.603C91.3867 146.444 91.6562 146.228 91.8672 145.952C92.0781 145.671 92.1982 145.352 92.2275 144.994H93.7744C93.7451 145.557 93.5547 146.081 93.2031 146.567C92.8574 147.048 92.4033 147.438 91.8408 147.736C91.2783 148.029 90.6602 148.176 89.9863 148.176C89.2715 148.176 88.6475 148.05 88.1143 147.798C87.5869 147.546 87.1475 147.2 86.7959 146.761C86.4502 146.321 86.1895 145.817 86.0137 145.249C85.8438 144.675 85.7588 144.068 85.7588 143.43V143.061C85.7588 142.422 85.8438 141.818 86.0137 141.25C86.1895 140.676 86.4502 140.169 86.7959 139.729C87.1475 139.29 87.5869 138.944 88.1143 138.692C88.6475 138.44 89.2715 138.314 89.9863 138.314C90.7305 138.314 91.3809 138.467 91.9375 138.771C92.4941 139.07 92.9307 139.48 93.2471 140.002C93.5693 140.518 93.7451 141.104 93.7744 141.76H92.2275C92.1982 141.367 92.0869 141.013 91.8936 140.696C91.7061 140.38 91.4482 140.128 91.1201 139.94C90.7979 139.747 90.4199 139.65 89.9863 139.65C89.4883 139.65 89.0693 139.75 88.7295 139.949C88.3955 140.143 88.1289 140.406 87.9297 140.74C87.7363 141.068 87.5957 141.435 87.5078 141.839C87.4258 142.237 87.3848 142.645 87.3848 143.061V143.43C87.3848 143.846 87.4258 144.256 87.5078 144.66C87.5898 145.064 87.7275 145.431 87.9209 145.759C88.1201 146.087 88.3867 146.351 88.7207 146.55C89.0605 146.743 89.4824 146.84 89.9863 146.84ZM98.2744 147.016L100.92 138.49H102.66L98.8457 149.468C98.7578 149.702 98.6406 149.954 98.4941 150.224C98.3535 150.499 98.1719 150.76 97.9492 151.006C97.7266 151.252 97.457 151.451 97.1406 151.604C96.8301 151.762 96.458 151.841 96.0244 151.841C95.8955 151.841 95.7314 151.823 95.5322 151.788C95.333 151.753 95.1924 151.724 95.1104 151.7L95.1016 150.382C95.1484 150.388 95.2217 150.394 95.3213 150.399C95.4268 150.411 95.5 150.417 95.541 150.417C95.9102 150.417 96.2236 150.367 96.4814 150.268C96.7393 150.174 96.9561 150.013 97.1318 149.784C97.3135 149.562 97.4688 149.254 97.5977 148.861L98.2744 147.016ZM96.332 138.49L98.8018 145.873L99.2236 147.587L98.0547 148.185L94.5566 138.49H96.332ZM104.655 146.066V147.376C104.655 147.909 104.521 148.472 104.251 149.063C103.981 149.661 103.604 150.159 103.117 150.558L102.194 149.916C102.382 149.658 102.54 149.395 102.669 149.125C102.798 148.861 102.895 148.586 102.959 148.299C103.029 148.018 103.064 147.719 103.064 147.402V146.066H104.655ZM119.201 146.62V148H112.803V146.62H119.201ZM113.137 135.203V148H111.44V135.203H113.137ZM126.505 146.374V141.479C126.505 141.104 126.429 140.778 126.276 140.503C126.13 140.222 125.907 140.005 125.608 139.853C125.31 139.7 124.94 139.624 124.501 139.624C124.091 139.624 123.73 139.694 123.42 139.835C123.115 139.976 122.875 140.16 122.699 140.389C122.529 140.617 122.444 140.863 122.444 141.127H120.818C120.818 140.787 120.906 140.45 121.082 140.116C121.258 139.782 121.51 139.48 121.838 139.211C122.172 138.936 122.57 138.719 123.033 138.561C123.502 138.396 124.023 138.314 124.598 138.314C125.289 138.314 125.898 138.432 126.426 138.666C126.959 138.9 127.375 139.255 127.674 139.729C127.979 140.198 128.131 140.787 128.131 141.496V145.926C128.131 146.242 128.157 146.579 128.21 146.937C128.269 147.294 128.354 147.602 128.465 147.859V148H126.769C126.687 147.812 126.622 147.563 126.575 147.253C126.528 146.937 126.505 146.644 126.505 146.374ZM126.786 142.234L126.804 143.377H125.16C124.697 143.377 124.284 143.415 123.921 143.491C123.558 143.562 123.253 143.67 123.007 143.816C122.761 143.963 122.573 144.147 122.444 144.37C122.315 144.587 122.251 144.842 122.251 145.135C122.251 145.434 122.318 145.706 122.453 145.952C122.588 146.198 122.79 146.395 123.06 146.541C123.335 146.682 123.672 146.752 124.07 146.752C124.568 146.752 125.008 146.646 125.389 146.436C125.77 146.225 126.071 145.967 126.294 145.662C126.522 145.357 126.646 145.062 126.663 144.774L127.357 145.557C127.316 145.803 127.205 146.075 127.023 146.374C126.842 146.673 126.599 146.96 126.294 147.235C125.995 147.505 125.638 147.73 125.222 147.912C124.812 148.088 124.349 148.176 123.833 148.176C123.188 148.176 122.623 148.05 122.137 147.798C121.656 147.546 121.281 147.209 121.012 146.787C120.748 146.359 120.616 145.882 120.616 145.354C120.616 144.845 120.716 144.396 120.915 144.01C121.114 143.617 121.401 143.292 121.776 143.034C122.151 142.771 122.603 142.571 123.13 142.437C123.657 142.302 124.246 142.234 124.896 142.234H126.786ZM130.68 134.5H132.314V146.154L132.174 148H130.68V134.5ZM138.739 143.166V143.351C138.739 144.042 138.657 144.684 138.493 145.275C138.329 145.861 138.089 146.371 137.772 146.805C137.456 147.238 137.069 147.575 136.612 147.815C136.155 148.056 135.631 148.176 135.039 148.176C134.436 148.176 133.905 148.073 133.448 147.868C132.997 147.657 132.616 147.355 132.306 146.963C131.995 146.57 131.746 146.096 131.559 145.539C131.377 144.982 131.251 144.355 131.181 143.658V142.85C131.251 142.146 131.377 141.517 131.559 140.96C131.746 140.403 131.995 139.929 132.306 139.536C132.616 139.138 132.997 138.836 133.448 138.631C133.899 138.42 134.424 138.314 135.021 138.314C135.619 138.314 136.149 138.432 136.612 138.666C137.075 138.895 137.462 139.223 137.772 139.65C138.089 140.078 138.329 140.591 138.493 141.188C138.657 141.78 138.739 142.439 138.739 143.166ZM137.104 143.351V143.166C137.104 142.691 137.061 142.246 136.973 141.83C136.885 141.408 136.744 141.039 136.551 140.723C136.357 140.4 136.103 140.148 135.786 139.967C135.47 139.779 135.08 139.686 134.617 139.686C134.207 139.686 133.85 139.756 133.545 139.896C133.246 140.037 132.991 140.228 132.78 140.468C132.569 140.702 132.396 140.972 132.262 141.276C132.133 141.575 132.036 141.886 131.972 142.208V144.326C132.065 144.736 132.218 145.132 132.429 145.513C132.646 145.888 132.933 146.195 133.29 146.436C133.653 146.676 134.102 146.796 134.635 146.796C135.074 146.796 135.449 146.708 135.76 146.532C136.076 146.351 136.331 146.102 136.524 145.785C136.724 145.469 136.87 145.103 136.964 144.687C137.058 144.271 137.104 143.825 137.104 143.351ZM140.365 143.351V143.148C140.365 142.463 140.465 141.827 140.664 141.241C140.863 140.649 141.15 140.137 141.525 139.703C141.9 139.264 142.354 138.924 142.888 138.684C143.421 138.438 144.019 138.314 144.681 138.314C145.349 138.314 145.949 138.438 146.482 138.684C147.021 138.924 147.479 139.264 147.854 139.703C148.234 140.137 148.524 140.649 148.724 141.241C148.923 141.827 149.022 142.463 149.022 143.148V143.351C149.022 144.036 148.923 144.672 148.724 145.258C148.524 145.844 148.234 146.356 147.854 146.796C147.479 147.229 147.024 147.569 146.491 147.815C145.964 148.056 145.366 148.176 144.698 148.176C144.03 148.176 143.43 148.056 142.896 147.815C142.363 147.569 141.906 147.229 141.525 146.796C141.15 146.356 140.863 145.844 140.664 145.258C140.465 144.672 140.365 144.036 140.365 143.351ZM141.991 143.148V143.351C141.991 143.825 142.047 144.273 142.158 144.695C142.27 145.111 142.437 145.48 142.659 145.803C142.888 146.125 143.172 146.38 143.512 146.567C143.852 146.749 144.247 146.84 144.698 146.84C145.144 146.84 145.533 146.749 145.867 146.567C146.207 146.38 146.488 146.125 146.711 145.803C146.934 145.48 147.101 145.111 147.212 144.695C147.329 144.273 147.388 143.825 147.388 143.351V143.148C147.388 142.68 147.329 142.237 147.212 141.821C147.101 141.399 146.931 141.027 146.702 140.705C146.479 140.377 146.198 140.119 145.858 139.932C145.524 139.744 145.132 139.65 144.681 139.65C144.235 139.65 143.843 139.744 143.503 139.932C143.169 140.119 142.888 140.377 142.659 140.705C142.437 141.027 142.27 141.399 142.158 141.821C142.047 142.237 141.991 142.68 141.991 143.148ZM152.688 139.984V148H151.062V138.49H152.644L152.688 139.984ZM155.658 138.438L155.649 139.949C155.515 139.92 155.386 139.902 155.263 139.896C155.146 139.885 155.011 139.879 154.858 139.879C154.483 139.879 154.152 139.938 153.865 140.055C153.578 140.172 153.335 140.336 153.136 140.547C152.937 140.758 152.778 141.01 152.661 141.303C152.55 141.59 152.477 141.906 152.441 142.252L151.984 142.516C151.984 141.941 152.04 141.402 152.151 140.898C152.269 140.395 152.447 139.949 152.688 139.562C152.928 139.17 153.232 138.865 153.602 138.648C153.977 138.426 154.422 138.314 154.938 138.314C155.055 138.314 155.189 138.329 155.342 138.358C155.494 138.382 155.6 138.408 155.658 138.438ZM161.872 135.203H166.108C167.069 135.203 167.881 135.35 168.543 135.643C169.211 135.936 169.718 136.369 170.063 136.943C170.415 137.512 170.591 138.212 170.591 139.044C170.591 139.63 170.471 140.166 170.23 140.652C169.996 141.133 169.656 141.543 169.211 141.883C168.771 142.217 168.244 142.466 167.629 142.63L167.154 142.814H163.173L163.155 141.435H166.161C166.771 141.435 167.277 141.329 167.682 141.118C168.086 140.901 168.391 140.611 168.596 140.248C168.801 139.885 168.903 139.483 168.903 139.044C168.903 138.552 168.807 138.121 168.613 137.752C168.42 137.383 168.115 137.099 167.699 136.899C167.289 136.694 166.759 136.592 166.108 136.592H163.568V148H161.872V135.203ZM169.352 148L166.24 142.199L168.007 142.19L171.162 147.895V148H169.352ZM172.287 143.351V143.148C172.287 142.463 172.387 141.827 172.586 141.241C172.785 140.649 173.072 140.137 173.447 139.703C173.822 139.264 174.276 138.924 174.81 138.684C175.343 138.438 175.94 138.314 176.603 138.314C177.271 138.314 177.871 138.438 178.404 138.684C178.943 138.924 179.4 139.264 179.775 139.703C180.156 140.137 180.446 140.649 180.646 141.241C180.845 141.827 180.944 142.463 180.944 143.148V143.351C180.944 144.036 180.845 144.672 180.646 145.258C180.446 145.844 180.156 146.356 179.775 146.796C179.4 147.229 178.946 147.569 178.413 147.815C177.886 148.056 177.288 148.176 176.62 148.176C175.952 148.176 175.352 148.056 174.818 147.815C174.285 147.569 173.828 147.229 173.447 146.796C173.072 146.356 172.785 145.844 172.586 145.258C172.387 144.672 172.287 144.036 172.287 143.351ZM173.913 143.148V143.351C173.913 143.825 173.969 144.273 174.08 144.695C174.191 145.111 174.358 145.48 174.581 145.803C174.81 146.125 175.094 146.38 175.434 146.567C175.773 146.749 176.169 146.84 176.62 146.84C177.065 146.84 177.455 146.749 177.789 146.567C178.129 146.38 178.41 146.125 178.633 145.803C178.855 145.48 179.022 145.111 179.134 144.695C179.251 144.273 179.31 143.825 179.31 143.351V143.148C179.31 142.68 179.251 142.237 179.134 141.821C179.022 141.399 178.853 141.027 178.624 140.705C178.401 140.377 178.12 140.119 177.78 139.932C177.446 139.744 177.054 139.65 176.603 139.65C176.157 139.65 175.765 139.744 175.425 139.932C175.091 140.119 174.81 140.377 174.581 140.705C174.358 141.027 174.191 141.399 174.08 141.821C173.969 142.237 173.913 142.68 173.913 143.148ZM182.553 143.351V143.148C182.553 142.463 182.652 141.827 182.852 141.241C183.051 140.649 183.338 140.137 183.713 139.703C184.088 139.264 184.542 138.924 185.075 138.684C185.608 138.438 186.206 138.314 186.868 138.314C187.536 138.314 188.137 138.438 188.67 138.684C189.209 138.924 189.666 139.264 190.041 139.703C190.422 140.137 190.712 140.649 190.911 141.241C191.11 141.827 191.21 142.463 191.21 143.148V143.351C191.21 144.036 191.11 144.672 190.911 145.258C190.712 145.844 190.422 146.356 190.041 146.796C189.666 147.229 189.212 147.569 188.679 147.815C188.151 148.056 187.554 148.176 186.886 148.176C186.218 148.176 185.617 148.056 185.084 147.815C184.551 147.569 184.094 147.229 183.713 146.796C183.338 146.356 183.051 145.844 182.852 145.258C182.652 144.672 182.553 144.036 182.553 143.351ZM184.179 143.148V143.351C184.179 143.825 184.234 144.273 184.346 144.695C184.457 145.111 184.624 145.48 184.847 145.803C185.075 146.125 185.359 146.38 185.699 146.567C186.039 146.749 186.435 146.84 186.886 146.84C187.331 146.84 187.721 146.749 188.055 146.567C188.395 146.38 188.676 146.125 188.898 145.803C189.121 145.48 189.288 145.111 189.399 144.695C189.517 144.273 189.575 143.825 189.575 143.351V143.148C189.575 142.68 189.517 142.237 189.399 141.821C189.288 141.399 189.118 141.027 188.89 140.705C188.667 140.377 188.386 140.119 188.046 139.932C187.712 139.744 187.319 139.65 186.868 139.65C186.423 139.65 186.03 139.744 185.69 139.932C185.356 140.119 185.075 140.377 184.847 140.705C184.624 141.027 184.457 141.399 184.346 141.821C184.234 142.237 184.179 142.68 184.179 143.148ZM194.866 140.38V148H193.231V138.49H194.778L194.866 140.38ZM194.532 142.885L193.776 142.858C193.782 142.208 193.867 141.607 194.031 141.057C194.195 140.5 194.438 140.017 194.761 139.606C195.083 139.196 195.484 138.88 195.965 138.657C196.445 138.429 197.002 138.314 197.635 138.314C198.08 138.314 198.49 138.379 198.865 138.508C199.24 138.631 199.565 138.827 199.841 139.097C200.116 139.366 200.33 139.712 200.482 140.134C200.635 140.556 200.711 141.065 200.711 141.663V148H199.085V141.742C199.085 141.244 199 140.846 198.83 140.547C198.666 140.248 198.432 140.031 198.127 139.896C197.822 139.756 197.465 139.686 197.055 139.686C196.574 139.686 196.173 139.771 195.851 139.94C195.528 140.11 195.271 140.345 195.077 140.644C194.884 140.942 194.743 141.285 194.655 141.672C194.573 142.053 194.532 142.457 194.532 142.885ZM200.693 141.988L199.604 142.322C199.609 141.801 199.694 141.3 199.858 140.819C200.028 140.339 200.271 139.911 200.588 139.536C200.91 139.161 201.306 138.865 201.774 138.648C202.243 138.426 202.779 138.314 203.383 138.314C203.893 138.314 204.344 138.382 204.736 138.517C205.135 138.651 205.469 138.859 205.738 139.141C206.014 139.416 206.222 139.771 206.362 140.204C206.503 140.638 206.573 141.153 206.573 141.751V148H204.938V141.733C204.938 141.2 204.854 140.787 204.684 140.494C204.52 140.195 204.285 139.987 203.98 139.87C203.682 139.747 203.324 139.686 202.908 139.686C202.551 139.686 202.234 139.747 201.959 139.87C201.684 139.993 201.452 140.163 201.265 140.38C201.077 140.591 200.934 140.834 200.834 141.109C200.74 141.385 200.693 141.678 200.693 141.988ZM63.0918 162.898L65.0078 161.536C65.377 161.284 65.6611 161.032 65.8604 160.78C66.0654 160.522 66.168 160.171 66.168 159.726C66.168 159.38 66.0332 159.066 65.7637 158.785C65.4941 158.498 65.1133 158.354 64.6211 158.354C64.2812 158.354 63.9941 158.434 63.7598 158.592C63.5254 158.75 63.3496 158.961 63.2324 159.225C63.1152 159.482 63.0566 159.767 63.0566 160.077C63.0566 160.341 63.1211 160.613 63.25 160.895C63.3789 161.176 63.5576 161.469 63.7861 161.773C64.0146 162.078 64.2754 162.4 64.5684 162.74L70.624 170H68.6729L63.707 164.059C63.2676 163.543 62.875 163.071 62.5293 162.644C62.1836 162.21 61.9111 161.791 61.7119 161.387C61.5186 160.982 61.4219 160.563 61.4219 160.13C61.4219 159.462 61.5537 158.899 61.8174 158.442C62.0869 157.979 62.4619 157.628 62.9424 157.388C63.4229 157.147 63.9854 157.027 64.6299 157.027C65.2568 157.027 65.7959 157.153 66.2471 157.405C66.7041 157.651 67.0557 157.979 67.3018 158.39C67.5479 158.794 67.6709 159.239 67.6709 159.726C67.6709 160.136 67.5977 160.505 67.4512 160.833C67.3047 161.155 67.0996 161.451 66.8359 161.721C66.5781 161.99 66.2764 162.254 65.9307 162.512L63.3906 164.401C62.9688 164.712 62.6611 165.008 62.4678 165.289C62.2744 165.57 62.1484 165.819 62.0898 166.036C62.0371 166.253 62.0107 166.426 62.0107 166.555C62.0107 166.971 62.1016 167.352 62.2832 167.697C62.4648 168.043 62.7402 168.321 63.1094 168.532C63.4844 168.737 63.9531 168.84 64.5156 168.84C65.0078 168.84 65.4854 168.729 65.9482 168.506C66.417 168.277 66.8359 167.955 67.2051 167.539C67.5742 167.117 67.8672 166.616 68.084 166.036C68.3066 165.45 68.418 164.803 68.418 164.094H69.877C69.877 164.674 69.8213 165.222 69.71 165.737C69.5986 166.253 69.4258 166.733 69.1914 167.179C68.9629 167.618 68.6699 168.02 68.3125 168.383C68.2598 168.436 68.2188 168.497 68.1895 168.567C68.1602 168.638 68.1191 168.699 68.0664 168.752C67.627 169.227 67.085 169.584 66.4404 169.824C65.8018 170.059 65.1602 170.176 64.5156 170.176C63.666 170.176 62.9307 170.021 62.3096 169.71C61.6943 169.399 61.2197 168.972 60.8857 168.427C60.5518 167.882 60.3848 167.258 60.3848 166.555C60.3848 166.016 60.499 165.541 60.7275 165.131C60.9619 164.721 61.2812 164.337 61.6855 163.979C62.0957 163.622 62.5645 163.262 63.0918 162.898ZM83.4561 166.766C83.4561 166.467 83.4092 166.203 83.3154 165.975C83.2275 165.74 83.0693 165.529 82.8408 165.342C82.6182 165.154 82.3076 164.976 81.9092 164.806C81.5166 164.636 81.0186 164.463 80.415 164.287C79.7822 164.1 79.2109 163.892 78.7012 163.663C78.1914 163.429 77.7549 163.162 77.3916 162.863C77.0283 162.564 76.75 162.222 76.5566 161.835C76.3633 161.448 76.2666 161.006 76.2666 160.508C76.2666 160.01 76.3691 159.55 76.5742 159.128C76.7793 158.706 77.0723 158.34 77.4531 158.029C77.8398 157.713 78.2998 157.467 78.833 157.291C79.3662 157.115 79.9609 157.027 80.6172 157.027C81.5781 157.027 82.3926 157.212 83.0605 157.581C83.7344 157.944 84.2471 158.422 84.5986 159.014C84.9502 159.6 85.126 160.227 85.126 160.895H83.4385C83.4385 160.414 83.3359 159.989 83.1309 159.62C82.9258 159.245 82.6152 158.952 82.1992 158.741C81.7832 158.524 81.2559 158.416 80.6172 158.416C80.0137 158.416 79.5156 158.507 79.123 158.688C78.7305 158.87 78.4375 159.116 78.2441 159.427C78.0566 159.737 77.9629 160.092 77.9629 160.49C77.9629 160.76 78.0186 161.006 78.1299 161.229C78.2471 161.445 78.4258 161.647 78.666 161.835C78.9121 162.022 79.2227 162.195 79.5977 162.354C79.9785 162.512 80.4326 162.664 80.96 162.811C81.6865 163.016 82.3135 163.244 82.8408 163.496C83.3682 163.748 83.8018 164.032 84.1416 164.349C84.4873 164.659 84.7422 165.014 84.9062 165.412C85.0762 165.805 85.1611 166.25 85.1611 166.748C85.1611 167.27 85.0557 167.741 84.8447 168.163C84.6338 168.585 84.332 168.945 83.9395 169.244C83.5469 169.543 83.0752 169.774 82.5244 169.938C81.9795 170.097 81.3701 170.176 80.6963 170.176C80.1045 170.176 79.5215 170.094 78.9473 169.93C78.3789 169.766 77.8604 169.52 77.3916 169.191C76.9287 168.863 76.5566 168.459 76.2754 167.979C76 167.492 75.8623 166.93 75.8623 166.291H77.5498C77.5498 166.73 77.6348 167.108 77.8047 167.425C77.9746 167.735 78.2061 167.993 78.499 168.198C78.7979 168.403 79.1348 168.556 79.5098 168.655C79.8906 168.749 80.2861 168.796 80.6963 168.796C81.2881 168.796 81.7891 168.714 82.1992 168.55C82.6094 168.386 82.9199 168.151 83.1309 167.847C83.3477 167.542 83.4561 167.182 83.4561 166.766ZM86.6465 165.351V165.148C86.6465 164.463 86.7461 163.827 86.9453 163.241C87.1445 162.649 87.4316 162.137 87.8066 161.703C88.1816 161.264 88.6357 160.924 89.1689 160.684C89.7021 160.438 90.2998 160.314 90.9619 160.314C91.6299 160.314 92.2305 160.438 92.7637 160.684C93.3027 160.924 93.7598 161.264 94.1348 161.703C94.5156 162.137 94.8057 162.649 95.0049 163.241C95.2041 163.827 95.3037 164.463 95.3037 165.148V165.351C95.3037 166.036 95.2041 166.672 95.0049 167.258C94.8057 167.844 94.5156 168.356 94.1348 168.796C93.7598 169.229 93.3057 169.569 92.7725 169.815C92.2451 170.056 91.6475 170.176 90.9795 170.176C90.3115 170.176 89.7109 170.056 89.1777 169.815C88.6445 169.569 88.1875 169.229 87.8066 168.796C87.4316 168.356 87.1445 167.844 86.9453 167.258C86.7461 166.672 86.6465 166.036 86.6465 165.351ZM88.2725 165.148V165.351C88.2725 165.825 88.3281 166.273 88.4395 166.695C88.5508 167.111 88.7178 167.48 88.9404 167.803C89.1689 168.125 89.4531 168.38 89.793 168.567C90.1328 168.749 90.5283 168.84 90.9795 168.84C91.4248 168.84 91.8145 168.749 92.1484 168.567C92.4883 168.38 92.7695 168.125 92.9922 167.803C93.2148 167.48 93.3818 167.111 93.4932 166.695C93.6104 166.273 93.6689 165.825 93.6689 165.351V165.148C93.6689 164.68 93.6104 164.237 93.4932 163.821C93.3818 163.399 93.2119 163.027 92.9834 162.705C92.7607 162.377 92.4795 162.119 92.1396 161.932C91.8057 161.744 91.4131 161.65 90.9619 161.65C90.5166 161.65 90.124 161.744 89.7842 161.932C89.4502 162.119 89.1689 162.377 88.9404 162.705C88.7178 163.027 88.5508 163.399 88.4395 163.821C88.3281 164.237 88.2725 164.68 88.2725 165.148ZM98.9688 162.521V170H97.3428V160.49H98.8809L98.9688 162.521ZM98.582 164.885L97.9053 164.858C97.9111 164.208 98.0078 163.607 98.1953 163.057C98.3828 162.5 98.6465 162.017 98.9863 161.606C99.3262 161.196 99.7305 160.88 100.199 160.657C100.674 160.429 101.198 160.314 101.772 160.314C102.241 160.314 102.663 160.379 103.038 160.508C103.413 160.631 103.732 160.83 103.996 161.105C104.266 161.381 104.471 161.738 104.611 162.178C104.752 162.611 104.822 163.142 104.822 163.769V170H103.188V163.751C103.188 163.253 103.114 162.854 102.968 162.556C102.821 162.251 102.607 162.031 102.326 161.896C102.045 161.756 101.699 161.686 101.289 161.686C100.885 161.686 100.516 161.771 100.182 161.94C99.8535 162.11 99.5693 162.345 99.3291 162.644C99.0947 162.942 98.9102 163.285 98.7754 163.672C98.6465 164.053 98.582 164.457 98.582 164.885ZM106.861 165.351V165.148C106.861 164.463 106.961 163.827 107.16 163.241C107.359 162.649 107.646 162.137 108.021 161.703C108.396 161.264 108.851 160.924 109.384 160.684C109.917 160.438 110.515 160.314 111.177 160.314C111.845 160.314 112.445 160.438 112.979 160.684C113.518 160.924 113.975 161.264 114.35 161.703C114.73 162.137 115.021 162.649 115.22 163.241C115.419 163.827 115.519 164.463 115.519 165.148V165.351C115.519 166.036 115.419 166.672 115.22 167.258C115.021 167.844 114.73 168.356 114.35 168.796C113.975 169.229 113.521 169.569 112.987 169.815C112.46 170.056 111.862 170.176 111.194 170.176C110.526 170.176 109.926 170.056 109.393 169.815C108.859 169.569 108.402 169.229 108.021 168.796C107.646 168.356 107.359 167.844 107.16 167.258C106.961 166.672 106.861 166.036 106.861 165.351ZM108.487 165.148V165.351C108.487 165.825 108.543 166.273 108.654 166.695C108.766 167.111 108.933 167.48 109.155 167.803C109.384 168.125 109.668 168.38 110.008 168.567C110.348 168.749 110.743 168.84 111.194 168.84C111.64 168.84 112.029 168.749 112.363 168.567C112.703 168.38 112.984 168.125 113.207 167.803C113.43 167.48 113.597 167.111 113.708 166.695C113.825 166.273 113.884 165.825 113.884 165.351V165.148C113.884 164.68 113.825 164.237 113.708 163.821C113.597 163.399 113.427 163.027 113.198 162.705C112.976 162.377 112.694 162.119 112.354 161.932C112.021 161.744 111.628 161.65 111.177 161.65C110.731 161.65 110.339 161.744 109.999 161.932C109.665 162.119 109.384 162.377 109.155 162.705C108.933 163.027 108.766 163.399 108.654 163.821C108.543 164.237 108.487 164.68 108.487 165.148ZM123.719 160.49H125.195V169.798C125.195 170.636 125.025 171.351 124.686 171.942C124.346 172.534 123.871 172.982 123.262 173.287C122.658 173.598 121.961 173.753 121.17 173.753C120.842 173.753 120.455 173.7 120.01 173.595C119.57 173.495 119.137 173.322 118.709 173.076C118.287 172.836 117.933 172.511 117.646 172.101L118.498 171.134C118.896 171.614 119.312 171.948 119.746 172.136C120.186 172.323 120.619 172.417 121.047 172.417C121.562 172.417 122.008 172.32 122.383 172.127C122.758 171.934 123.048 171.646 123.253 171.266C123.464 170.891 123.569 170.428 123.569 169.877V162.582L123.719 160.49ZM117.171 165.351V165.166C117.171 164.439 117.256 163.78 117.426 163.188C117.602 162.591 117.851 162.078 118.173 161.65C118.501 161.223 118.896 160.895 119.359 160.666C119.822 160.432 120.344 160.314 120.924 160.314C121.521 160.314 122.043 160.42 122.488 160.631C122.939 160.836 123.32 161.138 123.631 161.536C123.947 161.929 124.196 162.403 124.378 162.96C124.56 163.517 124.686 164.146 124.756 164.85V165.658C124.691 166.355 124.565 166.982 124.378 167.539C124.196 168.096 123.947 168.57 123.631 168.963C123.32 169.355 122.939 169.657 122.488 169.868C122.037 170.073 121.51 170.176 120.906 170.176C120.338 170.176 119.822 170.056 119.359 169.815C118.902 169.575 118.51 169.238 118.182 168.805C117.854 168.371 117.602 167.861 117.426 167.275C117.256 166.684 117.171 166.042 117.171 165.351ZM118.797 165.166V165.351C118.797 165.825 118.844 166.271 118.938 166.687C119.037 167.103 119.187 167.469 119.386 167.785C119.591 168.102 119.852 168.351 120.168 168.532C120.484 168.708 120.862 168.796 121.302 168.796C121.841 168.796 122.286 168.682 122.638 168.453C122.989 168.225 123.268 167.923 123.473 167.548C123.684 167.173 123.848 166.766 123.965 166.326V164.208C123.9 163.886 123.801 163.575 123.666 163.276C123.537 162.972 123.367 162.702 123.156 162.468C122.951 162.228 122.696 162.037 122.392 161.896C122.087 161.756 121.729 161.686 121.319 161.686C120.874 161.686 120.49 161.779 120.168 161.967C119.852 162.148 119.591 162.4 119.386 162.723C119.187 163.039 119.037 163.408 118.938 163.83C118.844 164.246 118.797 164.691 118.797 165.166ZM129.291 161.984V170H127.665V160.49H129.247L129.291 161.984ZM132.262 160.438L132.253 161.949C132.118 161.92 131.989 161.902 131.866 161.896C131.749 161.885 131.614 161.879 131.462 161.879C131.087 161.879 130.756 161.938 130.469 162.055C130.182 162.172 129.938 162.336 129.739 162.547C129.54 162.758 129.382 163.01 129.265 163.303C129.153 163.59 129.08 163.906 129.045 164.252L128.588 164.516C128.588 163.941 128.644 163.402 128.755 162.898C128.872 162.395 129.051 161.949 129.291 161.562C129.531 161.17 129.836 160.865 130.205 160.648C130.58 160.426 131.025 160.314 131.541 160.314C131.658 160.314 131.793 160.329 131.945 160.358C132.098 160.382 132.203 160.408 132.262 160.438ZM139.021 168.374V163.479C139.021 163.104 138.944 162.778 138.792 162.503C138.646 162.222 138.423 162.005 138.124 161.853C137.825 161.7 137.456 161.624 137.017 161.624C136.606 161.624 136.246 161.694 135.936 161.835C135.631 161.976 135.391 162.16 135.215 162.389C135.045 162.617 134.96 162.863 134.96 163.127H133.334C133.334 162.787 133.422 162.45 133.598 162.116C133.773 161.782 134.025 161.48 134.354 161.211C134.688 160.936 135.086 160.719 135.549 160.561C136.018 160.396 136.539 160.314 137.113 160.314C137.805 160.314 138.414 160.432 138.941 160.666C139.475 160.9 139.891 161.255 140.189 161.729C140.494 162.198 140.646 162.787 140.646 163.496V167.926C140.646 168.242 140.673 168.579 140.726 168.937C140.784 169.294 140.869 169.602 140.98 169.859V170H139.284C139.202 169.812 139.138 169.563 139.091 169.253C139.044 168.937 139.021 168.644 139.021 168.374ZM139.302 164.234L139.319 165.377H137.676C137.213 165.377 136.8 165.415 136.437 165.491C136.073 165.562 135.769 165.67 135.522 165.816C135.276 165.963 135.089 166.147 134.96 166.37C134.831 166.587 134.767 166.842 134.767 167.135C134.767 167.434 134.834 167.706 134.969 167.952C135.104 168.198 135.306 168.395 135.575 168.541C135.851 168.682 136.188 168.752 136.586 168.752C137.084 168.752 137.523 168.646 137.904 168.436C138.285 168.225 138.587 167.967 138.81 167.662C139.038 167.357 139.161 167.062 139.179 166.774L139.873 167.557C139.832 167.803 139.721 168.075 139.539 168.374C139.357 168.673 139.114 168.96 138.81 169.235C138.511 169.505 138.153 169.73 137.737 169.912C137.327 170.088 136.864 170.176 136.349 170.176C135.704 170.176 135.139 170.05 134.652 169.798C134.172 169.546 133.797 169.209 133.527 168.787C133.264 168.359 133.132 167.882 133.132 167.354C133.132 166.845 133.231 166.396 133.431 166.01C133.63 165.617 133.917 165.292 134.292 165.034C134.667 164.771 135.118 164.571 135.646 164.437C136.173 164.302 136.762 164.234 137.412 164.234H139.302ZM144.83 162.318V173.656H143.195V160.49H144.689L144.83 162.318ZM151.237 165.166V165.351C151.237 166.042 151.155 166.684 150.991 167.275C150.827 167.861 150.587 168.371 150.271 168.805C149.96 169.238 149.576 169.575 149.119 169.815C148.662 170.056 148.138 170.176 147.546 170.176C146.942 170.176 146.409 170.076 145.946 169.877C145.483 169.678 145.091 169.388 144.769 169.007C144.446 168.626 144.188 168.169 143.995 167.636C143.808 167.103 143.679 166.502 143.608 165.834V164.85C143.679 164.146 143.811 163.517 144.004 162.96C144.197 162.403 144.452 161.929 144.769 161.536C145.091 161.138 145.48 160.836 145.938 160.631C146.395 160.42 146.922 160.314 147.52 160.314C148.117 160.314 148.647 160.432 149.11 160.666C149.573 160.895 149.963 161.223 150.279 161.65C150.596 162.078 150.833 162.591 150.991 163.188C151.155 163.78 151.237 164.439 151.237 165.166ZM149.603 165.351V165.166C149.603 164.691 149.553 164.246 149.453 163.83C149.354 163.408 149.198 163.039 148.987 162.723C148.782 162.4 148.519 162.148 148.196 161.967C147.874 161.779 147.49 161.686 147.045 161.686C146.635 161.686 146.277 161.756 145.973 161.896C145.674 162.037 145.419 162.228 145.208 162.468C144.997 162.702 144.824 162.972 144.689 163.276C144.561 163.575 144.464 163.886 144.399 164.208V166.484C144.517 166.895 144.681 167.281 144.892 167.645C145.103 168.002 145.384 168.292 145.735 168.515C146.087 168.731 146.529 168.84 147.062 168.84C147.502 168.84 147.88 168.749 148.196 168.567C148.519 168.38 148.782 168.125 148.987 167.803C149.198 167.48 149.354 167.111 149.453 166.695C149.553 166.273 149.603 165.825 149.603 165.351ZM154.938 156.5V170H153.312V156.5H154.938ZM154.551 164.885L153.874 164.858C153.88 164.208 153.977 163.607 154.164 163.057C154.352 162.5 154.615 162.017 154.955 161.606C155.295 161.196 155.699 160.88 156.168 160.657C156.643 160.429 157.167 160.314 157.741 160.314C158.21 160.314 158.632 160.379 159.007 160.508C159.382 160.631 159.701 160.83 159.965 161.105C160.234 161.381 160.439 161.738 160.58 162.178C160.721 162.611 160.791 163.142 160.791 163.769V170H159.156V163.751C159.156 163.253 159.083 162.854 158.937 162.556C158.79 162.251 158.576 162.031 158.295 161.896C158.014 161.756 157.668 161.686 157.258 161.686C156.854 161.686 156.484 161.771 156.15 161.94C155.822 162.11 155.538 162.345 155.298 162.644C155.063 162.942 154.879 163.285 154.744 163.672C154.615 164.053 154.551 164.457 154.551 164.885ZM165.897 169.016L168.543 160.49H170.283L166.469 171.468C166.381 171.702 166.264 171.954 166.117 172.224C165.977 172.499 165.795 172.76 165.572 173.006C165.35 173.252 165.08 173.451 164.764 173.604C164.453 173.762 164.081 173.841 163.647 173.841C163.519 173.841 163.354 173.823 163.155 173.788C162.956 173.753 162.815 173.724 162.733 173.7L162.725 172.382C162.771 172.388 162.845 172.394 162.944 172.399C163.05 172.411 163.123 172.417 163.164 172.417C163.533 172.417 163.847 172.367 164.104 172.268C164.362 172.174 164.579 172.013 164.755 171.784C164.937 171.562 165.092 171.254 165.221 170.861L165.897 169.016ZM163.955 160.49L166.425 167.873L166.847 169.587L165.678 170.185L162.18 160.49H163.955Z" fill="#0F0F0F"/>
<rect x="73" y="15" width="84" height="77" rx="5" fill="#EDF5FC"/>
<path d="M114.594 32.5C102.992 32.5 93.5 41.9922 93.5 53.5938C93.5 65.1953 102.992 74.6875 114.594 74.6875C126.195 74.6875 135.688 65.1953 135.688 53.5938C135.688 41.9922 126.195 32.5 114.594 32.5ZM120.219 42.3438C122.539 42.3438 124.438 44.2422 124.438 46.5625C124.438 47.3359 123.805 47.9688 123.031 47.9688C122.258 47.9688 121.625 47.3359 121.625 46.5625C121.625 45.7891 120.992 45.1562 120.219 45.1562C119.445 45.1562 118.812 45.7891 118.812 46.5625C118.812 47.3359 118.18 47.9688 117.406 47.9688C116.633 47.9688 116 47.3359 116 46.5625C116 44.2422 117.898 42.3438 120.219 42.3438ZM108.969 42.3438C111.289 42.3438 113.188 44.2422 113.188 46.5625C113.188 47.3359 112.555 47.9688 111.781 47.9688C111.008 47.9688 110.375 47.3359 110.375 46.5625C110.375 45.7891 109.742 45.1562 108.969 45.1562C108.195 45.1562 107.562 45.7891 107.562 46.5625C107.562 47.3359 106.93 47.9688 106.156 47.9688C105.383 47.9688 104.75 47.3359 104.75 46.5625C104.75 44.2422 106.648 42.3438 108.969 42.3438ZM114.594 66.25C107.633 66.25 101.938 60.5547 101.938 53.5938C101.938 52.8203 102.57 52.1875 103.344 52.1875C104.117 52.1875 104.75 52.8203 104.75 53.5938C104.75 59.0078 109.18 63.4375 114.594 63.4375C120.008 63.4375 124.438 59.0078 124.438 53.5938C124.438 52.8203 125.07 52.1875 125.844 52.1875C126.617 52.1875 127.25 52.8203 127.25 53.5938C127.25 60.5547 121.555 66.25 114.594 66.25Z" fill="url(#paint0_linear_27_215)"/>
<rect x="0.5" y="0.5" width="229" height="189" rx="9.5" stroke="url(#paint1_linear_27_215)"/>
<defs>
<linearGradient id="paint0_linear_27_215" x1="106.613" y1="69.0692" x2="131.547" y2="35.0563" gradientUnits="userSpaceOnUse">
<stop offset="0.33" stop-color="#52C5DC"/>
<stop offset="0.63" stop-color="#3C99D4"/>
<stop offset="0.895" stop-color="#3E7ABC"/>
</linearGradient>
<linearGradient id="paint1_linear_27_215" x1="115" y1="0" x2="115" y2="190" gradientUnits="userSpaceOnUse">
<stop offset="0.151042" stop-color="#FAFAFA"/>
<stop offset="0.864583" stop-color="#0457A7"/>
</linearGradient>
</defs>
</svg>
