<svg width="49" height="39" viewBox="0 0 49 39" fill="none" xmlns="http://www.w3.org/2000/svg">
<path d="M48.6699 12.4177C48.6699 15.6113 47.4271 18.6127 45.169 20.8707L27.5046 38.5352L13.7589 24.7905H16.6399L21.8864 16.113L26.6914 29.0853L30.5317 20.7966H38.4101V18.6481H29.1589L26.9127 23.4972L22.3537 11.1888L15.4282 22.6421H11.6104L9.83906 20.8707C5.1791 16.2097 5.1791 8.62676 9.83906 3.96572C12.0971 1.70771 15.0995 0.464844 18.2921 0.464844C21.4847 0.464844 24.4871 1.70771 26.7451 3.96572L27.5046 4.72519L28.2641 3.96572C30.5221 1.70771 33.5234 0.464844 36.716 0.464844C39.9097 0.464844 42.911 1.70771 45.169 3.96572C47.4271 6.22373 48.6699 9.2251 48.6699 12.4177ZM11.6104 22.6421H0.330078V24.7905H13.7589L11.6104 22.6421Z" fill="url(#paint0_linear_98_721)"/>
<defs>
<linearGradient id="paint0_linear_98_721" x1="15.355" y1="33.4652" x2="35.7883" y2="-1.92647" gradientUnits="userSpaceOnUse">
<stop offset="0.33" stop-color="#52C5DC"/>
<stop offset="0.63" stop-color="#3C99D4"/>
<stop offset="0.895" stop-color="#3E7ABC"/>
</linearGradient>
</defs>
</svg>
